<svg width="47" height="47" viewBox="0 0 47 47" fill="none" xmlns="http://www.w3.org/2000/svg">
<path fill-rule="evenodd" clip-rule="evenodd" d="M21.4889 29.3795C21.5312 29.4006 21.5946 29.4006 21.5946 29.4006V29.4429C21.6581 29.4429 21.7848 29.3583 21.7848 29.3583L24.0678 27.0753C24.0897 27.0534 24.1115 27.033 24.1326 27.0132C24.1933 26.9566 24.2478 26.9055 24.2793 26.8428C24.3214 26.7582 24.3425 26.6736 24.3004 26.589C24.2581 26.5046 24.1947 26.42 24.1101 26.42C23.2433 26.2297 22.4612 25.8069 21.8271 25.1728C21.0872 24.4541 20.6432 23.5027 20.5375 22.4246C20.4108 21.093 20.8759 19.7823 21.8271 18.8311L27.8094 12.8487C29.5006 11.1576 32.46 11.1576 34.151 12.8487C34.9967 13.7154 35.4618 14.8358 35.4618 16.0407C35.4618 17.2457 34.9967 18.3872 34.151 19.2327L31.4243 21.9386C31.3608 22.0018 31.3397 22.1076 31.3608 22.1922C31.6144 23.1013 31.7625 24.0524 31.7625 25.0038C31.7625 25.4687 31.7413 25.8703 31.6779 26.2085C31.6779 26.3143 31.7202 26.4412 31.8259 26.4835C31.9315 26.5467 32.0584 26.5256 32.143 26.4412L36.7723 21.8328C39.9644 18.6197 39.9644 13.4195 36.7723 10.2275C33.5804 7.03549 28.3802 7.03549 25.1881 10.2275L19.2058 16.2098C18.6774 16.7383 18.2546 17.3091 17.9375 17.8798C17.9304 17.8869 17.921 17.8939 17.9117 17.901C17.8929 17.9151 17.8741 17.9292 17.8741 17.9432C16.5635 20.2897 16.4578 23.1224 17.6204 25.5321C18.0221 26.3566 18.5294 27.0964 19.2058 27.7729C19.8611 28.4493 20.6432 28.999 21.4889 29.3795ZM10.2429 36.7761C11.8494 38.3616 13.9422 39.1649 16.035 39.1649L15.9715 39.186C18.0643 39.186 20.1781 38.3827 21.7636 36.7972L27.7459 30.8149C28.8451 29.7157 29.6061 28.3629 29.9444 26.862L30.0713 25.9318C30.1136 25.7205 30.1136 25.509 30.1136 25.2977V25.2131V25.0228V24.4521C30.1136 24.2406 30.0924 24.0293 30.0501 23.8601C30.029 23.6277 29.9867 23.4375 29.9444 23.2471C29.9023 23.0358 29.8388 22.8032 29.7542 22.5496C29.3948 21.3446 28.7184 20.2031 27.7671 19.2519C27.133 18.6177 26.3508 18.0681 25.5052 17.6665C25.4206 17.6031 25.2093 17.7087 25.2093 17.7087L22.9263 19.9918C22.8628 20.0553 22.7782 20.1397 22.715 20.2666C22.6727 20.33 22.6727 20.4146 22.715 20.499C22.7571 20.5836 22.8205 20.6471 22.9051 20.6471C23.7719 20.8163 24.554 21.2389 25.1881 21.8732C26.0338 22.7397 26.4989 23.8813 26.4777 25.1285C26.4566 25.8895 26.2662 26.6294 25.9069 27.2635C25.8223 27.4115 25.7167 27.5807 25.5475 27.7709C25.4629 27.8978 25.3573 28.0457 25.1881 28.2149L19.2058 34.1972C18.3602 35.0216 17.2187 35.4867 16.035 35.4867C14.8512 35.4867 13.6885 35.0216 12.8641 34.1972C12.0185 33.3304 11.5535 32.21 11.5535 31.0053C11.5535 29.8003 12.0185 28.6588 12.8641 27.8132L15.591 25.0862C15.6545 25.0016 15.6756 24.8961 15.6545 24.8115C15.2317 23.5007 15.1048 22.1691 15.2951 20.8372C15.3162 20.7317 15.2528 20.6048 15.1471 20.5625C15.0625 20.499 14.8512 20.6048 14.8512 20.6048L10.2429 25.192C8.67858 26.7351 7.83301 28.8067 7.83301 30.9841C7.83301 33.1614 8.69971 35.2329 10.2429 36.7761Z" fill="black"/>
</svg>
