<svg width="47" height="47" viewBox="0 0 47 47" fill="none" xmlns="http://www.w3.org/2000/svg">
<g clip-path="url(#clip0_1041_587)">
<path d="M46.5968 38.8077L38.6557 30.8665L42.5503 26.9719C42.8878 26.6345 43.0265 26.1464 42.9168 25.6819C42.8071 25.2174 42.4649 24.8429 42.0121 24.692L18.6445 16.9027C18.1498 16.7378 17.6042 16.8666 17.2354 17.2354C16.8666 17.6043 16.7378 18.1497 16.9027 18.6445L24.692 42.0122C24.843 42.465 25.2175 42.8073 25.6819 42.9169C26.1463 43.0268 26.6345 42.888 26.9719 42.5504L30.8666 38.6559L38.8078 46.5969C39.0766 46.8658 39.4291 47.0003 39.7814 47.0003C40.1337 47.0003 40.4862 46.8659 40.755 46.5969L46.5969 40.755C47.1347 40.2172 47.1347 39.3454 46.5968 38.8077ZM39.7813 43.6759L31.8401 35.7349C31.3025 35.1971 30.4305 35.1971 29.8928 35.7349L26.6 39.0277L20.3862 20.3863L39.0276 26.6001L35.7348 29.8929C35.1975 30.4301 35.197 31.3026 35.7348 31.8402L43.6759 39.7814L39.7813 43.6759Z" fill="black"/>
<path d="M17.9004 11.0156C18.6608 11.0156 19.2773 10.3991 19.2773 9.63867V1.37695C19.2773 0.616508 18.6608 0 17.9004 0C17.1399 0 16.5234 0.616508 16.5234 1.37695V9.63867C16.5234 10.3991 17.1399 11.0156 17.9004 11.0156Z" fill="black"/>
<path d="M7.19044 5.24315C6.65279 4.70541 5.7809 4.70541 5.24315 5.24315C4.70541 5.7809 4.70541 6.65269 5.24315 7.19044L11.0851 13.0324C11.6228 13.5701 12.4947 13.5701 13.0324 13.0324C13.5701 12.4946 13.5701 11.6229 13.0324 11.0851L7.19044 5.24315Z" fill="black"/>
<path d="M11.0851 22.7685L5.24315 28.6105C4.70541 29.1482 4.70541 30.02 5.24315 30.5578C5.78081 31.0955 6.65279 31.0955 7.19044 30.5578L13.0324 24.7158C13.5701 24.1781 13.5701 23.3063 13.0324 22.7685C12.4946 22.2308 11.6228 22.2308 11.0851 22.7685Z" fill="black"/>
<path d="M24.7158 13.0324L30.5578 7.19044C31.0955 6.65269 31.0955 5.7809 30.5578 5.24315C30.0201 4.70541 29.1482 4.70541 28.6105 5.24315L22.7685 11.0851C22.2308 11.6229 22.2308 12.4946 22.7685 13.0324C23.3062 13.5701 24.1782 13.5701 24.7158 13.0324Z" fill="black"/>
<path d="M11.0156 17.9004C11.0156 17.1399 10.3991 16.5234 9.63867 16.5234H1.37695C0.616508 16.5234 0 17.1399 0 17.9004C0 18.6608 0.616508 19.2773 1.37695 19.2773H9.63867C10.3991 19.2773 11.0156 18.6608 11.0156 17.9004Z" fill="black"/>
</g>
<defs>
<clipPath id="clip0_1041_587">
<rect width="47" height="47" fill="white"/>
</clipPath>
</defs>
</svg>
