<svg width="36" height="36" viewBox="0 0 36 36" fill="none" xmlns="http://www.w3.org/2000/svg">
<path d="M29.039 36.0082L27.0501 34.0194L30.616 30.4535H12.6559C7.22773 30.4535 2.81155 26.0373 2.81155 20.6091V18.0041H5.62423V20.6091C5.62423 24.4865 8.77864 27.6408 12.6559 27.6408H30.616L27.0501 24.075L29.039 22.0861L36 29.0471L29.039 36.0082ZM33.1884 18.0041H30.3758V15.399C30.3758 11.5217 27.2214 8.36736 23.3441 8.36736H5.38402L8.94986 11.9331L6.96102 13.922L0 6.96102L6.96102 0L8.94986 1.98877L5.38402 5.55468H23.3441C28.7723 5.55468 33.1884 9.97087 33.1884 15.399V18.0041Z" fill="black"/>
</svg>
