<svg width="47" height="47" viewBox="0 0 47 47" fill="none" xmlns="http://www.w3.org/2000/svg">
<path d="M5.87347 27.5937C6.31409 27.5937 6.75031 27.3969 7.03818 27.0209L7.67709 26.1911C8.63325 31.8634 12.6062 36.7161 18.2462 38.674C19.9823 39.2762 21.7639 39.5655 23.522 39.5655C28.786 39.5655 33.8517 36.9688 36.8847 32.3965C37.3326 31.7209 37.1476 30.8088 36.4719 30.3609C35.7934 29.91 34.8857 30.098 34.4348 30.7736C31.1316 35.7585 24.8703 37.8676 19.2112 35.8995C14.5156 34.2692 11.2403 30.1817 10.5412 25.4347L11.7984 26.4026C12.4432 26.8946 13.3641 26.7771 13.8576 26.1338C14.3526 25.4905 14.2336 24.5696 13.5903 24.0746C13.5903 24.0746 10.1167 21.4 10.1079 21.3941C9.3779 20.8316 8.3395 20.5158 7.67856 21.378L4.71168 25.2305C4.21672 25.8738 4.33568 26.7947 4.979 27.2897C5.24484 27.4939 5.56062 27.5937 5.87347 27.5937Z" fill="black"/>
<path d="M10.5302 16.6439C11.2044 17.0919 12.1165 16.9068 12.5674 16.2312C15.8706 11.2477 22.1378 9.1386 27.791 11.1053C32.4866 12.7356 35.7619 16.8231 36.461 21.5701L35.2038 20.6022C34.559 20.1087 33.6381 20.2262 33.1446 20.871C32.6496 21.5143 32.7686 22.4352 33.4119 22.9302C33.4119 22.9302 36.8855 25.6033 36.8943 25.6106C37.6375 26.182 38.6524 26.5022 39.3236 25.6268L42.2905 21.7743C42.7855 21.1309 42.6665 20.21 42.0232 19.7151C41.3799 19.2201 40.4575 19.3405 39.964 19.9839L39.3251 20.8137C38.3689 15.1414 34.396 10.2886 28.756 8.33079C21.8235 5.92498 14.1625 8.50557 10.1175 14.6068C9.66956 15.2839 9.85462 16.1945 10.5302 16.6439Z" fill="black"/>
</svg>
