<?xml version="1.0" encoding="utf-8"?>
<!DOCTYPE svg PUBLIC "-//W3C//DTD SVG 20010904//EN" "http://www.w3.org/TR/2001/REC-SVG-20010904/DTD/svg10.dtd">
<svg version="1.0" xmlns="http://www.w3.org/2000/svg" width="514pt" height="514pt" viewBox="0 0 514 514" style="" preserveAspectRatio="xMidYMid meet">
<g fill="#000000FF" stroke="#000000FF">
<path d="M 112.907 104.327 C 106.756 107.574 102.787 113.526 102.221 120.353 C 101.335 131.038 98.891 128.161 165.849 195.250 L 227.478 257.000 165.849 318.750 C 98.955 385.774 101.336 382.976 102.213 393.560 C 103.023 403.327 110.678 410.977 120.452 411.788 C 131.022 412.664 128.235 415.035 195.250 348.151 L 257.000 286.522 318.750 348.151 C 385.774 415.045 382.976 412.664 393.560 411.787 C 403.327 410.977 410.977 403.322 411.788 393.548 C 412.664 382.978 415.036 385.765 348.147 318.746 L 286.514 256.992 347.722 195.746 C 390.318 153.124 409.397 133.369 410.465 130.782 C 415.791 117.881 407.233 103.347 393.647 102.221 C 382.962 101.335 385.840 98.890 318.746 165.853 L 256.992 227.486 195.746 166.278 C 153.124 123.682 133.369 104.603 130.782 103.535 C 125.274 101.261 118.114 101.578 112.907 104.327 "/></g>
</svg>
