<svg width="42" height="42" viewBox="0 0 42 42" fill="none" xmlns="http://www.w3.org/2000/svg">
<g clip-path="url(#clip0_1041_585)">
<path d="M22.8908 18.2345C22.8951 18.2458 22.8995 18.257 22.9041 18.2682C23.1275 18.8112 23.6509 19.1619 24.238 19.1619H24.2395C24.8272 19.1613 25.3507 18.8095 25.5732 18.2655C25.577 18.2563 25.5806 18.247 25.5842 18.2377L29.0954 9.0184C29.3373 8.38331 29.0186 7.67243 28.3835 7.4306C27.7483 7.18853 27.0375 7.50746 26.7957 8.14255L26.223 9.64618H22.2801L21.714 8.14608C21.4742 7.51034 20.7643 7.18943 20.1284 7.42937C19.4926 7.66931 19.1716 8.37921 19.4116 9.01503L22.8908 18.2345ZM25.2857 12.107L24.2424 14.8461L23.2087 12.107H25.2857Z" fill="black"/>
<path d="M28.8254 30.5151C28.8122 31.1782 29.3985 31.7617 30.0614 31.7456C30.0863 31.7454 32.5677 31.7344 33.2465 31.7344C35.3129 31.7344 36.9939 30.0534 36.9939 27.987C36.9939 26.8299 36.4665 25.7938 35.6398 25.1058C35.9653 24.5862 36.1543 23.9728 36.1543 23.3157C36.1543 21.4508 34.6371 19.9336 32.7722 19.9336H30.056C29.3764 19.9336 28.8255 20.4845 28.8255 21.1641V30.5151H28.8254ZM33.2465 29.2735C32.8858 29.2735 32.0242 29.2766 31.2864 29.2795V26.7023L33.2465 26.7004C33.9558 26.7004 34.533 27.2776 34.533 27.987C34.533 28.6963 33.9559 29.2735 33.2465 29.2735ZM32.7721 22.3945C33.28 22.3945 33.6933 22.8078 33.6933 23.3157C33.6933 23.8237 33.28 24.237 32.7721 24.237L31.2864 24.2395V22.3945H32.7721Z" fill="black"/>
<path d="M13.374 21.4476C14.0536 21.4476 14.6045 20.8967 14.6045 20.2171C14.6694 18.4257 17.2087 18.3593 17.3726 20.1418C17.4304 20.9134 16.762 21.6191 15.9896 21.6022C15.31 21.6022 14.7591 22.1532 14.7591 22.8327V25.5677C14.7591 26.2472 15.31 26.7982 15.9896 26.7982C16.6691 26.7982 17.2201 26.2472 17.2201 25.5677V23.8594C17.8075 23.6603 18.3456 23.3208 18.7786 22.8648C19.512 22.0922 19.8856 21.0799 19.8303 20.0143C19.7264 18.0122 18.0739 16.4124 16.0683 16.3719C14.1211 16.3319 12.4494 17.7559 12.1806 19.682C12.156 19.8581 12.1436 20.0381 12.1436 20.2171C12.1436 20.8968 12.6945 21.4476 13.374 21.4476Z" fill="black"/>
<path d="M17.1953 30.2276C17.0332 29.3303 15.9033 28.9272 15.2085 29.5164C14.4527 30.1219 14.7003 31.3753 15.6318 31.6443C16.4967 31.9267 17.391 31.1161 17.1953 30.2276Z" fill="black"/>
<path d="M40.7695 2.44552H9.01417C8.18508 0.986918 6.61631 0 4.82016 0C2.16234 0 0 2.15939 0 4.81359V37.0373C0 39.7413 2.17801 41.9468 4.87405 41.9966L34.2075 42C34.8871 42 35.438 41.4491 35.438 40.7695V36.816H40.7695C41.4491 36.816 42 36.265 42 35.5855V3.67598C42 2.99636 41.4491 2.44552 40.7695 2.44552ZM4.82016 2.46094C6.12101 2.46094 7.17937 3.51635 7.17937 4.81359V32.5951C6.50606 32.2611 5.75244 32.0771 4.96699 32.0771C4.05333 32.0771 3.19717 32.3258 2.46086 32.7574V4.81359C2.46094 3.51635 3.5193 2.46094 4.82016 2.46094ZM32.9771 39.5391L4.96707 39.5364C3.58518 39.5364 2.46094 38.4153 2.46094 37.0373C2.46094 35.6592 3.58518 34.538 4.96707 34.538C5.97712 34.538 6.88382 35.1377 7.27707 36.0656C7.4769 36.5372 7.93644 36.8192 8.4187 36.816H32.9771L32.9771 39.5391ZM39.5391 34.355H9.64031V4.90645H39.5391V34.355Z" fill="black"/>
</g>
<defs>
<clipPath id="clip0_1041_585">
<rect width="42" height="42" fill="white"/>
</clipPath>
</defs>
</svg>
