<svg width="42" height="42" viewBox="0 0 42 42" fill="none" xmlns="http://www.w3.org/2000/svg">
<g clip-path="url(#clip0_1041_590)">
<path d="M22.1481 9.10658C21.7437 9.06493 21.3336 9.04346 20.9176 9.04346C14.3696 9.04346 9.04297 14.37 9.04297 20.9181C9.04297 27.4659 14.3696 32.7925 20.9176 32.7925C21.3336 32.7925 21.7437 32.7713 22.1481 32.7293C28.12 32.1119 32.7929 27.0509 32.7929 20.9181C32.7929 14.7853 28.12 9.72438 22.1481 9.10658ZM22.1481 30.2514V11.5845C26.7601 12.1892 30.3323 16.1436 30.3323 20.9181C30.3323 25.6926 26.7601 29.6471 22.1481 30.2514Z" fill="black"/>
<path d="M20.918 7.26329C21.5973 7.26329 22.1484 6.71214 22.1484 6.03282V1.14844C22.1484 0.468796 21.5973 -0.0820312 20.918 -0.0820312C20.2383 -0.0820312 19.6875 0.468796 19.6875 1.14844V6.03282C19.6875 6.71214 20.2383 7.26329 20.918 7.26329Z" fill="black"/>
<path d="M20.918 34.5728C20.2383 34.5728 19.6875 35.1239 19.6875 35.8032V40.6876C19.6875 41.3672 20.2383 41.9181 20.918 41.9181C21.5973 41.9181 22.1484 41.3672 22.1484 40.6876V35.8032C22.1484 35.1236 21.5976 34.5728 20.918 34.5728Z" fill="black"/>
<path d="M7.26329 20.918C7.26329 20.2383 6.71214 19.6875 6.03282 19.6875H1.14844C0.468796 19.6875 -0.0820312 20.2383 -0.0820312 20.918C-0.0820312 21.5973 0.468796 22.1484 1.14844 22.1484H6.03282C6.71214 22.1484 7.26329 21.5976 7.26329 20.918Z" fill="black"/>
<path d="M40.6871 19.6875H35.8027C35.1231 19.6875 34.5723 20.2383 34.5723 20.918C34.5723 21.5973 35.1231 22.1484 35.8027 22.1484H40.6871C41.3668 22.1484 41.9176 21.5973 41.9176 20.918C41.9176 20.2383 41.3668 19.6875 40.6871 19.6875Z" fill="black"/>
<path d="M9.22763 10.9671C9.46796 11.2074 9.78294 11.3276 10.0976 11.3276C10.4126 11.3276 10.7273 11.2074 10.9676 10.9671C11.4479 10.4865 11.4479 9.70747 10.9676 9.22714L7.41686 5.67641C6.93652 5.19575 6.15723 5.19575 5.6769 5.67641C5.19624 6.15674 5.19624 6.93571 5.6769 7.41637L9.22763 10.9671Z" fill="black"/>
<path d="M32.609 30.8688C32.1287 30.3881 31.3497 30.3881 30.869 30.8688C30.3887 31.3491 30.3887 32.1281 30.869 32.6087L34.4198 36.1595C34.6601 36.3998 34.9751 36.52 35.2898 36.52C35.6047 36.52 35.9194 36.3998 36.1597 36.1595C36.6401 35.6788 36.6401 34.8999 36.1597 34.4195L32.609 30.8688Z" fill="black"/>
<path d="M9.22739 30.8688L5.67665 34.4195C5.19632 34.8999 5.19632 35.6788 5.67665 36.1595C5.91698 36.3998 6.23165 36.52 6.54663 36.52C6.8613 36.52 7.17629 36.3998 7.41661 36.1595L10.9674 32.6087C11.4477 32.1281 11.4477 31.3491 10.9674 30.8688C10.487 30.3881 9.70772 30.3881 9.22739 30.8688Z" fill="black"/>
<path d="M31.7383 11.3276C32.0533 11.3276 32.3679 11.2074 32.6083 10.9671L36.159 7.41637C36.6393 6.93571 36.6393 6.15674 36.159 5.67641C35.6787 5.19575 34.8994 5.19575 34.419 5.67641L30.8683 9.22714C30.3876 9.70747 30.3876 10.4865 30.8683 10.9671C31.1086 11.2074 31.4233 11.3276 31.7383 11.3276Z" fill="black"/>
</g>
<defs>
<clipPath id="clip0_1041_590">
<rect width="42" height="42" fill="white"/>
</clipPath>
</defs>
</svg>
