<svg width="47" height="47" viewBox="0 0 47 47" fill="none" xmlns="http://www.w3.org/2000/svg">
<path d="M23.5001 18.8281C23.6371 18.8206 23.7743 18.8206 23.9113 18.8281L24.1757 16.625C23.9515 16.5979 23.7258 16.5856 23.5001 16.5882C22.5946 16.5892 21.6982 16.7689 20.8622 17.1169C20.0263 17.465 19.2673 17.9746 18.6287 18.6166C17.9902 19.2586 17.4846 20.0203 17.141 20.8581C16.7973 21.6959 16.6225 22.5932 16.6263 23.4987C16.6237 23.7269 16.636 23.9551 16.663 24.1817L18.8662 23.9026C18.8586 23.7681 18.8586 23.6332 18.8662 23.4987C18.8661 22.2663 19.3532 21.0839 20.2212 20.209C21.0891 19.3341 22.2677 18.8378 23.5001 18.8281Z" fill="black"/>
<path d="M11.3311 30.2476C8.73826 28.2867 6.39095 26.0208 4.33988 23.4987C6.38144 20.9871 14.298 12.0645 23.4997 12.0645C25.4771 12.0854 27.4346 12.461 29.2793 13.1734L30.0504 11.1098C27.9594 10.3038 25.7405 9.88094 23.4997 9.86133C11.7497 9.86133 2.43785 22.3457 2.04863 22.8451L1.57129 23.4987L2.04863 24.1523C4.34028 27.1145 7.01752 29.7571 10.0093 32.0101L11.3311 30.2476Z" fill="black"/>
<path d="M44.9512 22.8455C42.6596 19.8833 39.9823 17.2407 36.9906 14.9877C36.3296 14.4957 35.6467 14.0404 34.9564 13.5998L38.9661 9.59008L37.4092 8.0332L8.03418 37.4082L9.59106 38.9651L13.9973 34.5588C14.9478 35.0669 15.9289 35.5157 16.9348 35.9027C19.0322 36.7022 21.2556 37.12 23.5001 37.1365C35.2501 37.1365 44.562 24.6521 44.9512 24.1527L45.4286 23.4991L44.9512 22.8455ZM28.1487 23.0952C28.1562 23.2298 28.1562 23.3646 28.1487 23.4991C28.1487 24.7341 27.6597 25.9187 26.7885 26.794C25.9174 27.6693 24.735 28.1639 23.5001 28.1698H23.0595C22.3571 28.0971 21.6797 27.8688 21.0767 27.5015L27.4804 21.1051C27.8492 21.7101 28.0776 22.3902 28.1487 23.0952ZM23.5001 34.9334C21.5259 34.912 19.5713 34.5389 17.7279 33.8318C17.0376 33.5674 16.34 33.259 15.6423 32.9138L19.4831 29.073C20.4639 29.7853 21.6178 30.2215 22.8245 30.3362C23.0495 30.351 23.2752 30.351 23.5001 30.3362C25.3162 30.3343 27.0579 29.6145 28.3455 28.3338C29.6331 27.053 30.3622 25.3152 30.3739 23.4991C30.39 23.2865 30.39 23.0729 30.3739 22.8602C30.2631 21.6414 29.8269 20.4746 29.1107 19.4821L33.3921 15.2007C34.1779 15.6854 34.9564 16.1921 35.7054 16.7502C38.2854 18.7134 40.6203 20.9792 42.66 23.4991C40.6184 26.0107 32.7018 34.9334 23.5001 34.9334Z" fill="black"/>
</svg>
