<svg width="42" height="42" viewBox="0 0 42 42" fill="none" xmlns="http://www.w3.org/2000/svg">
<path d="M38.5 3.9375C38.8481 3.9375 39.1819 4.07578 39.4281 4.32192C39.6742 4.56806 39.8125 4.9019 39.8125 5.25L39.8125 36.75C39.8125 37.0981 39.6742 37.4319 39.4281 37.6781C39.1819 37.9242 38.8481 38.0625 38.5 38.0625C38.1519 38.0625 37.8181 37.9242 37.5719 37.6781C37.3258 37.4319 37.1875 37.0981 37.1875 36.75L37.1875 5.25C37.1875 4.9019 37.3258 4.56806 37.5719 4.32192C37.8181 4.07578 38.1519 3.9375 38.5 3.9375ZM4.8125 36.75L4.8125 5.25C4.8125 4.9019 4.67422 4.56806 4.42808 4.32192C4.18193 4.07578 3.8481 3.9375 3.5 3.9375C3.1519 3.9375 2.81806 4.07578 2.57192 4.32192C2.32578 4.56806 2.1875 4.9019 2.1875 5.25L2.1875 36.75C2.1875 37.0981 2.32578 37.4319 2.57192 37.6781C2.81806 37.9242 3.1519 38.0625 3.5 38.0625C3.8481 38.0625 4.18194 37.9242 4.42808 37.6781C4.67422 37.4319 4.8125 37.0981 4.8125 36.75ZM14.4375 16.975C14.6765 16.7273 14.8086 16.3957 14.8055 16.0516C14.8023 15.7075 14.6641 15.3783 14.4206 15.1351C14.1772 14.8919 13.8479 14.754 13.5038 14.7512C13.1597 14.7483 12.8282 14.8808 12.5807 15.12L7.63 20.0725C7.39322 20.3233 7.26132 20.6551 7.26132 21C7.26132 21.3449 7.39322 21.6767 7.63 21.9275L12.5807 26.8765C12.83 27.1041 13.1572 27.2269 13.4946 27.2195C13.832 27.2121 14.1536 27.075 14.3926 26.8367C14.6315 26.5984 14.7695 26.2772 14.7779 25.9398C14.7863 25.6025 14.6644 25.2748 14.4375 25.025L11.725 22.3125L29.5908 22.3125L26.88 25.025C26.641 25.2727 26.5089 25.6043 26.512 25.9484C26.5152 26.2925 26.6534 26.6217 26.8968 26.8649C27.1403 27.1081 27.4696 27.246 27.8137 27.2488C28.1578 27.2517 28.4893 27.1192 28.7367 26.88L33.6875 21.9275C33.8096 21.8059 33.9065 21.6613 33.9726 21.5022C34.0388 21.343 34.0728 21.1724 34.0728 21C34.0728 20.8276 34.0388 20.657 33.9726 20.4978C33.9065 20.3387 33.8096 20.1941 33.6875 20.0725L28.7367 15.1235C28.4875 14.8959 28.1603 14.7731 27.8229 14.7805C27.4855 14.7879 27.1639 14.925 26.9249 15.1633C26.686 15.4016 26.548 15.7228 26.5396 16.0601C26.5312 16.3975 26.6531 16.7252 26.88 16.975L29.5907 19.6875L11.725 19.6875L14.4375 16.975Z" fill="black"/>
</svg>
