<svg width="42" height="42" viewBox="0 0 42 42" fill="none" xmlns="http://www.w3.org/2000/svg">
<path d="M20.9998 40.9498C32.0179 40.9498 40.9498 32.0179 40.9498 20.9998C40.9498 9.98172 32.0179 1.0498 20.9998 1.0498C9.98172 1.0498 1.0498 9.98172 1.0498 20.9998C1.06258 32.0126 9.98702 40.937 20.9998 40.9498ZM20.9998 3.1136C30.8781 3.1136 38.886 11.1215 38.886 20.9998C38.886 30.8781 30.8781 38.886 20.9998 38.886C11.1215 38.886 3.1136 30.8781 3.1136 20.9998C3.12302 11.1254 11.1254 3.12302 20.9998 3.1136Z" fill="black"/>
<path d="M20.9997 35.9834C29.2746 35.9845 35.9837 29.2772 35.9849 21.0023C35.986 12.7273 29.2787 6.01822 21.0038 6.01709C21.0024 6.01709 21.001 6.01709 20.9997 6.01709C20.4305 6.01633 19.9685 6.47709 19.9678 7.04623C19.9678 7.04715 19.9678 7.04807 19.9678 7.04899V34.9515C19.967 35.5206 20.4278 35.9826 20.9969 35.9834C20.9978 35.9834 20.9988 35.9834 20.9997 35.9834Z" fill="black"/>
</svg>
