<svg width="57" height="57" viewBox="0 0 57 57" fill="none" xmlns="http://www.w3.org/2000/svg">
<g clip-path="url(#clip0_1041_580)">
<path d="M56.036 29.9509C48.424 25.4494 39.2053 24.8696 31.1794 28.2117C33.7991 25.0539 37.6654 22.8064 42.719 21.514C47.5788 20.2712 51.7638 20.4297 51.8425 20.4327C52.4945 20.4628 53.0445 19.9581 53.0737 19.3073C53.1028 18.6566 52.599 18.1053 51.9483 18.0762C51.7656 18.0683 47.4091 17.8906 42.1991 19.2123C35.9936 20.7864 31.2346 23.8467 28.3077 28.1154C25.3806 23.8467 20.6218 20.7864 14.4162 19.2123C9.20641 17.8906 4.85021 18.068 4.66705 18.0762C4.01671 18.1053 3.51335 18.656 3.5421 19.3064C3.57061 19.9568 4.11841 20.4608 4.77187 20.4328C4.81404 20.4309 9.01403 20.2656 13.8962 21.514C18.9497 22.8064 22.816 25.0539 25.4357 28.2117C17.4099 24.8696 8.19118 25.4494 0.579069 29.9509C0.220176 30.1632 0 30.5492 0 30.9662V37.3717C0 37.7953 0.227124 38.1864 0.595121 38.3963C0.96288 38.6061 1.41497 38.6025 1.77985 38.387C9.7759 33.658 19.711 33.658 27.707 38.387C27.8922 38.4964 28.0998 38.5512 28.3076 38.5512C28.5153 38.5512 28.7228 38.4964 28.9079 38.387C36.904 33.658 46.8391 33.658 54.8351 38.387C55.1998 38.6025 55.652 38.6061 56.0199 38.3963C56.3879 38.1864 56.615 37.7954 56.615 37.3717V30.9662C56.615 30.5492 56.3949 30.1632 56.036 29.9509ZM54.2561 35.3893C46.0618 31.3147 36.3468 31.5217 28.3076 36.0114C24.093 33.6577 19.4185 32.4813 14.7435 32.4813C10.5009 32.4813 6.25752 33.4507 2.35892 35.3893V31.6491C10.2519 27.2548 19.9028 27.3658 27.707 31.9814C28.0774 32.2005 28.5376 32.2005 28.9079 31.9814C36.7122 27.3658 46.363 27.2548 54.2561 31.6491V35.3893Z" fill="black"/>
</g>
<defs>
<clipPath id="clip0_1041_580">
<rect width="56.615" height="56.615" fill="white"/>
</clipPath>
</defs>
</svg>
