<svg width="47" height="47" viewBox="0 0 47 47" fill="none" xmlns="http://www.w3.org/2000/svg">
<g clip-path="url(#clip0_1041_581)">
<path d="M46.089 9.4457C46.0859 9.4457 46.0828 9.4457 46.0799 9.4457H42.9915V8.3889C43.0081 7.97063 42.7375 7.59471 42.3355 7.47787C40.1914 6.916 37.9835 6.63426 35.767 6.63973C32.1229 6.63973 27.1578 7.45965 23.4863 11.1949C19.8422 7.42321 14.8407 6.63973 11.2057 6.63973C8.98913 6.63426 6.78125 6.916 4.63714 7.47787C4.23515 7.59471 3.96457 7.97063 3.9812 8.3889V9.43659H0.911029C0.407913 9.43659 0 9.8445 0 10.3476V39.4459C0 39.949 0.407913 40.3569 0.911029 40.3569C1.0675 40.3565 1.22123 40.3157 1.35743 40.2385C1.44854 40.1929 10.5588 35.2096 23.2768 38.4164H23.4135H23.4954C23.5681 38.4252 23.6414 38.4252 23.7141 38.4164C36.4685 35.1823 45.5788 40.1565 45.6335 40.2385C45.9153 40.4012 46.2626 40.4012 46.5445 40.2385C46.8246 40.0768 46.9981 39.7785 47 39.455V10.3567C47 9.85361 46.5922 9.4457 46.089 9.4457ZM1.82206 37.9974V11.2678H3.99942V34.1164C3.99372 34.6195 4.39697 35.032 4.90008 35.0376C4.94928 35.0382 4.99848 35.0348 5.0471 35.0274C6.93179 34.7396 8.83459 34.5874 10.741 34.5719C13.3819 34.5261 16.0117 34.9233 18.5212 35.7471C12.8541 35.0618 7.10569 35.8364 1.82206 37.9974ZM10.741 32.7589C9.08399 32.7627 7.42887 32.8692 5.78504 33.0778V9.10862C7.55881 8.71346 9.37016 8.51178 11.1874 8.50734C14.5947 8.50734 19.2956 9.29082 22.5571 12.9714L22.5844 35.6651C20.6895 34.4261 16.9907 32.7589 10.741 32.7589ZM24.4065 12.9714C27.668 9.32726 32.3689 8.50734 35.7761 8.50734C37.5933 8.51269 39.4046 8.71425 41.1785 9.10862V33.0778C39.5439 32.8672 37.8979 32.7577 36.2499 32.7498C30.0366 32.7498 26.3287 34.417 24.4065 35.656V12.9714ZM45.1688 37.9974C39.8739 35.8305 34.1124 35.0558 28.4332 35.7471C30.9546 34.9204 33.5969 34.523 36.2499 34.5719C38.1683 34.5826 40.0834 34.7318 41.9802 35.0183C42.4777 35.0938 42.9422 34.7517 43.0177 34.2543C43.0251 34.2057 43.0285 34.1565 43.0279 34.1073V11.2678H45.2053L45.1688 37.9974Z" fill="black"/>
</g>
<defs>
<clipPath id="clip0_1041_581">
<rect width="47" height="47" fill="white"/>
</clipPath>
</defs>
</svg>
