<svg width="47" height="47" viewBox="0 0 47 47" fill="none" xmlns="http://www.w3.org/2000/svg">
<path d="M21.0571 37.257C20.4713 37.2519 20.0921 36.9777 19.8857 36.4046C19.4733 35.2604 19.0607 34.1161 18.6631 32.9667C18.5854 32.742 18.4814 32.6676 18.2398 32.6682C14.8517 32.6771 11.4635 32.6768 8.07536 32.669C7.83706 32.6684 7.72589 32.7343 7.64612 32.9666C7.25828 34.0957 6.85272 35.2188 6.44698 36.3417C6.20262 37.0179 5.84975 37.258 5.13566 37.2578C4.02859 37.2575 2.92161 37.2615 1.81454 37.2571C0.841311 37.2533 0.32321 36.5267 0.647253 35.6087C1.46893 33.2811 8.87023 12.4603 9.23953 11.4298C9.65941 10.258 10.4029 9.72928 11.6395 9.72588C12.657 9.72304 13.6747 9.72267 14.6923 9.72607C15.8933 9.7301 16.6433 10.2612 17.0614 11.382C17.3129 12.0563 24.9935 33.6977 25.6607 35.593C25.9923 36.535 25.4803 37.2515 24.4791 37.2575C23.8974 37.261 21.6162 37.2617 21.0571 37.257ZM13.1494 17.6538C12.0257 20.7933 10.9374 23.8334 9.83878 26.9027H16.4766C15.3716 23.8308 14.2784 20.7925 13.1494 17.6538Z" fill="black"/>
<path d="M46.4383 17.9403C46.4383 17.0541 45.9861 16.5966 45.1019 16.5899C44.4974 16.5858 43.8937 16.5879 43.2898 16.5879C42.3633 16.5879 41.9863 16.9018 41.8233 17.8484C41.6985 17.7867 41.6006 17.7384 41.5033 17.6888C38.689 16.2591 35.8371 16.1833 33.0442 17.6586C29.9548 19.2908 28.3112 21.9214 28.1086 25.4179C28.0569 26.3095 28.1019 27.2065 28.0885 28.1008C28.0757 29.0145 28.1925 29.9155 28.4857 30.7735C29.5839 33.9924 31.7609 36.0949 35.0656 36.9751C36.8803 37.4582 38.6736 37.324 40.4226 36.6511C40.8835 36.474 41.3262 36.252 41.7784 36.0506C41.928 36.9792 42.5707 37.3005 43.2503 37.2757C43.8648 37.2542 44.4814 37.2548 45.0959 37.2716C45.9042 37.2931 46.4523 36.7255 46.4497 35.9219C46.4288 29.9282 46.4383 23.9339 46.4383 17.9403ZM40.7009 28.0605C40.7009 29.9638 39.1585 31.5068 37.2547 31.5068C35.3513 31.5068 33.8083 29.9638 33.8083 28.0605V25.7768C33.8083 23.8729 35.3513 22.3299 37.2547 22.3299C38.2066 22.3299 39.068 22.7156 39.692 23.3395C40.3152 23.9635 40.701 24.8248 40.701 25.7768V28.0605H40.7009Z" fill="black"/>
</svg>
