<?xml version="1.0" encoding="utf-8"?>
<!DOCTYPE svg PUBLIC "-//W3C//DTD SVG 20010904//EN" "http://www.w3.org/TR/2001/REC-SVG-20010904/DTD/svg10.dtd">
<svg version="1.0" xmlns="http://www.w3.org/2000/svg" width="514pt" height="514pt" viewBox="0 0 514 514" style="" preserveAspectRatio="xMidYMid meet">
<g fill="#000000FF" stroke="#000000FF">
<path d="M 349.500 2.033 C 327.252 4.996 308.748 22.012 303.479 44.352 C 301.323 53.496 301.297 460.411 303.452 469.500 C 309.586 495.370 330.973 512.298 357.475 512.260 C 382.455 512.223 402.930 496.513 410.665 471.448 C 412.420 465.758 412.500 456.441 412.500 257.000 C 412.500 57.559 412.420 48.242 410.665 42.552 C 402.140 14.928 377.122 -1.646 349.500 2.033 "/></g>
<g fill="#000000FF" stroke="#000000FF">
<path d="M 148.951 2.051 C 127.202 5.292 110.166 20.418 103.335 42.552 C 101.580 48.242 101.500 57.559 101.500 257.000 C 101.500 456.441 101.580 465.758 103.335 471.448 C 111.070 496.513 131.545 512.223 156.525 512.260 C 183.027 512.298 204.414 495.370 210.548 469.500 C 212.680 460.509 212.680 53.491 210.548 44.500 C 206.681 28.192 195.997 14.488 181.470 7.204 C 172.383 2.648 159.085 0.541 148.951 2.051 "/></g>
</svg>
