<?xml version="1.0" encoding="utf-8"?>
<!DOCTYPE svg PUBLIC "-//W3C//DTD SVG 20010904//EN" "http://www.w3.org/TR/2001/REC-SVG-20010904/DTD/svg10.dtd">
<svg version="1.0" xmlns="http://www.w3.org/2000/svg" width="514pt" height="514pt" viewBox="0 0 514 514" style="" preserveAspectRatio="xMidYMid meet">
<g fill="#000000FF" stroke="#000000FF">
<path d="M 251.539 2.490 C 244.790 4.269 239.639 9.793 238.118 16.884 C 237.333 20.545 237.000 54.108 237.000 129.549 L 237.000 237.000 129.549 237.000 C 54.108 237.000 20.545 237.333 16.884 238.118 C -3.262 242.439 -3.262 271.561 16.884 275.882 C 20.545 276.667 54.108 277.000 129.549 277.000 L 237.000 277.000 237.000 384.451 C 237.000 459.892 237.333 493.455 238.118 497.116 C 242.439 517.262 271.561 517.262 275.882 497.116 C 276.667 493.455 277.000 459.892 277.000 384.451 L 277.000 277.000 384.451 277.000 C 459.892 277.000 493.455 276.667 497.116 275.882 C 517.262 271.561 517.262 242.439 497.116 238.118 C 493.455 237.333 459.892 237.000 384.451 237.000 L 277.000 237.000 277.000 129.549 C 277.000 54.717 276.664 20.530 275.892 16.933 C 273.490 5.734 262.950 -0.517 251.539 2.490 "/></g>
</svg>
