<svg width="47" height="47" viewBox="0 0 47 47" fill="none" xmlns="http://www.w3.org/2000/svg">
<path d="M42.5938 16.1562H17.625C17.2355 16.1562 16.8619 16.311 16.5864 16.5864C16.311 16.8619 16.1562 17.2355 16.1562 17.625C16.1562 18.0145 16.311 18.3881 16.5864 18.6636C16.8619 18.939 17.2355 19.0938 17.625 19.0938H42.5938C42.9833 19.0938 43.3569 18.939 43.6323 18.6636C43.9078 18.3881 44.0625 18.0145 44.0625 17.625C44.0625 17.2355 43.9078 16.8619 43.6323 16.5864C43.3569 16.311 42.9833 16.1562 42.5938 16.1562Z" fill="black"/>
<path d="M38.4372 22.0312H17.625C17.2355 22.0312 16.8619 22.186 16.5864 22.4614C16.311 22.7369 16.1562 23.1105 16.1562 23.5C16.1562 23.8895 16.311 24.2631 16.5864 24.5386C16.8619 24.814 17.2355 24.9688 17.625 24.9688H38.4372C38.8267 24.9688 39.2003 24.814 39.4758 24.5386C39.7512 24.2631 39.9059 23.8895 39.9059 23.5C39.9059 23.1105 39.7512 22.7369 39.4758 22.4614C39.2003 22.186 38.8267 22.0312 38.4372 22.0312Z" fill="black"/>
<path d="M34.2659 27.9062H17.625C17.2355 27.9062 16.8619 28.061 16.5864 28.3364C16.311 28.6119 16.1562 28.9855 16.1562 29.375C16.1562 29.7645 16.311 30.1381 16.5864 30.4136C16.8619 30.689 17.2355 30.8438 17.625 30.8438H34.2659C34.6555 30.8438 35.0291 30.689 35.3045 30.4136C35.5799 30.1381 35.7347 29.7645 35.7347 29.375C35.7347 28.9855 35.5799 28.6119 35.3045 28.3364C35.0291 28.061 34.6555 27.9062 34.2659 27.9062Z" fill="black"/>
<path d="M12.1761 14.2618C12.3126 14.3994 12.4751 14.5087 12.6541 14.5833C12.833 14.6578 13.025 14.6962 13.2189 14.6962C13.4128 14.6962 13.6048 14.6578 13.7837 14.5833C13.9627 14.5087 14.1252 14.3994 14.2617 14.2618C14.3994 14.1252 14.5086 13.9628 14.5832 13.7838C14.6578 13.6048 14.6962 13.4129 14.6962 13.219C14.6962 13.0251 14.6578 12.8331 14.5832 12.6541C14.5086 12.4751 14.3994 12.3127 14.2617 12.1762L9.85546 7.7699C9.71892 7.63224 9.55648 7.52297 9.3775 7.44841C9.19852 7.37384 9.00654 7.33545 8.81265 7.33545C8.61876 7.33545 8.42678 7.37384 8.2478 7.44841C8.06882 7.52297 7.90638 7.63224 7.76984 7.7699L3.36359 12.1762C3.08702 12.4527 2.93164 12.8278 2.93164 13.219C2.93164 13.6101 3.08702 13.9852 3.36359 14.2618C3.64016 14.5383 4.01527 14.6937 4.4064 14.6937C4.79753 14.6937 5.17264 14.5383 5.44921 14.2618L7.3439 12.3524V34.648L5.44921 32.7387C5.17264 32.4621 4.79753 32.3067 4.4064 32.3067C4.01527 32.3067 3.64016 32.4621 3.36359 32.7387C3.08702 33.0152 2.93164 33.3903 2.93164 33.7815C2.93164 34.1726 3.08702 34.5477 3.36359 34.8243L7.76984 39.2305C7.90638 39.3682 8.06882 39.4775 8.2478 39.552C8.42678 39.6266 8.61876 39.665 8.81265 39.665C9.00654 39.665 9.19852 39.6266 9.3775 39.552C9.55648 39.4775 9.71892 39.3682 9.85546 39.2305L14.2617 34.8243C14.3987 34.6873 14.5073 34.5248 14.5814 34.3458C14.6555 34.1669 14.6937 33.9751 14.6937 33.7815C14.6937 33.5878 14.6555 33.396 14.5814 33.2171C14.5073 33.0382 14.3987 32.8756 14.2617 32.7387C14.1248 32.6017 13.9622 32.4931 13.7833 32.419C13.6043 32.3449 13.4126 32.3067 13.2189 32.3067C13.0252 32.3067 12.8335 32.3449 12.6545 32.419C12.4756 32.4931 12.313 32.6017 12.1761 32.7387L10.2814 34.648V12.3524L12.1761 14.2618Z" fill="black"/>
</svg>
