<svg width="62" height="62" viewBox="0 0 62 62" fill="none" xmlns="http://www.w3.org/2000/svg">
<g clip-path="url(#clip0_1041_576)">
<mask id="mask0_1041_576" style="mask-type:luminance" maskUnits="userSpaceOnUse" x="0" y="0" width="62" height="62">
<path d="M62 0H0V62H62V0Z" fill="white"/>
</mask>
<g mask="url(#mask0_1041_576)">
<path d="M51.7799 18.479C52.2643 18.479 52.6518 18.8665 52.6518 19.3509V42.6493C52.6518 43.1337 52.2643 43.5212 51.7799 43.5212H10.2205C9.73613 43.5212 9.34863 43.1337 9.34863 42.6493V19.3509C9.34863 18.8665 9.73613 18.479 10.1963 18.479H51.7799ZM51.7799 17.0259H10.2205C8.93691 17.0259 7.89551 18.0673 7.89551 19.3509V42.6493C7.89551 43.9329 8.93691 44.9743 10.2205 44.9743H51.8041C53.0877 44.9743 54.1291 43.9329 54.1291 42.6493V19.3509C54.1049 18.0673 53.0635 17.0259 51.7799 17.0259ZM42.4072 41.8017H19.6416C18.8424 41.8017 18.1885 41.1478 18.1885 40.3485V38.6532C18.1885 37.854 18.8424 37.2001 19.6416 37.2001H42.4072C43.2064 37.2001 43.8604 37.854 43.8604 38.6532V40.3485C43.8604 41.1478 43.2064 41.8017 42.4072 41.8017ZM19.6416 38.6532V40.3485H42.4072V38.6532H19.6416ZM15.7424 41.8017H12.158C11.4072 41.8017 10.826 41.1478 10.826 40.3728V38.6532C10.826 37.854 11.4314 37.2243 12.158 37.2243H15.7424C16.4932 37.2243 17.0744 37.8782 17.0744 38.6532V40.3728C17.0744 41.1478 16.4689 41.8017 15.7424 41.8017ZM12.2791 40.3485H15.6213V38.6532H12.2791V40.3485ZM49.8424 41.8017H46.258C45.5072 41.8017 44.926 41.1478 44.926 40.3728V38.6532C44.926 37.854 45.5314 37.2243 46.258 37.2243H49.8424C50.5932 37.2243 51.1744 37.8782 51.1744 38.6532V40.3728C51.1744 41.1478 50.5932 41.8017 49.8424 41.8017ZM46.3791 40.3485H49.7213V38.6532H46.3791V40.3485ZM14.483 24.8001H12.2064C11.4314 24.8001 10.826 24.1462 10.826 23.347V21.6517C10.826 20.8524 11.4557 20.1985 12.2064 20.1985H14.483C15.258 20.1985 15.8635 20.8524 15.8635 21.6517V23.347C15.8635 24.1704 15.2338 24.8001 14.483 24.8001ZM12.2791 23.347H14.4104V21.6517H12.2791V23.347ZM20.3682 24.8001H18.0916C17.3166 24.8001 16.7111 24.1462 16.7111 23.347V21.6517C16.7111 20.8524 17.3408 20.1985 18.0916 20.1985H20.3682C21.1432 20.1985 21.7486 20.8524 21.7486 21.6517V23.347C21.7486 24.1704 21.1189 24.8001 20.3682 24.8001ZM18.1643 23.347H20.2955V21.6517H18.1643V23.347ZM26.2533 24.8001H23.9768C23.2018 24.8001 22.5963 24.1462 22.5963 23.347V21.6517C22.5963 20.8524 23.226 20.1985 23.9768 20.1985H26.2533C27.0283 20.1985 27.6338 20.8524 27.6338 21.6517V23.347C27.6338 24.1704 27.0041 24.8001 26.2533 24.8001ZM24.0494 23.347H26.1807V21.6517H24.0494V23.347ZM32.1385 24.8001H29.8619C29.0869 24.8001 28.4814 24.1462 28.4814 23.347V21.6517C28.4814 20.8524 29.1111 20.1985 29.8619 20.1985H32.1385C32.9135 20.1985 33.5189 20.8524 33.5189 21.6517V23.347C33.5189 24.1704 32.9135 24.8001 32.1385 24.8001ZM29.9346 23.347H32.0658V21.6517H29.9346V23.347ZM38.0236 24.8001H35.7471C34.9721 24.8001 34.3666 24.1462 34.3666 23.347V21.6517C34.3666 20.8524 34.9963 20.1985 35.7471 20.1985H38.0236C38.7986 20.1985 39.4041 20.8524 39.4041 21.6517V23.347C39.4041 24.1704 38.7986 24.8001 38.0236 24.8001ZM35.8197 23.347H37.951V21.6517H35.8197V23.347ZM43.9088 24.8001H41.6322C40.8572 24.8001 40.2518 24.1462 40.2518 23.347V21.6517C40.2518 20.8524 40.8814 20.1985 41.6322 20.1985H43.9088C44.6838 20.1985 45.2893 20.8524 45.2893 21.6517V23.347C45.2893 24.1704 44.6838 24.8001 43.9088 24.8001ZM41.7049 23.347H43.8361V21.6517H41.7049V23.347ZM49.7939 24.8001H47.5174C46.7424 24.8001 46.1369 24.1462 46.1369 23.347V21.6517C46.1369 20.8524 46.7666 20.1985 47.5174 20.1985H49.7939C50.5689 20.1985 51.1744 20.8524 51.1744 21.6517V23.347C51.1744 24.1704 50.5689 24.8001 49.7939 24.8001ZM47.59 23.347H49.7213V21.6517H47.59V23.347ZM14.483 30.4915H12.2064C11.4314 30.4915 10.826 29.8376 10.826 29.0384V27.3431C10.826 26.5438 11.4557 25.8899 12.2064 25.8899H14.483C15.258 25.8899 15.8635 26.5438 15.8635 27.3431V29.0384C15.8635 29.8376 15.2338 30.4915 14.483 30.4915ZM12.2791 29.0384H14.4104V27.3431H12.2791V29.0384ZM20.3682 30.4915H18.0916C17.3166 30.4915 16.7111 29.8376 16.7111 29.0384V27.3431C16.7111 26.5438 17.3408 25.8899 18.0916 25.8899H20.3682C21.1432 25.8899 21.7486 26.5438 21.7486 27.3431V29.0384C21.7486 29.8376 21.1189 30.4915 20.3682 30.4915ZM18.1643 29.0384H20.2955V27.3431H18.1643V29.0384ZM26.2533 30.4915H23.9768C23.2018 30.4915 22.5963 29.8376 22.5963 29.0384V27.3431C22.5963 26.5438 23.226 25.8899 23.9768 25.8899H26.2533C27.0283 25.8899 27.6338 26.5438 27.6338 27.3431V29.0384C27.6338 29.8376 27.0041 30.4915 26.2533 30.4915ZM24.0494 29.0384H26.1807V27.3431H24.0494V29.0384ZM32.1385 30.4915H29.8619C29.0869 30.4915 28.4814 29.8376 28.4814 29.0384V27.3431C28.4814 26.5438 29.1111 25.8899 29.8619 25.8899H32.1385C32.9135 25.8899 33.5189 26.5438 33.5189 27.3431V29.0384C33.5189 29.8376 32.9135 30.4915 32.1385 30.4915ZM29.9346 29.0384H32.0658V27.3431H29.9346V29.0384ZM38.0236 30.4915H35.7471C34.9721 30.4915 34.3666 29.8376 34.3666 29.0384V27.3431C34.3666 26.5438 34.9963 25.8899 35.7471 25.8899H38.0236C38.7986 25.8899 39.4041 26.5438 39.4041 27.3431V29.0384C39.4041 29.8376 38.7986 30.4915 38.0236 30.4915ZM35.8197 29.0384H37.951V27.3431H35.8197V29.0384ZM43.9088 30.4915H41.6322C40.8572 30.4915 40.2518 29.8376 40.2518 29.0384V27.3431C40.2518 26.5438 40.8814 25.8899 41.6322 25.8899H43.9088C44.6838 25.8899 45.2893 26.5438 45.2893 27.3431V29.0384C45.2893 29.8376 44.6838 30.4915 43.9088 30.4915ZM41.7049 29.0384H43.8361V27.3431H41.7049V29.0384ZM49.7939 30.4915H47.5174C46.7424 30.4915 46.1369 29.8376 46.1369 29.0384V27.3431C46.1369 26.5438 46.7666 25.8899 47.5174 25.8899H49.7939C50.5689 25.8899 51.1744 26.5438 51.1744 27.3431V29.0384C51.1744 29.8376 50.5689 30.4915 49.7939 30.4915ZM47.59 29.0384H49.7213V27.3431H47.59V29.0384ZM14.483 36.1587H12.2064C11.4314 36.1587 10.826 35.5048 10.826 34.7056V33.0103C10.826 32.211 11.4557 31.5571 12.2064 31.5571H14.483C15.258 31.5571 15.8635 32.211 15.8635 33.0103V34.7056C15.8635 35.5048 15.2338 36.1587 14.483 36.1587ZM12.2791 34.7056H14.4104V33.0103H12.2791V34.7056ZM20.3682 36.1587H18.0916C17.3166 36.1587 16.7111 35.5048 16.7111 34.7056V33.0103C16.7111 32.211 17.3408 31.5571 18.0916 31.5571H20.3682C21.1432 31.5571 21.7486 32.211 21.7486 33.0103V34.7056C21.7486 35.5048 21.1189 36.1587 20.3682 36.1587ZM18.1643 34.7056H20.2955V33.0103H18.1643V34.7056ZM26.2533 36.1587H23.9768C23.2018 36.1587 22.5963 35.5048 22.5963 34.7056V33.0103C22.5963 32.211 23.226 31.5571 23.9768 31.5571H26.2533C27.0283 31.5571 27.6338 32.211 27.6338 33.0103V34.7056C27.6338 35.5048 27.0041 36.1587 26.2533 36.1587ZM24.0494 34.7056H26.1807V33.0103H24.0494V34.7056ZM32.1385 36.1587H29.8619C29.0869 36.1587 28.4814 35.5048 28.4814 34.7056V33.0103C28.4814 32.211 29.1111 31.5571 29.8619 31.5571H32.1385C32.9135 31.5571 33.5189 32.211 33.5189 33.0103V34.7056C33.5189 35.5048 32.9135 36.1587 32.1385 36.1587ZM29.9346 34.7056H32.0658V33.0103H29.9346V34.7056ZM38.0236 36.1587H35.7471C34.9721 36.1587 34.3666 35.5048 34.3666 34.7056V33.0103C34.3666 32.211 34.9963 31.5571 35.7471 31.5571H38.0236C38.7986 31.5571 39.4041 32.211 39.4041 33.0103V34.7056C39.4041 35.5048 38.7986 36.1587 38.0236 36.1587ZM35.8197 34.7056H37.951V33.0103H35.8197V34.7056ZM43.9088 36.1587H41.6322C40.8572 36.1587 40.2518 35.5048 40.2518 34.7056V33.0103C40.2518 32.211 40.8814 31.5571 41.6322 31.5571H43.9088C44.6838 31.5571 45.2893 32.211 45.2893 33.0103V34.7056C45.2893 35.5048 44.6838 36.1587 43.9088 36.1587ZM41.7049 34.7056H43.8361V33.0103H41.7049V34.7056ZM49.7939 36.1587H47.5174C46.7424 36.1587 46.1369 35.5048 46.1369 34.7056V33.0103C46.1369 32.211 46.7666 31.5571 47.5174 31.5571H49.7939C50.5689 31.5571 51.1744 32.211 51.1744 33.0103V34.7056C51.1744 35.5048 50.5689 36.1587 49.7939 36.1587ZM47.59 34.7056H49.7213V33.0103H47.59V34.7056Z" fill="black"/>
</g>
</g>
<defs>
<clipPath id="clip0_1041_576">
<rect width="62" height="62" fill="white"/>
</clipPath>
</defs>
</svg>
