<svg width="47" height="47" viewBox="0 0 47 47" fill="none" xmlns="http://www.w3.org/2000/svg">
<g clip-path="url(#clip0_1041_586)">
<path d="M38.8082 46.5967L30.7743 38.5642L26.8801 42.4584C26.544 42.7945 26.0559 42.9331 25.5906 42.8255C25.1253 42.7152 24.7514 42.3737 24.6009 41.9205L16.8112 18.5526C16.6458 18.0578 16.7748 17.5118 17.1433 17.1434C17.5104 16.7763 18.0577 16.6418 18.5526 16.8113L41.9205 24.601C42.3737 24.7516 42.7152 25.1254 42.8254 25.5906C42.9344 26.0546 42.7959 26.5426 42.4583 26.8802L38.5641 30.7744L46.5966 38.8082C47.1345 39.346 47.1345 40.2174 46.5966 40.7553L40.7553 46.5966C40.2174 47.1346 39.346 47.1346 38.8082 46.5967Z" fill="black"/>
<path d="M17.9004 11.0156C17.1393 11.0156 16.5234 10.3998 16.5234 9.63867V1.37695C16.5234 0.615865 17.1393 0 17.9004 0C18.6615 0 19.2773 0.615865 19.2773 1.37695V9.63867C19.2773 10.3998 18.6615 11.0156 17.9004 11.0156Z" fill="black"/>
<path d="M11.0859 13.0325L5.24322 7.18984C4.70538 6.652 4.70538 5.78057 5.24322 5.24273C5.78106 4.7049 6.65249 4.7049 7.19033 5.24273L13.0329 11.0853C13.5708 11.6232 13.5708 12.4946 13.0329 13.0324C12.4951 13.5704 11.6237 13.5704 11.0859 13.0325Z" fill="black"/>
<path d="M5.24322 30.5578C4.70538 30.02 4.70538 29.1486 5.24322 28.6107L11.0858 22.7681C11.6237 22.2303 12.4951 22.2303 13.0329 22.7681C13.5708 23.306 13.5708 24.1774 13.0329 24.7152L7.19033 30.5578C6.65249 31.0957 5.78115 31.0957 5.24322 30.5578Z" fill="black"/>
<path d="M22.7676 13.0324C22.2298 12.4946 22.2298 11.6232 22.7676 11.0853L28.6102 5.24273C29.1481 4.7049 30.0195 4.7049 30.5573 5.24273C31.0952 5.78057 31.0952 6.652 30.5573 7.18984L24.7147 13.0324C24.1769 13.5703 23.3056 13.5703 22.7676 13.0324Z" fill="black"/>
<path d="M9.63867 19.2773H1.37695C0.615865 19.2773 0 18.6615 0 17.9004C0 17.1393 0.615865 16.5234 1.37695 16.5234H9.63867C10.3998 16.5234 11.0156 17.1393 11.0156 17.9004C11.0156 18.6615 10.3998 19.2773 9.63867 19.2773Z" fill="black"/>
</g>
<defs>
<clipPath id="clip0_1041_586">
<rect width="47" height="47" fill="white"/>
</clipPath>
</defs>
</svg>
