<svg width="54" height="54" viewBox="0 0 54 54" fill="none" xmlns="http://www.w3.org/2000/svg">
<path fill-rule="evenodd" clip-rule="evenodd" d="M27 16.3125C27.932 16.3125 28.6875 17.068 28.6875 18V29.25C28.6875 30.182 27.932 30.9375 27 30.9375C26.068 30.9375 25.3125 30.182 25.3125 29.25V18C25.3125 17.068 26.068 16.3125 27 16.3125Z" fill="black"/>
<path fill-rule="evenodd" clip-rule="evenodd" d="M44.1033 23.3966C44.7623 24.0556 44.7623 25.1242 44.1033 25.7832L36.2283 33.6582C35.5693 34.3172 34.501 34.3172 33.8419 33.6582C33.1829 32.9992 33.1829 31.9306 33.8419 31.2716L41.7169 23.3966C42.376 22.7376 43.4443 22.7376 44.1033 23.3966Z" fill="black"/>
<path fill-rule="evenodd" clip-rule="evenodd" d="M36.5625 40.5C36.5625 39.568 37.3181 38.8125 38.25 38.8125H49.5C50.432 38.8125 51.1875 39.568 51.1875 40.5C51.1875 41.432 50.432 42.1875 49.5 42.1875H38.25C37.3181 42.1875 36.5625 41.432 36.5625 40.5Z" fill="black"/>
<path fill-rule="evenodd" clip-rule="evenodd" d="M2.8125 40.5C2.8125 39.568 3.56803 38.8125 4.5 38.8125H15.75C16.682 38.8125 17.4375 39.568 17.4375 40.5C17.4375 41.432 16.682 42.1875 15.75 42.1875H4.5C3.56803 42.1875 2.8125 41.432 2.8125 40.5Z" fill="black"/>
<path fill-rule="evenodd" clip-rule="evenodd" d="M9.8966 23.3966C10.5556 22.7376 11.6241 22.7376 12.2831 23.3966L20.1581 31.2716C20.8171 31.9306 20.8171 32.9992 20.1581 33.6582C19.4991 34.3172 18.4306 34.3172 17.7716 33.6582L9.8966 25.7832C9.23759 25.1242 9.23759 24.0556 9.8966 23.3966Z" fill="black"/>
<path fill-rule="evenodd" clip-rule="evenodd" d="M23.0625 40.5C23.0625 39.568 23.8181 38.8125 24.75 38.8125H29.25C30.182 38.8125 30.9375 39.568 30.9375 40.5C30.9375 41.432 30.182 42.1875 29.25 42.1875H24.75C23.8181 42.1875 23.0625 41.432 23.0625 40.5Z" fill="black"/>
</svg>
