<svg width="42" height="42" viewBox="0 0 42 42" fill="none" xmlns="http://www.w3.org/2000/svg">
<path d="M5.25 7H36.75C37.2141 7 37.6592 6.81563 37.9874 6.48744C38.3156 6.15925 38.5 5.71413 38.5 5.25C38.5 4.78587 38.3156 4.34075 37.9874 4.01256C37.6592 3.68437 37.2141 3.5 36.75 3.5H5.25C4.78587 3.5 4.34075 3.68437 4.01256 4.01256C3.68437 4.34075 3.5 4.78587 3.5 5.25C3.5 5.71413 3.68437 6.15925 4.01256 6.48744C4.34075 6.81563 4.78587 7 5.25 7Z" fill="black"/>
<path d="M5.25 17.5H26.25C26.7141 17.5 27.1593 17.3156 27.4874 16.9874C27.8156 16.6592 28 16.2141 28 15.75C28 15.2859 27.8156 14.8408 27.4874 14.5126C27.1593 14.1844 26.7141 14 26.25 14H5.25C4.78587 14 4.34075 14.1844 4.01256 14.5126C3.68437 14.8408 3.5 15.2859 3.5 15.75C3.5 16.2141 3.68437 16.6592 4.01256 16.9874C4.34075 17.3156 4.78587 17.5 5.25 17.5Z" fill="black"/>
<path d="M5.25 28H36.75C37.2141 28 37.6592 27.8156 37.9874 27.4874C38.3156 27.1592 38.5 26.7141 38.5 26.25C38.5 25.7859 38.3156 25.3408 37.9874 25.0126C37.6592 24.6844 37.2141 24.5 36.75 24.5H5.25C4.78587 24.5 4.34075 24.6844 4.01256 25.0126C3.68437 25.3408 3.5 25.7859 3.5 26.25C3.5 26.7141 3.68437 27.1592 4.01256 27.4874C4.34075 27.8156 4.78587 28 5.25 28Z" fill="black"/>
<path d="M5.25 38.5H26.25C26.7141 38.5 27.1593 38.3156 27.4874 37.9874C27.8156 37.6592 28 37.2141 28 36.75C28 36.2859 27.8156 35.8408 27.4874 35.5126C27.1593 35.1844 26.7141 35 26.25 35H5.25C4.78587 35 4.34075 35.1844 4.01256 35.5126C3.68437 35.8408 3.5 36.2859 3.5 36.75C3.5 37.2141 3.68437 37.6592 4.01256 37.9874C4.34075 38.3156 4.78587 38.5 5.25 38.5Z" fill="black"/>
</svg>
