<svg width="42" height="42" viewBox="0 0 42 42" fill="none" xmlns="http://www.w3.org/2000/svg">
<path d="M36.75 8.75H5.25C4.25833 8.75 3.5 7.99167 3.5 7C3.5 6.00833 4.25833 5.25 5.25 5.25H36.75C37.7417 5.25 38.5 6.00833 38.5 7C38.5 7.99167 37.7417 8.75 36.75 8.75Z" fill="black"/>
<path d="M31.5 18.0835H10.5C9.50833 18.0835 8.75 17.3252 8.75 16.3335C8.75 15.3418 9.50833 14.5835 10.5 14.5835H31.5C32.4917 14.5835 33.25 15.3418 33.25 16.3335C33.25 17.3252 32.4917 18.0835 31.5 18.0835Z" fill="black"/>
<path d="M36.75 27.4165H5.25C4.25833 27.4165 3.5 26.6582 3.5 25.6665C3.5 24.6748 4.25833 23.9165 5.25 23.9165H36.75C37.7417 23.9165 38.5 24.6748 38.5 25.6665C38.5 26.6582 37.7417 27.4165 36.75 27.4165Z" fill="black"/>
<path d="M31.5 36.75H10.5C9.50833 36.75 8.75 35.9917 8.75 35C8.75 34.0083 9.50833 33.25 10.5 33.25H31.5C32.4917 33.25 33.25 34.0083 33.25 35C33.25 35.9917 32.4917 36.75 31.5 36.75Z" fill="black"/>
</svg>
