<svg width="42" height="42" viewBox="0 0 42 42" fill="none" xmlns="http://www.w3.org/2000/svg">
<path d="M36.75 3.5H5.25C4.78587 3.5 4.34075 3.68437 4.01256 4.01256C3.68437 4.34075 3.5 4.78587 3.5 5.25C3.5 5.71413 3.68437 6.15925 4.01256 6.48744C4.34075 6.81563 4.78587 7 5.25 7H36.75C37.2141 7 37.6592 6.81563 37.9874 6.48744C38.3156 6.15925 38.5 5.71413 38.5 5.25C38.5 4.78587 38.3156 4.34075 37.9874 4.01256C37.6592 3.68437 37.2141 3.5 36.75 3.5Z" fill="black"/>
<path d="M36.75 17.5C37.2141 17.5 37.6593 17.3156 37.9874 16.9874C38.3156 16.6592 38.5 16.2141 38.5 15.75C38.5 15.2859 38.3156 14.8408 37.9874 14.5126C37.6593 14.1844 37.2141 14 36.75 14H15.75C15.2859 14 14.8408 14.1844 14.5126 14.5126C14.1844 14.8408 14 15.2859 14 15.75C14 16.2141 14.1844 16.6592 14.5126 16.9874C14.8408 17.3156 15.2859 17.5 15.75 17.5H36.75Z" fill="black"/>
<path d="M3.5 26.25C3.5 26.7141 3.68437 27.1592 4.01256 27.4874C4.34075 27.8156 4.78587 28 5.25 28H36.75C37.2141 28 37.6592 27.8156 37.9874 27.4874C38.3156 27.1592 38.5 26.7141 38.5 26.25C38.5 25.7859 38.3156 25.3408 37.9874 25.0126C37.6592 24.6844 37.2141 24.5 36.75 24.5H5.25C4.78587 24.5 4.34075 24.6844 4.01256 25.0126C3.68437 25.3408 3.5 25.7859 3.5 26.25Z" fill="black"/>
<path d="M38.5 36.75C38.5 36.2859 38.3156 35.8408 37.9874 35.5126C37.6593 35.1844 37.2141 35 36.75 35H15.75C15.2859 35 14.8408 35.1844 14.5126 35.5126C14.1844 35.8408 14 36.2859 14 36.75C14 37.2141 14.1844 37.6592 14.5126 37.9874C14.8408 38.3156 15.2859 38.5 15.75 38.5H36.75C37.2141 38.5 37.6593 38.3156 37.9874 37.9874C38.3156 37.6592 38.5 37.2141 38.5 36.75Z" fill="black"/>
</svg>
