<svg width="178" height="37" viewBox="0 0 178 37" fill="none" xmlns="http://www.w3.org/2000/svg">
<g clip-path="url(#clip0_957_546)">
<path fill-rule="evenodd" clip-rule="evenodd" d="M23.9136 25.325L23.4299 25.6568L22.957 25.325L23.131 25.869L22.6473 26.2009H23.2397L23.4136 26.7449L23.6038 26.2009H24.1962L23.7234 25.869L23.9136 25.325ZM27.218 10.6359L26.718 10.3367L26.2397 10.6686L26.4191 10.1245L25.9354 9.79268H26.5223L26.7017 9.24864L26.8919 9.79268H27.4843L27.0115 10.1245L27.218 10.6359ZM21.9788 23.9377L21.4353 24.0628L21.12 23.5732L21.0766 24.1172L20.5331 24.2423L21.0766 24.4708L21.0331 25.0149L21.4135 24.5905L21.957 24.819L21.6472 24.3239L21.9788 23.9377ZM29.5387 10.7067L29.2181 10.2116L28.6746 10.3367L29.0387 9.90692L28.7235 9.41185L29.267 9.64035L29.6365 9.21056L29.5822 9.79268L30.1257 10.0212L29.5822 10.1463L29.5387 10.7067ZM20.707 21.9084L20.1092 21.7996L20.0113 21.2556L19.7559 21.7615L19.1798 21.6527L19.5928 22.0716L19.3374 22.5776L19.8809 22.3327L20.2994 22.7571L20.1961 22.1804L20.707 21.9084ZM31.642 11.3051L31.5225 10.723L30.979 10.6196L31.4844 10.3639L31.3648 9.79268L31.7833 10.2116L32.2833 9.95589L32.0388 10.4727L32.4573 10.8916L31.9138 10.7937L31.642 11.3051ZM19.9842 19.5854L19.4896 19.2589L19.62 18.7149L19.1907 19.0794L18.6961 18.7584L18.9243 19.3025L18.495 19.6724H19.0385L19.2667 20.2164L19.3917 19.6724L19.9842 19.5854ZM33.4518 12.1592L33.5769 11.5826L33.0877 11.2725L33.6312 11.2289L33.7508 10.6523L33.979 11.1963L34.5225 11.1528L34.0986 11.5336L34.3269 12.0776L33.8377 11.7621L33.4518 12.1592ZM20.1472 17.1481L19.8157 16.6639L20.1472 16.1906L19.6037 16.3647L19.2776 15.875V16.468L18.7341 16.6421L19.2776 16.838V17.4092L19.6091 16.9359L20.1472 17.1481ZM32.7018 26.1138L33.0334 25.6296L32.7018 25.1509L33.2453 25.3304L33.5769 24.8408V25.4392L34.1203 25.6133L33.5769 25.8037V26.4021L33.2508 25.9234L32.7018 26.1138ZM20.8863 14.7271L20.7668 14.145L21.2559 13.8349L20.7124 13.7859L20.5929 13.2092L20.3646 13.7533L19.8211 13.7097L20.2396 14.096L20.0113 14.6401L20.5005 14.33L20.8863 14.7271ZM30.3159 26.7503L30.8105 26.4293L30.6909 25.8853L31.1148 26.2553L31.6094 25.9343L31.3812 26.4783L31.8051 26.8483L31.2616 26.8156L31.0333 27.3597L30.9083 26.7884L30.3159 26.7503ZM22.2233 12.8883L22.332 12.3116L22.8755 12.2136L22.4027 11.9688L22.5114 11.3867L22.0929 11.8056L21.5929 11.5499L21.832 12.0668L21.4081 12.4857L21.9516 12.3877L22.2233 12.8883ZM27.7506 26.9571L28.3267 26.8483L28.4354 26.277L28.6854 26.7884L29.2615 26.6796L28.843 27.0985L29.0985 27.6045L28.5822 27.3597L28.1637 27.7786L28.2615 27.2019L27.7506 26.9571ZM24.131 11.5336L24.4571 11.0385L25.0006 11.1691L24.631 10.7339L24.9571 10.2442L24.4136 10.4673L24.0495 10.0375V10.6087L23.506 10.8318L24.0495 10.9624L24.131 11.5336ZM25.218 26.647L25.7941 26.7721L26.1039 26.2879L26.1473 26.8319L26.6908 26.9571L26.1473 27.1801L26.1854 27.7242L25.8049 27.2944L25.2614 27.5174L25.5767 27.0332L25.218 26.647ZM34.0986 27.5501L34.3649 27.7078L34.2399 27.9255L33.8649 27.7024C33.6529 27.8493 33.4355 27.9853 33.2127 28.1159L33.8595 28.5457L33.7236 28.7524L32.9736 28.2573C32.7507 28.377 32.5279 28.4967 32.2996 28.6055L33.2997 29.378L33.1529 29.5793L32.0279 28.7252C31.8051 28.8231 31.5768 28.921 31.3431 29.0081L32.7073 30.1288L32.5497 30.3247L31.0768 29.106C30.8485 29.1876 30.6203 29.2583 30.3866 29.3236L32.0659 30.8741L31.8975 31.0591L30.1039 29.378C29.8811 29.4379 29.6528 29.4923 29.4246 29.5358L31.4029 31.5651L31.229 31.7392L29.1311 29.6174C28.9083 29.6555 28.6854 29.6881 28.4572 29.7153L30.6964 32.2614L30.5116 32.4246L28.1583 29.748C27.9409 29.748 27.7235 29.7806 27.5061 29.7915L29.9572 32.8925L29.7615 33.0503L27.1963 29.7861H26.5713L29.18 33.4801L28.9789 33.6215L26.2615 29.7752C26.0604 29.7752 25.8593 29.7752 25.6636 29.7262L28.3811 34.0296L28.1746 34.1656L25.3484 29.7045L24.8049 29.6174L27.5604 34.5518L27.3484 34.6715L24.4571 29.5576C24.2832 29.5249 24.102 29.4868 23.9136 29.4433L26.631 35.0143L26.4082 35.1231L23.631 29.378C23.4679 29.3291 23.3049 29.2855 23.1473 29.2311L25.8104 35.4495L25.5821 35.5474L22.8266 29.1115L22.3864 28.9482L24.9027 35.8031L24.6745 35.9065L22.0766 28.834C21.9462 28.7796 21.8103 28.7197 21.6798 28.6545L23.9897 36.1241L23.7505 36.2003L21.3755 28.4913L21.0168 28.29L23.0549 36.3961L22.8266 36.4505L20.7287 28.1267C20.62 28.0669 20.5168 28.0016 20.4135 27.9363L22.1146 36.6409L21.8755 36.6899L20.1092 27.7459L19.8265 27.5501L21.1418 36.7987L20.8972 36.8313L19.5657 27.3597L19.3265 27.1692L20.1907 36.913H19.9461L19.0493 26.9516L18.8428 26.7721L19.207 36.9946H18.9624L18.5874 26.549L18.4135 26.3804L18.2341 36.9946H17.9895L18.1689 26.1138L18.0276 25.9615L17.2613 36.9619H17.0167L17.7939 25.7384L17.6743 25.5698L16.3047 36.8803L16.0547 36.8477L17.4732 25.3195L17.3917 25.1944L15.3264 36.7389L15.0819 36.7008L17.1634 24.9224L17.0873 24.819L14.3699 36.5484L14.1253 36.494L16.8917 24.5252L16.8482 24.4817L13.4405 36.3417L13.2014 36.271L16.6743 24.1988L16.6308 24.1281L12.5003 36.0207L12.272 35.9446L16.4623 23.818L16.4297 23.7581L11.5818 35.6834L11.3535 35.5909L16.2721 23.4752V23.4317L10.6905 35.2972L10.4676 35.1938L16.1091 23.1434L9.81544 34.8619L9.59804 34.7477L15.9678 22.8496L8.9676 34.3832L8.75563 34.2744L15.821 22.5449L8.15236 33.8609L7.9404 33.7303L15.7612 22.2511L7.34799 33.2951L7.15777 33.1428L15.6471 21.9954V21.9628L6.58711 32.6858L6.40232 32.528L15.5601 21.718V21.6908L5.8697 32.0275L5.69035 31.8588L15.4895 21.484V21.4568L5.16316 31.3529L4.99468 31.1734L15.4243 21.2447L4.50554 30.6293L4.34793 30.4661L15.3645 21.0107L3.88596 29.8731L3.73378 29.6773L15.321 20.7931L3.30986 29.0843L3.16855 28.883L15.2775 20.5755L2.7718 28.29L2.64136 28.0778L15.2177 20.3688V20.3361L2.28266 27.4249L2.17396 27.2019L15.2177 20.1729V20.1294L1.83156 26.5545L1.7283 26.3314L15.1797 19.9716V19.939L1.43482 25.6623L1.33699 25.4338L15.158 19.7812L1.08698 24.7483L1.00546 24.5143L15.1362 19.618V19.5854L0.777192 23.8234L0.706538 23.584L15.1199 19.4058V19.3732L0.543491 22.8768L0.461967 22.632L15.1362 19.2317V19.2045L0.342399 21.9247L0.271745 21.6745L15.0982 19.0413L0.157612 20.9509V20.7061L15.1199 18.8618L0.0543491 19.9771V19.7322L15.109 18.6877V18.6605L0 19.0032V18.753L15.0927 18.4973L0 18.024V17.7737L15.0819 18.3177V18.2851L0.0543491 17.0447V16.7944L15.0764 18.1654V18.1219L0.157612 16.0709L0.190222 15.8261L15.109 18.0022V17.9532L0.30979 15.1025L0.358704 14.8577L15.1199 17.8064V17.7628L0.543491 14.145L0.603275 13.9056L15.1308 17.6268V17.5833L0.771757 13.1984L0.84241 12.9644L15.1525 17.4418V17.4092L1.08698 12.268L1.17394 12.0396L15.1906 17.2569V17.2242L1.42395 11.3595L1.52177 11.131L15.2177 17.0665V17.0284L1.82613 10.4673L1.93483 10.2388L15.2177 16.8652V16.8108L2.27179 9.59682L2.39136 9.37921L15.2612 16.6693V16.6367L2.76093 8.74813L2.89137 8.53595L15.3047 16.4626V16.4354L3.29899 7.93207L3.4403 7.73077L15.3427 16.2613V16.2341L3.87509 7.14321L4.02727 6.94736L15.3971 16.0273V16.0001L4.48923 6.387L4.65771 6.20203L15.4569 15.8152V15.7771L5.13055 5.66343L5.30447 5.4839L15.5221 15.5812V15.5432L5.84252 4.97794L6.02188 4.80929L15.6036 15.3201V15.2875L6.5708 4.3523L6.76102 4.19453L15.6797 15.0807V15.0426L7.33169 3.71578L7.53278 3.56889L15.7612 14.7978L8.15236 3.14998L8.35889 3.01397L15.9134 14.5312L8.95129 2.6277L9.16325 2.50257L16.0167 14.2266L9.78283 2.14351L10.0002 2.02926L16.1417 13.9328L10.6687 1.70828L10.897 1.63211L16.3047 13.6009V13.5629L11.5655 1.32201L11.7937 1.23497L16.4841 13.3017L16.5167 13.2473L12.5003 0.984708L12.734 0.908543L16.7015 12.9699L16.7449 12.8991L13.4079 0.690928L13.6471 0.625643L16.908 12.6217L16.9678 12.5346L14.3536 0.451551L14.5927 0.402588L17.1526 12.2626L17.2287 12.1592L15.3047 0.261138L15.5493 0.223055L17.4352 11.8927L17.5276 11.773L16.2721 0.125129L16.5167 0.0979268L17.745 11.5227L17.8591 11.3921L17.2395 0.0380826H17.4895L18.0928 11.1419L18.2341 10.995L18.2124 0H18.4787V10.7339L18.6472 10.5707L19.1852 0H19.4352L18.8917 10.3367L19.0928 10.1681L20.1581 0.087046H20.4026L19.3863 9.94501L19.62 9.79268L21.1255 0.206734L21.3701 0.244817L19.9026 9.55874L20.1798 9.37377L22.082 0.375386L22.3266 0.42979L20.4733 9.1888L20.7831 8.99838L23.0331 0.598441L23.2723 0.658286L21.0983 8.81885C21.2124 8.75357 21.332 8.69372 21.4516 8.63388L23.9679 0.87046L24.2016 0.946625L21.7396 8.50331C21.8701 8.43802 22.0005 8.38362 22.1364 8.32378L24.8538 1.19144L25.0875 1.27849L22.4625 8.19865C22.6038 8.14424 22.7505 8.08984 22.9027 8.04088L25.7886 1.56139L26.0169 1.65931L23.2179 7.93751C23.3755 7.88311 23.5386 7.83958 23.7016 7.79606L26.6691 1.97486L26.8919 2.0891L24.0169 7.71445C24.1908 7.67093 24.3719 7.63285 24.5603 7.60021L27.5495 2.43729L27.7615 2.56242L24.881 7.54036L25.4245 7.45876L28.3648 2.94868L28.5713 3.08469L25.7397 7.43699L26.3376 7.39347L29.1691 3.50904L29.3485 3.64505L26.631 7.37171H27.2561L29.93 4.10748L30.1203 4.26526L27.5658 7.39891C27.7832 7.39891 28.0006 7.41523 28.218 7.44788L30.6692 4.72769L30.854 4.89634L28.5333 7.46964C28.7561 7.46964 28.9789 7.52948 29.2018 7.573L31.3757 5.39685L31.5496 5.57095L29.4952 7.61653C29.7235 7.66549 29.9518 7.71989 30.1746 7.77974L32.0659 6.10954L32.229 6.29452L30.4355 7.86678C30.6692 7.93751 30.8974 8.01367 31.1257 8.09528L32.6692 6.85487L32.8268 7.04529L31.4138 8.19321C31.6475 8.28025 31.8757 8.37818 32.0986 8.48155L33.2834 7.61653L33.4301 7.82326L32.3431 8.59035C32.5714 8.7046 32.7942 8.81885 33.0171 8.94398L33.8269 8.39994L33.9573 8.60668L33.2562 9.05823C33.479 9.1888 33.6964 9.33025 33.9084 9.47714L34.3323 9.23232L34.4573 9.44993L34.1421 9.62947L33.9573 9.50978L34.1421 9.64035C32.3489 8.52007 30.2775 7.9263 28.1637 7.92663C22.082 7.92663 17.1526 12.6815 17.1526 18.5462C17.1526 24.411 22.082 29.1659 28.1637 29.1659C30.2528 29.1726 32.3024 28.5961 34.0823 27.5011L33.9845 27.5718L34.0932 27.5011M26.8756 15.7009L26.9082 17.8771L24.9082 18.6714L26.9245 19.2426L26.9571 21.4188L28.1691 19.569L30.1909 20.1131L28.9246 18.4973L30.1366 16.6476L28.1419 17.4092L26.8756 15.7009Z" fill="#9D6331"/>
<path fill-rule="evenodd" clip-rule="evenodd" d="M51.4949 14.3951V12.8228H52.7178C53.3265 12.8228 53.7015 13.084 53.7015 13.6008C53.7015 14.0796 53.3482 14.3788 52.7232 14.3788L51.4949 14.3951ZM49.6742 17.8062H51.4949V15.8205H52.2938L53.6199 17.8062H55.7233L54.1526 15.5213C54.5603 15.3699 54.9103 15.0942 55.1531 14.733C55.396 14.3718 55.5193 13.9434 55.5059 13.5083C55.5217 13.2253 55.4782 12.942 55.378 12.6768C55.2779 12.4116 55.1233 12.1704 54.9243 11.9687C54.634 11.7112 54.2946 11.5153 53.9266 11.3928C53.5585 11.2703 53.1695 11.2238 52.783 11.256H49.6742V17.8062ZM56.0493 17.8062H57.87V16.1143L58.5385 15.3689L60.169 17.8062H62.343L59.7831 14.0687L62.2723 11.2451H60.0984L57.832 13.9109V11.2451H56.0113L56.0493 17.8062ZM64.3974 12.5508V11.2451H62.5658V12.5508H64.3974ZM62.5658 17.8062H64.3974V13.9055C64.0767 12.5617 62.5658 12.5508 62.5658 12.5508V17.8062ZM67.1203 17.8062H68.9518V15.3254L71.4464 11.2451H69.4083L68.0496 13.6389L66.6963 11.2451H64.6202L67.1203 15.3526V17.8062ZM71.6367 17.8062H76.9683V16.2611H73.4356V15.2329H76.5933V13.7858H73.4356V12.7956H76.9194V11.2451H71.6367V17.8062ZM48.9731 12.5508V11.2451H47.1198V12.5508H48.9731ZM44.7013 12.5508V11.2451H42.8534V12.5508H44.7013ZM44.7013 14.3461V13.9109C44.3806 12.5671 42.8534 12.5508 42.8534 12.5508V14.9283C42.8534 16.9847 44.0219 17.9531 45.8915 17.9531C47.7611 17.9531 48.9622 17.0282 48.9731 14.9228V13.9109C48.6524 12.5671 47.1198 12.5508 47.1198 12.5508V14.9391C47.1198 15.8586 46.6415 16.2883 45.9133 16.2883C45.185 16.2883 44.7013 15.8422 44.7013 14.8956V14.3461ZM39.2664 26.1626H41.0979V23.6764L43.5708 19.5852H41.5382L40.174 21.979L38.8207 19.5852H36.75L39.2446 23.6927L39.2664 26.1626ZM58.5983 26.1626H60.4299V23.6764L62.9245 19.5961H60.8701L59.5114 21.9899L58.1527 19.5852H50.4079V21.1248H53.5928L50.2938 24.8297V26.1517H56.1091V24.623H52.8101L56.1091 20.9181V19.6451L58.5766 23.7036L58.5983 26.1626ZM63.1528 26.1626H64.9789V19.5852H63.1528V26.1626ZM65.8104 26.1626H70.8106V24.5686H67.6094V19.5852H65.7887L65.8104 26.1626ZM71.2453 26.1626H73.0769V19.5852H71.2453V26.1626ZM49.7992 20.8963V19.5852H47.9459V20.8909L49.7992 20.8963ZM45.5274 20.8963V19.5852H43.6741V20.8909L45.5274 20.8963ZM45.5274 22.6917V22.2564C45.2067 20.9127 43.6741 20.8963 43.6741 20.8963V23.2738C43.6741 25.3303 44.848 26.2769 46.7176 26.2769C48.5872 26.2769 49.7883 25.352 49.7992 23.2466V22.2564C49.4785 20.9127 47.9459 20.8963 47.9459 20.8963V23.2847C47.9459 24.2041 47.4676 24.6339 46.7394 24.6339C46.0111 24.6339 45.5274 24.1878 45.5274 23.2466V22.6917ZM38.7229 17.7953H40.5436V12.8391H42.511V11.2451H36.75V12.8391H38.7229V17.7953Z" fill="#9D6331"/>
</g>
<line x1="87.4018" y1="10.8691" x2="87.4018" y2="26.1316" stroke="black" stroke-width="0.514602"/>
<g clip-path="url(#clip1_957_546)">
<path d="M100.511 31.2656L99.7413 33.9961L98.9688 31.2656C99.2213 31.3072 99.4768 31.325 99.7413 31.325C100.006 31.325 100.261 31.3043 100.511 31.2656Z" fill="#231F20"/>
<path d="M101.771 26.251V26.7918L100.82 30.1581C100.475 30.2591 100.113 30.3067 99.7384 30.3067C99.364 30.3067 98.9986 30.2562 98.6539 30.1581L97.7031 26.7918V26.248C98.3003 26.5957 98.9926 26.7918 99.7384 26.7918C100.484 26.7918 101.173 26.5927 101.771 26.251Z" fill="#231F20"/>
<path d="M101.768 3.98178C101.742 2.87947 100.844 2 99.739 2C99.4152 2 99.1091 2.07428 98.8358 2.21095L98.7348 2.26444L97.7038 2.80222L95.4992 3.96395L95.4071 4.00852C95.1634 4.14817 95 4.4126 95 4.71566V6.99159C95 7.44321 95.3655 7.80569 95.8141 7.80569C95.924 7.80569 96.028 7.78192 96.1231 7.74627H96.129L96.2212 7.69873L97.7067 6.94405V26.2508C98.304 26.5984 98.9962 26.7945 99.742 26.7945C100.488 26.7945 101.177 26.5955 101.774 26.2538V4.03526C101.774 4.01743 101.774 3.99961 101.774 3.98475L101.768 3.98178ZM97.7067 4.03526V3.98475C97.7067 4.00258 97.7067 4.0204 97.7067 4.03526Z" fill="#E31F26"/>
<path d="M124.524 1.99906C122.094 1.99906 119.916 3.07463 118.43 4.78603C116.936 3.07463 114.758 1.99906 112.327 1.99906C107.838 1.99906 104.195 5.68333 104.195 10.2263C104.195 10.4164 104.201 10.6096 104.216 10.7967V16.4331C104.201 16.6203 104.195 16.8104 104.195 17.0006C104.195 21.5465 107.838 25.2307 112.327 25.2307C114.758 25.2307 116.936 24.1552 118.427 22.4438C119.913 24.1522 122.094 25.2307 124.521 25.2307C129.014 25.2307 132.653 21.5465 132.653 17.0006V10.2233C132.653 5.68036 129.014 1.99609 124.521 1.99609L124.524 1.99906ZM116.395 17.0035C116.395 19.2765 114.574 21.1157 112.327 21.1157C110.081 21.1157 108.263 19.2765 108.263 17.0035V10.1758C108.29 7.92955 110.102 6.11118 112.327 6.11118C114.553 6.11118 116.395 7.95332 116.395 10.2233V17.0006V17.0035ZM128.589 17.0035C128.589 19.2765 126.767 21.1157 124.521 21.1157C122.275 21.1157 120.457 19.2765 120.457 17.0035V10.1758C120.483 7.92955 122.296 6.11118 124.521 6.11118C126.747 6.11118 128.562 7.92955 128.589 10.1758V17.0035Z" fill="#E31F26"/>
<path d="M131.459 29.2004C130.838 29.1321 130.208 29.0965 129.566 29.0965C125.29 29.0965 121.371 30.6385 118.344 33.1997C121.348 29.661 125.745 27.3435 130.689 27.085L131.456 29.2004H131.459Z" fill="#231F20"/>
<path d="M118.331 33.1818V33.1907C115.306 30.6355 111.393 29.0964 107.124 29.0964C106.5 29.0964 105.879 29.1321 105.27 29.1945L106.033 27.0879C110.953 27.3523 115.333 29.6639 118.328 33.1818H118.331Z" fill="#231F20"/>
<path d="M118.33 33.9869C118.182 33.9156 118.033 33.8413 117.881 33.7729C117.84 33.7521 117.804 33.7343 117.763 33.7195C115.074 32.4597 112.076 31.7555 108.908 31.7555C107.265 31.7555 105.67 31.9457 104.137 32.3022L104.966 30.0263C105.673 29.9371 106.392 29.8926 107.123 29.8926C111.181 29.8926 114.913 31.2831 117.872 33.6155C117.899 33.6363 117.923 33.6571 117.95 33.6779C118.078 33.7789 118.205 33.8799 118.327 33.9869H118.33Z" fill="#231F20"/>
<path d="M132.595 32.3111C131.05 31.9486 129.437 31.7555 127.782 31.7555C124.615 31.7555 121.617 32.4567 118.928 33.7195C118.889 33.7343 118.851 33.7521 118.812 33.77C118.658 33.8413 118.503 33.9185 118.352 33.9958C118.476 33.8858 118.607 33.7819 118.738 33.6779C118.765 33.6541 118.788 33.6363 118.815 33.6155C121.774 31.2831 125.512 29.8926 129.568 29.8926C130.311 29.8926 131.044 29.9371 131.763 30.0293L132.595 32.3111Z" fill="#231F20"/>
<path d="M120.718 28.5436C120.718 28.5644 120.718 28.5822 120.718 28.603C120.701 29.6221 120.207 30.5224 119.45 31.0929C119.432 31.1047 119.414 31.1196 119.396 31.1315C118.945 31.4672 118.57 31.901 118.303 32.4031C118.297 32.3259 118.297 32.2516 118.297 32.1744C118.297 31.9931 118.309 31.8119 118.336 31.6336C118.434 30.9294 118.725 30.2877 119.153 29.7588C119.153 29.7588 119.156 29.7529 119.159 29.7499C119.185 29.7202 119.209 29.6905 119.236 29.6578C119.236 29.6548 119.242 29.6518 119.245 29.6489C119.863 28.8942 120.24 27.9345 120.261 26.8916C120.552 27.3729 120.721 27.9375 120.721 28.5436H120.718Z" fill="#E31F26"/>
<path d="M119.928 26.8383C119.928 27.4593 119.791 28.0506 119.547 28.5824C119.532 28.6121 119.52 28.6418 119.503 28.6715C119.36 28.9687 119.179 29.245 118.971 29.4946C118.95 29.5183 118.926 29.5451 118.905 29.5718C118.668 29.857 118.472 30.175 118.317 30.5167C118.311 30.5285 118.305 30.5374 118.302 30.5493C118.082 31.0485 117.958 31.5982 117.952 32.1775C117.732 31.9577 117.562 31.6873 117.461 31.3842C117.461 31.3842 117.461 31.3813 117.461 31.3783C117.441 31.2892 117.423 31.1971 117.411 31.102C117.396 30.992 117.387 30.8791 117.387 30.7662C117.387 30.4186 117.456 30.0888 117.583 29.7887C117.583 29.7887 117.583 29.7857 117.583 29.7828C117.717 29.4678 117.91 29.1885 118.151 28.9568C118.166 28.9419 118.178 28.93 118.192 28.9152C118.273 28.8379 118.35 28.7547 118.421 28.6686C118.588 28.4695 118.724 28.2437 118.831 28.0001C118.986 27.6495 119.069 27.2662 119.069 26.8591C119.069 26.4134 118.968 25.9945 118.79 25.6201C118.781 25.6142 118.775 25.6112 118.766 25.6083C118.834 25.8519 118.87 26.1104 118.87 26.3778C118.87 27.2068 118.519 27.9495 117.964 28.4636C117.958 28.4695 117.949 28.4754 117.943 28.4814C117.916 28.5081 117.889 28.5319 117.863 28.5527C117.583 28.8171 117.363 29.144 117.23 29.5124C117.132 29.7828 117.078 30.0739 117.078 30.38C117.078 30.4513 117.081 30.5226 117.087 30.5939V30.5998C117.087 30.9029 117.155 31.1941 117.274 31.4526C117.197 31.3545 117.129 31.2535 117.063 31.1465C117.004 31.0515 116.947 30.9534 116.897 30.8494C116.609 30.2819 116.445 29.6372 116.445 28.9568C116.445 27.8396 116.882 26.8294 117.595 26.0777C117.613 26.0599 117.634 26.0391 117.652 26.0213C117.655 26.0153 117.661 26.0123 117.663 26.0064C118.21 25.433 118.546 24.6575 118.546 23.8018C118.546 23.778 118.546 23.7542 118.546 23.7305C118.926 24.0722 119.244 24.4822 119.476 24.9427C119.764 25.5102 119.928 26.155 119.928 26.8354V26.8383Z" fill="#E31F26"/>
<path d="M136.633 6.31934H141.859V7.83761H138.401V8.81216H141.494V10.2205H138.401V11.2426H141.859V12.7609H136.633V6.31934Z" fill="#231F20"/>
<path d="M142.414 9.55793V9.5401C142.414 7.73362 143.831 6.31934 145.751 6.31934C146.838 6.31934 147.608 6.65508 148.264 7.22258L147.254 8.43482C146.811 8.06342 146.369 7.8495 145.76 7.8495C144.865 7.8495 144.176 8.6012 144.176 9.54901V9.56684C144.176 10.5652 144.874 11.2842 145.858 11.2842C146.274 11.2842 146.592 11.195 146.85 11.0287V10.277H145.629V9.02014H148.478V11.8071C147.825 12.3479 146.912 12.7638 145.786 12.7638C143.858 12.7638 142.414 11.4357 142.414 9.5609V9.55793Z" fill="#231F20"/>
<path d="M143.633 4.60742H144.691C144.8 4.87483 145.023 5.02042 145.445 5.02042C145.867 5.02042 146.09 4.87186 146.209 4.60742H147.258C147.139 5.52849 146.467 5.99794 145.445 5.99794C144.423 5.99794 143.752 5.52849 143.633 4.60742Z" fill="#231F20"/>
<path d="M151.201 6.31934H149.406V12.7609H151.201V6.31934Z" fill="#231F20"/>
<path d="M151.093 4.60742H149.527V5.87612H151.093V4.60742Z" fill="#231F20"/>
<path d="M154.056 7.88515H152.125V6.31934H157.776V7.88515H155.845V12.7638H154.059V7.88515H154.056Z" fill="#231F20"/>
<path d="M158.699 6.31882H160.494V12.7603H158.699V6.31882ZM158.821 4.60742H160.387V5.87612H158.821V4.60742Z" fill="#231F20"/>
<path d="M161.422 6.31934H163.309L164.845 8.81513L166.381 6.31934H168.267V12.7609H166.491V9.06174L164.842 11.5843H164.806L163.169 9.07956V12.7609H161.422V6.31934Z" fill="#231F20"/>
<path d="M169.195 6.31882H170.99V12.7603H169.195V6.31882ZM169.314 4.60742H170.88V5.87612H169.314V4.60742Z" fill="#231F20"/>
<path d="M171.914 6.31934H173.581L176.231 9.72431V6.31934H177.999V12.7609H176.433L173.682 9.22812V12.7609H171.914V6.31934Z" fill="#231F20"/>
<path d="M139.081 20.2536L136.633 16.2217H138.665L139.99 18.5689L141.324 16.2217H143.321L140.873 20.2239V22.6632H139.078V20.2506L139.081 20.2536Z" fill="#E31F26"/>
<path d="M144.25 19.7752V16.2246H146.062V19.7395C146.062 20.6517 146.532 21.0855 147.251 21.0855C147.97 21.0855 148.439 20.6695 148.439 19.7841V16.2246H150.252V19.7306C150.252 21.7718 149.063 22.6661 147.233 22.6661C145.403 22.6661 144.25 21.754 144.25 19.7752Z" fill="#E31F26"/>
<path d="M146.99 14.4688H145.434V15.7701H146.99V14.4688Z" fill="#E31F26"/>
<path d="M149.076 14.4688H147.52V15.7701H149.076V14.4688Z" fill="#E31F26"/>
<path d="M151.069 21.3678L154.299 17.731H151.179V16.2217H156.765V17.5201L153.535 21.1568H156.765V22.6662H151.066V21.3678H151.069Z" fill="#E31F26"/>
<path d="M160.144 20.2536L157.695 16.2217H159.731L161.056 18.5689L162.39 16.2217H164.386L161.938 20.2239V22.6632H160.144V20.2506V20.2536Z" fill="#E31F26"/>
<path d="M165.309 16.2217H167.103V22.6632H165.309V16.2217Z" fill="#E31F26"/>
<path d="M168.031 16.2217H169.817V21.1004H172.937V22.6662H168.031V16.2247V16.2217Z" fill="#E31F26"/>
<path d="M173.859 16.2217H175.654V22.6632H173.859V16.2217Z" fill="#E31F26"/>
</g>
<defs>
<clipPath id="clip0_957_546">
<rect width="76.9691" height="37" fill="white"/>
</clipPath>
<clipPath id="clip1_957_546">
<rect width="83" height="31.9967" fill="white" transform="translate(95 2)"/>
</clipPath>
</defs>
</svg>
