<svg width="47" height="47" viewBox="0 0 47 47" fill="none" xmlns="http://www.w3.org/2000/svg">
<path d="M17.625 2.9375H7.34375C4.91444 2.9375 2.9375 4.91444 2.9375 7.34375V17.625C2.9375 20.0543 4.91444 22.0312 7.34375 22.0312H17.625C20.0543 22.0312 22.0312 20.0543 22.0312 17.625V7.34375C22.0312 4.91444 20.0543 2.9375 17.625 2.9375ZM19.0938 17.625C19.0938 18.4343 18.4343 19.0938 17.625 19.0938H7.34375C6.53447 19.0938 5.875 18.4343 5.875 17.625V7.34375C5.875 6.53447 6.53447 5.875 7.34375 5.875H17.625C18.4343 5.875 19.0938 6.53447 19.0938 7.34375V17.625ZM17.625 24.9688H7.34375C4.91444 24.9688 2.9375 26.9457 2.9375 29.375V39.6562C2.9375 42.0856 4.91444 44.0625 7.34375 44.0625H17.625C20.0543 44.0625 22.0312 42.0856 22.0312 39.6562V29.375C22.0312 26.9457 20.0543 24.9688 17.625 24.9688ZM19.0938 39.6562C19.0938 40.4655 18.4343 41.125 17.625 41.125H7.34375C6.53447 41.125 5.875 40.4655 5.875 39.6562V29.375C5.875 28.5657 6.53447 27.9062 7.34375 27.9062H17.625C18.4343 27.9062 19.0938 28.5657 19.0938 29.375V39.6562ZM39.6562 24.9688H29.375C26.9457 24.9688 24.9688 26.9457 24.9688 29.375V39.6562C24.9688 42.0856 26.9457 44.0625 29.375 44.0625H39.6562C42.0856 44.0625 44.0625 42.0856 44.0625 39.6562V29.375C44.0625 26.9457 42.0856 24.9688 39.6562 24.9688ZM41.125 39.6562C41.125 40.4655 40.4655 41.125 39.6562 41.125H29.375C28.5657 41.125 27.9062 40.4655 27.9062 39.6562V29.375C27.9062 28.5657 28.5657 27.9062 29.375 27.9062H39.6562C40.4655 27.9062 41.125 28.5657 41.125 29.375V39.6562ZM24.9688 11.75C24.9688 10.9392 25.6268 10.2812 26.4375 10.2812H33.0469V4.40625C33.0469 3.5955 33.7049 2.9375 34.5156 2.9375C35.3264 2.9375 35.9844 3.5955 35.9844 4.40625V10.2812H42.5938C43.4045 10.2812 44.0625 10.9392 44.0625 11.75C44.0625 12.5608 43.4045 13.2188 42.5938 13.2188H35.9844V20.5625C35.9844 21.3732 35.3264 22.0312 34.5156 22.0312C33.7049 22.0312 33.0469 21.3732 33.0469 20.5625V13.2188H26.4375C25.6268 13.2188 24.9688 12.5608 24.9688 11.75Z" fill="black"/>
</svg>
