<svg width="42" height="42" viewBox="0 0 42 42" fill="none" xmlns="http://www.w3.org/2000/svg">
<g clip-path="url(#clip0_1041_591)">
<path d="M21 10.5C18.9233 10.5 16.8932 11.1158 15.1665 12.2696C13.4398 13.4233 12.094 15.0632 11.2993 16.9818C10.5045 18.9004 10.2966 21.0116 10.7018 23.0484C11.1069 25.0852 12.1069 26.9562 13.5754 28.4246C15.0438 29.8931 16.9148 30.8931 18.9516 31.2982C20.9884 31.7034 23.0996 31.4955 25.0182 30.7007C26.9368 29.906 28.5767 28.5602 29.7304 26.8335C30.8842 25.1068 31.5 23.0767 31.5 21C31.4972 18.2161 30.3901 15.547 28.4216 13.5784C26.453 11.6099 23.7839 10.5028 21 10.5ZM21 28C19.6155 28 18.2622 27.5895 17.111 26.8203C15.9599 26.0511 15.0627 24.9579 14.5328 23.6788C14.003 22.3997 13.8644 20.9922 14.1345 19.6344C14.4046 18.2765 15.0713 17.0292 16.0503 16.0503C17.0292 15.0713 18.2765 14.4046 19.6344 14.1345C20.9922 13.8644 22.3997 14.003 23.6788 14.5328C24.9579 15.0627 26.0511 15.9599 26.8203 17.111C27.5895 18.2622 28 19.6155 28 21C28 22.8565 27.2625 24.637 25.9498 25.9497C24.637 27.2625 22.8565 28 21 28Z" fill="black"/>
<path d="M21 35C20.5359 35 20.0908 35.1844 19.7626 35.5126C19.4344 35.8408 19.25 36.2859 19.25 36.75V40.25C19.25 40.7141 19.4344 41.1592 19.7626 41.4874C20.0908 41.8156 20.5359 42 21 42C21.4641 42 21.9092 41.8156 22.2374 41.4874C22.5656 41.1592 22.75 40.7141 22.75 40.25V36.75C22.75 36.2859 22.5656 35.8408 22.2374 35.5126C21.9092 35.1844 21.4641 35 21 35Z" fill="black"/>
<path d="M22.75 5.25V1.75C22.75 1.28587 22.5656 0.840752 22.2374 0.512563C21.9092 0.184375 21.4641 0 21 0C20.5359 0 20.0908 0.184375 19.7626 0.512563C19.4344 0.840752 19.25 1.28587 19.25 1.75V5.25C19.25 5.71413 19.4344 6.15925 19.7626 6.48744C20.0908 6.81563 20.5359 7 21 7C21.4641 7 21.9092 6.81563 22.2374 6.48744C22.5656 6.15925 22.75 5.71413 22.75 5.25Z" fill="black"/>
<path d="M7 21C7 20.5359 6.81563 20.0908 6.48744 19.7626C6.15925 19.4344 5.71413 19.25 5.25 19.25H1.75C1.28587 19.25 0.840752 19.4344 0.512563 19.7626C0.184375 20.0908 0 20.5359 0 21C0 21.4641 0.184375 21.9092 0.512563 22.2374C0.840752 22.5656 1.28587 22.75 1.75 22.75H5.25C5.71413 22.75 6.15925 22.5656 6.48744 22.2374C6.81563 21.9092 7 21.4641 7 21Z" fill="black"/>
<path d="M40.25 19.25H36.75C36.2859 19.25 35.8408 19.4344 35.5126 19.7626C35.1844 20.0908 35 20.5359 35 21C35 21.4641 35.1844 21.9092 35.5126 22.2374C35.8408 22.5656 36.2859 22.75 36.75 22.75H40.25C40.7141 22.75 41.1592 22.5656 41.4874 22.2374C41.8156 21.9092 42 21.4641 42 21C42 20.5359 41.8156 20.0908 41.4874 19.7626C41.1592 19.4344 40.7141 19.25 40.25 19.25Z" fill="black"/>
<path d="M33.3739 30.8999C33.0439 30.5812 32.6018 30.4048 32.143 30.4088C31.6842 30.4127 31.2452 30.5968 30.9208 30.9213C30.5963 31.2457 30.4123 31.6846 30.4083 32.1435C30.4043 32.6023 30.5807 33.0444 30.8994 33.3744L33.3739 35.8489C33.704 36.1677 34.1461 36.3441 34.6049 36.3401C35.0637 36.3361 35.5027 36.1521 35.8271 35.8276C36.1516 35.5032 36.3356 35.0642 36.3396 34.6054C36.3436 34.1465 36.1672 33.7045 35.8485 33.3744L33.3739 30.8999Z" fill="black"/>
<path d="M9.86315 11.6132C10.2092 11.6131 10.5475 11.5104 10.8352 11.3181C11.1229 11.1258 11.3472 10.8525 11.4796 10.5328C11.612 10.2131 11.6467 9.86127 11.5792 9.52185C11.5117 9.18243 11.3451 8.87064 11.1004 8.6259L8.6259 6.1514C8.29585 5.83263 7.85379 5.65624 7.39495 5.66022C6.93611 5.66421 6.49718 5.84826 6.17272 6.17272C5.84826 6.49718 5.66421 6.93611 5.66022 7.39495C5.65624 7.85379 5.83263 8.29585 6.1514 8.6259L8.6259 11.1004C8.78796 11.2635 8.98077 11.3927 9.19315 11.4808C9.40552 11.5688 9.63326 11.6138 9.86315 11.6132Z" fill="black"/>
<path d="M8.62594 30.8999L6.15144 33.3744C5.9843 33.5359 5.85098 33.729 5.75926 33.9425C5.66755 34.156 5.61927 34.3856 5.61725 34.618C5.61523 34.8504 5.65951 35.0808 5.7475 35.2959C5.8355 35.5109 5.96544 35.7063 6.12975 35.8706C6.29406 36.0349 6.48945 36.1649 6.70452 36.2529C6.91959 36.3409 7.15003 36.3851 7.38239 36.3831C7.61476 36.3811 7.84439 36.3328 8.0579 36.2411C8.27141 36.1494 8.46451 36.0161 8.62594 35.8489L11.1004 33.3744C11.4192 33.0444 11.5956 32.6023 11.5916 32.1435C11.5876 31.6846 11.4036 31.2457 11.0791 30.9213C10.7547 30.5968 10.3157 30.4127 9.85689 30.4088C9.39805 30.4048 8.956 30.5812 8.62594 30.8999Z" fill="black"/>
<path d="M33.374 11.1004L35.8485 8.6259C36.1673 8.29585 36.3437 7.85379 36.3397 7.39495C36.3357 6.93611 36.1516 6.49718 35.8272 6.17272C35.5027 5.84826 35.0638 5.66421 34.6049 5.66022C34.1461 5.65624 33.704 5.83263 33.374 6.1514L30.8995 8.6259C30.7323 8.78733 30.599 8.98044 30.5073 9.19394C30.4156 9.40745 30.3673 9.63709 30.3653 9.86945C30.3633 10.1018 30.4076 10.3323 30.4956 10.5473C30.5835 10.7624 30.7135 10.9578 30.8778 11.1221C31.0421 11.2864 31.2375 11.4163 31.4526 11.5043C31.6676 11.5923 31.8981 11.6366 32.1304 11.6346C32.3628 11.6326 32.5924 11.5843 32.8059 11.4926C33.0195 11.4009 33.2126 11.2675 33.374 11.1004Z" fill="black"/>
</g>
<defs>
<clipPath id="clip0_1041_591">
<rect width="42" height="42" fill="white"/>
</clipPath>
</defs>
</svg>
