<?xml version="1.0" encoding="UTF-8" standalone="no"?>
<!-- Created with Inkscape (http://www.inkscape.org/) -->

<svg
   width="210.12624mm"
   height="129.57027mm"
   viewBox="0 0 210.12623 129.57027"
   version="1.1"
   id="svg10121"
   xml:space="preserve"
   inkscape:version="1.2.2 (732a01da63, 2022-12-09)"
   sodipodi:docname="gat.svg"
   xmlns:inkscape="http://www.inkscape.org/namespaces/inkscape"
   xmlns:sodipodi="http://sodipodi.sourceforge.net/DTD/sodipodi-0.dtd"
   xmlns="http://www.w3.org/2000/svg"
   xmlns:svg="http://www.w3.org/2000/svg"><sodipodi:namedview
     id="namedview10123"
     pagecolor="#ffffff"
     bordercolor="#000000"
     borderopacity="0.25"
     inkscape:showpageshadow="2"
     inkscape:pageopacity="0.0"
     inkscape:pagecheckerboard="0"
     inkscape:deskcolor="#d1d1d1"
     inkscape:document-units="mm"
     showgrid="false"
     inkscape:zoom="0.38128507"
     inkscape:cx="-221.61896"
     inkscape:cy="323.90463"
     inkscape:window-width="1920"
     inkscape:window-height="991"
     inkscape:window-x="-9"
     inkscape:window-y="-9"
     inkscape:window-maximized="1"
     inkscape:current-layer="layer1" /><defs
     id="defs10118"><marker
       id="arrowhead"
       markerWidth="10"
       markerHeight="10"
       refX="9"
       refY="3"
       orient="auto"><polygon
         points="0,6 0,0 10,3 "
         fill="#000000"
         id="polygon10451" /></marker><marker
       id="arrowhead-8"
       markerWidth="10"
       markerHeight="10"
       refX="9"
       refY="3"
       orient="auto"><polygon
         points="0,0 10,3 0,6 "
         fill="#000000"
         id="polygon10451-9" /></marker><marker
       id="arrowhead-8-5"
       markerWidth="10"
       markerHeight="10"
       refX="9"
       refY="3"
       orient="auto"><polygon
         points="0,0 10,3 0,6 "
         fill="#000000"
         id="polygon10451-9-1" /></marker></defs><g
     inkscape:label="Layer 1"
     inkscape:groupmode="layer"
     id="layer1"
     transform="translate(70.169583,76.723435)"><path
       fill-rule="nonzero"
       fill="#000000"
       fill-opacity="1"
       d="M 58.356828,0.92510802 V -39.874542 h 16.279971 v 8.03995 l -4.065529,0.0541 -4.074442,0.0541 -0.09083,65.41026 h 8.230794 v 8.03995 H 58.357001 Z M 123.6763,37.704788 v -4.02 h 8.23986 l -0.0541,-32.70502998 -0.0454,-32.70524002 -4.06536,-0.0541 -4.07445,-0.0541 v -8.03958 h 16.27981 v 81.59921 h -16.27987 z m -38.771404,-8.53101 c -2.19185,-0.8275 -4.174675,-3.27413 -5.293303,-6.51197 -0.654832,-1.90073 -0.654832,-1.92797 -0.654832,-5.35687 0,-3.41053 0,-3.47408 0.627593,-5.26586 0.80937,-2.31917 1.564258,-3.62882 2.810364,-4.88401 1.491439,-1.48236 2.510178,-1.91891 4.501915,-1.91891 2.028051,0 3.074033,0.4547 4.601972,2.00082 1.819036,1.85537 3.055876,4.79301 3.447031,8.16721 0.65484,5.70245 -1.773637,11.71416 -5.456925,13.49686 -1.19144,0.57294 -3.437946,0.70929 -4.583815,0.27273 z m 3.210418,-4.09258 c 0.836784,-0.5457 1.755295,-1.98284 2.255593,-3.51076 0.400056,-1.22776 0.454713,-1.74622 0.445628,-4.36554 0,-3.30139 -0.282013,-4.511 -1.482538,-6.39359 -2.592078,-4.07446 -6.457324,-0.20013 -6.457324,6.49363 0,3.0014 0.754884,5.57517 2.073624,7.03045 1.055067,1.17328 2.128292,1.42786 3.165017,0.74581 z m 19.281186,2.37362 v -2.00988 h 4.01997 V 9.156058 l -1.91001,0.96407 c -1.05507,0.52756 -1.95542,0.95484 -2.00989,0.95484 -0.0541,0 -0.0995,-0.90035 -0.0995,-2.0008 v -2.00989 l 1.91002,-0.9641 1.90982,-0.95498 h 4.22008 v 20.29974 h 4.22008 v 4.01996 h -12.26 z M 82.876673,-5.104762 v -2.00987 h 4.01996 v -16.47995 l -1.910009,0.96394 c -1.054896,0.52751 -1.955421,0.95498 -2.009894,0.95498 -0.05412,0 -0.09954,-0.88216 -0.09954,-1.96447 v -1.96448 l 2.009894,-1.00951 2.019151,-1.0004 h 4.010716 l 0.05412,10.20435 0.04543,10.19549 2.055466,0.0541 2.06455,0.0541 v 4.0109 H 82.876503 Z m 27.184557,1.7553 c -3.11036,-0.87311 -5.39318,-3.88341 -6.41194,-8.48556 -0.25458,-1.11864 -0.30906,-2.0827 -0.23642,-4.2564 0.0733,-2.61025 0.12745,-2.94673 0.76397,-4.74744 2.68305,-7.67601 9.14946,-9.07664 13.20575,-2.86482 1.59167,2.44642 2.47386,6.73917 2.08271,10.20436 -0.2181,2.01005 -1.0549,4.76577 -1.85535,6.12082 -1.79163,3.06494 -4.95664,4.75668 -7.54872,4.02904 z m 2.69213,-4.3292 c 0.76397,-0.51829 1.69157,-2.04625 2.16461,-3.52878 0.36374,-1.16417 0.42749,-1.8007 0.42749,-4.2382 0,-2.53747 -0.0541,-3.04683 -0.47306,-4.30185 -0.7184,-2.18276 -2.21001,-3.83799 -3.45593,-3.83799 -1.26427,0 -2.76496,1.74623 -3.50169,4.0926 -0.35465,1.14606 -0.4273,1.80087 -0.4273,4.13819 0,2.39198 0.0628,2.96488 0.44565,4.12001 0.57292,1.71897 1.22775,2.83763 2.0008,3.41962 1.00039,0.75488 1.87351,0.79121 2.81943,0.13622 z m 0,0"
       id="path8245-9"
       style="stroke-width:0.352777" /><path
       fill-rule="nonzero"
       fill="#0000ff"
       fill-opacity="1"
       d="m 6.8247026,-66.716689 c 0.17879,-1.41463 1.15637,-1.95026 5.2123204,-2.84356 26.09521,-5.69624 53.49925,0.45185 74.626151,16.75115 1.83214,1.40985 3.28126,2.34658 3.22157,2.08865 -0.29918,-1.45661 -2.74881,-7.31261 -4.09523,-9.83315 -1.80051,-3.36806 -1.83458,-4.01504 -0.30617,-4.95057 1.35093,-0.82925 2.66456,-0.34721 3.69266,1.34446 2.42873,3.96183 7.53635,17.81985 7.80663,21.15973 0.21931,2.67087 -2.203,3.64994 -5.81781,2.34391 -0.88766,-0.32026 -4.6327,-1.57287 -8.34952,-2.77 -3.70035,-1.20275 -7.02571,-2.42147 -7.38002,-2.70019 -1.43333,-1.10902 -0.7172,-3.86529 1.02667,-3.94655 0.44707,-0.0216 2.6915,0.58029 5.01466,1.33205 2.30643,0.75731 4.22285,1.29462 4.24739,1.20286 0.0817,-0.36147 -5.66719,-4.48672 -9.65996,-6.93509 -19.186741,-11.72658 -43.003791,-15.502 -64.562661,-10.21272 -3.3564504,0.82308 -4.9265204,0.13136 -4.6767204,-2.03087 z m 0,0"
       id="path8287-1"
       style="stroke-width:0.352776" /><line
       x1="-12.663679"
       y1="-55.818108"
       x2="-49.252163"
       y2="-19.251604"
       stroke="#000000"
       stroke-width="1.5875"
       marker-end="url(#arrowhead)"
       id="line10456" /><line
       x1="-12.663679"
       y1="-55.818108"
       x2="-12.663679"
       y2="-19.251604"
       stroke="#000000"
       stroke-width="1.5875"
       marker-end="url(#arrowhead)"
       id="line10458" /><line
       x1="-12.663679"
       y1="-55.818108"
       x2="23.924807"
       y2="-19.251604"
       stroke="#000000"
       stroke-width="1.5875"
       marker-end="url(#arrowhead)"
       id="line10460" /><line
       x1="-12.663679"
       y1="31.9415"
       x2="-49.252163"
       y2="-4.6250024"
       stroke="#000000"
       stroke-width="1.5875"
       marker-end="url(#arrowhead)"
       id="line10462" /><line
       x1="-12.663679"
       y1="31.9415"
       x2="-12.663679"
       y2="-4.6250024"
       stroke="#000000"
       stroke-width="1.5875"
       marker-end="url(#arrowhead)"
       id="line10464" /><line
       x1="-17.807434"
       y1="-11.972321"
       x2="18.759068"
       y2="-11.972321"
       stroke="#000000"
       stroke-width="1.5875"
       marker-end="url(#arrowhead-8)"
       id="line10464-8"
       style="marker-end:url(#arrowhead-8)" /><line
       x1="-7.4928398"
       y1="-11.99221"
       x2="-44.059341"
       y2="-11.99221"
       stroke="#000000"
       stroke-width="1.5875"
       marker-end="url(#arrowhead-8-5)"
       id="line10464-8-5"
       style="marker-end:url(#arrowhead-8-5)" /><line
       x1="-12.663679"
       y1="31.9415"
       x2="23.924807"
       y2="-4.6250024"
       stroke="#000000"
       stroke-width="1.5875"
       marker-end="url(#arrowhead)"
       id="line10466" /><ellipse
       cx="-12.663679"
       cy="-63.131409"
       fill="#e74c3c"
       stroke="#000000"
       stroke-width="1.5875"
       id="circle10470"
       rx="12.80597"
       ry="12.798276" /><ellipse
       cx="-56.569862"
       cy="-11.938303"
       fill="#3498db"
       stroke="#000000"
       stroke-width="1.5875"
       id="circle10472"
       rx="12.80597"
       ry="12.798276" /><ellipse
       cx="-12.663679"
       cy="-11.938303"
       fill="#a4b84c"
       stroke="#000000"
       stroke-width="1.5875"
       id="circle10474"
       rx="12.80597"
       ry="12.798276" /><ellipse
       cx="31.242502"
       cy="-11.938303"
       fill="#e74c3c"
       stroke="#000000"
       stroke-width="1.5875"
       id="circle10476"
       rx="12.80597"
       ry="12.798276" /><ellipse
       cx="-12.663679"
       cy="39.254803"
       fill="#3498db"
       stroke="#000000"
       stroke-width="1.5875"
       id="circle10478"
       rx="12.80597"
       ry="12.798276" /></g></svg>
