<?xml version="1.0" encoding="UTF-8" standalone="no"?>
<svg
   width="282"
   height="183"
   viewBox="0 0 282 183"
   fill="none"
   version="1.1"
   id="svg17140"
   sodipodi:docname="feature-15.svg"
   inkscape:version="1.2.2 (732a01da63, 2022-12-09)"
   xmlns:inkscape="http://www.inkscape.org/namespaces/inkscape"
   xmlns:sodipodi="http://sodipodi.sourceforge.net/DTD/sodipodi-0.dtd"
   xmlns="http://www.w3.org/2000/svg"
   xmlns:svg="http://www.w3.org/2000/svg">
  <defs
     id="defs17144" />
  <sodipodi:namedview
     id="namedview17142"
     pagecolor="#ffffff"
     bordercolor="#000000"
     borderopacity="0.25"
     inkscape:showpageshadow="2"
     inkscape:pageopacity="0.0"
     inkscape:pagecheckerboard="0"
     inkscape:deskcolor="#d1d1d1"
     showgrid="false"
     inkscape:zoom="4.5355191"
     inkscape:cx="111.01265"
     inkscape:cy="73.971687"
     inkscape:window-width="1920"
     inkscape:window-height="991"
     inkscape:window-x="-9"
     inkscape:window-y="-9"
     inkscape:window-maximized="1"
     inkscape:current-layer="svg17140" />
  <mask
     id="path-1-inside-1_330_536"
     fill="white">
    <path
       d="M0 20.5C0 9.4543 8.95431 0.5 20 0.5H262C273.046 0.5 282 9.45431 282 20.5V162.5C282 173.546 273.046 182.5 262 182.5H20C8.9543 182.5 0 173.546 0 162.5V20.5Z"
       id="path17121" />
  </mask>
  <path
     d="M0 20.5C0 9.4543 8.95431 0.5 20 0.5H262C273.046 0.5 282 9.45431 282 20.5V162.5C282 173.546 273.046 182.5 262 182.5H20C8.9543 182.5 0 173.546 0 162.5V20.5Z"
     fill="#EAF4FF"
     id="path17124" />
  <path
     d="M0 20.5C0 -3.80053 19.6995 -23.5 44 -23.5H238C262.301 -23.5 282 -3.80053 282 20.5V24.5C282 24.5 273.046 24.5 262 24.5H20C8.9543 24.5 0 24.5 0 24.5V20.5ZM282 182.5H0H282ZM0 182.5V0.5V182.5ZM282 0.5V182.5V0.5Z"
     fill="#00B327"
     mask="url(#path-1-inside-1_330_536)"
     id="path17126" />
  <path
     style="fill:#00b327;stroke-width:1.33333;fill-opacity:1"
     d="m 30.199268,114.93929 -0.641267,-0.64127 v -3.07137 c 0,-3.51897 -0.279499,-2.90074 2.901071,-6.41693 l 1.705917,-1.88593 v -1.31293 -1.31293 l 1.615537,-1.451642 c 1.147836,-1.03139 1.829044,-1.86344 2.353041,-2.87409 l 0.737504,-1.42245 -1.310984,-1.286083 C 36.839045,92.556323 35.90552,91.382781 35.485588,90.655805 L 34.722071,89.334023 33.054169,88.98914 c -2.380218,-0.492177 -3.984946,-1.326881 -5.605228,-2.915567 -1.658165,-1.625847 -2.800194,-3.833619 -3.154026,-6.097379 -0.276179,-1.766955 -0.04882,-2.875984 0.795222,-3.879073 0.909296,-1.08064 1.317373,-1.204361 4.358175,-1.321313 l 2.851944,-0.109695 0.123391,-0.924468 c 0.335336,-2.512455 3.26624,-3.455916 10.735935,-3.455916 7.469695,0 10.400599,0.943461 10.735935,3.455916 l 0.123391,0.924468 2.851944,0.109695 c 3.040803,0.116952 3.448878,0.240673 4.358175,1.321313 0.844046,1.003089 1.071403,2.112118 0.79522,3.879073 -0.352519,2.255376 -1.496956,4.473516 -3.132612,6.071608 -1.660563,1.62243 -3.258459,2.460675 -5.559036,2.916242 l -1.726875,0.34196 -0.767831,1.335791 c -0.422307,0.734686 -1.357774,1.914528 -2.078819,2.62187 l -1.310982,1.286083 0.737504,1.42245 c 0.523995,1.01065 1.205206,1.8427 2.353042,2.87409 l 1.615537,1.451642 v 1.31293 1.31293 l 1.705913,1.88593 c 3.180573,3.51619 2.901074,2.89796 2.901074,6.41693 v 3.07137 l -0.641266,0.64127 -0.641264,0.64126 H 43.159582 30.840534 Z m 22.832429,-4.37276 c 0,-1.26622 -0.01907,-1.30535 -1.335717,-2.74226 l -1.335716,-1.45769 h -7.200682 -7.200679 l -1.33572,1.45769 c -1.316656,1.43691 -1.335715,1.47604 -1.335715,2.74226 v 1.28455 h 9.872114 9.872115 z m -4.387607,-8.05129 c 0,-0.18769 -0.633512,-0.97478 -1.407805,-1.74907 -1.310745,-1.310742 -2.979802,-4.027142 -2.979802,-4.849642 0,-0.21326 -0.316095,-0.29959 -1.096901,-0.29959 -0.780807,0 -1.096902,0.0863 -1.096902,0.29959 0,0.8225 -1.669057,3.5389 -2.979799,4.849642 -0.774295,0.77429 -1.407807,1.56138 -1.407807,1.74907 0,0.29965 0.668587,0.34126 5.484508,0.34126 4.815922,0 5.484508,-0.0416 5.484508,-0.34126 z M 45.024315,91.478179 c 1.901766,-0.866132 3.4251,-3.331815 4.366057,-7.066955 0.535373,-2.125173 1.00876,-6.10452 1.00876,-8.479738 v -1.343953 l -1.261436,-0.289784 c -1.726032,-0.396507 -10.230196,-0.396507 -11.956228,0 l -1.261437,0.289784 v 1.343953 c 0,2.375218 0.473388,6.354565 1.008761,8.479738 1.232996,4.894384 3.379481,7.466608 6.23079,7.466608 0.542966,0 1.382096,-0.179842 1.864733,-0.399653 z M 33.202111,84.483388 c -0.401993,-2.316496 -0.789725,-5.059098 -0.790873,-5.5942 l -0.0012,-0.603296 h -2.334052 -2.334052 l 0.132904,1.122149 c 0.262537,2.216724 1.822498,4.393231 3.877059,5.409399 1.421198,0.70292 1.622223,0.656617 1.450305,-0.334052 z M 55.37347,84.315002 c 1.769899,-1.163848 3.142735,-3.52527 3.142735,-5.405841 v -0.623269 h -2.303494 -2.303493 l -0.0016,0.603296 c -0.0011,0.537318 -0.386149,3.258276 -0.796114,5.626501 -0.148004,0.854965 -0.147998,0.854973 0.489236,0.700383 0.350486,-0.08503 1.148075,-0.490504 1.772426,-0.90107 z"
     id="path17110" />
</svg>
