<svg width="282" height="183" viewBox="0 0 282 183" fill="none" xmlns="http://www.w3.org/2000/svg">
<mask id="path-1-inside-1_330_491" fill="white">
<path d="M0 20.5C0 9.4543 8.95431 0.5 20 0.5H262C273.046 0.5 282 9.45431 282 20.5V162.5C282 173.546 273.046 182.5 262 182.5H20C8.9543 182.5 0 173.546 0 162.5V20.5Z"/>
</mask>
<path d="M0 20.5C0 9.4543 8.95431 0.5 20 0.5H262C273.046 0.5 282 9.45431 282 20.5V162.5C282 173.546 273.046 182.5 262 182.5H20C8.9543 182.5 0 173.546 0 162.5V20.5Z" fill="#EAF4FF"/>
<path d="M0 20.5C0 -3.80053 19.6995 -23.5 44 -23.5H238C262.301 -23.5 282 -3.80053 282 20.5V24.5C282 24.5 273.046 24.5 262 24.5H20C8.9543 24.5 0 24.5 0 24.5V20.5ZM282 182.5H0H282ZM0 182.5V0.5V182.5ZM282 0.5V182.5V0.5Z" fill="#8000B3" mask="url(#path-1-inside-1_330_491)"/>
<path fill-rule="evenodd" clip-rule="evenodd" d="M15.5 93C15.5 92.1716 16.1716 91.5 17 91.5H29.75C30.5784 91.5 31.25 92.1716 31.25 93C31.25 93.8284 30.5784 94.5 29.75 94.5H18.5V109.5H29.75C30.5784 109.5 31.25 110.172 31.25 111C31.25 111.828 30.5784 112.5 29.75 112.5H17C16.1716 112.5 15.5 111.828 15.5 111V93Z" fill="#8000B3"/>
<path fill-rule="evenodd" clip-rule="evenodd" d="M28.25 84C28.25 83.1716 28.9216 82.5 29.75 82.5H43.25C44.0784 82.5 44.75 83.1716 44.75 84C44.75 84.8284 44.0784 85.5 43.25 85.5H31.25V109.5H43.25C44.0784 109.5 44.75 110.172 44.75 111C44.75 111.828 44.0784 112.5 43.25 112.5H29.75C28.9216 112.5 28.25 111.828 28.25 111V84Z" fill="#8000B3"/>
<path fill-rule="evenodd" clip-rule="evenodd" d="M41.75 72C41.75 71.1716 42.4216 70.5 43.25 70.5H56C56.8284 70.5 57.5 71.1716 57.5 72V111C57.5 111.828 56.8284 112.5 56 112.5H43.25C42.4216 112.5 41.75 111.828 41.75 111V72ZM44.75 73.5V109.5H54.5V73.5H44.75Z" fill="#8000B3"/>
</svg>
