<svg width="282" height="183" viewBox="0 0 282 183" fill="none" xmlns="http://www.w3.org/2000/svg">
<mask id="path-1-inside-1_330_501" fill="white">
<path d="M0 20.5C0 9.4543 8.95431 0.5 20 0.5H262C273.046 0.5 282 9.45431 282 20.5V162.5C282 173.546 273.046 182.5 262 182.5H20C8.9543 182.5 0 173.546 0 162.5V20.5Z"/>
</mask>
<path d="M0 20.5C0 9.4543 8.95431 0.5 20 0.5H262C273.046 0.5 282 9.45431 282 20.5V162.5C282 173.546 273.046 182.5 262 182.5H20C8.9543 182.5 0 173.546 0 162.5V20.5Z" fill="#EAF4FF"/>
<path d="M0 20.5C0 -3.80053 19.6995 -23.5 44 -23.5H238C262.301 -23.5 282 -3.80053 282 20.5V24.5C282 24.5 273.046 24.5 262 24.5H20C8.9543 24.5 0 24.5 0 24.5V20.5ZM282 182.5H0H282ZM0 182.5V0.5V182.5ZM282 0.5V182.5V0.5Z" fill="#770CB3" mask="url(#path-1-inside-1_330_501)"/>
<path fill-rule="evenodd" clip-rule="evenodd" d="M64.3593 76.6584C61.2442 76.6584 58.7189 79.1838 58.7189 82.2989C58.7189 82.5066 58.7301 82.7111 58.7517 82.9121C58.8169 83.5166 58.5108 84.1007 57.9765 84.3909C55.7323 85.6103 53.9098 88.9596 53.9098 92.6403C53.9098 93.9646 54.1503 95.4488 54.5869 96.8055C55.0288 98.1791 55.6336 99.3053 56.2816 100.001C56.5694 100.311 56.7135 100.727 56.6785 101.148C56.6631 101.333 56.6553 101.52 56.6553 101.71C56.6553 105.395 59.6425 108.382 63.3274 108.382C67.0123 108.382 69.9996 105.395 69.9996 101.71L69.9997 89.7988C69.9997 88.9704 70.6713 88.2989 71.4998 88.2989C72.3282 88.2989 72.9997 88.9705 72.9997 89.7989L72.9996 101.71C72.9996 107.052 68.6692 111.382 63.3274 111.382C57.9856 111.382 53.6553 107.052 53.6553 101.71C53.6553 101.654 53.6557 101.598 53.6567 101.542C52.8177 100.47 52.1776 99.1124 51.731 97.7244C51.2058 96.0918 50.9098 94.2979 50.9098 92.6403C50.9098 88.5577 52.7329 84.3856 55.7189 82.2699C55.7346 77.5113 59.597 73.6584 64.3593 73.6584C66.483 73.6584 68.4311 74.4266 69.9353 75.6983C70.5679 76.2331 70.6472 77.1796 70.1123 77.8122C69.5775 78.4448 68.631 78.5241 67.9984 77.9892C67.0154 77.1581 65.7477 76.6584 64.3593 76.6584Z" fill="#770CB3"/>
<path fill-rule="evenodd" clip-rule="evenodd" d="M57.0753 81.6017C57.898 81.5046 58.6436 82.0928 58.7407 82.9155C58.8761 84.0625 59.3866 84.9181 59.964 85.5175C60.5762 86.153 61.1849 86.422 61.3672 86.4636C62.1749 86.6477 62.6804 87.4517 62.4963 88.2594C62.3121 89.0671 61.5081 89.5727 60.7004 89.3885C59.8342 89.1911 58.7308 88.5615 57.8034 87.5988C56.8412 86.6 55.9845 85.1577 55.7614 83.2671C55.6643 82.4444 56.2525 81.6988 57.0753 81.6017Z" fill="#770CB3"/>
<path fill-rule="evenodd" clip-rule="evenodd" d="M58.5461 95.8098C59.0595 96.46 58.9486 97.4032 58.2984 97.9166C58.0123 98.1425 57.654 98.6083 57.3219 99.2837C57.0005 99.9372 56.7644 100.664 56.6524 101.285C56.5055 102.101 55.7254 102.642 54.9101 102.496C54.0948 102.349 53.553 101.569 53.6999 100.753C53.8635 99.8458 54.1904 98.8535 54.6298 97.9599C55.0585 97.088 55.6587 96.1784 56.4393 95.5621C57.0895 95.0487 58.0328 95.1596 58.5461 95.8098Z" fill="#770CB3"/>
<path fill-rule="evenodd" clip-rule="evenodd" d="M89.5701 87.4108C90.3616 87.166 91.2016 87.6092 91.4464 88.4006C91.8616 89.7431 92.0902 91.1829 92.0902 92.6403C92.0902 94.298 91.7942 96.0918 91.269 97.7244C90.8224 99.1124 90.1823 100.47 89.3432 101.542C89.3442 101.598 89.3446 101.654 89.3446 101.71C89.3446 107.052 85.0143 111.382 79.6726 111.382C74.3308 111.382 70.0004 107.052 70.0004 101.71C70.0004 100.882 70.672 100.21 71.5004 100.21C72.3289 100.21 73.0004 100.882 73.0004 101.71C73.0004 105.395 75.9876 108.382 79.6726 108.382C83.3574 108.382 86.3446 105.395 86.3446 101.71C86.3446 101.52 86.3368 101.333 86.3213 101.148C86.2862 100.727 86.4303 100.311 86.7183 100.001C87.3663 99.3053 87.9712 98.1791 88.4132 96.8055C88.8497 95.4488 89.0902 93.9646 89.0902 92.6403C89.0902 91.4933 88.9097 90.352 88.5803 89.287C88.3355 88.4955 88.7787 87.6555 89.5701 87.4108Z" fill="#770CB3"/>
<path fill-rule="evenodd" clip-rule="evenodd" d="M84.4541 95.8097C84.9675 95.1595 85.9108 95.0487 86.5609 95.5621C87.3414 96.1785 87.9416 97.0881 88.3702 97.9598C88.8097 98.8534 89.1366 99.8457 89.3002 100.753C89.4472 101.568 88.9054 102.348 88.0902 102.495C87.2749 102.642 86.4948 102.101 86.3478 101.285C86.2357 100.664 85.9995 99.9373 85.6781 99.2837C85.346 98.6083 84.9877 98.1424 84.7017 97.9165C84.0515 97.4031 83.9407 96.4598 84.4541 95.8097Z" fill="#770CB3"/>
<path fill-rule="evenodd" clip-rule="evenodd" d="M80.4107 75.964C79.3013 78.9805 76.9275 81.3586 73.934 82.481C76.9275 83.6033 79.3013 85.9814 80.4107 88.9979C81.5336 85.9772 83.9193 83.6003 86.9219 82.4809C83.9193 81.3616 81.5336 78.9848 80.4107 75.964ZM82.8409 73.5595C82.2476 70.9584 78.5373 70.976 77.967 73.581L77.967 73.5811L77.9036 73.8709C77.9036 73.8709 77.9036 73.871 77.9036 73.871C77.206 77.0574 74.65 79.5052 71.4363 80.0643C68.7262 80.5358 68.7265 84.4261 71.4363 84.8976C74.65 85.4567 77.206 87.9044 77.9036 91.0909C77.9036 91.091 77.9036 91.091 77.9036 91.091L77.967 91.3808L77.967 91.3809C78.5374 93.9859 82.2476 94.0035 82.8409 91.4024C82.8409 91.4022 82.8409 91.4021 82.841 91.4019L82.918 91.0645L82.918 91.0644C83.6422 87.8898 86.2012 85.4604 89.4092 84.9023L89.4092 84.9023C92.1246 84.4299 92.1243 80.532 89.4092 80.0595L89.4091 80.0595C86.2012 79.5015 83.6422 77.0721 82.918 73.8975L82.918 73.8973L82.841 73.56C82.8409 73.5598 82.8409 73.5597 82.8409 73.5595Z" fill="#770CB3"/>
</svg>
