<svg width="282" height="183" viewBox="0 0 282 183" fill="none" xmlns="http://www.w3.org/2000/svg">
<mask id="path-1-inside-1_330_506" fill="white">
<path d="M0 20.5C0 9.4543 8.95431 0.5 20 0.5H262C273.046 0.5 282 9.45431 282 20.5V162.5C282 173.546 273.046 182.5 262 182.5H20C8.9543 182.5 0 173.546 0 162.5V20.5Z"/>
</mask>
<path d="M0 20.5C0 9.4543 8.95431 0.5 20 0.5H262C273.046 0.5 282 9.45431 282 20.5V162.5C282 173.546 273.046 182.5 262 182.5H20C8.9543 182.5 0 173.546 0 162.5V20.5Z" fill="#EAF4FF"/>
<path d="M0 20.5C0 -3.80053 19.6995 -23.5 44 -23.5H238C262.301 -23.5 282 -3.80053 282 20.5V24.5C282 24.5 273.046 24.5 262 24.5H20C8.9543 24.5 0 24.5 0 24.5V20.5ZM282 182.5H0H282ZM0 182.5V0.5V182.5ZM282 0.5V182.5V0.5Z" fill="#1C565A" mask="url(#path-1-inside-1_330_506)"/>
<path fill-rule="evenodd" clip-rule="evenodd" d="M77.8836 85.5099C78.3086 85.7867 78.5649 86.2596 78.5649 86.7667V109.78C78.5649 110.609 77.8933 111.28 77.0649 111.28H66.7729C65.9445 111.28 65.2729 110.609 65.2729 109.78V91.3134C65.2729 90.7194 65.6235 90.1813 66.1668 89.9413L76.4587 85.3947C76.9226 85.1897 77.4587 85.2331 77.8836 85.5099ZM68.2729 92.2906V108.28H75.5649V89.0692L68.2729 92.2906Z" fill="#1C565A"/>
<path fill-rule="evenodd" clip-rule="evenodd" d="M53.4535 84.2005C54.0761 84.0025 54.7552 84.2304 55.1325 84.7637L60.8033 92.7802L66.0704 89.988C66.5354 89.7415 67.0955 89.7567 67.5464 90.028C67.9973 90.2993 68.273 90.7871 68.273 91.3133V109.777C68.273 110.605 67.6014 111.277 66.773 111.277H53.908C53.0795 111.277 52.408 110.605 52.408 109.777V85.63C52.408 84.9767 52.8308 84.3985 53.4535 84.2005ZM55.408 90.3478V108.277H65.273V93.8062L61.043 96.0486C60.3766 96.4019 59.5515 96.2053 59.1159 95.5895L55.408 90.3478Z" fill="#1C565A"/>
<path fill-rule="evenodd" clip-rule="evenodd" d="M54.7268 84.3732C55.1518 84.65 55.408 85.1228 55.408 85.63V109.78C55.408 110.609 54.7365 111.28 53.908 111.28H43.616C42.7875 111.28 42.116 110.609 42.116 109.78V90.1767C42.116 89.5827 42.4665 89.0446 43.0098 88.8046L53.3019 84.2579C53.7658 84.053 54.3019 84.0964 54.7268 84.3732ZM45.116 91.1539V108.28H52.408V87.9325L45.116 91.1539Z" fill="#1C565A"/>
<path fill-rule="evenodd" clip-rule="evenodd" d="M80.8799 73.791C81.3261 74.489 81.122 75.4166 80.424 75.8628L64.1114 86.2906C63.4809 86.6937 62.6498 86.5704 62.1635 86.0017L55.4342 78.133L43.0695 84.4859C42.3327 84.8645 41.4284 84.5741 41.0498 83.8372C40.6713 83.1003 40.9617 82.1961 41.6985 81.8175L55.118 74.9227C55.7362 74.605 56.4917 74.7537 56.9434 75.282L63.5952 83.06L78.8082 73.3351C79.5062 72.8889 80.4337 73.093 80.8799 73.791Z" fill="#1C565A"/>
<path fill-rule="evenodd" clip-rule="evenodd" d="M70.0263 72.9732C70.1625 72.1561 70.9354 71.6041 71.7525 71.7402L79.8624 73.0919C80.2548 73.1573 80.6052 73.3759 80.8364 73.6996C81.0676 74.0234 81.1608 74.4257 81.0954 74.8181L79.7436 82.928C79.6074 83.7452 78.8345 84.2972 78.0174 84.161C77.2002 84.0248 76.6482 83.2519 76.7844 82.4348L77.8896 75.8045L71.2593 74.6994C70.4422 74.5632 69.8901 73.7904 70.0263 72.9732Z" fill="#1C565A"/>
</svg>
