<svg width="282" height="183" viewBox="0 0 282 183" fill="none" xmlns="http://www.w3.org/2000/svg">
<mask id="path-1-inside-1_330_476" fill="white">
<path d="M0 20.5C0 9.4543 8.95431 0.5 20 0.5H262C273.046 0.5 282 9.45431 282 20.5V162.5C282 173.546 273.046 182.5 262 182.5H20C8.9543 182.5 0 173.546 0 162.5V20.5Z"/>
</mask>
<path d="M0 20.5C0 9.4543 8.95431 0.5 20 0.5H262C273.046 0.5 282 9.45431 282 20.5V162.5C282 173.546 273.046 182.5 262 182.5H20C8.9543 182.5 0 173.546 0 162.5V20.5Z" fill="#EAF4FF"/>
<path d="M0 20.5C0 -3.80053 19.6995 -23.5 44 -23.5H238C262.301 -23.5 282 -3.80053 282 20.5V24.5C282 24.5 273.046 24.5 262 24.5H20C8.9543 24.5 0 24.5 0 24.5V20.5ZM282 182.5H0H282ZM0 182.5V0.5V182.5ZM282 0.5V182.5V0.5Z" fill="#B38000" mask="url(#path-1-inside-1_330_476)"/>
<path fill-rule="evenodd" clip-rule="evenodd" d="M68.5 73.5C68.5 72.6716 69.1716 72 70 72H83.5C84.3284 72 85 72.6716 85 73.5C85 74.3284 84.3284 75 83.5 75H70C69.1716 75 68.5 74.3284 68.5 73.5Z" fill="#B38000"/>
<path fill-rule="evenodd" clip-rule="evenodd" d="M68.5 82.5C68.5 81.6716 69.1716 81 70 81H83.5C84.3284 81 85 81.6716 85 82.5C85 83.3284 84.3284 84 83.5 84H70C69.1716 84 68.5 83.3284 68.5 82.5Z" fill="#B38000"/>
<path fill-rule="evenodd" clip-rule="evenodd" d="M68.5 91.5C68.5 90.6716 69.1716 90 70 90H83.5C84.3284 90 85 90.6716 85 91.5C85 92.3284 84.3284 93 83.5 93H70C69.1716 93 68.5 92.3284 68.5 91.5Z" fill="#B38000"/>
<path fill-rule="evenodd" clip-rule="evenodd" d="M43 109.5C43 108.672 43.6716 108 44.5 108H83.5C84.3284 108 85 108.672 85 109.5C85 110.328 84.3284 111 83.5 111H44.5C43.6716 111 43 110.328 43 109.5Z" fill="#B38000"/>
<path fill-rule="evenodd" clip-rule="evenodd" d="M43 100.5C43 99.6716 43.6716 99 44.5 99H83.5C84.3284 99 85 99.6716 85 100.5C85 101.328 84.3284 102 83.5 102H44.5C43.6716 102 43 101.328 43 100.5Z" fill="#B38000"/>
<path fill-rule="evenodd" clip-rule="evenodd" d="M43 75C43 73.3432 44.3431 72 46 72H61C62.6568 72 64 73.3432 64 75V90C64 91.6568 62.6568 93 61 93H46C44.3431 93 43 91.6568 43 90V75ZM61 75H46V90H61V75Z" fill="#B38000"/>

</svg>
