<svg width="282" height="183" viewBox="0 0 282 183" fill="none" xmlns="http://www.w3.org/2000/svg">
<mask id="path-1-inside-1_330_471" fill="white">
<path d="M0 20.5C0 9.4543 8.95431 0.5 20 0.5H262C273.046 0.5 282 9.45431 282 20.5V162.5C282 173.546 273.046 182.5 262 182.5H20C8.9543 182.5 0 173.546 0 162.5V20.5Z"/>
</mask>
<path d="M0 20.5C0 9.4543 8.95431 0.5 20 0.5H262C273.046 0.5 282 9.45431 282 20.5V162.5C282 173.546 273.046 182.5 262 182.5H20C8.9543 182.5 0 173.546 0 162.5V20.5Z" fill="#EAF4FF"/>
<path d="M0 20.5C0 -3.80053 19.6995 -23.5 44 -23.5H238C262.301 -23.5 282 -3.80053 282 20.5V24.5C282 24.5 273.046 24.5 262 24.5H20C8.9543 24.5 0 24.5 0 24.5V20.5ZM282 182.5H0H282ZM0 182.5V0.5V182.5ZM282 0.5V182.5V0.5Z" fill="#00B6BF" mask="url(#path-1-inside-1_330_471)"/>
<g clip-path="url(#clip0_330_471)">
<path fill-rule="evenodd" clip-rule="evenodd" d="M48.4928 71.1854C49.268 70.7547 50.1405 70.5286 51.0277 70.5286C51.9276 70.5286 52.8122 70.7612 53.5957 71.2039C53.6114 71.2128 53.627 71.222 53.6425 71.2315L79.5335 87.1253C80.3198 87.5209 80.9834 88.1242 81.4522 88.8701C81.9358 89.64 82.1923 90.5311 82.1923 91.4398C82.1923 92.3486 81.9361 93.2391 81.4526 94.009C80.9842 94.7542 80.3212 95.3574 79.536 95.7531L53.6468 111.765C53.63 111.776 53.613 111.786 53.5959 111.796C52.8125 112.238 51.9278 112.471 51.0277 112.471C50.1404 112.471 49.268 112.245 48.4929 111.814C47.7032 111.412 47.0369 110.803 46.5645 110.054C46.0851 109.293 45.8234 108.415 45.808 107.516L45.8075 107.49L45.8077 75.484C45.8232 74.5848 46.0851 73.7071 46.5645 72.9462C47.037 72.1961 47.7034 71.5878 48.4928 71.1854ZM51.0277 73.5286C50.645 73.5286 50.2688 73.6275 49.9356 73.8158C49.9136 73.8282 49.8912 73.8401 49.8686 73.8514C49.5547 74.0084 49.2898 74.2484 49.1027 74.5453C48.9176 74.8391 48.8157 75.1776 48.8077 75.5246V107.475C48.8157 107.822 48.9177 108.161 49.1027 108.454C49.2898 108.751 49.5546 108.991 49.8681 109.148C49.891 109.159 49.9136 109.171 49.9359 109.184C50.2691 109.372 50.6452 109.471 51.0277 109.471C51.4017 109.471 51.7695 109.377 52.0971 109.196L78.0187 93.1641C78.0633 93.1365 78.1094 93.1113 78.1567 93.0885C78.4669 92.939 78.7288 92.7049 78.9124 92.413C79.0952 92.1216 79.1923 91.7843 79.1923 91.4398C79.1923 91.0953 79.0952 90.7581 78.9124 90.4667C78.7288 90.1747 78.4669 89.9406 78.1567 89.7912C78.1109 89.7691 78.0663 89.7447 78.023 89.7182L52.0991 73.8042C51.7711 73.6235 51.4025 73.5286 51.0277 73.5286Z" fill="#00B6BF"/>
</g>
<defs>
<clipPath id="clip0_330_471">
<rect x="43" y="70.5" width="42" height="42" rx="5" fill="white"/>
</clipPath>
</defs>
</svg>
