<svg width="282" height="183" viewBox="0 0 282 183" fill="none" xmlns="http://www.w3.org/2000/svg">
<mask id="path-1-inside-1_330_531" fill="white">
<path d="M0 20.5C0 9.4543 8.95431 0.5 20 0.5H262C273.046 0.5 282 9.45431 282 20.5V162.5C282 173.546 273.046 182.5 262 182.5H20C8.9543 182.5 0 173.546 0 162.5V20.5Z"/>
</mask>
<path d="M0 20.5C0 9.4543 8.95431 0.5 20 0.5H262C273.046 0.5 282 9.45431 282 20.5V162.5C282 173.546 273.046 182.5 262 182.5H20C8.9543 182.5 0 173.546 0 162.5V20.5Z" fill="#EAF4FF"/>
<path d="M0 20.5C0 -3.80053 19.6995 -23.5 44 -23.5H238C262.301 -23.5 282 -3.80053 282 20.5V24.5C282 24.5 273.046 24.5 262 24.5H20C8.9543 24.5 0 24.5 0 24.5V20.5ZM282 182.5H0H282ZM0 182.5V0.5V182.5ZM282 0.5V182.5V0.5Z" fill="#B3008C" mask="url(#path-1-inside-1_330_531)"/>
<g clip-path="url(#clip0_330_531)">
<path fill-rule="evenodd" clip-rule="evenodd" d="M16 80.25C16 74.8652 20.3652 70.5 25.75 70.5C31.1348 70.5 35.5 74.8652 35.5 80.25C35.5 85.6348 31.1348 90 25.75 90C20.3652 90 16 85.6348 16 80.25ZM25.75 73.5C22.0221 73.5 19 76.5221 19 80.25C19 83.9779 22.0221 87 25.75 87C29.4779 87 32.5 83.9779 32.5 80.25C32.5 76.5221 29.4779 73.5 25.75 73.5Z" fill="#B3008C"/>
<path fill-rule="evenodd" clip-rule="evenodd" d="M38.5 80.25C38.5 74.8652 42.8652 70.5 48.25 70.5C53.6348 70.5 58 74.8652 58 80.25C58 85.6348 53.6348 90 48.25 90C42.8652 90 38.5 85.6348 38.5 80.25ZM48.25 73.5C44.5221 73.5 41.5 76.5221 41.5 80.25C41.5 83.9779 44.5221 87 48.25 87C51.978 87 55 83.9779 55 80.25C55 76.5221 51.978 73.5 48.25 73.5Z" fill="#B3008C"/>
<path fill-rule="evenodd" clip-rule="evenodd" d="M16 102.75C16 97.3652 20.3652 93 25.75 93C31.1348 93 35.5 97.3652 35.5 102.75C35.5 108.135 31.1348 112.5 25.75 112.5C20.3652 112.5 16 108.135 16 102.75ZM25.75 96C22.0221 96 19 99.0221 19 102.75C19 106.478 22.0221 109.5 25.75 109.5C29.4779 109.5 32.5 106.478 32.5 102.75C32.5 99.0221 29.4779 96 25.75 96Z" fill="#B3008C"/>
<path fill-rule="evenodd" clip-rule="evenodd" d="M38.5 102.75C38.5 97.3652 42.8652 93 48.25 93C53.6348 93 58 97.3652 58 102.75C58 108.135 53.6348 112.5 48.25 112.5C42.8652 112.5 38.5 108.135 38.5 102.75ZM48.25 96C44.5221 96 41.5 99.0221 41.5 102.75C41.5 106.478 44.5221 109.5 48.25 109.5C51.978 109.5 55 106.478 55 102.75C55 99.0221 51.978 96 48.25 96Z" fill="#B3008C"/>
</g>
<defs>
<clipPath id="clip0_330_531">
<rect width="42" height="42" fill="white" transform="translate(16 70.5)"/>
</clipPath>
</defs>
</svg>
