<?xml version="1.0" encoding="UTF-8" standalone="no"?>
<svg
   width="282"
   height="183"
   viewBox="0 0 282 183"
   fill="none"
   version="1.1"
   id="svg69896"
   sodipodi:docname="feature-02.svg"
   inkscape:version="1.2.2 (732a01da63, 2022-12-09)"
   xmlns:inkscape="http://www.inkscape.org/namespaces/inkscape"
   xmlns:sodipodi="http://sodipodi.sourceforge.net/DTD/sodipodi-0.dtd"
   xmlns="http://www.w3.org/2000/svg"
   xmlns:svg="http://www.w3.org/2000/svg">
  <defs
     id="defs69900">
    <mask
       id="path-1-inside-1_330_491"
       fill="#ffffff">
      <path
         d="M 0,20.5 C 0,9.4543 8.95431,0.5 20,0.5 h 242 c 11.046,0 20,8.95431 20,20 v 142 c 0,11.046 -8.954,20 -20,20 H 20 c -11.0457,0 -20,-8.954 -20,-20 z"
         id="path71071" />
    </mask>
  </defs>
  <sodipodi:namedview
     id="namedview69898"
     pagecolor="#ffffff"
     bordercolor="#000000"
     borderopacity="0.25"
     inkscape:showpageshadow="2"
     inkscape:pageopacity="0.0"
     inkscape:pagecheckerboard="0"
     inkscape:deskcolor="#d1d1d1"
     showgrid="false"
     inkscape:zoom="1.6035482"
     inkscape:cx="-30.869045"
     inkscape:cy="-28.374577"
     inkscape:window-width="1920"
     inkscape:window-height="991"
     inkscape:window-x="-9"
     inkscape:window-y="-9"
     inkscape:window-maximized="1"
     inkscape:current-layer="svg69896" />
  <mask
     id="path-1-inside-1_330_476"
     fill="white">
    <path
       d="M0 20.5C0 9.4543 8.95431 0.5 20 0.5H262C273.046 0.5 282 9.45431 282 20.5V162.5C282 173.546 273.046 182.5 262 182.5H20C8.9543 182.5 0 173.546 0 162.5V20.5Z"
       id="path69877" />
  </mask>
  <path
     d="M0 20.5C0 9.4543 8.95431 0.5 20 0.5H262C273.046 0.5 282 9.45431 282 20.5V162.5C282 173.546 273.046 182.5 262 182.5H20C8.9543 182.5 0 173.546 0 162.5V20.5Z"
     fill="#EAF4FF"
     id="path69880" />
  <path
     d="M0 20.5C0 -3.80053 19.6995 -23.5 44 -23.5H238C262.301 -23.5 282 -3.80053 282 20.5V24.5C282 24.5 273.046 24.5 262 24.5H20C8.9543 24.5 0 24.5 0 24.5V20.5ZM282 182.5H0H282ZM0 182.5V0.5V182.5ZM282 0.5V182.5V0.5Z"
     fill="#B38000"
     mask="url(#path-1-inside-1_330_476)"
     id="path69882" />
  <path
     style="fill:#b38000;fill-opacity:1;stroke-width:3.77952"
     d="m 22.682586,116.85585 v -3.96569 h -0.915162 -0.915161 v -2.66921 -2.66922 h 28.369989 28.369991 v 2.66922 2.66921 h -1.13868 -1.13867 l 0.01,2.78362 c 0.005,1.53098 0.003,3.31554 -0.005,3.96569 l -0.0153,1.18209 h -0.83891 -0.83889 v -3.96571 -3.96569 h -6.4065 -6.406137 v 3.96569 3.96571 h -0.838895 -0.838895 v -3.96571 -3.96569 h -1.143955 -1.143949 v 3.96569 3.96571 h -0.838895 -0.838902 v -3.96571 -3.96569 h -6.406136 -6.406126 v 3.96569 3.96571 h -0.838895 -0.838902 v -3.96571 -3.96569 h -1.143948 -1.143956 v 3.96569 3.96571 h -0.838895 -0.838895 v -3.96571 -3.96569 h -6.177339 -6.177339 v 3.96569 3.96571 h -0.838895 -0.838895 z m 16.167839,-6.6349 v -0.8389 h -8.083916 -8.083923 v 0.8389 0.83889 h 8.083923 8.083916 z m 18.45575,0 v -0.8389 h -8.312717 -8.312709 v 0.8389 0.83889 h 8.312709 8.312717 z m 18.455748,0 v -0.8389 h -8.312711 -8.312714 v 0.8389 0.83889 h 8.312714 8.312711 z M 26.1907,117.69476 v -3.1268 h 0.838902 0.838894 v 2.21163 2.21164 h 0.915162 0.915162 v -2.21164 -2.21163 h 0.838895 0.838902 v 2.21163 2.21164 h 0.915155 0.915162 v -2.21164 -2.21163 h 0.838901 0.838895 v 3.1268 3.1268 H 30.537715 26.1907 Z m 17.998169,0 v -3.1268 h 0.838895 0.838902 v 2.21163 2.21164 h 0.915155 0.915161 v -2.21164 -2.21163 h 0.838902 0.838895 v 2.21163 2.21164 h 0.915162 0.915162 v -2.21164 -2.21163 h 0.838895 0.838901 v 3.1268 3.1268 h -4.347015 -4.347015 z m 18.455747,0.002 v -3.12914 h 0.838895 0.838902 v 2.21164 2.21164 h 0.915162 0.915161 v -2.21164 -2.21164 h 0.838895 0.838902 v 2.21164 2.21164 h 0.915162 0.915155 v -2.21925 -2.21926 l 0.877032,0.0457 0.877032,0.0457 v 3.05054 3.05053 l -4.385146,0.0405 -4.385152,0.0405 z M 24.414161,105.64143 c -0.05243,-0.13664 -0.06014,-0.81278 -0.01712,-1.50253 0.121555,-1.94841 0.758197,-2.87782 2.57637,-3.76115 l 0.700981,-0.34057 -0.138597,-0.616839 c -0.383188,-1.70547 0.791821,-3.68431 2.394846,-4.03317 2.002315,-0.43575 3.628214,1.16438 3.64828,3.59045 0.0085,1.030479 0.04039,1.141479 0.379974,1.323239 0.345803,0.18509 0.417435,0.151 1.067689,-0.508049 0.383357,-0.38855 1.047988,-0.87804 1.476951,-1.08777 l 0.779934,-0.38132 -0.07628,-0.87335 c -0.231669,-2.65229 1.89609,-4.59443 4.048327,-3.69517 1.311929,0.54816 1.925277,1.59467 1.948489,3.32457 l 0.01604,1.19647 0.807205,0.46603 c 0.443955,0.25632 1.02485,0.68369 1.290874,0.94971 0.63514,0.635139 0.843732,0.554349 0.691869,-0.26798 -0.442799,-2.39778 1.439524,-4.48423 3.6401,-4.03484 1.459307,0.29801 2.647529,2.21131 2.39969,3.86402 -0.05534,0.36915 -0.05967,0.73751 -0.0095,0.818589 0.05013,0.0811 0.355774,-0.109449 0.679271,-0.423389 0.32349,-0.31394 0.935201,-0.73334 1.359347,-0.932 l 0.77118,-0.3612 -0.08134,-0.93089 c -0.291395,-3.33463 3.185902,-5.20724 5.210584,-2.80603 0.677255,0.80322 0.872783,1.43381 0.806779,2.60195 l -0.059,1.04419 0.885283,0.47185 c 0.486923,0.25953 1.112984,0.72387 1.391253,1.03189 0.373426,0.413329 0.582079,0.533329 0.79655,0.458089 0.255558,-0.0896 0.284582,-0.231809 0.240809,-1.179459 -0.05196,-1.12451 0.26731,-2.17641 0.859219,-2.83095 0.735641,-0.81348 2.412091,-1.14473 3.340303,-0.66 1.175713,0.61397 1.792072,1.75983 1.800772,3.34778 l 0.0068,1.189979 0.83608,0.44907 c 1.02483,0.55047 1.865126,1.44814 2.104981,2.24872 0.09905,0.33062 0.180103,1.15942 0.180103,1.84179 v 1.24064 H 72.34601 71.522764 l -0.05378,-1.2854 c -0.06454,-1.54283 -0.285563,-1.91606 -1.537766,-2.59689 l -0.849496,-0.46188 -0.608085,0.34177 c -0.798215,0.44862 -1.953333,0.45751 -2.807741,0.0216 l -0.627509,-0.32012 -0.732705,0.34317 c -0.40299,0.18875 -0.924356,0.54291 -1.158609,0.78701 -0.382485,0.3986 -0.433672,0.57894 -0.502159,1.76915 l -0.07627,1.32531 h -0.838902 -0.838899 l -0.04634,-0.89762 c -0.06157,-1.19203 0.196483,-2.3264 0.692103,-3.0425 0.503498,-0.72747 0.41232,-0.90377 -0.815964,-1.57777 l -0.908437,-0.498499 -0.744869,0.377099 c -0.935837,0.47379 -1.678507,0.47783 -2.551053,0.0139 -0.631927,-0.335999 -0.721691,-0.346989 -1.198053,-0.1467 -0.283215,0.11909 -0.746533,0.39317 -1.029592,0.60907 l -0.514654,0.39254 0.376091,0.40239 c 0.750024,0.80245 0.932055,1.36856 0.938624,2.91908 l 0.0061,1.44901 h -0.838895 -0.838902 l -0.04397,-1.32873 c -0.04046,-1.22319 -0.07786,-1.36252 -0.47051,-1.75406 -0.234585,-0.23393 -0.75409,-0.58826 -1.154449,-0.78738 l -0.727934,-0.36206 -0.64859,0.32393 c -0.84495,0.42198 -1.910217,0.42221 -2.754457,4.6e-4 l -0.647426,-0.32334 -0.941087,0.50159 c -0.517597,0.27588 -1.023098,0.64445 -1.123341,0.81905 -0.100237,0.17458 -0.216569,0.90085 -0.258515,1.61392 l -0.07626,1.29647 h -0.838908 -0.838902 l 0.002,-1.29647 c 0.002,-1.61017 0.09016,-1.93267 0.770658,-2.82417 0.621745,-0.81453 0.619945,-0.81832 -0.72765,-1.52575 l -0.717902,-0.376859 -0.715689,0.380539 c -0.904344,0.48085 -1.63872,0.48182 -2.583643,0.003 l -0.744869,-0.377099 -0.920648,0.504409 c -0.506353,0.27743 -1.021522,0.68302 -1.144815,0.9013 -0.205819,0.36441 -0.194067,0.45043 0.143671,1.05135 0.314654,0.55986 0.369109,0.86444 0.376693,2.1069 l 0.0089,1.45242 h -0.839 -0.838895 l -0.07627,-1.29648 c -0.04195,-0.71306 -0.158277,-1.43933 -0.258514,-1.61393 -0.100244,-0.1746 -0.605744,-0.54317 -1.123342,-0.81904 l -0.941093,-0.5016 -0.672871,0.33604 c -0.865057,0.43204 -1.834884,0.43326 -2.695591,0.003 l -0.666078,-0.33266 -0.750281,0.38019 c -1.447163,0.73334 -1.500366,0.81448 -1.58626,2.4192 l -0.07626,1.42488 -0.80247,0.0461 c -0.629424,0.0362 -0.82303,-0.007 -0.897809,-0.20227 z m 6.665845,-5.26312 c 0.738739,-0.395349 0.980415,-1.834209 0.453292,-2.698729 -0.751235,-1.2321 -2.289934,-0.51283 -2.29149,1.07116 -0.0014,1.301599 0.921176,2.118349 1.838198,1.627569 z m 18.45575,0 c 0.738733,-0.395349 0.980408,-1.834209 0.453292,-2.698729 -0.519999,-0.85284 -1.4739,-0.84829 -1.996964,0.01 -0.347967,0.57066 -0.376903,1.28753 -0.0806,1.99668 0.322617,0.772119 0.964326,1.045719 1.624275,0.692529 z m 18.236736,-0.20125 c 0.348989,-0.300189 0.427495,-0.509499 0.48398,-1.290329 0.06339,-0.87624 0.03965,-0.95976 -0.39632,-1.39575 -0.578181,-0.57818 -1.136013,-0.60227 -1.62897,-0.0704 -0.695759,0.75073 -0.685428,2.00858 0.02233,2.716329 0.493647,0.49365 0.976883,0.50641 1.518991,0.0401 z M 40.666839,98.635981 c 1.514066,-0.78296 0.744104,-3.88309 -0.817009,-3.28956 -1.201306,0.45673 -1.259029,2.72911 -0.08424,3.31612 0.470083,0.23489 0.391157,0.23721 0.901252,-0.0266 z m 18.056663,-0.41745 c 0.41663,-0.55804 0.483154,-1.46742 0.154063,-2.10627 -0.753806,-1.46332 -2.334025,-0.85383 -2.334025,0.90024 0,0.83331 0.286246,1.3943 0.827576,1.62192 0.544233,0.22883 0.96842,0.0984 1.352386,-0.41589 z m -11.325126,-7.6672 -1.436534,-1.44253 -6.034263,-0.0446 -6.034271,-0.0446 -0.727921,-0.42789 c -0.834727,-0.49067 -1.39176,-1.25417 -1.635195,-2.241341 -0.11529,-0.467505 -0.154597,-2.94793 -0.123286,-7.778871 0.04492,-6.931355 0.05345,-7.106356 0.375191,-7.702602 0.415716,-0.770422 1.042447,-1.368663 1.738375,-1.659361 0.495744,-0.207083 2.843266,-0.308693 5.978198,-0.258764 l 0.724498,0.01157 v 0.838895 0.838902 h -2.829317 c -2.211827,0 -2.925513,0.04973 -3.270071,0.227914 -0.947697,0.490076 -0.916846,0.218944 -0.916846,8.057071 0,6.310195 0.02896,7.198417 0.24656,7.566809 0.50914,0.861908 0.384318,0.846308 7.150994,0.893578 l 6.253599,0.0437 1.105819,1.09645 1.105819,1.09645 1.105819,-1.0964 1.105819,-1.09641 6.177339,-0.0437 c 5.606644,-0.0397 6.213917,-0.0686 6.573277,-0.31279 0.217773,-0.14799 0.475158,-0.442925 0.571978,-0.655421 0.125046,-0.274434 0.176037,-2.46023 0.176037,-7.545538 v -7.159154 l -0.444761,-0.498119 -0.44476,-0.49812 -3.070705,-0.04709 -3.0707,-0.04709 0.04546,-0.857107 0.04546,-0.857115 3.10222,0.03099 c 3.527372,0.03525 3.826534,0.113551 4.806299,1.258183 0.856667,1.00082 0.888891,1.360051 0.834328,9.301724 l -0.04878,7.104701 -0.461613,0.746406 c -0.285833,0.46218 -0.74583,0.92218 -1.207997,1.20802 l -0.746385,0.46161 -6.044963,0.043 -6.04496,0.043 -1.438056,1.44406 c -0.790935,0.79424 -1.509412,1.44407 -1.596618,1.44407 -0.0872,0 -0.804987,-0.64914 -1.595083,-1.44253 z m -8.593631,-5.54238 -0.565172,-0.578793 0.61048,-0.596117 0.61048,-0.596117 0.61048,0.596117 0.61048,0.596117 -0.565165,0.578793 c -0.310852,0.318335 -0.605954,0.578791 -0.655795,0.578791 -0.04986,0 -0.344943,-0.260456 -0.655788,-0.578791 z m 13.241695,-0.02882 -0.598201,-0.6126 0.598201,-0.612604 0.598187,-0.612605 0.612605,0.612605 0.612604,0.612604 -0.612604,0.6126 -0.612605,0.612611 z m 4.756704,-1.075174 c -0.870314,-1.639613 -0.900576,-1.67501 -1.906591,-2.229892 -0.562229,-0.310101 -1.34861,-0.746661 -1.747514,-0.970131 l -0.72529,-0.406312 1.716711,-0.930641 1.716705,-0.930655 0.915169,-1.686105 c 0.503335,-0.927353 0.949476,-1.685678 0.991422,-1.685157 0.04195,4.4e-4 0.474887,0.754875 0.962087,1.676335 l 0.88582,1.675389 1.402078,0.756221 c 2.264642,1.221433 2.237093,1.040654 0.319163,2.094507 l -1.662564,0.913545 -0.886172,1.588452 c -0.487397,0.873643 -0.933537,1.636158 -0.991429,1.694477 -0.05791,0.05832 -0.503207,-0.643692 -0.989595,-1.560033 z m 1.308112,-2.505197 c 0.146546,-0.307307 0.479156,-0.644158 0.797145,-0.807293 l 0.545674,-0.279948 -0.597524,-0.335823 c -0.339395,-0.190753 -0.679542,-0.533856 -0.787396,-0.794244 -0.104438,-0.252128 -0.234585,-0.458413 -0.289216,-0.458413 -0.05466,0 -0.223233,0.230052 -0.374664,0.511238 -0.152642,0.283438 -0.519796,0.627826 -0.823977,0.772877 l -0.548651,0.261634 0.616948,0.367905 c 0.342968,0.204519 0.701692,0.572512 0.807794,0.828652 0.244368,0.589967 0.345701,0.579643 0.653867,-0.06657 z m -10.488098,0.987417 -0.598194,-0.612604 0.598194,-0.612605 0.598194,-0.612597 0.612604,0.612597 0.612598,0.612605 -0.612598,0.612604 -0.612604,0.612604 z M 36.472959,81.182243 c 0.03883,-0.135606 0.284075,-0.976138 0.544998,-1.867858 l 0.474399,-1.621292 -0.521189,-1.810562 c -0.340471,-1.182748 -0.462013,-1.823713 -0.350525,-1.848522 0.09387,-0.0209 0.923917,0.188938 1.844545,0.466268 l 1.673866,0.504235 1.807294,-0.518646 c 0.994006,-0.285251 1.835546,-0.49038 1.870084,-0.455842 0.03457,0.03457 -0.1726,0.86279 -0.460314,1.840566 l -0.523118,1.777763 0.525405,1.824993 c 0.288979,1.003748 0.525411,1.855883 0.525411,1.893635 0,0.03775 -0.825723,-0.176416 -1.834938,-0.475929 l -1.834931,-0.544571 -1.905785,0.541154 c -1.584941,0.450051 -1.893905,0.499655 -1.835202,0.294608 z m 4.238336,-2.485212 0.597686,0.151709 -0.112056,-0.481795 c -0.133719,-0.5749 -0.131304,-0.784555 0.01637,-1.426108 l 0.11207,-0.486734 -0.561431,0.17231 c -0.40615,0.124646 -0.730654,0.127136 -1.173243,0.009 l -0.611819,-0.163305 0.116169,0.401469 c 0.148447,0.513037 0.147609,1.055078 -0.0027,1.575246 l -0.118598,0.411143 0.569779,-0.157324 c 0.3831,-0.105778 0.765598,-0.107618 1.167465,-0.0054 z m 7.016396,-3.290442 -1.221921,-2.249768 -2.226143,-1.217624 c -1.224376,-0.669698 -2.226136,-1.25522 -2.226136,-1.301178 0,-0.04594 0.998736,-0.626785 2.219411,-1.290746 l 2.219405,-1.207205 1.126514,-2.067426 c 0.619587,-1.137089 1.187201,-2.166228 1.261363,-2.286971 0.09857,-0.160463 0.469901,0.3945 1.380077,2.062534 l 1.245221,2.282073 2.213978,1.204249 c 1.217686,0.662337 2.213972,1.249855 2.213972,1.305596 0,0.05575 -0.996286,0.643265 -2.213972,1.305602 l -2.213978,1.20425 -1.229464,2.253191 c -0.676207,1.23926 -1.251276,2.253198 -1.277932,2.253198 -0.02666,0 -0.598336,-1.012402 -1.270395,-2.249775 z m 1.934038,-2.516691 c 0.562878,-1.01479 0.695589,-1.147995 1.612212,-1.618173 0.549368,-0.281801 0.998851,-0.57415 0.998851,-0.649666 0,-0.07552 -0.450714,-0.359563 -1.001577,-0.631209 -0.929708,-0.45846 -1.04539,-0.57327 -1.612213,-1.600109 -0.335857,-0.60841 -0.635322,-1.106205 -0.665483,-1.106205 -0.03017,0 -0.317062,0.485678 -0.637555,1.079285 -0.53627,0.993269 -0.664773,1.122415 -1.612273,1.620426 -0.566255,0.297625 -1.029559,0.587674 -1.029559,0.644557 0,0.0569 0.451363,0.340086 1.003018,0.629349 0.916616,0.480624 1.055754,0.621176 1.615317,1.631745 0.336764,0.6082 0.635607,1.105818 0.664097,1.105818 0.02848,0 0.327813,-0.497618 0.665165,-1.105818 z m 10.3161,1.565896 -0.598187,-0.612605 0.598187,-0.612604 0.598194,-0.612604 0.612602,0.612604 0.612604,0.612604 -0.612604,0.612605 -0.612602,0.612604 z"
     id="path69875" />
</svg>
