<svg width="282" height="183" viewBox="0 0 282 183" fill="none" xmlns="http://www.w3.org/2000/svg">
<mask id="path-1-inside-1_330_536" fill="white">
<path d="M0 20.5C0 9.4543 8.95431 0.5 20 0.5H262C273.046 0.5 282 9.45431 282 20.5V162.5C282 173.546 273.046 182.5 262 182.5H20C8.9543 182.5 0 173.546 0 162.5V20.5Z"/>
</mask>
<path d="M0 20.5C0 9.4543 8.95431 0.5 20 0.5H262C273.046 0.5 282 9.45431 282 20.5V162.5C282 173.546 273.046 182.5 262 182.5H20C8.9543 182.5 0 173.546 0 162.5V20.5Z" fill="#EAF4FF"/>
<path d="M0 20.5C0 -3.80053 19.6995 -23.5 44 -23.5H238C262.301 -23.5 282 -3.80053 282 20.5V24.5C282 24.5 273.046 24.5 262 24.5H20C8.9543 24.5 0 24.5 0 24.5V20.5ZM282 182.5H0H282ZM0 182.5V0.5V182.5ZM282 0.5V182.5V0.5Z" fill="#00B327" mask="url(#path-1-inside-1_330_536)"/>
<path fill-rule="evenodd" clip-rule="evenodd" d="M30.2073 93.0365C29.7998 93.0365 29.409 93.1984 29.1208 93.4866C29.1208 93.4866 29.1208 93.4866 29.1208 93.4866M29.1208 93.4866C28.8326 93.7748 28.6707 94.1656 28.6707 94.5731V100.719C28.6707 101.568 27.9828 102.256 27.1342 102.256C26.2855 102.256 25.5976 101.568 25.5976 100.719V94.5731C25.5976 93.3505 26.0833 92.178 26.9477 91.3136L26.9478 91.3135C27.8122 90.4491 28.9847 89.9634 30.2073 89.9634H54.7927C56.0151 89.9634 57.1879 90.449 58.0523 91.3136L58.0524 91.3137C58.9165 92.178 59.4024 93.3504 59.4024 94.5731V100.719C59.4024 101.568 58.7145 102.256 57.8659 102.256C57.0172 102.256 56.3293 101.568 56.3293 100.719V94.5731C56.3293 94.1658 56.1674 93.7748 55.8791 93.4865M30.2073 93.0365H54.7927H30.2073ZM54.7927 93.0365C55.2002 93.0365 55.5911 93.1985 55.8791 93.4865L54.7927 93.0365Z" fill="#00B327"/>
<path fill-rule="evenodd" clip-rule="evenodd" d="M42.5 80.7439C43.3486 80.7439 44.0366 81.4318 44.0366 82.2805V100.72C44.0366 101.568 43.3486 102.256 42.5 102.256C41.6514 102.256 40.9634 101.568 40.9634 100.72V82.2805C40.9634 81.4318 41.6514 80.7439 42.5 80.7439Z" fill="#00B327"/>
<path fill-rule="evenodd" clip-rule="evenodd" d="M36.8658 76.1342C36.8658 73.5883 38.9297 71.5244 41.4756 71.5244H44.5488C47.0947 71.5244 49.1585 73.5883 49.1585 76.1342V79.2073C49.1585 81.7532 47.0947 83.8171 44.5488 83.8171H41.4756C38.9297 83.8171 36.8658 81.7532 36.8658 79.2073V76.1342ZM41.4756 74.5976C40.627 74.5976 39.939 75.2856 39.939 76.1342V79.2073C39.939 80.056 40.627 80.7439 41.4756 80.7439H44.5488C45.3974 80.7439 46.0854 80.056 46.0854 79.2073V76.1342C46.0854 75.2856 45.3974 74.5976 44.5488 74.5976H41.4756Z" fill="#00B327"/>
<path fill-rule="evenodd" clip-rule="evenodd" d="M36.8658 103.793C36.8658 101.247 38.9297 99.1829 41.4756 99.1829H44.5488C47.0946 99.1829 49.1585 101.247 49.1585 103.793V106.866C49.1585 109.412 47.0946 111.476 44.5488 111.476H41.4756C38.9297 111.476 36.8658 109.412 36.8658 106.866V103.793ZM41.4756 102.256C40.627 102.256 39.939 102.944 39.939 103.793V106.866C39.939 107.714 40.627 108.402 41.4756 108.402H44.5488C45.3974 108.402 46.0854 107.714 46.0854 106.866V103.793C46.0854 102.944 45.3974 102.256 44.5488 102.256H41.4756Z" fill="#00B327"/>
<path fill-rule="evenodd" clip-rule="evenodd" d="M21.5 103.793C21.5 101.247 23.5639 99.1829 26.1098 99.1829H29.1829C31.7288 99.1829 33.7927 101.247 33.7927 103.793V106.866C33.7927 109.412 31.7288 111.476 29.1829 111.476H26.1098C23.5639 111.476 21.5 109.412 21.5 106.866V103.793ZM26.1098 102.256C25.2611 102.256 24.5732 102.944 24.5732 103.793V106.866C24.5732 107.714 25.2611 108.402 26.1098 108.402H29.1829C30.0316 108.402 30.7195 107.714 30.7195 106.866V103.793C30.7195 102.944 30.0316 102.256 29.1829 102.256H26.1098Z" fill="#00B327"/>
<path fill-rule="evenodd" clip-rule="evenodd" d="M52.2317 103.793C52.2317 101.247 54.1235 99.1829 56.4573 99.1829H59.2744C61.6082 99.1829 63.5 101.247 63.5 103.793V106.866C63.5 109.412 61.6082 111.476 59.2744 111.476H56.4573C54.1235 111.476 52.2317 109.412 52.2317 106.866V103.793ZM56.4573 102.256C55.6794 102.256 55.0488 102.944 55.0488 103.793V106.866C55.0488 107.714 55.6794 108.402 56.4573 108.402H59.2744C60.0524 108.402 60.6829 107.714 60.6829 106.866V103.793C60.6829 102.944 60.0524 102.256 59.2744 102.256H56.4573Z" fill="#00B327"/>
</svg>
