<svg width="282" height="183" viewBox="0 0 282 183" fill="none" xmlns="http://www.w3.org/2000/svg">
<mask id="path-1-inside-1_330_521" fill="white">
<path d="M0 20.5C0 9.4543 8.95431 0.5 20 0.5H262C273.046 0.5 282 9.45431 282 20.5V162.5C282 173.546 273.046 182.5 262 182.5H20C8.9543 182.5 0 173.546 0 162.5V20.5Z"/>
</mask>
<path d="M0 20.5C0 9.4543 8.95431 0.5 20 0.5H262C273.046 0.5 282 9.45431 282 20.5V162.5C282 173.546 273.046 182.5 262 182.5H20C8.9543 182.5 0 173.546 0 162.5V20.5Z" fill="#EAF4FF"/>
<path d="M0 20.5C0 -3.80053 19.6995 -23.5 44 -23.5H238C262.301 -23.5 282 -3.80053 282 20.5V24.5C282 24.5 273.046 24.5 262 24.5H20C8.9543 24.5 0 24.5 0 24.5V20.5ZM282 182.5H0H282ZM0 182.5V0.5V182.5ZM282 0.5V182.5V0.5Z" fill="#B30033" mask="url(#path-1-inside-1_330_521)"/>
<path fill-rule="evenodd" clip-rule="evenodd" d="M40.5 75C40.5 72.5147 42.5147 70.5 45 70.5H72C74.4853 70.5 76.5 72.5147 76.5 75V108C76.5 110.485 74.4853 112.5 72 112.5H45C42.5148 112.5 40.5 110.485 40.5 108V75ZM45 73.5C44.1716 73.5 43.5 74.1716 43.5 75V108C43.5 108.828 44.1716 109.5 45 109.5H72C72.8285 109.5 73.5 108.828 73.5 108V75C73.5 74.1716 72.8285 73.5 72 73.5H45Z" fill="#B30033"/>
<path fill-rule="evenodd" clip-rule="evenodd" d="M40.5 102C40.5 101.172 41.1716 100.5 42 100.5H75C75.8284 100.5 76.5 101.172 76.5 102C76.5 102.828 75.8284 103.5 75 103.5H42C41.1716 103.5 40.5 102.828 40.5 102Z" fill="#B30033"/>
<path fill-rule="evenodd" clip-rule="evenodd" d="M49.5 79.5C49.5 78.6716 50.1716 78 51 78H66C66.8284 78 67.5 78.6716 67.5 79.5C67.5 80.3284 66.8284 81 66 81H51C50.1716 81 49.5 80.3284 49.5 79.5Z" fill="#B30033"/>
<path fill-rule="evenodd" clip-rule="evenodd" d="M49.5 87C49.5 86.1716 50.1716 85.5 51 85.5H66C66.8284 85.5 67.5 86.1716 67.5 87C67.5 87.8284 66.8284 88.5 66 88.5H51C50.1716 88.5 49.5 87.8284 49.5 87Z" fill="#B30033"/>
<path fill-rule="evenodd" clip-rule="evenodd" d="M49.5 94.5C49.5 93.6716 50.1716 93 51 93H60C60.8284 93 61.5 93.6716 61.5 94.5C61.5 95.3284 60.8284 96 60 96H51C50.1716 96 49.5 95.3284 49.5 94.5Z" fill="#B30033"/>
</svg>
