<?xml version="1.0" encoding="UTF-8" standalone="no"?>
<svg
   width="282"
   height="183"
   viewBox="0 0 282 183"
   fill="none"
   version="1.1"
   id="svg17543"
   sodipodi:docname="feature-7.svg"
   xml:space="preserve"
   inkscape:version="1.2.2 (732a01da63, 2022-12-09)"
   xmlns:inkscape="http://www.inkscape.org/namespaces/inkscape"
   xmlns:sodipodi="http://sodipodi.sourceforge.net/DTD/sodipodi-0.dtd"
   xmlns="http://www.w3.org/2000/svg"
   xmlns:svg="http://www.w3.org/2000/svg"><sodipodi:namedview
     id="namedview17545"
     pagecolor="#ffffff"
     bordercolor="#000000"
     borderopacity="0.25"
     inkscape:showpageshadow="2"
     inkscape:pageopacity="0.0"
     inkscape:pagecheckerboard="0"
     inkscape:deskcolor="#d1d1d1"
     showgrid="false"
     inkscape:zoom="3.2070963"
     inkscape:cx="48.174418"
     inkscape:cy="68.441973"
     inkscape:window-width="1920"
     inkscape:window-height="991"
     inkscape:window-x="-9"
     inkscape:window-y="-9"
     inkscape:window-maximized="1"
     inkscape:current-layer="svg17543" /><mask
     id="path-1-inside-1_330_531"
     fill="white"><path
       d="M0 20.5C0 9.4543 8.95431 0.5 20 0.5H262C273.046 0.5 282 9.45431 282 20.5V162.5C282 173.546 273.046 182.5 262 182.5H20C8.9543 182.5 0 173.546 0 162.5V20.5Z"
       id="path17521" /></mask><path
     d="M0 20.5C0 9.4543 8.95431 0.5 20 0.5H262C273.046 0.5 282 9.45431 282 20.5V162.5C282 173.546 273.046 182.5 262 182.5H20C8.9543 182.5 0 173.546 0 162.5V20.5Z"
     fill="#EAF4FF"
     id="path17524" /><path
     d="M0 20.5C0 -3.80053 19.6995 -23.5 44 -23.5H238C262.301 -23.5 282 -3.80053 282 20.5V24.5C282 24.5 273.046 24.5 262 24.5H20C8.9543 24.5 0 24.5 0 24.5V20.5ZM282 182.5H0H282ZM0 182.5V0.5V182.5ZM282 0.5V182.5V0.5Z"
     fill="#B3008C"
     mask="url(#path-1-inside-1_330_531)"
     id="path17526" /><defs
     id="defs17541"><clipPath
       id="clip0_330_531"><rect
         width="42"
         height="42"
         fill="white"
         transform="translate(16 70.5)"
         id="rect17538" /></clipPath></defs><path
     style="fill:#b3008c;fill-opacity:1;stroke-width:1"
     d="m 41.197682,114.1387 c -3.402503,-0.65017 -6.676836,-2.07 -9.395384,-4.07408 -1.697006,-1.25101 -1.95105,-1.75979 -1.405472,-2.81483 0.743953,-1.43865 1.323861,-4.33958 1.323861,-6.62248 0,-2.929106 -0.651566,-5.398256 -2.178756,-8.256476 -2.407893,-4.506516 -3.081553,-8.02896 -2.311355,-12.085646 1.771063,-9.328285 10.969299,-14.96652 21.438128,-13.140909 2.589554,0.45158 3.706469,0.880999 5.718921,2.198721 3.216652,2.106213 4.848039,5.228156 5.484307,10.495177 0.27587,2.283648 0.982728,3.637303 2.441793,4.676139 2.225753,1.58471 2.649792,2.115485 2.649792,3.316815 0,0.886055 -0.145428,1.261893 -0.758428,1.96006 -0.417138,0.475095 -1.062988,1.021303 -1.435225,1.213783 -0.642175,0.33209 -0.680396,0.44532 -0.747136,2.2135 -0.06562,1.73864 -0.112361,1.8836 -0.697449,2.16326 -0.344909,0.16487 -1.483115,0.42431 -2.529346,0.57654 -1.046229,0.15222 -1.946736,0.31586 -2.00113,0.36365 -0.286821,0.25195 0.948888,1.11195 2.06318,1.43588 2.016625,0.58625 2.226829,1.0131 2.096862,4.257866 -0.200322,5.00126 -1.453587,5.95879 -7.799156,5.95879 h -2.871178 l -0.06787,2.82982 -0.06787,2.82983 -0.963561,0.32012 c -1.419817,0.4717 -5.938283,0.57606 -7.987534,0.18447 z m 5.909859,-2.21966 0.75278,-0.15056 v -2.22221 -2.2222 l -1.594522,-0.67768 c -1.638148,-0.69623 -4.271519,-2.85896 -4.550193,-3.73698 -0.222815,-0.70203 0.290388,-1.43898 1.002081,-1.43898 0.417385,0 1.078677,0.42301 2.011715,1.28684 2.028316,1.87787 4.064121,2.60008 7.755452,2.75132 3.280417,0.13441 4.78014,-0.0402 5.524626,-0.64299 0.481485,-0.38988 0.532534,-0.64213 0.51627,-2.55095 l -0.01805,-2.11829 -0.865037,-0.297386 c -1.945905,-0.66897 -3.266204,-2.13207 -3.457786,-3.83179 -0.102638,-0.91061 -0.03041,-1.15368 0.500594,-1.68469 0.479003,-0.479 0.862617,-0.62054 1.681872,-0.62054 0.583736,0 1.570854,-0.0698 2.193601,-0.15519 l 1.132267,-0.1552 -0.06503,-1.59294 c -0.07623,-1.867103 0.02178,-2.078844 1.187636,-2.565971 1.026795,-0.429025 1.738793,-1.021519 1.738793,-1.44695 0,-0.165608 -0.478702,-0.581649 -1.06378,-0.924527 -2.307696,-1.352397 -3.659022,-3.66232 -4.011196,-6.856631 -0.475582,-4.313631 -1.883533,-7.132568 -4.373259,-8.755908 -1.577684,-1.028683 -2.271346,-1.305014 -4.402943,-1.753959 -5.597366,-1.178885 -11.727646,0.46609 -15.391725,4.130171 -3.351703,3.351701 -4.713954,8.174495 -3.629743,12.850406 0.199684,0.86118 1.001343,2.817686 1.781463,4.347799 2.172763,4.26157 2.545712,5.68911 2.545712,9.744256 0,2.89409 -0.08332,3.64221 -0.587387,5.27403 l -0.587386,1.90157 0.707832,0.56719 c 1.693076,1.35668 5.652958,3.0154 8.237381,3.45049 1.440499,0.24251 4.339794,0.29608 5.327957,0.0984 z m 17.660535,-7.13637 c -1.557569,-2.27682 -1.714939,-3.0464 -0.730681,-3.57317 0.763594,-0.40866 1.316843,-0.0383 2.228224,1.49165 0.901513,1.51337 1.06781,2.32526 0.576841,2.81624 -0.590241,0.59023 -1.352738,0.32017 -2.074384,-0.73472 z m 3.312974,-4.859946 c -1.724707,-0.37857 -1.913082,-0.5093 -1.913082,-1.32769 0,-1.1531 0.466811,-1.3297 2.594142,-0.98142 2.167103,0.35481 2.946329,0.75833 2.946329,1.52574 0,1.157566 -0.969092,1.366856 -3.627389,0.78337 z m -2.767766,-5.06061 c -0.509489,-0.77758 -0.245437,-1.23908 1.434804,-2.50767 1.375276,-1.03834 2.284534,-1.25192 2.781337,-0.65331 0.551758,0.66483 0.157781,1.39805 -1.387733,2.58264 -1.709624,1.31039 -2.273242,1.42563 -2.828408,0.57834 z"
     id="path17990" /></svg>
