<svg width="282" height="183" viewBox="0 0 282 183" fill="none" xmlns="http://www.w3.org/2000/svg">
<mask id="path-1-inside-1_330_546" fill="white">
<path d="M0 20.5C0 9.4543 8.95431 0.5 20 0.5H262C273.046 0.5 282 9.45431 282 20.5V162.5C282 173.546 273.046 182.5 262 182.5H20C8.9543 182.5 0 173.546 0 162.5V20.5Z"/>
</mask>
<path d="M0 20.5C0 9.4543 8.95431 0.5 20 0.5H262C273.046 0.5 282 9.45431 282 20.5V162.5C282 173.546 273.046 182.5 262 182.5H20C8.9543 182.5 0 173.546 0 162.5V20.5Z" fill="#EAF4FF"/>
<path d="M0 20.5C0 -3.80053 19.6995 -23.5 44 -23.5H238C262.301 -23.5 282 -3.80053 282 20.5V24.5C282 24.5 273.046 24.5 262 24.5H20C8.9543 24.5 0 24.5 0 24.5V20.5ZM282 182.5H0H282ZM0 182.5V0.5V182.5ZM282 0.5V182.5V0.5Z" fill="#B32700" mask="url(#path-1-inside-1_330_546)"/>
<path fill-rule="evenodd" clip-rule="evenodd" d="M39.4731 90.1302C40.2746 90.3397 40.7545 91.1593 40.545 91.9608L38.6055 99.3795C38.396 100.181 37.5764 100.661 36.7749 100.451C35.9734 100.242 35.4935 99.4222 35.7031 98.6207L37.6425 91.202C37.852 90.4005 38.6716 89.9207 39.4731 90.1302Z" fill="#B32700"/>
<path fill-rule="evenodd" clip-rule="evenodd" d="M62.2646 82.5654C63.0568 82.8076 63.5027 83.6462 63.2605 84.4385L60.9676 91.9385C60.7254 92.7307 59.8869 93.1766 59.0946 92.9344C58.3024 92.6922 57.8565 91.8536 58.0987 91.0614L60.3916 83.5614C60.6338 82.7691 61.4724 82.3232 62.2646 82.5654Z" fill="#B32700"/>
<path fill-rule="evenodd" clip-rule="evenodd" d="M46.1862 88.2144C46.7703 87.6269 47.72 87.6241 48.3075 88.2082L52.0575 91.9362C52.645 92.5203 52.6478 93.47 52.0638 94.0576C51.4797 94.6451 50.53 94.6478 49.9425 94.0638L46.1925 90.3357C45.605 89.7517 45.6022 88.8019 46.1862 88.2144Z" fill="#B32700"/>
<path fill-rule="evenodd" clip-rule="evenodd" d="M60 73.5C59.1716 73.5 58.5 74.1716 58.5 75V81C58.5 81.8284 59.1716 82.5 60 82.5H66C66.8285 82.5 67.5 81.8284 67.5 81V75C67.5 74.1716 66.8285 73.5 66 73.5H60ZM55.5 75C55.5 72.5147 57.5147 70.5 60 70.5H66C68.4853 70.5 70.5 72.5147 70.5 75V81C70.5 83.4852 68.4853 85.5 66 85.5H60C57.5147 85.5 55.5 83.4853 55.5 81V75Z" fill="#B32700"/>
<path fill-rule="evenodd" clip-rule="evenodd" d="M54 93C53.1716 93 52.5 93.6716 52.5 94.5V100.5C52.5 101.328 53.1716 102 54 102H60C60.8285 102 61.5 101.328 61.5 100.5V94.5C61.5 93.6715 60.8285 93 60 93H54ZM49.5 94.5C49.5 92.0147 51.5147 90 54 90H60C62.4853 90 64.5 92.0147 64.5 94.5V100.5C64.5 102.985 62.4853 105 60 105H54C51.5148 105 49.5 102.985 49.5 100.5V94.5Z" fill="#B32700"/>
<path fill-rule="evenodd" clip-rule="evenodd" d="M38.25 81.0813C37.4216 81.0813 36.75 81.7529 36.75 82.5813V88.5813C36.75 89.4097 37.4216 90.0813 38.25 90.0813H44.25C45.0784 90.0813 45.75 89.4097 45.75 88.5813V82.5813C45.75 81.7529 45.0784 81.0813 44.25 81.0813H38.25ZM33.75 82.5813C33.75 80.096 35.7647 78.0813 38.25 78.0813H44.25C46.7353 78.0813 48.75 80.096 48.75 82.5813V88.5813C48.75 91.0666 46.7353 93.0813 44.25 93.0813H38.25C35.7647 93.0813 33.75 91.0666 33.75 88.5813V82.5813Z" fill="#B32700"/>
<path fill-rule="evenodd" clip-rule="evenodd" d="M33 100.5C32.1716 100.5 31.5 101.172 31.5 102V108C31.5 108.828 32.1716 109.5 33 109.5H39C39.8284 109.5 40.5 108.828 40.5 108V102C40.5 101.172 39.8284 100.5 39 100.5H33ZM28.5 102C28.5 99.5147 30.5147 97.5 33 97.5H39C41.4853 97.5 43.5 99.5147 43.5 102V108C43.5 110.485 41.4852 112.5 39 112.5H33C30.5147 112.5 28.5 110.485 28.5 108V102Z" fill="#B32700"/>
</svg>
