<svg width="282" height="183" viewBox="0 0 282 183" fill="none" xmlns="http://www.w3.org/2000/svg">
<mask id="path-1-inside-1_330_511" fill="white">
<path d="M0 20.5C0 9.4543 8.95431 0.5 20 0.5H262C273.046 0.5 282 9.45431 282 20.5V162.5C282 173.546 273.046 182.5 262 182.5H20C8.9543 182.5 0 173.546 0 162.5V20.5Z"/>
</mask>
<path d="M0 20.5C0 9.4543 8.95431 0.5 20 0.5H262C273.046 0.5 282 9.45431 282 20.5V162.5C282 173.546 273.046 182.5 262 182.5H20C8.9543 182.5 0 173.546 0 162.5V20.5Z" fill="#EAF4FF"/>
<path d="M0 20.5C0 -3.80053 19.6995 -23.5 44 -23.5H238C262.301 -23.5 282 -3.80053 282 20.5V24.5C282 24.5 273.046 24.5 262 24.5H20C8.9543 24.5 0 24.5 0 24.5V20.5ZM282 182.5H0H282ZM0 182.5V0.5V182.5ZM282 0.5V182.5V0.5Z" fill="#8CB300" mask="url(#path-1-inside-1_330_511)"/>
<path fill-rule="evenodd" clip-rule="evenodd" d="M27 75.7498C27 74.0929 28.3431 72.7498 30 72.7498H66C67.6567 72.7498 69 74.0928 69 75.7498V99.7498C69 101.406 67.6567 102.75 66 102.75H30C28.3431 102.75 27 101.406 27 99.7498V75.7498ZM66 75.7498H30V99.7498H66V75.7498Z" fill="#8CB300"/>
<path fill-rule="evenodd" clip-rule="evenodd" d="M45.5571 99.8571C46.3263 100.165 46.7004 101.038 46.3927 101.807L43.3927 109.307C43.085 110.076 42.2121 110.45 41.4429 110.143C40.6737 109.835 40.2996 108.962 40.6073 108.193L43.6073 100.693C43.915 99.9235 44.7879 99.5494 45.5571 99.8571Z" fill="#8CB300"/>
<path fill-rule="evenodd" clip-rule="evenodd" d="M50.4429 99.8571C51.2121 99.5494 52.085 99.9235 52.3927 100.693L55.3927 108.193C55.7004 108.962 55.3263 109.835 54.5571 110.143C53.7879 110.45 52.915 110.076 52.6073 109.307L49.6073 101.807C49.2996 101.038 49.6737 100.165 50.4429 99.8571Z" fill="#8CB300"/>
<path fill-rule="evenodd" clip-rule="evenodd" d="M37.5 108.75C37.5 107.921 38.1716 107.25 39 107.25H57C57.8284 107.25 58.5 107.921 58.5 108.75C58.5 109.578 57.8284 110.25 57 110.25H39C38.1716 110.25 37.5 109.578 37.5 108.75Z" fill="#8CB300"/>
</svg>
