<svg width="282" height="183" viewBox="0 0 282 183" fill="none" xmlns="http://www.w3.org/2000/svg">
<mask id="path-1-inside-1_330_481" fill="white">
<path d="M0 20.5C0 9.4543 8.95431 0.5 20 0.5H262C273.046 0.5 282 9.45431 282 20.5V162.5C282 173.546 273.046 182.5 262 182.5H20C8.9543 182.5 0 173.546 0 162.5V20.5Z"/>
</mask>
<path d="M0 20.5C0 9.4543 8.95431 0.5 20 0.5H262C273.046 0.5 282 9.45431 282 20.5V162.5C282 173.546 273.046 182.5 262 182.5H20C8.9543 182.5 0 173.546 0 162.5V20.5Z" fill="#EAF4FF"/>
<path d="M0 20.5C0 -3.80053 19.6995 -23.5 44 -23.5H238C262.301 -23.5 282 -3.80053 282 20.5V24.5C282 24.5 273.046 24.5 262 24.5H20C8.9543 24.5 0 24.5 0 24.5V20.5ZM282 182.5H0H282ZM0 182.5V0.5V182.5ZM282 0.5V182.5V0.5Z" fill="#A92E0A" mask="url(#path-1-inside-1_330_481)"/>
<g clip-path="url(#clip0_330_481)">
<path fill-rule="evenodd" clip-rule="evenodd" d="M78.5 91.5C78.5 89.8432 79.8432 88.5 81.5 88.5H93.5C95.1567 88.5 96.5 89.8431 96.5 91.5V109.5C96.5 111.157 95.1567 112.5 93.5 112.5H81.5C79.8431 112.5 78.5 111.157 78.5 109.5V91.5ZM93.5 91.5H81.5V109.5H93.5V91.5Z" fill="#A92E0A"/>
<path fill-rule="evenodd" clip-rule="evenodd" d="M78.5 73.5C78.5 71.8431 79.8432 70.5 81.5 70.5H93.5C95.1566 70.5 96.5 71.8431 96.5 73.5V79.53C96.5 81.1869 95.1567 82.53 93.5 82.53H81.5C79.8432 82.53 78.5 81.1868 78.5 79.53V73.5ZM93.5 73.5H81.5V79.53H93.5V73.5Z" fill="#A92E0A"/>
<path fill-rule="evenodd" clip-rule="evenodd" d="M54.5 73.5C54.5 71.8431 55.8431 70.5 57.5 70.5H69.5C71.1568 70.5 72.5 71.8431 72.5 73.5V91.5C72.5 93.1568 71.1568 94.5 69.5 94.5H57.5C55.8431 94.5 54.5 93.1568 54.5 91.5V73.5ZM69.5 73.5H57.5V91.5H69.5V73.5Z" fill="#A92E0A"/>
<path fill-rule="evenodd" clip-rule="evenodd" d="M54.5 103.47C54.5 101.813 55.8433 100.47 57.5 100.47H69.5C71.1567 100.47 72.5 101.813 72.5 103.47V109.5C72.5 111.157 71.1569 112.5 69.5 112.5H57.5C55.8431 112.5 54.5 111.157 54.5 109.5V103.47ZM69.5 103.47H57.5V109.5H69.5V103.47Z" fill="#A92E0A"/>
</g>
<defs>
<clipPath id="clip0_330_481">
<rect width="42" height="42" fill="white" transform="translate(54.5 70.5)"/>
</clipPath>
</defs>
</svg>
