<svg width="282" height="183" viewBox="0 0 282 183" fill="none" xmlns="http://www.w3.org/2000/svg">
<mask id="path-1-inside-1_330_526" fill="white">
<path d="M0 20.5C0 9.4543 8.95431 0.5 20 0.5H262C273.046 0.5 282 9.45431 282 20.5V162.5C282 173.546 273.046 182.5 262 182.5H20C8.9543 182.5 0 173.546 0 162.5V20.5Z"/>
</mask>
<path d="M0 20.5C0 9.4543 8.95431 0.5 20 0.5H262C273.046 0.5 282 9.45431 282 20.5V162.5C282 173.546 273.046 182.5 262 182.5H20C8.9543 182.5 0 173.546 0 162.5V20.5Z" fill="#EAF4FF"/>
<path d="M0 20.5C0 -3.80053 19.6995 -23.5 44 -23.5H238C262.301 -23.5 282 -3.80053 282 20.5V24.5C282 24.5 273.046 24.5 262 24.5H20C8.9543 24.5 0 24.5 0 24.5V20.5ZM282 182.5H0H282ZM0 182.5V0.5V182.5ZM282 0.5V182.5V0.5Z" fill="#2217B4" mask="url(#path-1-inside-1_330_526)"/>
<path fill-rule="evenodd" clip-rule="evenodd" d="M65 73.5C65 72.6716 65.6716 72 66.5 72H83C83.8284 72 84.5 72.6716 84.5 73.5C84.5 74.3284 83.8284 75 83 75H66.5C65.6716 75 65 74.3284 65 73.5Z" fill="#2217B4"/>
<path fill-rule="evenodd" clip-rule="evenodd" d="M65 82.5C65 81.6716 65.6716 81 66.5 81H83C83.8284 81 84.5 81.6716 84.5 82.5C84.5 83.3284 83.8284 84 83 84H66.5C65.6716 84 65 83.3284 65 82.5Z" fill="#2217B4"/>
<path fill-rule="evenodd" clip-rule="evenodd" d="M65 91.5C65 90.6716 65.6716 90 66.5 90H83C83.8284 90 84.5 90.6716 84.5 91.5C84.5 92.3284 83.8284 93 83 93H66.5C65.6716 93 65 92.3284 65 91.5Z" fill="#2217B4"/>
<path fill-rule="evenodd" clip-rule="evenodd" d="M65 109.5C65 108.672 65.6716 108 66.5 108H83C83.8284 108 84.5 108.672 84.5 109.5C84.5 110.328 83.8284 111 83 111H66.5C65.6716 111 65 110.328 65 109.5Z" fill="#2217B4"/>
<path fill-rule="evenodd" clip-rule="evenodd" d="M65 100.5C65 99.6716 65.6716 99 66.5 99H83C83.8284 99 84.5 99.6716 84.5 100.5C84.5 101.328 83.8284 102 83 102H66.5C65.6716 102 65 101.328 65 100.5Z" fill="#2217B4"/>
<path fill-rule="evenodd" clip-rule="evenodd" d="M42.5 75C42.5 73.3432 43.8431 72 45.5 72H57.5C59.1568 72 60.5 73.3432 60.5 75V87C60.5 88.6568 59.1568 90 57.5 90H45.5C43.8431 90 42.5 88.6568 42.5 87V75ZM57.5 75H45.5V87H57.5V75Z" fill="#2217B4"/>
<path fill-rule="evenodd" clip-rule="evenodd" d="M42.5 96C42.5 94.3432 43.8431 93 45.5 93H57.5C59.1568 93 60.5 94.3432 60.5 96V108C60.5 109.657 59.1569 111 57.5 111H45.5C43.8431 111 42.5 109.657 42.5 108V96ZM57.5 96H45.5V108H57.5V96Z" fill="#2217B4"/>
</svg>
