<svg width="282" height="183" viewBox="0 0 282 183" fill="none" xmlns="http://www.w3.org/2000/svg">
<mask id="path-1-inside-1_330_541" fill="white">
<path d="M0 20.5C0 9.4543 8.95431 0.5 20 0.5H262C273.046 0.5 282 9.45431 282 20.5V162.5C282 173.546 273.046 182.5 262 182.5H20C8.9543 182.5 0 173.546 0 162.5V20.5Z"/>
</mask>
<path d="M0 20.5C0 9.4543 8.95431 0.5 20 0.5H262C273.046 0.5 282 9.45431 282 20.5V162.5C282 173.546 273.046 182.5 262 182.5H20C8.9543 182.5 0 173.546 0 162.5V20.5Z" fill="#EAF4FF"/>
<path d="M0 20.5C0 -3.80053 19.6995 -23.5 44 -23.5H238C262.301 -23.5 282 -3.80053 282 20.5V24.5C282 24.5 273.046 24.5 262 24.5H20C8.9543 24.5 0 24.5 0 24.5V20.5ZM282 182.5H0H282ZM0 182.5V0.5V182.5ZM282 0.5V182.5V0.5Z" fill="#0054BD" mask="url(#path-1-inside-1_330_541)"/>
<path fill-rule="evenodd" clip-rule="evenodd" d="M35.0005 70.5L60.5 70.5C61.6933 70.5 62.8382 70.9741 63.6821 71.8181C64.5257 72.6619 65 73.8064 65 75V99C65 100.194 64.5257 101.338 63.682 102.182C62.8382 103.026 61.6935 103.5 60.5 103.5H35C34.2043 103.5 33.4412 103.816 32.8787 104.379C32.3161 104.941 32 105.704 32 106.5C32 107.296 32.3161 108.059 32.8787 108.621C33.4412 109.184 34.2043 109.5 35 109.5H63.5C64.3284 109.5 65 110.172 65 111C65 111.828 64.3284 112.5 63.5 112.5H35C33.4088 112.5 31.8826 111.868 30.7574 110.743C29.6321 109.618 29 108.091 29 106.5C29 106.473 29.0002 106.447 29.0005 106.42C29.0002 106.407 29 106.393 29 106.38V76.34C29.0417 74.7766 29.6927 73.2913 30.8135 72.2004C31.9341 71.1097 33.4368 70.4996 35.0005 70.5ZM32 101.304C32.9044 100.782 33.9377 100.5 35 100.5H60.5C60.8977 100.5 61.2794 100.342 61.5606 100.061C61.8419 99.7794 62 99.3978 62 99V75C62 74.6023 61.8419 74.2207 61.5605 73.9392C61.2794 73.6581 60.8979 73.5 60.5 73.5H35C34.218 73.4997 33.4663 73.8048 32.906 74.3502C32.3499 74.8914 32.0253 75.6269 32 76.402V101.304Z" fill="#0054BD"/>
<path fill-rule="evenodd" clip-rule="evenodd" d="M60.5 100.5C61.3284 100.5 62 101.172 62 102V111C62 111.828 61.3284 112.5 60.5 112.5C59.6716 112.5 59 111.828 59 111V102C59 101.172 59.6716 100.5 60.5 100.5Z" fill="#0033B3"/>
<path fill-rule="evenodd" clip-rule="evenodd" d="M48.6544 85.5059C48.6544 84.6774 49.326 84.0059 50.1544 84.0059H57.0995C57.6603 84.0059 58.1743 84.3187 58.4319 84.8168C58.6895 85.315 58.6477 85.9152 58.3235 86.3729L52.621 94.4236H57.5336C58.362 94.4236 59.0336 95.0952 59.0336 95.9236C59.0336 96.7521 58.362 97.4236 57.5336 97.4236H49.7203C49.1595 97.4236 48.6456 97.1108 48.388 96.6126C48.1303 96.1145 48.1721 95.5143 48.4963 95.0566L54.1988 87.0059H50.1544C49.326 87.0059 48.6544 86.3343 48.6544 85.5059Z" fill="#0033B3"/>
<path fill-rule="evenodd" clip-rule="evenodd" d="M40.8759 80.1778L41.9779 83.484H39.7738L40.8759 80.1778ZM36.2586 84.5429L35.1121 87.9822C34.8501 88.7682 35.2749 89.6176 36.0608 89.8796C36.8467 90.1416 37.6962 89.7168 37.9582 88.9309L38.7738 86.484H42.9779L43.7936 88.9309C44.0555 89.7168 44.905 90.1416 45.6909 89.8796C46.4769 89.6176 46.9016 88.7682 46.6396 87.9822L45.4932 84.5429C45.4862 84.5204 45.4788 84.4981 45.4709 84.4761L43.4416 78.3881C43.4416 78.3881 43.4416 78.3881 43.4416 78.3881C43.0734 77.2836 42.0399 76.5388 40.8759 76.5388C39.7118 76.5388 38.6783 77.2837 38.3102 78.3881L36.2808 84.476C36.2729 84.4981 36.2655 84.5204 36.2586 84.5429Z" fill="#0033B3"/>
</svg>
