<svg width="282" height="183" viewBox="0 0 282 183" fill="none" xmlns="http://www.w3.org/2000/svg">
<mask id="path-1-inside-1_330_486" fill="white">
<path d="M0 20.5C0 9.4543 8.95431 0.5 20 0.5H262C273.046 0.5 282 9.45431 282 20.5V162.5C282 173.546 273.046 182.5 262 182.5H20C8.9543 182.5 0 173.546 0 162.5V20.5Z"/>
</mask>
<path d="M0 20.5C0 9.4543 8.95431 0.5 20 0.5H262C273.046 0.5 282 9.45431 282 20.5V162.5C282 173.546 273.046 182.5 262 182.5H20C8.9543 182.5 0 173.546 0 162.5V20.5Z" fill="#EAF4FF"/>
<path d="M0 20.5C0 -3.80053 19.6995 -23.5 44 -23.5H238C262.301 -23.5 282 -3.80053 282 20.5V24.5C282 24.5 273.046 24.5 262 24.5H20C8.9543 24.5 0 24.5 0 24.5V20.5ZM282 182.5H0H282ZM0 182.5V0.5V182.5ZM282 0.5V182.5V0.5Z" fill="#BD0A00" mask="url(#path-1-inside-1_330_486)"/>
<path fill-rule="evenodd" clip-rule="evenodd" d="M33.9665 98.5505C33.9665 95.8309 36.1711 93.6263 38.8906 93.6263C41.6101 93.6263 43.8147 95.831 43.8147 98.5505C43.8147 101.27 41.6101 103.474 38.8906 103.474C36.1711 103.474 33.9665 101.27 33.9665 98.5505ZM38.8906 96.6263C37.8279 96.6263 36.9665 97.4878 36.9665 98.5505C36.9665 99.613 37.8279 100.474 38.8906 100.474C39.9533 100.474 40.8147 99.613 40.8147 98.5505C40.8147 97.4878 39.9532 96.6263 38.8906 96.6263Z" fill="#BD0A00"/>
<path fill-rule="evenodd" clip-rule="evenodd" d="M38.8844 103.2L38.891 103.2C41.6298 103.206 44.2075 104.712 45.5564 107.097L44.2508 107.836L45.5564 107.097C46.1953 108.226 46.5374 109.499 46.551 110.797C46.5597 111.625 45.8951 112.304 45.0668 112.312C44.2384 112.321 43.5598 111.657 43.5512 110.828C43.5429 110.038 43.3344 109.262 42.9452 108.574C42.1282 107.13 40.5468 106.205 38.8877 106.2C37.2286 106.205 35.6471 107.13 34.8302 108.574C34.441 109.262 34.2325 110.038 34.2242 110.828C34.2156 111.656 33.537 112.321 32.7087 112.312C31.8803 112.304 31.2158 111.625 31.2244 110.797C31.2379 109.499 31.5801 108.226 32.219 107.097L32.219 107.097C33.5679 104.712 36.1456 103.206 38.8844 103.2ZM33.5218 107.834L33.5232 107.835L33.5218 107.834Z" fill="#BD0A00"/>
<path fill-rule="evenodd" clip-rule="evenodd" d="M55.1013 98.5505C55.1013 95.8309 57.3059 93.6263 60.0254 93.6263C62.745 93.6263 64.9496 95.8309 64.9496 98.5505C64.9496 101.27 62.7449 103.474 60.0254 103.474C57.3059 103.474 55.1013 101.27 55.1013 98.5505ZM60.0254 96.6263C58.9627 96.6263 58.1013 97.4878 58.1013 98.5505C58.1013 99.613 58.9627 100.474 60.0254 100.474C61.0882 100.474 61.9496 99.613 61.9496 98.5505C61.9496 97.4878 61.0882 96.6263 60.0254 96.6263Z" fill="#BD0A00"/>
<path fill-rule="evenodd" clip-rule="evenodd" d="M44.7499 79.3214C44.7499 76.7277 46.8525 74.6251 49.4462 74.6251C52.0398 74.6251 54.1424 76.7277 54.1424 79.3214C54.1424 81.915 52.0398 84.0176 49.4462 84.0176C46.8525 84.0176 44.7499 81.915 44.7499 79.3214ZM49.4462 77.6251C48.5094 77.6251 47.7499 78.3845 47.7499 79.3214C47.7499 80.2582 48.5094 81.0176 49.4462 81.0176C50.383 81.0176 51.1424 80.2582 51.1424 79.3214C51.1424 78.3845 50.383 77.6251 49.4462 77.6251Z" fill="#BD0A00"/>
<path fill-rule="evenodd" clip-rule="evenodd" d="M49.4454 83.1044L49.4519 83.1044C52.1239 83.1102 54.6384 84.5799 55.9543 86.9063L54.6932 87.6197L55.9543 86.9063C56.5775 88.008 56.9114 89.2497 56.9246 90.5155C56.9332 91.3439 56.2687 92.0224 55.4403 92.031C54.6119 92.0397 53.9334 91.3751 53.9247 90.5468C53.9168 89.7881 53.7167 89.0437 53.3431 88.3833L54.6487 87.6448L53.3431 88.3833C52.559 86.9971 51.0407 86.109 49.4486 86.1044C47.8565 86.109 46.3382 86.9972 45.5541 88.3833L44.2485 87.6448L45.5541 88.3833C45.1805 89.0438 44.9805 89.7881 44.9725 90.5468C44.9638 91.3752 44.2853 92.0397 43.4569 92.031C42.6285 92.0224 41.964 91.3438 41.9727 90.5154C41.9859 89.2497 42.3197 88.008 42.9429 86.9063L42.9429 86.9063C44.2589 84.5799 46.7733 83.1102 49.4454 83.1044Z" fill="#BD0A00"/>
<path fill-rule="evenodd" clip-rule="evenodd" d="M31.4492 74.1658C31.4492 72.1474 33.0854 70.5111 35.1039 70.5111H63.7946C65.8128 70.5111 67.4492 72.1474 67.4492 74.1658V88.3763C67.4492 90.3948 65.8128 92.031 63.7946 92.031H35.1039C33.0854 92.031 31.4492 90.3948 31.4492 88.3763V74.1658ZM35.1039 73.5111C34.7423 73.5111 34.4492 73.8042 34.4492 74.1658V88.3763C34.4492 88.7379 34.7423 89.031 35.1039 89.031H63.7946C64.156 89.031 64.4492 88.7379 64.4492 88.3763V74.1658C64.4492 73.8042 64.156 73.5111 63.7946 73.5111H35.1039Z" fill="#BD0A00"/>
<path fill-rule="evenodd" clip-rule="evenodd" d="M60.109 103.376L60.1156 103.376C62.8544 103.382 65.4321 104.889 66.781 107.273L65.4754 108.012L66.781 107.273C67.4199 108.403 67.762 109.676 67.7756 110.973C67.7843 111.802 67.1198 112.48 66.2914 112.489C65.463 112.497 64.7844 111.833 64.7758 111.005C64.7675 110.214 64.559 109.438 64.1698 108.75C63.3528 107.306 61.7714 106.381 60.1123 106.376C58.4532 106.381 56.8718 107.306 56.0548 108.75C55.6656 109.439 55.4571 110.214 55.4488 111.004C55.4402 111.833 54.7617 112.497 53.9333 112.489C53.1049 112.48 52.4404 111.802 52.449 110.973C52.4625 109.676 52.8047 108.403 53.4436 107.273L53.4436 107.273C54.7925 104.889 57.3702 103.382 60.109 103.376ZM54.7464 108.01L54.7478 108.011L54.7464 108.01Z" fill="#BD0A00"/>
</svg>
