<?xml version="1.0" encoding="UTF-8" standalone="no"?>
<svg
   width="282"
   height="183"
   viewBox="0 0 282 183"
   fill="none"
   version="1.1"
   id="svg72137"
   sodipodi:docname="feature-09.svg"
   xml:space="preserve"
   inkscape:version="1.2.2 (732a01da63, 2022-12-09)"
   xmlns:inkscape="http://www.inkscape.org/namespaces/inkscape"
   xmlns:sodipodi="http://sodipodi.sourceforge.net/DTD/sodipodi-0.dtd"
   xmlns="http://www.w3.org/2000/svg"
   xmlns:svg="http://www.w3.org/2000/svg"><defs
     id="defs72141" /><sodipodi:namedview
     id="namedview72139"
     pagecolor="#ffffff"
     bordercolor="#000000"
     borderopacity="0.25"
     inkscape:showpageshadow="2"
     inkscape:pageopacity="0.0"
     inkscape:pagecheckerboard="0"
     inkscape:deskcolor="#d1d1d1"
     showgrid="false"
     inkscape:zoom="2.2677596"
     inkscape:cx="184.98434"
     inkscape:cy="13.890361"
     inkscape:window-width="1920"
     inkscape:window-height="991"
     inkscape:window-x="-9"
     inkscape:window-y="-9"
     inkscape:window-maximized="1"
     inkscape:current-layer="svg72137" /><mask
     id="path-1-inside-1_330_541"
     fill="white"><path
       d="M0 20.5C0 9.4543 8.95431 0.5 20 0.5H262C273.046 0.5 282 9.45431 282 20.5V162.5C282 173.546 273.046 182.5 262 182.5H20C8.9543 182.5 0 173.546 0 162.5V20.5Z"
       id="path72122" /></mask><path
     d="M0 20.5C0 9.4543 8.95431 0.5 20 0.5H262C273.046 0.5 282 9.45431 282 20.5V162.5C282 173.546 273.046 182.5 262 182.5H20C8.9543 182.5 0 173.546 0 162.5V20.5Z"
     fill="#EAF4FF"
     id="path72125" /><path
     d="M0 20.5C0 -3.80053 19.6995 -23.5 44 -23.5H238C262.301 -23.5 282 -3.80053 282 20.5V24.5C282 24.5 273.046 24.5 262 24.5H20C8.9543 24.5 0 24.5 0 24.5V20.5ZM282 182.5H0H282ZM0 182.5V0.5V182.5ZM282 0.5V182.5V0.5Z"
     fill="#0054BD"
     mask="url(#path-1-inside-1_330_541)"
     id="path72127"
     style="fill:#008000" /><path
     fill-rule="evenodd"
     clip-rule="evenodd"
     d="M35.0005 70.5L60.5 70.5C61.6933 70.5 62.8382 70.9741 63.6821 71.8181C64.5257 72.6619 65 73.8064 65 75V99C65 100.194 64.5257 101.338 63.682 102.182C62.8382 103.026 61.6935 103.5 60.5 103.5H35C34.2043 103.5 33.4412 103.816 32.8787 104.379C32.3161 104.941 32 105.704 32 106.5C32 107.296 32.3161 108.059 32.8787 108.621C33.4412 109.184 34.2043 109.5 35 109.5H63.5C64.3284 109.5 65 110.172 65 111C65 111.828 64.3284 112.5 63.5 112.5H35C33.4088 112.5 31.8826 111.868 30.7574 110.743C29.6321 109.618 29 108.091 29 106.5C29 106.473 29.0002 106.447 29.0005 106.42C29.0002 106.407 29 106.393 29 106.38V76.34C29.0417 74.7766 29.6927 73.2913 30.8135 72.2004C31.9341 71.1097 33.4368 70.4996 35.0005 70.5ZM32 101.304C32.9044 100.782 33.9377 100.5 35 100.5H60.5C60.8977 100.5 61.2794 100.342 61.5606 100.061C61.8419 99.7794 62 99.3978 62 99V75C62 74.6023 61.8419 74.2207 61.5605 73.9392C61.2794 73.6581 60.8979 73.5 60.5 73.5H35C34.218 73.4997 33.4663 73.8048 32.906 74.3502C32.3499 74.8914 32.0253 75.6269 32 76.402V101.304Z"
     fill="#0054BD"
     id="path72129"
     style="fill:#008000" /><path
     fill-rule="evenodd"
     clip-rule="evenodd"
     d="M60.5 100.5C61.3284 100.5 62 101.172 62 102V111C62 111.828 61.3284 112.5 60.5 112.5C59.6716 112.5 59 111.828 59 111V102C59 101.172 59.6716 100.5 60.5 100.5Z"
     fill="#0033B3"
     id="path72131"
     style="fill:#008000" /><path
     style="fill:#008000;stroke-width:1"
     d="m 46.592782,94.547211 c -0.10186,-0.0396 -1.29636,-0.57067 -2.65445,-1.18011 l -2.46925,-1.10806 -1.5016,-0.0898 c -1.30668,-0.0781 -1.60317,-0.13806 -2.28406,-0.46155 -1.99834,-0.94941 -3.06652,-2.6206 -3.06652,-4.79762 0,-1.57 0.41272,-2.56388 1.53684,-3.70087 1.1404,-1.15346 1.79877,-1.42091 3.77205,-1.53226 l 1.41982,-0.0801 2.71618,-1.20509 c 2.58554,-1.14713 2.7504,-1.20276 3.42775,-1.15658 0.78647,0.0536 1.14422,0.25974 1.75054,1.00866 l 0.37753,0.46632 0.0382,5.88401 c 0.0262,4.03879 -0.005,6.02985 -0.0982,6.34905 -0.17112,0.58346 -0.80014,1.31024 -1.32311,1.52876 -0.40188,0.16791 -1.29799,0.209 -1.64178,0.0753 z m 1.04943,-7.62319 c 0,-5.38421 -0.0116,-5.67982 -0.22384,-5.7207 -0.19885,-0.0383 -1.73484,0.57765 -3.99989,1.604 -0.42173,0.19109 -0.82452,0.45534 -0.89511,0.58723 -0.20241,0.37822 -0.17179,6.81636 0.0338,7.09748 0.20409,0.2791 4.50449,2.18133 4.83815,2.1401 0.2429,-0.03 0.24692,-0.123 0.24692,-5.70811 z m -7.25136,0.0346 c 0.0381,-3.66982 0.085,-3.52917 -1.10283,-3.30458 -1.79348,0.33909 -3.06613,2.15044 -2.70243,3.84633 0.25103,1.17051 1.17679,2.25965 2.18381,2.56922 0.19463,0.0598 0.63168,0.0984 0.9712,0.0858 l 0.61731,-0.023 z m 13.35174,5.59714 c -0.20602,-0.16683 -0.28529,-0.35929 -0.28529,-0.69263 0,-0.40232 0.0814,-0.53175 0.63402,-1.00784 2.45575,-2.11576 2.44119,-5.74534 -0.0317,-7.92212 -0.49854,-0.43884 -0.60225,-0.60238 -0.60225,-0.94967 0,-0.43763 0.28746,-0.86349 0.64382,-0.95378 0.48028,-0.12168 1.00057,0.17267 1.79639,1.01627 1.61463,1.71159 2.26905,3.8187 1.87769,6.04577 -0.26295,1.49634 -0.87071,2.65716 -1.98314,3.78777 -0.77471,0.78738 -0.95021,0.90724 -1.3284,0.90724 -0.24182,0 -0.56275,-0.10282 -0.72107,-0.23101 z m -2.68188,-1.99612 c -0.17465,-0.16271 -0.27021,-0.39879 -0.27021,-0.66755 0,-0.34932 0.10158,-0.50086 0.63521,-0.94764 1.45347,-1.21691 1.45231,-2.83157 -0.003,-4.05863 -0.5118,-0.43155 -0.6323,-0.60659 -0.6323,-0.91848 0,-0.82051 0.73779,-1.257 1.47784,-0.8743 0.6447,0.33339 1.58617,1.41224 1.88067,2.15509 0.41187,1.03895 0.3845,2.42476 -0.0672,3.40265 -0.76666,1.65973 -2.26938,2.60921 -3.02111,1.90886 z"
     id="path72272" /></svg>
