<svg width="282" height="183" viewBox="0 0 282 183" fill="none" xmlns="http://www.w3.org/2000/svg">
<mask id="path-1-inside-1_330_496" fill="white">
<path d="M0 20.5C0 9.4543 8.95431 0.5 20 0.5H262C273.046 0.5 282 9.45431 282 20.5V162.5C282 173.546 273.046 182.5 262 182.5H20C8.9543 182.5 0 173.546 0 162.5V20.5Z"/>
</mask>
<path d="M0 20.5C0 9.4543 8.95431 0.5 20 0.5H262C273.046 0.5 282 9.45431 282 20.5V162.5C282 173.546 273.046 182.5 262 182.5H20C8.9543 182.5 0 173.546 0 162.5V20.5Z" fill="#EAF4FF"/>
<path d="M0 20.5C0 -3.80053 19.6995 -23.5 44 -23.5H238C262.301 -23.5 282 -3.80053 282 20.5V24.5C282 24.5 273.046 24.5 262 24.5H20C8.9543 24.5 0 24.5 0 24.5V20.5ZM282 182.5H0H282ZM0 182.5V0.5V182.5ZM282 0.5V182.5V0.5Z" fill="#1085E6" mask="url(#path-1-inside-1_330_496)"/>
<g clip-path="url(#clip0_330_496)">
<path fill-rule="evenodd" clip-rule="evenodd" d="M65.4189 75.2826C65.4189 72.7715 67.4546 70.7358 69.9657 70.7358H84.3371C86.8483 70.7358 88.8838 72.7715 88.8838 75.2826V84.7496C88.8838 85.5781 88.2123 86.2496 87.3838 86.2496C86.5554 86.2496 85.8838 85.5781 85.8838 84.7496V75.2826C85.8838 74.4283 85.1914 73.7358 84.3371 73.7358H69.9657C69.1114 73.7358 68.4189 74.4284 68.4189 75.2826V110.763C68.4189 111.591 67.7474 112.263 66.9189 112.263C66.0905 112.263 65.4189 111.591 65.4189 110.763V75.2826Z" fill="#1085E6"/>
<path fill-rule="evenodd" clip-rule="evenodd" d="M62.0557 110.764C62.0557 109.936 62.7272 109.264 63.5557 109.264H78.4619C79.2903 109.264 79.9619 109.936 79.9619 110.764C79.9619 111.593 79.2903 112.264 78.4619 112.264H63.5557C62.7272 112.264 62.0557 111.593 62.0557 110.764Z" fill="#1085E6"/>
<path fill-rule="evenodd" clip-rule="evenodd" d="M65.4189 80.061C65.4189 79.2326 66.0905 78.561 66.9189 78.561H74.2993C75.1277 78.561 75.7993 79.2326 75.7993 80.061C75.7993 80.8895 75.1277 81.561 74.2993 81.561H66.9189C66.0905 81.561 65.4189 80.8895 65.4189 80.061Z" fill="#1085E6"/>
<path fill-rule="evenodd" clip-rule="evenodd" d="M65.4189 87.7485C65.4189 86.9201 66.0905 86.2485 66.9189 86.2485H78.4619C79.2903 86.2485 79.9619 86.9201 79.9619 87.7485C79.9619 88.577 79.2903 89.2485 78.4619 89.2485H66.9189C66.0905 89.2485 65.4189 88.577 65.4189 87.7485Z" fill="#1085E6"/>
<path fill-rule="evenodd" clip-rule="evenodd" d="M86.69 95.3448C86.69 91.6163 89.7126 88.5938 93.4412 88.5938C97.1698 88.5938 100.192 91.6164 100.192 95.3448C100.192 99.0733 97.1698 102.096 93.4412 102.096C89.7125 102.096 86.69 99.0733 86.69 95.3448ZM93.4412 91.5938C91.3694 91.5938 89.69 93.2732 89.69 95.3448C89.69 97.4165 91.3694 99.096 93.4412 99.096C95.5127 99.096 97.1921 97.4166 97.1921 95.3448C97.1921 93.2731 95.5128 91.5938 93.4412 91.5938Z" fill="#1085E6"/>
<path fill-rule="evenodd" clip-rule="evenodd" d="M84.5 112.5C85.3284 112.5 86 111.828 86 111C86 105.676 89.9732 102 93.5 102C97.0268 102 101 105.676 101 111C101 111.828 101.672 112.5 102.5 112.5C103.328 112.5 104 111.828 104 111C104 104.324 98.9732 99 93.5 99C88.0268 99 83 104.324 83 111C83 111.828 83.6716 112.5 84.5 112.5Z" fill="#1085E6"/>
</g>
<defs>
<clipPath id="clip0_330_496">
<rect width="42" height="42" fill="white" transform="translate(62 70.5)"/>
</clipPath>
</defs>
</svg>
