<?xml version="1.0" encoding="UTF-8" standalone="no"?>
<svg
   width="282"
   height="183"
   viewBox="0 0 282 183"
   fill="none"
   version="1.1"
   id="svg72301"
   sodipodi:docname="feature-06.svg"
   xml:space="preserve"
   inkscape:version="1.2.2 (732a01da63, 2022-12-09)"
   xmlns:inkscape="http://www.inkscape.org/namespaces/inkscape"
   xmlns:sodipodi="http://sodipodi.sourceforge.net/DTD/sodipodi-0.dtd"
   xmlns="http://www.w3.org/2000/svg"
   xmlns:svg="http://www.w3.org/2000/svg"><defs
     id="defs72305" /><sodipodi:namedview
     id="namedview72303"
     pagecolor="#ffffff"
     bordercolor="#000000"
     borderopacity="0.25"
     inkscape:showpageshadow="2"
     inkscape:pageopacity="0.0"
     inkscape:pagecheckerboard="0"
     inkscape:deskcolor="#d1d1d1"
     showgrid="false"
     inkscape:zoom="4.5355191"
     inkscape:cx="111.23313"
     inkscape:cy="91.830723"
     inkscape:window-width="1920"
     inkscape:window-height="991"
     inkscape:window-x="-9"
     inkscape:window-y="-9"
     inkscape:window-maximized="1"
     inkscape:current-layer="svg72301" /><mask
     id="path-1-inside-1_330_521"
     fill="white"><path
       d="M0 20.5C0 9.4543 8.95431 0.5 20 0.5H262C273.046 0.5 282 9.45431 282 20.5V162.5C282 173.546 273.046 182.5 262 182.5H20C8.9543 182.5 0 173.546 0 162.5V20.5Z"
       id="path72284" /></mask><path
     d="M0 20.5C0 9.4543 8.95431 0.5 20 0.5H262C273.046 0.5 282 9.45431 282 20.5V162.5C282 173.546 273.046 182.5 262 182.5H20C8.9543 182.5 0 173.546 0 162.5V20.5Z"
     fill="#EAF4FF"
     id="path72287" /><path
     d="M0 20.5C0 -3.80053 19.6995 -23.5 44 -23.5H238C262.301 -23.5 282 -3.80053 282 20.5V24.5C282 24.5 273.046 24.5 262 24.5H20C8.9543 24.5 0 24.5 0 24.5V20.5ZM282 182.5H0H282ZM0 182.5V0.5V182.5ZM282 0.5V182.5V0.5Z"
     fill="#B30033"
     mask="url(#path-1-inside-1_330_521)"
     id="path72289" /><path
     style="fill:#b30033;fill-opacity:1;stroke-width:1"
     d="m 39.129837,109.73665 c -2.149058,-0.44812 -4.63202,-2.283 -5.834301,-4.31149 l -1.08638,-1.83291 v -9.38722 c 0,-8.99274 0.03556,-9.479153 0.846043,-11.574712 1.576085,-4.075099 5.329396,-7.945191 9.355396,-9.646518 1.710102,-0.722653 2.896499,-0.877382 8.105699,-1.057133 l 6.102379,-0.210574 0.102978,-3.441737 c 0.09479,-3.170571 0.165538,-3.46391 0.897408,-3.723148 2.10255,-0.744753 2.768764,0.275892 2.768764,4.241765 v 3.110287 h 5.352471 c 7.71011,0 10.835358,1.147031 14.682201,5.388674 3.880586,4.278853 4.769178,7.994989 4.574384,19.130236 -0.119389,6.82418 -0.366546,7.98613 -2.175711,10.22826 -2.866705,3.55277 -8.134651,4.27382 -11.843922,1.62114 -0.813198,-0.58155 -2.447682,-2.5482 -3.769117,-4.53506 -3.246802,-4.88178 -3.498031,-5.0405 -8.220566,-5.19334 -4.991545,-0.16157 -5.944077,0.23082 -8.008296,3.29895 -3.223762,4.79156 -4.427086,6.18766 -6.031451,6.99768 -1.906679,0.96266 -3.974084,1.28135 -5.817945,0.89685 z m 4.843472,-4.61729 c 0.439764,-0.30199 1.819608,-2.12971 3.066322,-4.06163 3.496394,-5.41798 5.114972,-6.32006 11.340049,-6.32006 6.506191,0 7.938209,0.79593 11.58815,6.44076 1.482261,2.29239 2.828688,3.95062 3.503091,4.3143 2.518824,1.35831 6.016508,0.21168 7.184609,-2.3553 0.518197,-1.1388 0.585357,-2.46839 0.486575,-9.63322 -0.108026,-7.838355 -0.162532,-8.41269 -0.955774,-10.077566 -1.34323,-2.819183 -3.428528,-5.001553 -6.07954,-6.362528 L 71.710227,75.833772 H 58.41349 45.116742 l -2.400388,1.232309 c -2.739071,1.406188 -4.577424,3.388032 -5.97515,6.441548 -0.911733,1.991822 -0.946183,2.319225 -1.058145,10.057681 -0.125021,8.64171 -0.01503,9.34778 1.728184,11.08936 1.669001,1.66746 4.516838,1.86913 6.562066,0.46469 z M 43.45565,92.85597 c -1.940209,-1.068799 -2.927235,-2.735429 -3.100659,-5.235586 -0.194491,-2.803906 0.773151,-4.841455 2.923219,-6.15544 5.576195,-3.4078 11.652314,2.564215 8.818936,8.667821 C 50.634864,93.28279 46.56101,94.5666 43.45565,92.85597 Z m 4.973462,-3.798574 c 1.033635,-1.012622 1.067804,-2.514265 0.08682,-3.814773 -1.470169,-1.949066 -4.640467,-0.740691 -4.640467,1.76873 0,2.482072 2.816719,3.747674 4.553654,2.046043 z M 69.074706,93.16546 C 68.83779,92.9184 68.64395,91.907695 68.64395,90.919452 v -1.796805 h -1.535467 c -1.852307,0 -3.131059,-0.840837 -3.131059,-2.05884 0,-1.217991 1.278752,-2.05884 3.131059,-2.05884 h 1.535467 v -1.796805 c 0,-1.974627 0.444206,-2.695209 1.661485,-2.695209 1.256966,0 1.92815,0.986606 1.92815,2.834251 0,1.573129 0.05227,1.657763 1.023326,1.657763 2.411988,0 3.712232,1.035433 3.371598,2.684938 -0.146681,0.710264 -1.846856,1.432742 -3.371598,1.432742 -0.971075,0 -1.023326,0.08469 -1.023326,1.657775 0,1.007943 -0.221122,1.888338 -0.564089,2.246008 -0.669489,0.69815 -1.990744,0.76895 -2.59479,0.13903 z"
     id="path72436" /></svg>
