<svg width="282" height="183" viewBox="0 0 282 183" fill="none" xmlns="http://www.w3.org/2000/svg">
<mask id="path-1-inside-1_330_516" fill="white">
<path d="M0 20.5C0 9.4543 8.95431 0.5 20 0.5H262C273.046 0.5 282 9.45431 282 20.5V162.5C282 173.546 273.046 182.5 262 182.5H20C8.9543 182.5 0 173.546 0 162.5V20.5Z"/>
</mask>
<path d="M0 20.5C0 9.4543 8.95431 0.5 20 0.5H262C273.046 0.5 282 9.45431 282 20.5V162.5C282 173.546 273.046 182.5 262 182.5H20C8.9543 182.5 0 173.546 0 162.5V20.5Z" fill="#EAF4FF"/>
<path d="M0 20.5C0 -3.80053 19.6995 -23.5 44 -23.5H238C262.301 -23.5 282 -3.80053 282 20.5V24.5C282 24.5 273.046 24.5 262 24.5H20C8.9543 24.5 0 24.5 0 24.5V20.5ZM282 182.5H0H282ZM0 182.5V0.5V182.5ZM282 0.5V182.5V0.5Z" fill="#9C2D90" mask="url(#path-1-inside-1_330_516)"/>
<g clip-path="url(#clip0_330_516)">
<path fill-rule="evenodd" clip-rule="evenodd" d="M47.5488 72C47.5488 71.1716 48.2204 70.5 49.0488 70.5H67.956C70.1909 70.5 72.0024 72.3117 72.0024 74.5465V94.8825C72.0024 97.1172 70.1909 98.929 67.956 98.929H52.5C51.6716 98.929 51 98.2574 51 97.429C51 96.6005 51.6716 95.929 52.5 95.929H67.956C68.5339 95.929 69.0024 95.4605 69.0024 94.8825V74.5465C69.0024 73.9685 68.5339 73.5 67.956 73.5H49.0488C48.2204 73.5 47.5488 72.8284 47.5488 72Z" fill="#9C2D90"/>
<path fill-rule="evenodd" clip-rule="evenodd" d="M32.694 77.2516C32.694 73.5228 35.7168 70.5 39.4456 70.5C43.1744 70.5 46.1972 73.5228 46.1972 77.2516C46.1972 80.9804 43.1744 84.0032 39.4456 84.0032C35.7168 84.0032 32.694 80.9804 32.694 77.2516ZM39.4456 73.5C37.3737 73.5 35.694 75.1796 35.694 77.2516C35.694 79.3236 37.3737 81.0032 39.4456 81.0032C41.5176 81.0032 43.1972 79.3236 43.1972 77.2516C43.1972 75.1797 41.5176 73.5 39.4456 73.5Z" fill="#9C2D90"/>
<path fill-rule="evenodd" clip-rule="evenodd" d="M30 91.9468C30 86.7295 34.2295 82.5 39.4468 82.5H53.9176C56.4484 82.5 58.5 84.5516 58.5 87.0824C58.5 89.6132 56.4484 91.6648 53.9176 91.6648H46.7922L44.3409 111.187C44.2466 111.937 43.6087 112.5 42.8525 112.5H36.041C35.2673 112.5 34.6205 111.912 34.5477 111.141L33.541 100.5H31.5C30.6716 100.5 30 99.8284 30 99V91.9468ZM39.4468 85.5C35.8863 85.5 33 88.3863 33 91.9468V97.5H34.9057C35.6794 97.5 36.3262 98.0885 36.3991 98.8587L37.4058 109.5H41.5291L43.9804 89.9779C44.0746 89.2276 44.7126 88.6648 45.4688 88.6648H53.9176C54.7916 88.6648 55.5 87.9563 55.5 87.0824C55.5 86.2085 54.7915 85.5 53.9176 85.5H39.4468Z" fill="#9C2D90"/>
</g>
<defs>
<clipPath id="clip0_330_516">
<rect width="42" height="42" fill="white" transform="translate(30 70.5)"/>
</clipPath>
</defs>
</svg>
