<?xml version="1.0" encoding="UTF-8" standalone="no"?>
<svg
   width="282"
   height="183"
   viewBox="0 0 282 183"
   fill="none"
   version="1.1"
   id="svg16450"
   sodipodi:docname="feature-1010.svg"
   xml:space="preserve"
   inkscape:version="1.2.2 (732a01da63, 2022-12-09)"
   xmlns:inkscape="http://www.inkscape.org/namespaces/inkscape"
   xmlns:sodipodi="http://sodipodi.sourceforge.net/DTD/sodipodi-0.dtd"
   xmlns="http://www.w3.org/2000/svg"
   xmlns:svg="http://www.w3.org/2000/svg"><defs
     id="defs16454" /><sodipodi:namedview
     id="namedview16452"
     pagecolor="#ffffff"
     bordercolor="#000000"
     borderopacity="0.25"
     inkscape:showpageshadow="2"
     inkscape:pageopacity="0.0"
     inkscape:pagecheckerboard="0"
     inkscape:deskcolor="#d1d1d1"
     showgrid="false"
     inkscape:zoom="4.5355191"
     inkscape:cx="30.977711"
     inkscape:cy="110.3512"
     inkscape:window-width="1920"
     inkscape:window-height="991"
     inkscape:window-x="-9"
     inkscape:window-y="-9"
     inkscape:window-maximized="1"
     inkscape:current-layer="svg16450" /><mask
     id="path-1-inside-1_330_476"
     fill="white"><path
       d="M0 20.5C0 9.4543 8.95431 0.5 20 0.5H262C273.046 0.5 282 9.45431 282 20.5V162.5C282 173.546 273.046 182.5 262 182.5H20C8.9543 182.5 0 173.546 0 162.5V20.5Z"
       id="path16431" /></mask><path
     d="M0 20.5C0 9.4543 8.95431 0.5 20 0.5H262C273.046 0.5 282 9.45431 282 20.5V162.5C282 173.546 273.046 182.5 262 182.5H20C8.9543 182.5 0 173.546 0 162.5V20.5Z"
     fill="#EAF4FF"
     id="path16434" /><path
     d="M0 20.5C0 -3.80053 19.6995 -23.5 44 -23.5H238C262.301 -23.5 282 -3.80053 282 20.5V24.5C282 24.5 273.046 24.5 262 24.5H20C8.9543 24.5 0 24.5 0 24.5V20.5ZM282 182.5H0H282ZM0 182.5V0.5V182.5ZM282 0.5V182.5V0.5Z"
     fill="#B38000"
     mask="url(#path-1-inside-1_330_476)"
     id="path16436" /><path
     style="fill:#b38000;fill-opacity:1;stroke-width:1"
     d="m 47.755262,110.48046 c -0.265638,-0.26563 -0.302271,-0.50378 -0.302271,-1.96477 0,-2.12173 0.106564,-2.26705 1.662496,-2.26705 0.746213,0 1.057628,-0.0557 1.056829,-0.18892 -6.05e-4,-0.1039 -1.589269,-2.07549 -3.530325,-4.3813 -3.675455,-4.36612 -4.163762,-5.10393 -4.479353,-6.76804 -0.08281,-0.43666 -0.150567,-2.45307 -0.150567,-4.480905 0,-4.343894 -0.06302,-4.073222 1.88663,-8.104439 1.3777,-2.848625 1.730034,-3.279111 2.68485,-3.280412 0.644097,-6.5e-4 2.307036,0.857903 2.842773,1.468071 1.062037,1.2096 1.147882,2.285652 0.391667,4.909663 l -0.506582,1.757837 0.537343,0.100802 c 0.295534,0.05541 0.778541,0.226 1.073347,0.379018 0.670013,0.347763 8.197684,7.909855 8.529338,8.568335 0.563415,1.11862 0.692488,2.27119 0.694791,6.20409 l 0.002,3.8162 h 0.604549 c 1.043093,0 1.209093,0.31125 1.209093,2.26705 0,1.46099 -0.03661,1.69914 -0.302278,1.96477 -0.166247,0.16626 -0.438297,0.30228 -0.604543,0.30228 -0.624021,0 -0.906821,-0.51847 -0.906821,-1.6625 v -1.05796 h -5.440913 -5.440919 v 1.05796 c 0,1.14403 -0.282801,1.6625 -0.906821,1.6625 -0.166247,0 -0.438297,-0.13602 -0.604543,-0.30228 z m 10.552435,-8.42586 c -0.04695,-4.06754 -0.05918,-4.21455 -0.405227,-4.87415 -0.367637,-0.70081 -6.383704,-6.907909 -7.487213,-7.72495 -0.883884,-0.654437 -1.617136,-0.608036 -2.375504,0.150339 -0.480744,0.480744 -0.586762,0.693139 -0.586762,1.175463 0,0.768806 0.158559,0.98373 2.402752,3.256888 1.042989,1.05644 1.939808,2.0426 1.992928,2.19147 0.189054,0.52981 -0.245497,1.10193 -0.836968,1.10193 -0.366994,0 -4.610689,-4.20122 -4.961606,-4.91195 -0.692098,-1.401725 -0.373653,-3.046916 0.811891,-4.194518 0.491923,-0.476179 0.742135,-0.843407 0.742135,-1.089216 0,-0.203953 0.239833,-1.248769 0.532967,-2.321811 0.565477,-2.070019 0.559468,-2.426658 -0.05229,-3.103168 -0.271321,-0.300041 -1.378174,-0.912928 -1.474587,-0.816515 -0.0318,0.0318 -0.654307,1.277749 -1.383364,2.76879 l -1.325568,2.710981 v 4.30739 4.307397 l 0.414579,0.83125 c 0.240521,0.48226 1.899499,2.59237 3.951426,5.02597 1.945264,2.30709 3.578014,4.30199 3.628324,4.4331 0.05034,0.13112 0.09148,0.40286 0.09148,0.60387 v 0.36548 h 3.184533 3.184532 z m 7.583952,8.42586 c -0.265638,-0.26563 -0.302271,-0.50378 -0.302271,-1.96477 0,-1.9558 0.165999,-2.26705 1.209092,-2.26705 h 0.604543 l 0.0026,-3.74063 c 0.0026,-3.86917 0.147647,-5.19582 0.683781,-6.25914 0.339536,-0.67339 7.857966,-8.234881 8.539958,-8.588855 0.294805,-0.153018 0.777813,-0.32357 1.073347,-0.379018 l 0.537343,-0.100802 -0.506582,-1.757837 c -0.754648,-2.61858 -0.669772,-3.700746 0.384422,-4.90141 0.543762,-0.619306 2.201869,-1.476889 2.855526,-1.476889 0.95345,0 1.33466,0.486792 2.840567,3.627277 0.777267,1.62094 1.483452,3.273564 1.569303,3.672502 0.199706,0.92795 0.20396,7.520242 0.0059,8.566542 -0.31559,1.66411 -0.803905,2.40192 -4.479353,6.76804 -1.941063,2.30581 -3.529706,4.2774 -3.530324,4.3813 -6.51e-4,0.13325 0.310615,0.18892 1.056822,0.18892 1.555931,0 1.662503,0.14532 1.662503,2.26705 0,1.46099 -0.03661,1.69914 -0.302272,1.96477 -0.166253,0.16626 -0.438296,0.30228 -0.604549,0.30228 -0.624015,0 -0.906821,-0.51847 -0.906821,-1.6625 v -1.05796 h -5.440913 -5.440919 v 1.05796 c 0,1.14403 -0.282801,1.6625 -0.906815,1.6625 -0.166253,0 -0.438296,-0.13602 -0.604549,-0.30228 z m 9.67274,-4.5973 c 0,-0.20101 0.04071,-0.47163 0.09051,-0.60136 0.04975,-0.12973 1.68334,-2.12463 3.630126,-4.4331 2.071918,-2.45686 3.710761,-4.54191 3.952389,-5.02848 l 0.412777,-0.83125 v -4.307397 -4.30739 l -1.345788,-2.758241 c -0.740184,-1.517035 -1.38629,-2.757129 -1.435794,-2.755757 -0.265638,0.0073 -1.313355,0.735157 -1.584417,1.100648 -0.417641,0.563129 -0.379343,1.18291 0.194348,3.145545 0.25784,0.882082 0.468804,1.793715 0.468804,2.025847 0,0.305998 0.167671,0.565575 0.609759,0.943982 0.890256,0.762029 1.258251,1.567833 1.258837,2.756505 3.05e-4,0.644786 -0.09212,1.164173 -0.268974,1.511368 -0.410996,0.80681 -4.623358,4.98751 -5.025294,4.98751 -0.454757,0 -0.806155,-0.39105 -0.806155,-0.89709 0,-0.34009 0.368262,-0.7858 1.895429,-2.29405 2.149614,-2.12299 2.48753,-2.582297 2.48753,-3.381142 0,-0.45678 -0.113816,-0.680522 -0.586762,-1.153469 -0.652298,-0.652298 -1.340904,-0.773853 -2.103414,-0.371312 -0.693692,0.366207 -7.369834,7.202763 -7.759492,7.945923 -0.345772,0.65948 -0.358064,0.80737 -0.405038,4.87415 l -0.04845,4.19404 h 3.184532 3.184533 z M 57.12573,92.19294 c -0.380501,-0.380498 -0.377678,-0.801528 0.01112,-1.658663 0.49673,-1.095062 1.478158,-2.237807 2.497475,-2.907969 l 0.951707,-0.625711 -0.467998,-0.533012 c -1.313465,-1.495958 -1.655472,-3.761547 -0.827291,-5.480343 0.478195,-0.992439 1.489162,-1.984233 2.493664,-2.446371 0.547319,-0.251799 0.996347,-0.325111 1.991328,-0.325111 1.521749,0 2.32183,0.3035 3.38602,1.284434 1.949076,1.796596 2.0708,4.9183 0.271673,6.967391 l -0.467997,0.533012 0.962939,0.633093 c 1.607945,1.057166 3.038498,3.29031 2.708633,4.228282 -0.175462,0.498918 -0.84312,0.773018 -1.187254,0.487418 -0.131096,-0.10881 -0.485466,-0.668076 -0.787484,-1.242814 -0.623169,-1.185888 -1.412467,-1.945804 -2.619484,-2.521959 -0.716714,-0.342125 -1.029079,-0.396799 -2.267046,-0.396799 -1.237968,0 -1.550333,0.05469 -2.267046,0.396799 -1.182513,0.564456 -1.985085,1.323805 -2.563601,2.425527 -0.821327,1.564136 -1.195058,1.807096 -1.819358,1.182796 z m 7.598741,-6.054551 c 1.684549,-0.467802 2.674614,-2.551882 1.990411,-4.189808 -1.105266,-2.645928 -4.77302,-2.645928 -5.878293,0 -1.014335,2.428252 1.289787,4.911308 3.887882,4.189808 z m 10.155071,-5.89351 c -0.585378,-0.593813 -1.282035,-1.103621 -1.984304,-1.452099 -0.959323,-0.476023 -1.275245,-0.551293 -2.782005,-0.662794 -1.441934,-0.106701 -1.843245,-0.196409 -2.645485,-0.591347 -1.094106,-0.538625 -1.762499,-1.236088 -2.316504,-2.417236 -0.564203,-1.202894 -0.550253,-2.896971 0.03382,-4.109172 0.478195,-0.992439 1.489162,-1.984233 2.493664,-2.446371 0.99887,-0.45955 2.983779,-0.45955 3.982649,0 2.2163,1.019648 3.441494,3.579237 2.788488,5.825498 -0.13477,0.463595 -0.488821,1.205158 -0.786775,1.647922 -0.297959,0.442758 -0.481596,0.825067 -0.408088,0.849565 0.622154,0.207387 2.194735,1.336241 2.856469,2.050476 0.888754,0.959271 1.010979,1.418255 0.510861,1.918373 -0.474364,0.474371 -0.775426,0.368509 -1.7428,-0.612815 z m -4.260748,-4.081501 c 1.68455,-0.467803 2.674614,-2.551882 1.990411,-4.189808 -1.105266,-2.645928 -4.77302,-2.645928 -5.878286,0 -1.014341,2.428252 1.28978,4.911302 3.887875,4.189808 z M 50.626858,80.40429 c -0.166253,-0.166253 -0.302278,-0.428093 -0.302278,-0.581872 0,-0.709586 2.028,-2.758332 3.390026,-3.42471 l 0.820632,-0.401493 -0.502225,-0.657956 c -1.159511,-1.519038 -1.412551,-3.607312 -0.634081,-5.232849 0.474741,-0.99132 1.485103,-1.983518 2.491153,-2.446371 0.99887,-0.459543 2.983779,-0.459543 3.982649,0 1.004502,0.462138 2.015468,1.453932 2.493663,2.446371 0.584083,1.212201 0.598033,2.906284 0.03382,4.109172 -0.900916,1.920766 -2.267423,2.785504 -4.747813,3.004467 -2.635568,0.232659 -3.884292,0.885158 -5.606392,2.929514 -0.530222,0.629438 -0.966782,0.708103 -1.419165,0.255727 z m 8.203283,-5.147733 c 0.742949,-0.206314 1.597124,-0.965735 1.943268,-1.727687 0.933335,-2.054482 -0.626427,-4.459823 -2.891997,-4.459823 -2.872076,0 -4.273344,3.675735 -2.099635,5.507664 0.964662,0.81299 1.854392,1.011415 3.048364,0.679846 z"
     id="path16585" /></svg>
