<?xml version="1.0" encoding="UTF-8" standalone="no"?>
<svg
   id="Layer_1"
   data-name="Layer 1"
   viewBox="0 0 2472.98 1454.64"
   version="1.1"
   sodipodi:docname="logo.svg"
   xml:space="preserve"
   inkscape:version="1.2.2 (732a01da63, 2022-12-09)"
   xmlns:inkscape="http://www.inkscape.org/namespaces/inkscape"
   xmlns:sodipodi="http://sodipodi.sourceforge.net/DTD/sodipodi-0.dtd"
   xmlns="http://www.w3.org/2000/svg"
   xmlns:svg="http://www.w3.org/2000/svg"><sodipodi:namedview
     id="namedview1565"
     pagecolor="#ffffff"
     bordercolor="#000000"
     borderopacity="0.25"
     inkscape:showpageshadow="2"
     inkscape:pageopacity="0.0"
     inkscape:pagecheckerboard="0"
     inkscape:deskcolor="#d1d1d1"
     showgrid="false"
     inkscape:zoom="0.13425099"
     inkscape:cx="2476.7044"
     inkscape:cy="2037.229"
     inkscape:window-width="1920"
     inkscape:window-height="991"
     inkscape:window-x="-9"
     inkscape:window-y="-9"
     inkscape:window-maximized="1"
     inkscape:current-layer="g3577" /><defs
     id="defs1548"><style
       id="style1546">
      .cls-1 {
        fill: #0033b3;
      }

      .cls-1, .cls-2 {
        stroke-width: 0px;
      }

      .cls-2 {
        fill: #00b6bf;
      }
    </style><clipPath
       id="6def22c9d0"><path
         d="m 212.03516,218 h 50.25 v 19.75 h -50.25 z m 0,0"
         clip-rule="nonzero"
         id="path2245" /></clipPath><clipPath
       id="5d87e6fde0"><path
         d="m 225,187.5 h 20 V 204 h -20 z m 0,0"
         clip-rule="nonzero"
         id="path2248" /></clipPath></defs><g
     id="g3577"
     transform="matrix(9.3013069,0,0,9.305948,-11689.714,-14767.647)"
     style="stroke-width:0.107485"><g
       fill="#dc0c15"
       fill-opacity="1"
       id="g2263"
       transform="matrix(1.5033137,0,0,1.5033137,1124.111,1384.4548)"
       style="stroke-width:0.00993734"><g
         transform="translate(117.11113,180.55701)"
         id="g2261"
         style="stroke-width:0.0953316"><g
           id="g2259"
           style="stroke-width:0.0953316"><path
             d="m 2.953125,-15.703125 c 0.375,-0.375 0.820313,-0.5625 1.34375,-0.5625 0.519531,0 0.960937,0.1875 1.328125,0.5625 0.375,0.367187 0.5625,0.808594 0.5625,1.328125 0,0.523438 -0.1875,0.96875 -0.5625,1.34375 -0.367188,0.367188 -0.808594,0.546875 -1.328125,0.546875 -0.523437,0 -0.96875,-0.179687 -1.34375,-0.546875 -0.367187,-0.375 -0.546875,-0.820312 -0.546875,-1.34375 0,-0.519531 0.179688,-0.960938 0.546875,-1.328125 z m 4.875,0 c 0.375,-0.375 0.820313,-0.5625 1.34375,-0.5625 0.519531,0 0.960937,0.1875 1.328125,0.5625 0.375,0.367187 0.5625,0.808594 0.5625,1.328125 0,0.523438 -0.1875,0.96875 -0.5625,1.34375 -0.367188,0.367188 -0.808594,0.546875 -1.328125,0.546875 -0.523437,0 -0.96875,-0.179687 -1.34375,-0.546875 -0.367187,-0.375 -0.546875,-0.820312 -0.546875,-1.34375 0,-0.519531 0.179688,-0.960938 0.546875,-1.328125 z m -6.796875,5.15625 v 5.90625 c 0,1.75 0.453125,3.015625 1.359375,3.796875 0.914063,0.7734375 2.363281,1.15625 4.34375,1.15625 1.988281,0 3.4375,-0.3828125 4.34375,-1.15625 0.914063,-0.78125 1.375,-2.046875 1.375,-3.796875 v -5.90625 h -3.625 v 5.015625 c 0,1.042969 -0.164063,1.78125 -0.484375,2.21875 -0.3125,0.4375 -0.851562,0.65625 -1.609375,0.65625 -0.75,0 -1.28125,-0.21875 -1.59375,-0.65625 -0.3125,-0.4375 -0.46875,-1.175781 -0.46875,-2.21875 v -5.015625 z m 0,0"
             id="path2257"
             style="stroke-width:0.0953316" /></g></g></g><g
       fill="#dc0c15"
       fill-opacity="1"
       id="g2271"
       transform="matrix(1.5033137,0,0,1.5033137,1124.111,1384.4548)"
       style="stroke-width:0.00993734"><g
         transform="translate(128.84653,180.55701)"
         id="g2269"
         style="stroke-width:0.0953316"><g
           id="g2267"
           style="stroke-width:0.0953316"><path
             d="M 1.234375,0 V -17.6875 H 4.875 V 0 Z m 0,0"
             id="path2265"
             style="stroke-width:0.0953316" /></g></g></g><g
       fill="#dc0c15"
       fill-opacity="1"
       id="g2279"
       transform="matrix(1.5033137,0,0,1.5033137,1124.111,1384.4548)"
       style="stroke-width:0.00993734"><g
         transform="translate(133.20281,180.55701)"
         id="g2277"
         style="stroke-width:0.0953316"><g
           id="g2275"
           style="stroke-width:0.0953316"><path
             d="M 13.28125,-10.546875 8.265625,-5.515625 13.78125,0 H 9.09375 L 4.875,-4.21875 V 0 H 1.234375 V -17.6875 H 4.875 V -6.875 l 3.671875,-3.671875 z m 0,0"
             id="path2273"
             style="stroke-width:0.0953316" /></g></g></g><g
       fill="#dc0c15"
       fill-opacity="1"
       id="g2287"
       transform="matrix(1.5033137,0,0,1.5033137,1124.111,1384.4548)"
       style="stroke-width:0.00993734"><g
         transform="translate(144.73266,180.55701)"
         id="g2285"
         style="stroke-width:0.0953316"><g
           id="g2283"
           style="stroke-width:0.0953316"><path
             d="M 11.90625,-4.765625 H 4.25 c 0,0.742187 0.238281,1.289063 0.71875,1.640625 0.488281,0.355469 1.007812,0.53125 1.5625,0.53125 0.59375,0 1.0625,-0.078125 1.40625,-0.234375 0.34375,-0.15625 0.734375,-0.46875 1.171875,-0.9375 l 2.625,1.3125 c -1.09375,1.84375 -2.917969,2.765625 -5.46875,2.765625 -1.585937,0 -2.949219,-0.546875 -4.09375,-1.640625 -1.136719,-1.09375 -1.703125,-2.40625 -1.703125,-3.9375 0,-1.53125 0.566406,-2.84375 1.703125,-3.9375 1.144531,-1.101563 2.507813,-1.65625 4.09375,-1.65625 1.675781,0 3.035156,0.484375 4.078125,1.453125 1.050781,0.96875 1.578125,2.351562 1.578125,4.140625 0,0.25 -0.0078,0.417969 -0.01563,0.5 z M 4.359375,-6.78125 H 8.375 C 8.289062,-7.332031 8.070312,-7.753906 7.71875,-8.046875 7.375,-8.347656 6.925781,-8.5 6.375,-8.5 c -0.605469,0 -1.085938,0.164062 -1.4375,0.484375 -0.355469,0.3125 -0.546875,0.726563 -0.578125,1.234375 z m 0,0"
             id="path2281"
             style="stroke-width:0.0953316" /></g></g></g><g
       fill="#dc0c15"
       fill-opacity="1"
       id="g2295"
       transform="matrix(1.5033137,0,0,1.5033137,1124.111,1384.4548)"
       style="stroke-width:0.00993734"><g
         transform="translate(155.37867,180.55701)"
         id="g2293"
         style="stroke-width:0.0953316"><g
           id="g2291"
           style="stroke-width:0.0953316"><path
             d="M 1.234375,0 V -10.546875 H 4.875 V -9.4375 h 0.046875 c 0.9375,-0.945312 1.941406,-1.421875 3.015625,-1.421875 0.769531,0 1.488281,0.164063 2.15625,0.484375 0.675781,0.3125 1.1875,0.796875 1.53125,1.453125 1.0625,-1.289063 2.222656,-1.9375 3.484375,-1.9375 1.125,0 2.085937,0.320313 2.890625,0.953125 0.8125,0.625 1.21875,1.609375 1.21875,2.953125 V 0 h -3.625 V -5.96875 C 15.59375,-6.53125 15.4375,-7 15.125,-7.375 14.8125,-7.75 14.347656,-7.9375 13.734375,-7.9375 c -0.53125,0 -0.9375,0.164062 -1.21875,0.484375 -0.28125,0.324219 -0.4375,0.710937 -0.46875,1.15625 V 0 H 8.40625 V -5.96875 C 8.40625,-6.53125 8.25,-7 7.9375,-7.375 7.632812,-7.75 7.175781,-7.9375 6.5625,-7.9375 6,-7.9375 5.578125,-7.757812 5.296875,-7.40625 5.015625,-7.0625 4.875,-6.648438 4.875,-6.171875 V 0 Z m 0,0"
             id="path2289"
             style="stroke-width:0.0953316" /></g></g></g><g
       fill="#dc0c15"
       fill-opacity="1"
       id="g2303"
       transform="matrix(1.5033137,0,0,1.5033137,1124.111,1384.4548)"
       style="stroke-width:0.00993734"><g
         transform="translate(173.87655,180.55701)"
         id="g2301"
         style="stroke-width:0.0953316"><g
           id="g2299"
           style="stroke-width:0.0953316"><path
             d="m 9.234375,-10.546875 h 4.1875 L 5.140625,5.34375 h -4.1875 l 3.625,-6.984375 -4.984375,-8.90625 h 4.1875 l 2.9375,5.40625 z m 0,0"
             id="path2297"
             style="stroke-width:0.0953316" /></g></g></g><g
       fill="#dc0c15"
       fill-opacity="1"
       id="g2311"
       transform="matrix(1.5033137,0,0,1.5033137,1124.111,1384.4548)"
       style="stroke-width:0.00993734"><g
         transform="translate(185.13919,180.55701)"
         id="g2309"
         style="stroke-width:0.0953316"><g
           id="g2307"
           style="stroke-width:0.0953316"><path
             d="M 1.953125,-1.296875 C 0.960938,-2.378906 0.46875,-3.703125 0.46875,-5.265625 c 0,-1.5625 0.492188,-2.882813 1.484375,-3.96875 0.988281,-1.082031 2.242187,-1.625 3.765625,-1.625 1.394531,0 2.546875,0.4375 3.453125,1.3125 v -1 H 12.8125 V 0 H 9.21875 V -1.1875 H 9.171875 c -0.90625,1 -2.058594,1.5 -3.453125,1.5 -1.523438,0 -2.777344,-0.535156 -3.765625,-1.609375 z m 3.09375,-5.75 c -0.46875,0.460937 -0.703125,1.054687 -0.703125,1.78125 0,0.730469 0.222656,1.324219 0.671875,1.78125 0.457031,0.460937 1.054687,0.6875 1.796875,0.6875 0.707031,0 1.289062,-0.226563 1.75,-0.6875 0.457031,-0.46875 0.6875,-1.0625 0.6875,-1.78125 0,-0.726563 -0.242188,-1.320313 -0.71875,-1.78125 C 8.0625,-7.515625 7.488281,-7.75 6.8125,-7.75 c -0.710938,0 -1.296875,0.234375 -1.765625,0.703125 z m 0,0"
             id="path2305"
             style="stroke-width:0.0953316" /></g></g></g><g
       fill="#dc0c15"
       fill-opacity="1"
       id="g2319"
       transform="matrix(1.5033137,0,0,1.5033137,1124.111,1384.4548)"
       style="stroke-width:0.00993734"><g
         transform="translate(197.42957,180.55701)"
         id="g2317"
         style="stroke-width:0.0953316"><g
           id="g2315"
           style="stroke-width:0.0953316"><path
             d="M 1.234375,0 V -10.546875 H 4.875 V -9.4375 h 0.046875 c 0.9375,-0.945312 1.941406,-1.421875 3.015625,-1.421875 0.519531,0 1.035156,0.07031 1.546875,0.203125 0.519531,0.136719 1.015625,0.351562 1.484375,0.640625 0.46875,0.292969 0.847656,0.703125 1.140625,1.234375 0.300781,0.523438 0.453125,1.132812 0.453125,1.828125 V 0 H 8.921875 v -5.96875 c 0,-0.539062 -0.179687,-1.015625 -0.53125,-1.421875 -0.34375,-0.414063 -0.796875,-0.625 -1.359375,-0.625 -0.554688,0 -1.054688,0.214844 -1.5,0.640625 C 5.09375,-6.957031 4.875,-6.488281 4.875,-5.96875 V 0 Z m 0,0"
             id="path2313"
             style="stroke-width:0.0953316" /></g></g></g><g
       fill="#dc0c15"
       fill-opacity="1"
       id="g2327"
       transform="matrix(1.5033137,0,0,1.5033137,1124.111,1384.4548)"
       style="stroke-width:0.00993734"><g
         transform="translate(209.26774,180.55701)"
         id="g2325"
         style="stroke-width:0.0953316"><g
           id="g2323"
           style="stroke-width:0.0953316"><path
             d="m 0.953125,0 v -10.546875 h 3.625 V 0 Z m 0,0"
             id="path2321"
             style="stroke-width:0.0953316" /></g></g></g><g
       fill="#dc0c15"
       fill-opacity="1"
       id="g2335"
       transform="matrix(1.5033137,0,0,1.5033137,1124.111,1384.4548)"
       style="stroke-width:0.00993734"><g
         transform="translate(213.04849,180.55701)"
         id="g2333"
         style="stroke-width:0.0953316"><g
           id="g2331"
           style="stroke-width:0.0953316"><path
             d="M 1.234375,0 V -10.546875 H 4.875 V -9.4375 h 0.046875 c 0.9375,-0.945312 1.941406,-1.421875 3.015625,-1.421875 0.769531,0 1.488281,0.164063 2.15625,0.484375 0.675781,0.3125 1.1875,0.796875 1.53125,1.453125 1.0625,-1.289063 2.222656,-1.9375 3.484375,-1.9375 1.125,0 2.085937,0.320313 2.890625,0.953125 0.8125,0.625 1.21875,1.609375 1.21875,2.953125 V 0 h -3.625 V -5.96875 C 15.59375,-6.53125 15.4375,-7 15.125,-7.375 14.8125,-7.75 14.347656,-7.9375 13.734375,-7.9375 c -0.53125,0 -0.9375,0.164062 -1.21875,0.484375 -0.28125,0.324219 -0.4375,0.710937 -0.46875,1.15625 V 0 H 8.40625 V -5.96875 C 8.40625,-6.53125 8.25,-7 7.9375,-7.375 7.632812,-7.75 7.175781,-7.9375 6.5625,-7.9375 6,-7.9375 5.578125,-7.757812 5.296875,-7.40625 5.015625,-7.0625 4.875,-6.648438 4.875,-6.171875 V 0 Z m 0,0"
             id="path2329"
             style="stroke-width:0.0953316" /></g></g></g><g
       fill="#dc0c15"
       fill-opacity="1"
       id="g2343"
       transform="matrix(1.5033137,0,0,1.5033137,1124.111,1384.4548)"
       style="stroke-width:0.00993734"><g
         transform="translate(231.54636,180.55701)"
         id="g2341"
         style="stroke-width:0.0953316"><g
           id="g2339"
           style="stroke-width:0.0953316"><path
             d="M 1.953125,-1.296875 C 0.960938,-2.378906 0.46875,-3.703125 0.46875,-5.265625 c 0,-1.5625 0.492188,-2.882813 1.484375,-3.96875 0.988281,-1.082031 2.242187,-1.625 3.765625,-1.625 1.394531,0 2.546875,0.4375 3.453125,1.3125 V -17.6875 H 12.8125 V 0 H 9.21875 V -1.1875 H 9.171875 c -0.90625,1 -2.058594,1.5 -3.453125,1.5 -1.523438,0 -2.777344,-0.535156 -3.765625,-1.609375 z m 3.09375,-5.75 c -0.46875,0.460937 -0.703125,1.054687 -0.703125,1.78125 0,0.730469 0.222656,1.324219 0.671875,1.78125 0.457031,0.460937 1.054687,0.6875 1.796875,0.6875 0.707031,0 1.289062,-0.226563 1.75,-0.6875 0.457031,-0.46875 0.6875,-1.0625 0.6875,-1.78125 0,-0.726563 -0.242188,-1.320313 -0.71875,-1.78125 C 8.0625,-7.515625 7.488281,-7.75 6.8125,-7.75 c -0.710938,0 -1.296875,0.234375 -1.765625,0.703125 z m 0,0"
             id="path2337"
             style="stroke-width:0.0953316" /></g></g></g><g
       fill="#dc0c15"
       fill-opacity="1"
       id="g2351"
       transform="matrix(1.5033137,0,0,1.5033137,1124.111,1384.4548)"
       style="stroke-width:0.00993734"><g
         transform="translate(243.83673,180.55701)"
         id="g2349"
         style="stroke-width:0.0953316"><g
           id="g2347"
           style="stroke-width:0.0953316"><path
             d="M 1.953125,-1.296875 C 0.960938,-2.378906 0.46875,-3.703125 0.46875,-5.265625 c 0,-1.5625 0.492188,-2.882813 1.484375,-3.96875 0.988281,-1.082031 2.242187,-1.625 3.765625,-1.625 1.394531,0 2.546875,0.4375 3.453125,1.3125 v -1 H 12.8125 V 0 H 9.21875 V -1.1875 H 9.171875 c -0.90625,1 -2.058594,1.5 -3.453125,1.5 -1.523438,0 -2.777344,-0.535156 -3.765625,-1.609375 z m 3.09375,-5.75 c -0.46875,0.460937 -0.703125,1.054687 -0.703125,1.78125 0,0.730469 0.222656,1.324219 0.671875,1.78125 0.457031,0.460937 1.054687,0.6875 1.796875,0.6875 0.707031,0 1.289062,-0.226563 1.75,-0.6875 0.457031,-0.46875 0.6875,-1.0625 0.6875,-1.78125 0,-0.726563 -0.242188,-1.320313 -0.71875,-1.78125 C 8.0625,-7.515625 7.488281,-7.75 6.8125,-7.75 c -0.710938,0 -1.296875,0.234375 -1.765625,0.703125 z m 0,0"
             id="path2345"
             style="stroke-width:0.0953316" /></g></g></g><g
       clip-path="url(#6def22c9d0)"
       id="g2363"
       transform="matrix(1.5033137,0,0,1.5033137,1124.111,1384.4548)"
       style="stroke-width:0.0953316"><path
         fill="#000000"
         d="m 242.69922,220.73437 c 3.07031,2.17188 7.14844,2.32813 10.85156,1.6875 1.56641,-0.27343 3.21484,-0.73046 4.26172,-1.93359 0.58984,-0.67969 1.01172,-1.60547 1.86328,-1.89844 1.29688,-0.4414 2.5625,1.02344 2.58594,2.39453 0.0234,1.35157 -0.72266,2.63282 -1.75,3.50782 -1.02735,0.875 -2.3086,1.39453 -3.60156,1.78125 -4.09375,1.22265 -8.53907,1.23047 -12.63672,0.0195 0.10547,3.57031 0.20703,7.14062 0.3125,10.71094 0.008,0.23046 -0.004,0.49609 -0.1836,0.64062 -0.1289,0.0977 -0.30859,0.10156 -0.47265,0.10156 -4.30469,-0.0391 -8.60938,-0.0781 -12.91407,-0.11328 -0.17187,-0.004 -0.36718,-0.0117 -0.49218,-0.13281 -0.13672,-0.12891 -0.14453,-0.33984 -0.14063,-0.53125 0.0195,-3.11328 0.043,-6.22656 0.0625,-9.33984 -1.70312,0.99609 -3.7539,1.27343 -5.71484,1.08593 -1.96094,-0.1914 -3.85547,-0.82031 -5.69141,-1.54297 -2.07031,-0.8164 -4.13281,-1.78515 -5.74609,-3.32031 -0.64844,-0.61719 -1.25781,-1.47265 -1.03125,-2.33984 0.15625,-0.58594 0.66406,-1.01563 1.21484,-1.25781 1.42578,-0.62891 3.10156,-0.19141 4.48828,0.51562 1.39063,0.71094 2.64844,1.68359 4.11719,2.20703 2.70313,0.96485 5.94531,0.15235 7.88281,-1.97265 0.48438,-0.53125 1.28516,-0.58204 2.00391,-0.60157 2.67969,-0.0586 5.36328,-0.12109 8.04687,-0.18359 0.92579,-0.0195 1.92579,-0.0195 2.6836,0.51562 z m 0,0"
         fill-opacity="1"
         fill-rule="nonzero"
         id="path2361"
         style="stroke-width:0.00993734" /></g><path
       fill="#000000"
       d="m 1476.7028,1710.756 c -2.1259,-1.5502 -3.4941,-4.1164 -3.5117,-6.7472 -0.024,-2.6308 1.3448,-5.2499 3.5586,-6.671 1.6854,-1.0804 3.8053,-1.4445 5.7725,-1.0394 1.9614,0.4052 3.7524,1.568 4.968,3.1652 1.3917,1.8263 2.02,4.2339 1.6325,6.5006 -0.3935,2.2668 -1.8204,4.3456 -3.8288,5.4613 -2.6542,1.4681 -6.1366,1.1158 -8.5911,-0.6695 z m 0,0"
       fill-opacity="1"
       fill-rule="nonzero"
       id="path2365"
       style="stroke-width:0.143314" /><g
       clip-path="url(#5d87e6fde0)"
       id="g2369"
       transform="matrix(1.5033137,0,0,1.5033137,1124.111,1384.4548)"
       style="stroke-width:0.0953316"><path
         fill="#000000"
         d="m 230.90234,203.46094 c -0.17968,0.0273 -0.3789,0.0547 -0.53125,-0.0469 -0.12109,-0.0742 -0.1875,-0.21094 -0.24609,-0.34375 -1.48828,-3.25 -2.98047,-6.5039 -4.46875,-9.75781 -0.0547,-0.11719 -0.10938,-0.25 -0.0625,-0.36719 0.0703,-0.17969 0.30859,-0.20312 0.49609,-0.19922 2.6836,0.0352 5.36719,0.0703 8.05078,0.10547 0.10547,0.004 0.19922,-0.0664 0.28516,-0.13281 2.08203,-1.64453 4.16406,-3.28906 6.24609,-4.93359 0.17188,-0.13672 0.40625,-0.27735 0.59375,-0.16016 0.10157,0.0664 0.14454,0.19141 0.1836,0.30859 1.08594,3.375 2.17187,6.75 3.25781,10.125 0.0391,0.125 0.0781,0.25782 0.0391,0.38672 -0.0469,0.15235 -0.19531,0.2461 -0.33203,0.32422 -1.65234,0.95703 -3.30469,1.91016 -4.95703,2.86328 -0.54297,0.3125 -1.10156,0.63281 -1.71875,0.73047 -2.27734,0.36719 -4.55859,0.73047 -6.83594,1.09766 m 13.08985,-5.48828 c -1.02344,-3.16797 -2.04688,-6.33985 -3.07032,-9.51172 -1.85937,1.42968 -3.70312,2.8789 -5.53125,4.34765 -0.0859,0.0703 -0.17578,0.14453 -0.19531,0.25391 -0.0156,0.0742 0.008,0.15234 0.0312,0.22656 0.86719,2.83594 1.73438,5.66797 2.60156,8.5 2.00391,-1.14453 4.00391,-2.29297 6.00782,-3.4375 0.0742,-0.043 0.14843,-0.0898 0.17578,-0.16797 0.0234,-0.0664 0,-0.14062 -0.0195,-0.21093 m -9.46094,-4.37891 c -0.0859,-0.0664 -0.19922,-0.0703 -0.30469,-0.0703 -2.59765,-0.0352 -5.1914,-0.0664 -7.78906,-0.0977 1.38672,3.02734 2.77344,6.05859 4.16016,9.08594 0.043,0.0937 0.0937,0.19922 0.1875,0.24219 0.082,0.0391 0.17578,0.0234 0.26171,0.0117 1.94922,-0.30468 3.89844,-0.60546 5.84375,-0.91015 0.0547,-0.008 0.11719,-0.0195 0.14844,-0.0625 0.0391,-0.0547 0.0234,-0.12891 0.004,-0.19141 -0.79297,-2.58594 -1.58594,-5.17187 -2.37891,-7.75781 -0.0273,-0.0898 -0.0586,-0.1875 -0.13281,-0.25 z m 0,0"
         fill-opacity="1"
         fill-rule="nonzero"
         id="path2367"
         style="stroke-width:0.00993734" /></g><path
       fill="#000000"
       d="m 1505.9528,1689.5629 c 3.4823,0.047 6.9645,0.1004 10.4527,0.1527 0.276,0 0.5872,0.024 0.7576,0.2407 0.1408,0.1821 0.1232,0.4345 0.106,0.6636 -0.3758,4.5276 -0.7576,9.0551 -1.1393,13.5886 -0.018,0.1937 -0.041,0.411 -0.1762,0.5519 -0.2055,0.1997 -0.5402,0.1528 -0.8162,0.094 -0.5873,-0.1292 -1.1745,-0.2643 -1.7617,-0.3935 -0.4522,-0.1003 -0.7634,0.4816 -0.7341,0.9454 0.024,0.464 0.2114,0.9455 0.035,1.38 -0.1644,0.417 -0.6342,0.646 -1.0805,0.6637 -0.4463,0.018 -0.8808,-0.1351 -1.3036,-0.2819 -0.3642,-0.1351 -0.6578,0.3582 -0.6578,0.7457 -0.011,0.3935 0.077,0.8456 -0.1996,1.1217 -0.2173,0.2172 -0.5638,0.2172 -0.8632,0.1996 -2.807,-0.1291 -5.608,-0.2584 -8.4092,-0.3876 -0.5696,-0.029 -1.1979,-0.041 -1.656,0.3054 -0.1644,0.1291 -0.4287,0.024 -0.5343,-0.1645 -0.106,-0.1819 -0.106,-0.4051 -0.094,-0.6165 0.1469,-4.0461 0.2937,-8.092 0.4405,-12.1381 0.012,-0.2349 0.035,-0.4992 0.2114,-0.6577 0.1585,-0.135 0.3816,-0.1408 0.5931,-0.135 0.7399,0 1.4856,0.011 2.2315,0.012 -0.035,-0.6223 0.035,-1.2448 0.1996,-1.8439 0.053,-0.1819 0.1174,-0.364 0.2466,-0.4932 0.2173,-0.2114 0.5579,-0.2232 0.8574,-0.2232 0.8573,0.011 1.7206,0.012 2.578,0.018 -0.2056,-0.828 -0.2819,-1.6854 -0.2232,-2.531 0.012,-0.229 0.047,-0.4815 0.2173,-0.6401 0.182,-0.1762 0.4639,-0.1821 0.7223,-0.1762 m -3.359,4.4396 c -0.077,0.059 -0.1174,0.1527 -0.1468,0.2524 -0.1175,0.3641 -0.1234,0.7693 -0.024,1.1392 2.4076,0.035 4.8211,0.064 7.2287,0.1004 0.2115,0 0.4346,0.011 0.5991,0.135 0.2466,0.1938 0.2466,0.5578 0.229,0.869 -0.2056,3.0419 -0.4052,6.0838 -0.6108,9.1257 -0.018,0.3053 0.235,0.5696 0.5227,0.6693 0.2819,0.1004 0.5931,0.064 0.8984,0.035 0.088,-0.012 0.1821,-0.024 0.2526,-0.082 0.093,-0.077 0.1116,-0.2114 0.1173,-0.3348 0.3113,-3.9286 0.6166,-7.8629 0.9221,-11.7915 0.011,-0.088 0.012,-0.1763 -0.047,-0.2409 -0.059,-0.053 -0.1469,-0.059 -0.2232,-0.059 -3.124,0.029 -6.2422,0.064 -9.3604,0.094 -0.1233,0 -0.2584,0.011 -0.3583,0.088 m 10.8932,-1.2215 c 0.2584,0.1821 0.2643,0.5579 0.2466,0.8751 -0.2232,3.2296 -0.4404,6.4536 -0.6577,9.6834 0.5109,-3.224 0.6812,-6.4948 0.8515,-9.7539 0.018,-0.3582 0.011,-0.781 -0.2819,-0.9983 -0.1938,-0.1469 -0.4638,-0.1469 -0.7105,-0.1351 -2.1199,0.064 -4.2398,0.1292 -6.3656,0.1939 2.1258,0.011 4.2515,0.012 6.3773,0.024 0.1879,0 0.3876,0.011 0.5403,0.1116 m 1.6736,10.5526 c 0.2995,-4.0401 0.5931,-8.0803 0.8867,-12.1204 -0.3699,4.0166 -0.7399,8.0274 -1.1098,12.0382 -0.011,0.064 -0.018,0.1291 -0.064,0.1703 -0.047,0.041 -0.1232,0.035 -0.1819,0.024 -0.4287,-0.053 -0.8574,-0.106 -1.2862,-0.1644 0.4288,0.2231 0.9044,0.3582 1.3859,0.3875 0.099,0.011 0.2056,0.011 0.2819,-0.064 0.07,-0.064 0.082,-0.1703 0.088,-0.2701 m 0.4698,-12.5609 c -2.9655,-0.029 -5.931,-0.064 -8.9024,-0.094 -0.2173,-0.011 -0.4581,0.011 -0.6108,0.1644 3.3296,0.07 6.6651,0.1117 9.9947,0.135 -0.064,-0.1703 -0.2936,-0.1997 -0.4815,-0.2056 m -9.4603,0.3231 c -0.047,0.4345 -0.041,0.8749 0.018,1.3036 0.012,0.1003 0.047,0.2231 0.1469,0.2408 0.2055,-0.2996 -0.135,-0.7047 -0.071,-1.0687 0.012,-0.094 0.059,-0.1821 0.059,-0.276 0,-0.094 -0.059,-0.1997 -0.1527,-0.1997 z m 0,0"
       fill-opacity="1"
       fill-rule="nonzero"
       id="path2371"
       style="stroke-width:0.143314" /><path
       fill="#000000"
       d="m 1459.0094,1708.9885 c 0.012,0.2055 -0.1527,0.3935 -0.3464,0.4757 -0.1879,0.082 -0.4052,0.082 -0.6166,0.082 -2.2667,0.018 -4.5216,0.4639 -6.7943,0.511 -0.5226,0.011 -1.0746,-0.012 -1.515,-0.2938 0.276,-0.088 0.5637,-0.1232 0.8456,-0.1702 2.531,-0.3935 5.0325,-1.1745 7.5929,-1.0922 0.3524,0.012 0.8045,0.135 0.8338,0.4874 z m 0,0"
       fill-opacity="1"
       fill-rule="nonzero"
       id="path2373"
       style="stroke-width:0.143314" /><path
       fill="#000000"
       d="m 1500.9848,1677.7419 c 0.2877,-0.2994 0.8163,-0.323 1.1275,-0.047 0.3171,0.2701 0.364,0.7986 0.1059,1.1275 -0.27,0.3464 -0.8456,0.3993 -1.1802,0.1116 -0.3348,-0.2936 -0.3582,-0.875 -0.053,-1.1921 z m 0,0"
       fill-opacity="1"
       fill-rule="nonzero"
       id="path2375"
       style="stroke-width:0.143314" /><path
       fill="#000000"
       d="m 1447.993,1710.7502 c -0.9337,-0.276 -2.0024,-0.8279 -2.0729,-1.8086 -0.035,-0.4581 -0.071,-0.9161 -0.106,-1.3742 -0.035,-0.4815 -0.07,-0.963 -0.106,-1.4504 -0.182,-2.578 -0.3229,-5.1618 -0.4698,-7.7456 -0.047,-0.8926 -0.094,-1.7853 -0.1468,-2.6778 -0.018,-0.3523 -0.035,-0.7105 0.041,-1.0511 0.2583,-1.1863 1.5033,-1.8498 2.6542,-2.2081 3.4002,-1.0393 7.0645,-0.7516 10.5467,-0.059 0.3112,0.064 0.6518,0.1469 0.8398,0.4052 0.1469,0.2114 0.1585,0.4874 0.1644,0.7458 0.077,4.2398 0.1586,8.4855 0.2349,12.7253 0.012,0.4404 -0.041,0.9807 -0.4405,1.1686 -0.1761,0.082 -0.059,0.3641 -0.1468,0.5343 -0.071,0.141 -0.2525,0.1704 -0.4111,0.1821 -3.2709,0.2466 -6.5417,0.4933 -9.8184,0.7399 -0.047,-0.3582 0.4109,-0.5461 0.7691,-0.5989 2.0965,-0.3407 4.1988,-0.6813 6.2952,-1.0219 -2.895,-0.1585 -5.8253,0.3055 -8.5324,1.3389 -0.2526,0.094 -0.2878,0.4698 -0.1292,0.693 0.1586,0.2231 0.4287,0.323 0.687,0.3993 3.6233,1.1392 7.5284,0.9395 11.2925,0.4404 0.2467,-0.035 0.5403,-0.053 0.6929,0.1408 0.1645,0.1997 0.059,0.5227 -0.1468,0.6754 -0.2114,0.1585 -0.4756,0.1879 -0.7341,0.2173 -3.6584,0.3699 -7.4225,0.6166 -10.9577,-0.4111 m -1.7147,-14.8041 c 0.2055,0.276 0.135,0.6576 0.088,0.9983 -0.106,0.7105 -0.071,1.4329 -0.029,2.1493 0.1408,2.8421 0.2877,5.6784 0.4345,8.5207 3.6643,-1.3154 7.6399,-1.7617 11.5097,-1.2801 0.1997,0.024 0.276,-0.2584 0.2702,-0.464 -0.082,-3.9638 -0.1644,-7.9276 -0.2466,-11.8915 0,-0.1643 -0.011,-0.3406 -0.1116,-0.4638 -0.1117,-0.1409 -0.2995,-0.1821 -0.4697,-0.2114 -3.2651,-0.5873 -6.7063,-0.8751 -9.848,0.1996 -0.5344,0.182 -1.0864,0.4228 -1.4505,0.8633 -0.364,0.4345 -0.4932,1.1216 -0.1469,1.5796 z m 0,0"
       fill-opacity="1"
       fill-rule="nonzero"
       id="path2377"
       style="stroke-width:0.143314" /><path
       fill="#000000"
       d="m 1507.2035,1683.9607 c -0.1937,0.323 -0.6342,0.4757 -0.9865,0.3406 -0.3524,-0.1291 -0.5813,-0.5344 -0.5167,-0.9102 0.082,-0.4698 0.6459,-0.7928 1.0922,-0.6225 0.4463,0.1704 0.6577,0.781 0.411,1.1921 z m 0,0"
       fill-opacity="1"
       fill-rule="nonzero"
       id="path2379"
       style="stroke-width:0.143314" /><path
       fill="#000000"
       d="m 1508.519,1685.7987 c -0.012,0.3759 -0.3172,0.7223 -0.6871,0.7752 -0.3699,0.053 -0.7576,-0.1939 -0.8749,-0.5521 -0.1409,-0.4404 0.1879,-0.9688 0.6459,-1.0393 0.458,-0.064 0.9278,0.3524 0.9161,0.8162 z m 0,0"
       fill-opacity="1"
       fill-rule="nonzero"
       id="path2381"
       style="stroke-width:0.143314" /><path
       fill="#000000"
       d="m 1499.8456,1677.7126 c -0.3348,0.1644 -0.781,0.053 -1.0042,-0.2525 -0.2172,-0.2995 -0.1938,-0.7576 0.059,-1.0336 0.323,-0.3524 0.9689,-0.3229 1.2508,0.064 0.2877,0.3875 0.1291,1.0158 -0.3054,1.2214 z m 0,0"
       fill-opacity="1"
       fill-rule="nonzero"
       id="path2383"
       style="stroke-width:0.143314" /><path
       fill="#000000"
       d="m 1497.9605,1675.5809 c 0.135,0.3347 0.018,0.7517 -0.2701,0.9631 -0.3641,0.2643 -0.9396,0.1526 -1.1744,-0.229 -0.235,-0.3877 -0.071,-0.9514 0.3288,-1.1569 0.3993,-0.1997 0.9455,0.011 1.1157,0.4228 z m 0,0"
       fill-opacity="1"
       fill-rule="nonzero"
       id="path2385"
       style="stroke-width:0.143314" /><path
       fill="#000000"
       d="m 1503.7037,1680.5606 c -0.4581,0.188 -1.0453,-0.1644 -1.0982,-0.6576 -0.047,-0.3935 0.2467,-0.7987 0.6343,-0.8809 0.3876,-0.082 0.8221,0.1762 0.9336,0.5579 0.1175,0.3816 -0.1003,0.8338 -0.4697,0.9806 z m 0,0"
       fill-opacity="1"
       fill-rule="nonzero"
       id="path2387"
       style="stroke-width:0.143314" /><path
       fill="#000000"
       d="m 1461.5169,1681.0422 c -0.2584,0.2701 -0.7164,0.3229 -1.0277,0.1116 -0.3112,-0.2114 -0.4404,-0.6518 -0.2877,-0.9983 0.1528,-0.3406 0.5637,-0.5461 0.9278,-0.4581 0.276,0.071 0.5051,0.2879 0.5873,0.5638 0.077,0.2701 0,0.5814 -0.1997,0.781 z m 0,0"
       fill-opacity="1"
       fill-rule="nonzero"
       id="path2389"
       style="stroke-width:0.143314" /><path
       fill="#000000"
       d="m 1505.7473,1681.1714 c 0.064,0.1291 0.094,0.27 0.088,0.411 -0.024,0.4815 -0.5637,0.875 -1.0277,0.7399 -0.4638,-0.1349 -0.7164,-0.7517 -0.4756,-1.1745 0.1409,-0.2524 0.4287,-0.4169 0.7165,-0.411 0.2877,0.011 0.5637,0.182 0.6988,0.4346 z m 0,0"
       fill-opacity="1"
       fill-rule="nonzero"
       id="path2391"
       style="stroke-width:0.143314" /><path
       fill="#000000"
       d="m 1459.6848,1681.5355 c 0.041,0.1819 0.018,0.3816 -0.064,0.5461 -0.2173,0.4463 -0.8985,0.5755 -1.2626,0.2349 -0.364,-0.3406 -0.2877,-1.0277 0.1409,-1.2802 0.4286,-0.2525 1.0687,0.018 1.1862,0.4992 z m 0,0"
       fill-opacity="1"
       fill-rule="nonzero"
       id="path2393"
       style="stroke-width:0.143314" /><path
       fill="#000000"
       d="m 1507.8026,1687.3138 c 0.2524,-0.276 0.7046,-0.3347 1.0217,-0.135 0.3641,0.2349 0.4757,0.7928 0.2173,1.151 -0.2525,0.3523 -0.8162,0.4287 -1.1568,0.1527 -0.3348,-0.276 -0.3758,-0.8457 -0.082,-1.1687 z m 0,0"
       fill-opacity="1"
       fill-rule="nonzero"
       id="path2395"
       style="stroke-width:0.143314" /><path
       fill="#000000"
       d="m 1462.7032,1680.1613 c -0.1997,-0.135 -0.3348,-0.3758 -0.3465,-0.6165 -0.012,-0.235 0.088,-0.4757 0.2643,-0.6344 0.2936,-0.27 0.7927,-0.2641 1.0804,0.013 0.2936,0.2701 0.3231,0.7692 0.077,1.0804 -0.2524,0.3113 -0.7457,0.3877 -1.0746,0.1587 z m 0,0"
       fill-opacity="1"
       fill-rule="nonzero"
       id="path2397"
       style="stroke-width:0.143314" /><path
       fill="#000000"
       d="m 1495.8641,1674.9232 c 0.1879,0.4816 -0.229,1.0863 -0.7457,1.0805 -0.4581,0 -0.8574,-0.4697 -0.781,-0.922 0.077,-0.4521 0.5989,-0.7751 1.0334,-0.6283 0.2232,0.071 0.4111,0.2467 0.4933,0.4698 z m 0,0"
       fill-opacity="1"
       fill-rule="nonzero"
       id="path2399"
       style="stroke-width:0.143314" /><path
       fill="#000000"
       d="m 1456.1438,1683.2443 c 0,-0.3582 0.2701,-0.693 0.6106,-0.7693 0.3465,-0.077 0.7283,0.106 0.8809,0.4287 0.2056,0.4228 -0.077,0.9982 -0.5285,1.104 -0.458,0.106 -0.9571,-0.2936 -0.963,-0.7634 z m 0,0"
       fill-opacity="1"
       fill-rule="nonzero"
       id="path2401"
       style="stroke-width:0.143314" /><path
       fill="#000000"
       d="m 1455.674,1685.4581 c -0.3641,0.3523 -1.0688,0.1997 -1.2567,-0.27 -0.182,-0.4699 0.2231,-1.063 0.7223,-1.0571 0.3054,0 0.599,0.1996 0.7165,0.4875 0.1116,0.2818 0.035,0.6282 -0.1821,0.8396 z m 0,0"
       fill-opacity="1"
       fill-rule="nonzero"
       id="path2403"
       style="stroke-width:0.143314" /><path
       fill="#000000"
       d="m 1493.4741,1675.0171 c -0.082,0.276 -0.323,0.4933 -0.6048,0.5462 -0.2819,0.047 -0.5872,-0.077 -0.7517,-0.3053 -0.3112,-0.417 -0.029,-1.1275 0.4815,-1.2157 0.5167,-0.094 1.0218,0.4757 0.875,0.9748 z m 0,0"
       fill-opacity="1"
       fill-rule="nonzero"
       id="path2405"
       style="stroke-width:0.143314" /><path
       fill="#000000"
       d="m 1446.519,1695.0946 c -0.053,-0.6342 0.6695,-1.0217 1.2802,-1.2097 3.3119,-0.9983 6.9058,-1.0158 10.2295,-0.059 0.012,4.0342 0.088,8.0685 0.2291,12.1028 -3.7818,-0.1468 -7.7045,-0.2701 -11.1809,1.2273 -0.088,-2.0964 -0.1761,-4.1987 -0.2643,-6.2951 -0.035,-0.8221 -0.07,-1.6501 -0.106,-2.4723 -0.047,-1.0981 -0.088,-2.1962 -0.1879,-3.2943 z m 0,0"
       fill-opacity="1"
       fill-rule="nonzero"
       id="path2407"
       style="stroke-width:0.143314" /><path
       fill="#000000"
       d="m 1454.2529,1686.8852 c -0.07,0.411 -0.5226,0.7164 -0.922,0.6165 -0.4052,-0.094 -0.6753,-0.5638 -0.552,-0.9572 0.1116,-0.364 0.5286,-0.6049 0.8985,-0.5167 0.3641,0.082 0.6342,0.4814 0.5755,0.8574 z m 0,0"
       fill-opacity="1"
       fill-rule="nonzero"
       id="path2409"
       style="stroke-width:0.143314" /><g
       fill="#000000"
       fill-opacity="1"
       id="g2417"
       transform="matrix(1.5033137,0,0,1.5033137,1124.111,1384.4548)"
       style="stroke-width:0.00993734"><g
         transform="translate(90.574247,154.32684)"
         id="g2415"
         style="stroke-width:0.0953316"><g
           id="g2413"
           style="stroke-width:0.0953316"><path
             d="m 4.78125,-9.703125 c -0.429688,0 -0.757812,-0.117187 -0.984375,-0.359375 -0.230469,-0.238281 -0.34375,-0.523438 -0.34375,-0.859375 0,-0.09375 0.00781,-0.195313 0.03125,-0.3125 0.03125,-0.113281 0.066406,-0.210937 0.109375,-0.296875 0.144531,0.0625 0.351562,0.109375 0.625,0.140625 0.269531,0.02344 0.585938,0.03125 0.953125,0.03125 0.539063,0 1.15625,-0.01953 1.84375,-0.0625 0.6875,-0.05078 1.34375,-0.101563 1.96875,-0.15625 0.632813,-0.05078 1.191406,-0.101563 1.671875,-0.15625 0.476562,-0.05078 0.785156,-0.07813 0.921875,-0.07813 0.394531,0 0.679687,0.152344 0.859375,0.453125 0.175781,0.292969 0.304688,0.683594 0.390625,1.171875 -0.273437,-0.01953 -0.546875,-0.03516 -0.828125,-0.04687 -0.273438,-0.01953 -0.5,-0.03125 -0.6875,-0.03125 -0.34375,0 -0.6875,0.01172 -1.03125,0.03125 -0.34375,0.02344 -0.695312,0.05469 -1.046875,0.09375 -0.148437,0.304687 -0.3125,0.667969 -0.5,1.09375 -0.179687,0.417969 -0.355469,0.855469 -0.53125,1.3125 -0.179687,0.460937 -0.351563,0.917969 -0.515625,1.375 -0.15625,0.449219 -0.292969,0.855469 -0.40625,1.21875 -0.242188,0.710937 -0.449219,1.367187 -0.625,1.96875 -0.167969,0.59375 -0.320312,1.152344 -0.453125,1.671875 -0.136719,0.511719 -0.25,1 -0.34375,1.46875 C 5.765625,0.4375 5.675781,0.894531 5.59375,1.34375 4.882812,1.238281 4.289062,0.789062 3.8125,0 c 0.082031,-0.332031 0.179688,-0.691406 0.296875,-1.078125 0.125,-0.382813 0.269531,-0.828125 0.4375,-1.328125 0.164063,-0.5 0.359375,-1.0625 0.578125,-1.6875 0.226562,-0.632812 0.488281,-1.347656 0.78125,-2.140625 0.101562,-0.300781 0.210938,-0.613281 0.328125,-0.9375 0.125,-0.320313 0.238281,-0.644531 0.34375,-0.96875 0.113281,-0.320313 0.21875,-0.628906 0.3125,-0.921875 C 6.984375,-9.363281 7.0625,-9.640625 7.125,-9.890625 6.675781,-9.835938 6.25,-9.789062 5.84375,-9.75 c -0.398438,0.03125 -0.75,0.046875 -1.0625,0.046875 z m 0,0"
             id="path2411"
             style="stroke-width:0.0953316" /></g></g></g><g
       fill="#000000"
       fill-opacity="1"
       id="g2425"
       transform="matrix(1.5033137,0,0,1.5033137,1124.111,1384.4548)"
       style="stroke-width:0.00993734"><g
         transform="translate(99.979985,154.32684)"
         id="g2423"
         style="stroke-width:0.0953316"><g
           id="g2421"
           style="stroke-width:0.0953316"><path
             d="m 5.90625,-0.359375 c -0.210938,-0.164063 -0.351562,-0.375 -0.421875,-0.625 -0.0625,-0.257813 -0.09375,-0.476563 -0.09375,-0.65625 0,-0.226563 0.023437,-0.421875 0.078125,-0.578125 -0.042969,0 -0.140625,0.085938 -0.296875,0.25 -0.148437,0.167969 -0.308594,0.371094 -0.484375,0.609375 -0.167969,0.230469 -0.339844,0.460937 -0.515625,0.6875 -0.167969,0.21875 -0.292969,0.386719 -0.375,0.5 -0.148437,0.1484375 -0.28125,0.2578125 -0.40625,0.34375 C 3.273438,0.253906 3.179688,0.300781 3.109375,0.3125 2.929688,0.300781 2.75,0.265625 2.5625,0.203125 2.375,0.148438 2.195312,0.0703125 2.03125,-0.03125 1.875,-0.132812 1.734375,-0.257812 1.609375,-0.40625 c -0.125,-0.15625 -0.210937,-0.328125 -0.25,-0.515625 0,-0.300781 0.00391,-0.546875 0.015625,-0.734375 0.019531,-0.195312 0.054688,-0.40625 0.109375,-0.625 0.09375,-0.40625 0.234375,-0.863281 0.421875,-1.375 0.1875,-0.519531 0.398438,-1.023438 0.640625,-1.515625 0.25,-0.5 0.523437,-0.960937 0.828125,-1.390625 C 3.6875,-7 4.015625,-7.335938 4.359375,-7.578125 c 0.09375,0 0.203125,0.011719 0.328125,0.03125 0.125,0.011719 0.253906,0.039063 0.390625,0.078125 0.132813,0.042969 0.257813,0.09375 0.375,0.15625 0.125,0.054688 0.234375,0.125 0.328125,0.21875 -0.105469,0.117188 -0.351562,0.476562 -0.734375,1.078125 -0.386719,0.605469 -0.820313,1.480469 -1.296875,2.625 -0.0625,0.117187 -0.132812,0.289063 -0.203125,0.515625 -0.074219,0.21875 -0.148437,0.453125 -0.21875,0.703125 -0.074219,0.242187 -0.136719,0.480469 -0.1875,0.71875 -0.042969,0.230469 -0.0625,0.417969 -0.0625,0.5625 0,0.085937 0.00781,0.148437 0.03125,0.1875 0.03125,0.042969 0.054687,0.074219 0.078125,0.09375 0.15625,-0.0625 0.351562,-0.234375 0.59375,-0.515625 0.25,-0.289062 0.59375,-0.738281 1.03125,-1.34375 0.101562,-0.144531 0.226562,-0.3125 0.375,-0.5 0.144531,-0.195312 0.289062,-0.40625 0.4375,-0.625 0.15625,-0.21875 0.296875,-0.441406 0.421875,-0.671875 0.132813,-0.238281 0.25,-0.472656 0.34375,-0.703125 0.039063,-0.132812 0.09375,-0.289062 0.15625,-0.46875 0.070313,-0.175781 0.15625,-0.359375 0.25,-0.546875 0.101563,-0.1875 0.222656,-0.378906 0.359375,-0.578125 0.132812,-0.195312 0.289062,-0.382812 0.46875,-0.5625 0.144531,0 0.296875,0.015625 0.453125,0.046875 0.15625,0.03125 0.304687,0.074219 0.453125,0.125 0.144531,0.054687 0.269531,0.109375 0.375,0.171875 0.113281,0.054688 0.195312,0.109375 0.25,0.171875 -0.199219,0.46875 -0.417969,0.933594 -0.65625,1.390625 -0.230469,0.460938 -0.449219,0.914062 -0.65625,1.359375 -0.199219,0.4375 -0.367188,0.875 -0.5,1.3125 -0.136719,0.4375 -0.203125,0.867187 -0.203125,1.28125 0,0.230469 0.015625,0.429687 0.046875,0.59375 0.039062,0.15625 0.082031,0.292969 0.125,0.40625 0.039062,0.117187 0.078125,0.2109375 0.109375,0.28125 0.039063,0.0703125 0.0625,0.132813 0.0625,0.1875 0,0.007813 -0.011719,0.023437 -0.03125,0.046875 C 7.441406,0.257812 7.429688,0.265625 7.421875,0.265625 7.347656,0.265625 7.25,0.25 7.125,0.21875 7.007812,0.1875 6.878906,0.140625 6.734375,0.078125 6.597656,0.0234375 6.457031,-0.0351562 6.3125,-0.109375 6.164062,-0.179688 6.03125,-0.265625 5.90625,-0.359375 Z M 6.078125,-9.6875 c 0,-0.15625 0.00781,-0.320312 0.03125,-0.5 0.019531,-0.175781 0.0625,-0.332031 0.125,-0.46875 0.070313,-0.144531 0.164063,-0.269531 0.28125,-0.375 0.125,-0.101562 0.289063,-0.160156 0.5,-0.171875 0.132813,0.02344 0.320313,0.101563 0.5625,0.234375 0.238281,0.136719 0.410156,0.292969 0.515625,0.46875 0,0 -0.054688,0.08984 -0.15625,0.265625 -0.105469,0.167969 -0.226562,0.355469 -0.359375,0.5625 -0.136719,0.210937 -0.273437,0.40625 -0.40625,0.59375 -0.136719,0.1875 -0.230469,0.304687 -0.28125,0.34375 C 6.671875,-8.828125 6.492188,-8.957031 6.359375,-9.125 6.222656,-9.300781 6.128906,-9.488281 6.078125,-9.6875 Z m 2.09375,0.359375 c 0,-0.164063 0.00781,-0.335937 0.03125,-0.515625 0.019531,-0.175781 0.0625,-0.335938 0.125,-0.484375 0.070313,-0.144531 0.164063,-0.265625 0.28125,-0.359375 0.113281,-0.09375 0.269531,-0.144531 0.46875,-0.15625 0.0625,0 0.140625,0.02344 0.234375,0.0625 0.101562,0.04297 0.207031,0.09375 0.3125,0.15625 0.113281,0.0625 0.21875,0.140625 0.3125,0.234375 0.09375,0.08594 0.171875,0.167969 0.234375,0.25 0,0.01172 -0.05469,0.105469 -0.15625,0.28125 C 9.921875,-9.691406 9.800781,-9.507812 9.65625,-9.3125 9.519531,-9.113281 9.382812,-8.921875 9.25,-8.734375 c -0.136719,0.179687 -0.242188,0.28125 -0.3125,0.3125 -0.210938,-0.082031 -0.375,-0.207031 -0.5,-0.375 -0.125,-0.175781 -0.214844,-0.351563 -0.265625,-0.53125 z m 0,0"
             id="path2419"
             style="stroke-width:0.0953316" /></g></g></g><g
       fill="#000000"
       fill-opacity="1"
       id="g2433"
       transform="matrix(1.5033137,0,0,1.5033137,1124.111,1384.4548)"
       style="stroke-width:0.00993734"><g
         transform="translate(107.88208,154.32684)"
         id="g2431"
         style="stroke-width:0.0953316"><g
           id="g2429"
           style="stroke-width:0.0953316"><path
             d="M 1.171875,-0.3125 C 1.222656,-0.625 1.3125,-1.03125 1.4375,-1.53125 1.570312,-2.039062 1.726562,-2.582031 1.90625,-3.15625 2.09375,-3.726562 2.285156,-4.300781 2.484375,-4.875 2.691406,-5.457031 2.894531,-5.976562 3.09375,-6.4375 3.226562,-6.757812 3.347656,-7.015625 3.453125,-7.203125 3.554688,-7.390625 3.675781,-7.550781 3.8125,-7.6875 c 0.144531,0.03125 0.296875,0.074219 0.453125,0.125 0.164063,0.054688 0.320313,0.117188 0.46875,0.1875 0.144531,0.074219 0.273437,0.152344 0.390625,0.234375 0.125,0.074219 0.21875,0.152344 0.28125,0.234375 -0.292969,0.335938 -0.546875,0.71875 -0.765625,1.15625 -0.21875,0.4375 -0.4375,1 -0.65625,1.6875 C 4.554688,-4.570312 5.0625,-5.0625 5.5,-5.53125 5.945312,-6 6.363281,-6.523438 6.75,-7.109375 6.8125,-7.160156 6.925781,-7.1875 7.09375,-7.1875 c 0.144531,0 0.285156,0.027344 0.421875,0.078125 C 7.660156,-7.066406 7.757812,-7 7.8125,-6.90625 c -0.199219,0.511719 -0.296875,1.015625 -0.296875,1.515625 0,0.46875 0.070313,0.820313 0.21875,1.046875 -0.011719,0.074219 -0.085937,0.199219 -0.21875,0.375 -0.136719,0.179688 -0.28125,0.351562 -0.4375,0.515625 -0.292969,-0.15625 -0.554687,-0.363281 -0.78125,-0.625 -0.21875,-0.257813 -0.382813,-0.539063 -0.484375,-0.84375 -0.5,0.34375 -0.929688,0.6875 -1.28125,1.03125 -0.355469,0.335937 -0.65625,0.710937 -0.90625,1.125 -0.25,0.40625 -0.464844,0.875 -0.640625,1.40625 -0.179687,0.53125 -0.34375,1.167969 -0.5,1.90625 C 2.390625,0.535156 2.273438,0.5 2.140625,0.4375 2.003906,0.382812 1.867188,0.3125 1.734375,0.21875 1.597656,0.132812 1.476562,0.046875 1.375,-0.046875 1.269531,-0.140625 1.203125,-0.226562 1.171875,-0.3125 Z m 0,0"
             id="path2427"
             style="stroke-width:0.0953316" /></g></g></g><g
       fill="#000000"
       fill-opacity="1"
       id="g2441"
       transform="matrix(1.5033137,0,0,1.5033137,1124.111,1384.4548)"
       style="stroke-width:0.00993734"><g
         transform="translate(114.32854,154.32684)"
         id="g2439"
         style="stroke-width:0.0953316"><g
           id="g2437"
           style="stroke-width:0.0953316"><path
             d="m 1.578125,-1.5 c 0,-0.382812 0.097656,-0.914062 0.296875,-1.59375 0.195312,-0.6875 0.457031,-1.4375 0.78125,-2.25 0.320312,-0.8125 0.6875,-1.648438 1.09375,-2.515625 0.40625,-0.863281 0.8125,-1.664063 1.21875,-2.40625 0.40625,-0.75 0.796875,-1.394531 1.171875,-1.9375 C 6.523438,-12.753906 6.851562,-13.125 7.125,-13.3125 c 0.144531,0.01172 0.304688,0.07813 0.484375,0.203125 0.175781,0.117187 0.335937,0.257813 0.484375,0.421875 0.144531,0.15625 0.269531,0.328125 0.375,0.515625 0.101562,0.179687 0.15625,0.339844 0.15625,0.484375 -0.480469,0.386719 -0.96875,0.882812 -1.46875,1.484375 C 6.664062,-9.597656 6.195312,-8.9375 5.75,-8.21875 5.300781,-7.5 4.882812,-6.734375 4.5,-5.921875 4.125,-5.117188 3.804688,-4.328125 3.546875,-3.546875 3.890625,-4.140625 4.25,-4.675781 4.625,-5.15625 5,-5.632812 5.367188,-6.039062 5.734375,-6.375 c 0.375,-0.34375 0.738281,-0.609375 1.09375,-0.796875 0.363281,-0.1875 0.707031,-0.285156 1.03125,-0.296875 0.46875,0.34375 0.703125,0.796875 0.703125,1.359375 0,0.34375 -0.074219,0.6875 -0.21875,1.03125 -0.136719,0.34375 -0.320312,0.664063 -0.546875,0.953125 -0.230469,0.292969 -0.492187,0.542969 -0.78125,0.75 -0.292969,0.210938 -0.601563,0.351562 -0.921875,0.421875 0.101562,0.367187 0.238281,0.742187 0.40625,1.125 0.164062,0.386719 0.363281,0.761719 0.59375,1.125 0.226562,0.367187 0.488281,0.69921875 0.78125,1 C 8.164062,0.609375 8.5,0.875 8.875,1.09375 8.820312,1.195312 8.742188,1.300781 8.640625,1.40625 8.535156,1.507812 8.40625,1.601562 8.25,1.6875 8.101562,1.769531 7.941406,1.832031 7.765625,1.875 7.585938,1.925781 7.414062,1.953125 7.25,1.953125 c -0.292969,0 -0.5625,-0.148437 -0.8125,-0.4375 -0.25,-0.28125 -0.476562,-0.699219 -0.671875,-1.25 -0.167969,-0.4375 -0.324219,-0.957031 -0.46875,-1.5625 -0.148437,-0.601563 -0.28125,-1.238281 -0.40625,-1.90625 0.15625,-0.09375 0.34375,-0.234375 0.5625,-0.421875 0.226563,-0.1875 0.460937,-0.398438 0.703125,-0.640625 0.9375,-0.90625 1.40625,-1.691406 1.40625,-2.359375 0,-0.082031 -0.058594,-0.125 -0.171875,-0.125 -0.210937,0.011719 -0.460937,0.117188 -0.75,0.3125 -0.292969,0.1875 -0.601563,0.453125 -0.921875,0.796875 -0.324219,0.335937 -0.65625,0.730469 -1,1.1875 -0.335938,0.460937 -0.652344,0.960937 -0.953125,1.5 C 3.628906,-2.742188 3.507812,-2.5 3.40625,-2.21875 3.300781,-1.945312 3.207031,-1.660156 3.125,-1.359375 c -0.074219,0.292969 -0.136719,0.585937 -0.1875,0.875 -0.042969,0.28125 -0.0625,0.5390625 -0.0625,0.78125 0,0.15625 0.015625,0.28125 0.046875,0.375 C 2.597656,0.640625 2.394531,0.554688 2.3125,0.421875 2.226562,0.285156 2.15625,0.175781 2.09375,0.09375 2.039062,0.0195312 1.984375,-0.0390625 1.921875,-0.09375 1.828125,-0.164062 1.742188,-0.320312 1.671875,-0.5625 1.609375,-0.8125 1.578125,-1.125 1.578125,-1.5 Z m 0,0"
             id="path2435"
             style="stroke-width:0.0953316" /></g></g></g><g
       fill="#000000"
       fill-opacity="1"
       id="g2449"
       transform="matrix(1.5033137,0,0,1.5033137,1124.111,1384.4548)"
       style="stroke-width:0.00993734"><g
         transform="translate(122.58256,154.32684)"
         id="g2447"
         style="stroke-width:0.0953316"><g
           id="g2445"
           style="stroke-width:0.0953316"><path
             d="m 1.5625,-1.078125 c 0,-0.09375 0.00391,-0.207031 0.015625,-0.34375 C 1.597656,-1.566406 1.628906,-1.757812 1.671875,-2 1.722656,-2.25 1.78125,-2.539062 1.84375,-2.875 c 0.070312,-0.34375 0.160156,-0.753906 0.265625,-1.234375 0.019531,-0.101563 0.066406,-0.269531 0.140625,-0.5 0.082031,-0.238281 0.179688,-0.488281 0.296875,-0.75 C 2.671875,-5.628906 2.820312,-5.882812 3,-6.125 c 0.175781,-0.25 0.382812,-0.429688 0.625,-0.546875 0.1875,0.042969 0.425781,0.152344 0.71875,0.328125 0.300781,0.179688 0.5625,0.421875 0.78125,0.734375 -0.25,0.273437 -0.460938,0.546875 -0.625,0.828125 -0.167969,0.273438 -0.320312,0.558594 -0.453125,0.859375 -0.125,0.304687 -0.246094,0.617187 -0.359375,0.9375 -0.117188,0.3125 -0.242188,0.648437 -0.375,1 C 3.195312,-1.679688 3.085938,-1.375 2.984375,-1.0625 c -0.09375,0.3125 -0.148437,0.589844 -0.15625,0.828125 0,0.1875 -0.00781,0.3164062 -0.015625,0.390625 0,0.082031 -0.027344,0.125 -0.078125,0.125 C 2.691406,0.28125 2.601562,0.253906 2.46875,0.203125 2.34375,0.148438 2.210938,0.0703125 2.078125,-0.03125 1.953125,-0.144531 1.832031,-0.285156 1.71875,-0.453125 1.613281,-0.628906 1.5625,-0.835938 1.5625,-1.078125 Z m 3.0625,-6.9375 c 0,-0.0625 0.015625,-0.15625 0.046875,-0.28125 -0.054687,-0.0625 -0.101563,-0.144531 -0.140625,-0.25 C 4.5,-8.648438 4.484375,-8.742188 4.484375,-8.828125 c 0,-0.09375 0.00781,-0.222656 0.03125,-0.390625 C 4.546875,-9.382812 4.582031,-9.5625 4.625,-9.75 c 0.039062,-0.195312 0.09375,-0.398438 0.15625,-0.609375 0.0625,-0.207031 0.125,-0.394531 0.1875,-0.5625 0.132812,0 0.296875,0.03906 0.484375,0.109375 0.1875,0.0625 0.375,0.152344 0.5625,0.265625 0.1875,0.105469 0.359375,0.226563 0.515625,0.359375 0.164062,0.136719 0.289062,0.261719 0.375,0.375 -0.117188,0.125 -0.273438,0.292969 -0.46875,0.5 -0.1875,0.199219 -0.375,0.417969 -0.5625,0.65625 -0.179688,0.230469 -0.339844,0.445312 -0.484375,0.640625 -0.148437,0.199219 -0.242187,0.34375 -0.28125,0.4375 C 4.972656,-7.597656 4.859375,-7.65625 4.765625,-7.75 4.671875,-7.84375 4.625,-7.929688 4.625,-8.015625 Z m 0,0"
             id="path2443"
             style="stroke-width:0.0953316" /></g></g></g><g
       fill="#000000"
       fill-opacity="1"
       id="g2457"
       transform="matrix(1.5033137,0,0,1.5033137,1124.111,1384.4548)"
       style="stroke-width:0.00993734"><g
         transform="translate(126.35765,154.32684)"
         id="g2455"
         style="stroke-width:0.0953316"><g
           id="g2453"
           style="stroke-width:0.0953316"><path
             d="m 7.5625,-2.484375 c -0.242188,0.78125 -0.484375,1.496094 -0.734375,2.140625 -0.242187,0.632812 -0.5,1.21875 -0.78125,1.75 C 5.765625,1.945312 5.460938,2.441406 5.140625,2.890625 4.828125,3.347656 4.476562,3.78125 4.09375,4.1875 3.601562,4.695312 3.097656,5.085938 2.578125,5.359375 2.054688,5.640625 1.535156,5.78125 1.015625,5.78125 0.742188,5.78125 0.476562,5.75 0.21875,5.6875 -0.0390625,5.625 -0.285156,5.539062 -0.515625,5.4375 -0.742188,5.34375 -0.945312,5.226562 -1.125,5.09375 -1.300781,4.957031 -1.425781,4.816406 -1.5,4.671875 c 0,-0.125 0.074219,-0.234375 0.21875,-0.328125 0.125,0.113281 0.234375,0.203125 0.328125,0.265625 0.085937,0.0625 0.167969,0.113281 0.25,0.15625 0.074219,0.039063 0.15625,0.066406 0.25,0.078125 0.09375,0.00781 0.199219,0.015625 0.3125,0.015625 0.601563,0 1.195313,-0.179687 1.78125,-0.53125 C 2.222656,3.972656 2.769531,3.46875 3.28125,2.8125 3.800781,2.15625 4.273438,1.359375 4.703125,0.421875 c 0.425781,-0.925781 0.789063,-1.96875 1.09375,-3.125 -0.148437,0.210937 -0.324219,0.46875 -0.53125,0.78125 C 5.066406,-1.609375 4.84375,-1.300781 4.59375,-1 4.351562,-0.695312 4.101562,-0.421875 3.84375,-0.171875 3.582031,0.0664062 3.332031,0.226562 3.09375,0.3125 2.914062,0.300781 2.734375,0.265625 2.546875,0.203125 2.359375,0.148438 2.179688,0.0703125 2.015625,-0.03125 c -0.15625,-0.101562 -0.304687,-0.226562 -0.4375,-0.375 -0.125,-0.15625 -0.210937,-0.328125 -0.25,-0.515625 0,-0.3125 0.00781,-0.5625 0.03125,-0.75 0.019531,-0.1875 0.054687,-0.390625 0.109375,-0.609375 0.09375,-0.40625 0.234375,-0.863281 0.421875,-1.375 0.1875,-0.519531 0.40625,-1.023438 0.65625,-1.515625 0.25,-0.5 0.523437,-0.960937 0.828125,-1.390625 C 3.6875,-7 4.007812,-7.335938 4.34375,-7.578125 c 0.082031,0 0.1875,0.011719 0.3125,0.03125 0.125,0.011719 0.253906,0.039063 0.390625,0.078125 0.144531,0.042969 0.28125,0.09375 0.40625,0.15625 0.125,0.054688 0.238281,0.125 0.34375,0.21875 -0.125,0.117188 -0.386719,0.476562 -0.78125,1.078125 -0.386719,0.605469 -0.820313,1.480469 -1.296875,2.625 -0.0625,0.117187 -0.132812,0.289063 -0.203125,0.515625 -0.074219,0.21875 -0.148437,0.453125 -0.21875,0.703125 -0.0625,0.242187 -0.121094,0.480469 -0.171875,0.71875 -0.054688,0.230469 -0.078125,0.417969 -0.078125,0.5625 0,0.085937 0.00781,0.148437 0.03125,0.1875 0.03125,0.042969 0.054687,0.074219 0.078125,0.09375 0.1875,-0.03125 0.441406,-0.1875 0.765625,-0.46875 0.320313,-0.28125 0.6875,-0.722656 1.09375,-1.328125 0.25,-0.375 0.476563,-0.75 0.6875,-1.125 0.21875,-0.382812 0.429687,-0.769531 0.640625,-1.15625 0.207031,-0.382812 0.421875,-0.78125 0.640625,-1.1875 0.226563,-0.40625 0.472656,-0.820312 0.734375,-1.25 0.132812,0 0.28125,0.015625 0.4375,0.046875 0.164062,0.03125 0.320312,0.074219 0.46875,0.125 0.144531,0.054687 0.273438,0.109375 0.390625,0.171875 0.113281,0.054688 0.195313,0.109375 0.25,0.171875 -0.335937,0.710937 -0.648437,1.402344 -0.9375,2.078125 -0.28125,0.667969 -0.539063,1.351562 -0.765625,2.046875 z m 0,0"
             id="path2451"
             style="stroke-width:0.0953316" /></g></g></g><g
       fill="#000000"
       fill-opacity="1"
       id="g2465"
       transform="matrix(1.5033137,0,0,1.5033137,1124.111,1384.4548)"
       style="stroke-width:0.00993734"><g
         transform="translate(134.17977,154.32684)"
         id="g2463"
         style="stroke-width:0.0953316"><g
           id="g2461"
           style="stroke-width:0.0953316"><path
             d="m 7.28125,-6.625 c -0.042969,0.667969 -0.164062,1.242188 -0.359375,1.71875 -0.1875,0.46875 -0.464844,0.882812 -0.828125,1.234375 -0.355469,0.355469 -0.789062,0.679687 -1.296875,0.96875 -0.511719,0.292969 -1.105469,0.570313 -1.78125,0.828125 0,0.0625 -0.00781,0.132812 -0.015625,0.203125 -0.011719,0.074219 -0.015625,0.148437 -0.015625,0.21875 0,0.136719 0.00781,0.28125 0.03125,0.4375 0.03125,0.148437 0.070313,0.28125 0.125,0.40625 0.050781,0.125 0.125,0.230469 0.21875,0.3125 0.09375,0.085937 0.21875,0.125 0.375,0.125 0.28125,0 0.554687,-0.0625 0.828125,-0.1875 0.28125,-0.132813 0.546875,-0.296875 0.796875,-0.484375 0.257813,-0.1875 0.5,-0.390625 0.71875,-0.609375 0.21875,-0.21875 0.410156,-0.414063 0.578125,-0.59375 0.101562,0.09375 0.191406,0.183594 0.265625,0.265625 C 6.441406,-1.132812 5.914062,-0.597656 5.34375,-0.171875 4.78125,0.242188 4.242188,0.507812 3.734375,0.625 2.992188,0.539062 2.414062,0.273438 2,-0.171875 1.59375,-0.628906 1.390625,-1.179688 1.390625,-1.828125 c 0,-0.4375 0.0625,-0.878906 0.1875,-1.328125 0.125,-0.457031 0.296875,-0.894531 0.515625,-1.3125 0.21875,-0.425781 0.472656,-0.820312 0.765625,-1.1875 0.289063,-0.375 0.601563,-0.703125 0.9375,-0.984375 0.332031,-0.28125 0.675781,-0.5 1.03125,-0.65625 0.363281,-0.15625 0.722656,-0.234375 1.078125,-0.234375 0.488281,0.0625 0.945312,0.367188 1.375,0.90625 z m -1.109375,0.53125 c -0.28125,0.042969 -0.578125,0.164062 -0.890625,0.359375 -0.3125,0.1875 -0.605469,0.445313 -0.875,0.765625 -0.273438,0.3125 -0.523438,0.683594 -0.75,1.109375 -0.21875,0.429687 -0.390625,0.886719 -0.515625,1.375 0.851563,-0.425781 1.5625,-0.945313 2.125,-1.5625 0.5625,-0.625 0.863281,-1.304687 0.90625,-2.046875 z m 0,0"
             id="path2459"
             style="stroke-width:0.0953316" /></g></g></g><g
       fill="#000000"
       fill-opacity="1"
       id="g2479"
       transform="matrix(1.5033137,0,0,1.5033137,1124.111,1384.4548)"
       style="stroke-width:0.00993734"><g
         transform="translate(144.4493,154.32684)"
         id="g2477"
         style="stroke-width:0.0953316"><g
           id="g2475"
           style="stroke-width:0.0953316"><path
             d="m 7.515625,-5.515625 c 0.800781,-0.875 1.519531,-1.800781 2.15625,-2.78125 0.632813,-0.988281 1.222656,-2.09375 1.765625,-3.3125 0.28125,0.03125 0.546875,0.105469 0.796875,0.21875 0.257813,0.117187 0.460937,0.25 0.609375,0.40625 -0.585938,0.699219 -1.117188,1.339844 -1.59375,1.921875 -0.46875,0.574219 -0.902344,1.117188 -1.296875,1.625 -0.398437,0.5 -0.761719,0.984375 -1.09375,1.453125 C 8.523438,-5.523438 8.195312,-5.0625 7.875,-4.59375 7.707031,-4.050781 7.554688,-3.5 7.421875,-2.9375 c -0.136719,0.554688 -0.261719,1.085938 -0.375,1.59375 -0.105469,0.5 -0.1875,0.964844 -0.25,1.390625 -0.054687,0.4375 -0.078125,0.8125 -0.078125,1.125 -0.117188,0 -0.304688,-0.027344 -0.5625,-0.078125 C 5.90625,1.050781 5.644531,0.992188 5.375,0.921875 5.101562,0.859375 4.859375,0.796875 4.640625,0.734375 4.421875,0.671875 4.289062,0.617188 4.25,0.578125 4.425781,0.285156 4.597656,-0.0664062 4.765625,-0.484375 4.929688,-0.910156 5.09375,-1.351562 5.25,-1.8125 5.40625,-2.28125 5.554688,-2.75 5.703125,-3.21875 5.859375,-3.695312 6,-4.140625 6.125,-4.546875 5.863281,-5.378906 5.601562,-6.160156 5.34375,-6.890625 5.09375,-7.617188 4.847656,-8.28125 4.609375,-8.875 4.378906,-9.46875 4.15625,-9.976562 3.9375,-10.40625 c -0.210938,-0.425781 -0.40625,-0.75 -0.59375,-0.96875 0.101562,-0.03906 0.265625,-0.08203 0.484375,-0.125 0.21875,-0.03906 0.457031,-0.08203 0.71875,-0.125 0.257813,-0.05078 0.523437,-0.08594 0.796875,-0.109375 0.28125,-0.03125 0.523438,-0.05078 0.734375,-0.0625 0,0.273437 0.019531,0.601563 0.0625,0.984375 0.050781,0.386719 0.117187,0.796875 0.203125,1.234375 0.082031,0.4375 0.175781,0.882813 0.28125,1.328125 0.101562,0.449219 0.207031,0.859375 0.3125,1.234375 0.113281,0.367187 0.21875,0.6875 0.3125,0.96875 0.101562,0.273437 0.191406,0.449219 0.265625,0.53125 z m 0,0"
             id="path2473"
             style="stroke-width:0.0953316" /></g></g></g><g
       fill="#000000"
       fill-opacity="1"
       id="g2487"
       transform="matrix(1.5033137,0,0,1.5033137,1124.111,1384.4548)"
       style="stroke-width:0.00993734"><g
         transform="translate(154.25494,154.32684)"
         id="g2485"
         style="stroke-width:0.0953316"><g
           id="g2483"
           style="stroke-width:0.0953316"><path
             d="m 5.90625,-0.359375 c -0.210938,-0.164063 -0.351562,-0.375 -0.421875,-0.625 -0.0625,-0.257813 -0.09375,-0.476563 -0.09375,-0.65625 0,-0.226563 0.023437,-0.421875 0.078125,-0.578125 -0.042969,0 -0.140625,0.085938 -0.296875,0.25 -0.148437,0.167969 -0.308594,0.371094 -0.484375,0.609375 -0.167969,0.230469 -0.339844,0.460937 -0.515625,0.6875 -0.167969,0.21875 -0.292969,0.386719 -0.375,0.5 -0.148437,0.1484375 -0.28125,0.2578125 -0.40625,0.34375 C 3.273438,0.253906 3.179688,0.300781 3.109375,0.3125 2.929688,0.300781 2.75,0.265625 2.5625,0.203125 2.375,0.148438 2.195312,0.0703125 2.03125,-0.03125 1.875,-0.132812 1.734375,-0.257812 1.609375,-0.40625 c -0.125,-0.15625 -0.210937,-0.328125 -0.25,-0.515625 0,-0.300781 0.00391,-0.546875 0.015625,-0.734375 0.019531,-0.195312 0.054688,-0.40625 0.109375,-0.625 0.09375,-0.40625 0.234375,-0.863281 0.421875,-1.375 0.1875,-0.519531 0.398438,-1.023438 0.640625,-1.515625 0.25,-0.5 0.523437,-0.960937 0.828125,-1.390625 C 3.6875,-7 4.015625,-7.335938 4.359375,-7.578125 c 0.09375,0 0.203125,0.011719 0.328125,0.03125 0.125,0.011719 0.253906,0.039063 0.390625,0.078125 0.132813,0.042969 0.257813,0.09375 0.375,0.15625 0.125,0.054688 0.234375,0.125 0.328125,0.21875 -0.105469,0.117188 -0.351562,0.476562 -0.734375,1.078125 -0.386719,0.605469 -0.820313,1.480469 -1.296875,2.625 -0.0625,0.117187 -0.132812,0.289063 -0.203125,0.515625 -0.074219,0.21875 -0.148437,0.453125 -0.21875,0.703125 -0.074219,0.242187 -0.136719,0.480469 -0.1875,0.71875 -0.042969,0.230469 -0.0625,0.417969 -0.0625,0.5625 0,0.085937 0.00781,0.148437 0.03125,0.1875 0.03125,0.042969 0.054687,0.074219 0.078125,0.09375 0.15625,-0.0625 0.351562,-0.234375 0.59375,-0.515625 0.25,-0.289062 0.59375,-0.738281 1.03125,-1.34375 0.101562,-0.144531 0.226562,-0.3125 0.375,-0.5 0.144531,-0.195312 0.289062,-0.40625 0.4375,-0.625 0.15625,-0.21875 0.296875,-0.441406 0.421875,-0.671875 0.132813,-0.238281 0.25,-0.472656 0.34375,-0.703125 0.039063,-0.132812 0.09375,-0.289062 0.15625,-0.46875 0.070313,-0.175781 0.15625,-0.359375 0.25,-0.546875 0.101563,-0.1875 0.222656,-0.378906 0.359375,-0.578125 0.132812,-0.195312 0.289062,-0.382812 0.46875,-0.5625 0.144531,0 0.296875,0.015625 0.453125,0.046875 0.15625,0.03125 0.304687,0.074219 0.453125,0.125 0.144531,0.054687 0.269531,0.109375 0.375,0.171875 0.113281,0.054688 0.195312,0.109375 0.25,0.171875 -0.199219,0.46875 -0.417969,0.933594 -0.65625,1.390625 -0.230469,0.460938 -0.449219,0.914062 -0.65625,1.359375 -0.199219,0.4375 -0.367188,0.875 -0.5,1.3125 -0.136719,0.4375 -0.203125,0.867187 -0.203125,1.28125 0,0.230469 0.015625,0.429687 0.046875,0.59375 0.039062,0.15625 0.082031,0.292969 0.125,0.40625 0.039062,0.117187 0.078125,0.2109375 0.109375,0.28125 0.039063,0.0703125 0.0625,0.132813 0.0625,0.1875 0,0.007813 -0.011719,0.023437 -0.03125,0.046875 C 7.441406,0.257812 7.429688,0.265625 7.421875,0.265625 7.347656,0.265625 7.25,0.25 7.125,0.21875 7.007812,0.1875 6.878906,0.140625 6.734375,0.078125 6.597656,0.0234375 6.457031,-0.0351562 6.3125,-0.109375 6.164062,-0.179688 6.03125,-0.265625 5.90625,-0.359375 Z M 6.078125,-9.6875 c 0,-0.15625 0.00781,-0.320312 0.03125,-0.5 0.019531,-0.175781 0.0625,-0.332031 0.125,-0.46875 0.070313,-0.144531 0.164063,-0.269531 0.28125,-0.375 0.125,-0.101562 0.289063,-0.160156 0.5,-0.171875 0.132813,0.02344 0.320313,0.101563 0.5625,0.234375 0.238281,0.136719 0.410156,0.292969 0.515625,0.46875 0,0 -0.054688,0.08984 -0.15625,0.265625 -0.105469,0.167969 -0.226562,0.355469 -0.359375,0.5625 -0.136719,0.210937 -0.273437,0.40625 -0.40625,0.59375 -0.136719,0.1875 -0.230469,0.304687 -0.28125,0.34375 C 6.671875,-8.828125 6.492188,-8.957031 6.359375,-9.125 6.222656,-9.300781 6.128906,-9.488281 6.078125,-9.6875 Z m 2.09375,0.359375 c 0,-0.164063 0.00781,-0.335937 0.03125,-0.515625 0.019531,-0.175781 0.0625,-0.335938 0.125,-0.484375 0.070313,-0.144531 0.164063,-0.265625 0.28125,-0.359375 0.113281,-0.09375 0.269531,-0.144531 0.46875,-0.15625 0.0625,0 0.140625,0.02344 0.234375,0.0625 0.101562,0.04297 0.207031,0.09375 0.3125,0.15625 0.113281,0.0625 0.21875,0.140625 0.3125,0.234375 0.09375,0.08594 0.171875,0.167969 0.234375,0.25 0,0.01172 -0.05469,0.105469 -0.15625,0.28125 C 9.921875,-9.691406 9.800781,-9.507812 9.65625,-9.3125 9.519531,-9.113281 9.382812,-8.921875 9.25,-8.734375 c -0.136719,0.179687 -0.242188,0.28125 -0.3125,0.3125 -0.210938,-0.082031 -0.375,-0.207031 -0.5,-0.375 -0.125,-0.175781 -0.214844,-0.351563 -0.265625,-0.53125 z m 0,0"
             id="path2481"
             style="stroke-width:0.0953316" /></g></g></g><g
       fill="#000000"
       fill-opacity="1"
       id="g2495"
       transform="matrix(1.5033137,0,0,1.5033137,1124.111,1384.4548)"
       style="stroke-width:0.00993734"><g
         transform="translate(162.15704,154.32684)"
         id="g2493"
         style="stroke-width:0.0953316"><g
           id="g2491"
           style="stroke-width:0.0953316"><path
             d="m 0.96875,-0.21875 c 0,-0.175781 0.148438,-0.453125 0.453125,-0.828125 0.300781,-0.375 0.695313,-0.804687 1.1875,-1.296875 0.5,-0.488281 1.070313,-1 1.71875,-1.53125 C 4.972656,-4.414062 5.644531,-4.9375 6.34375,-5.4375 5.882812,-5.53125 5.523438,-5.597656 5.265625,-5.640625 5.003906,-5.691406 4.796875,-5.71875 4.640625,-5.71875 c -0.3125,0 -0.59375,0.046875 -0.84375,0.140625 -0.242187,0.085937 -0.476563,0.21875 -0.703125,0.40625 C 2.601562,-5.597656 2.359375,-6.085938 2.359375,-6.640625 2.359375,-6.804688 2.363281,-6.90625 2.375,-6.9375 2.550781,-7.125 2.765625,-7.265625 3.015625,-7.359375 3.265625,-7.453125 3.53125,-7.5 3.8125,-7.5 c 0.289062,0 0.59375,0.046875 0.90625,0.140625 0.3125,0.09375 0.613281,0.199219 0.90625,0.3125 0.300781,0.117187 0.582031,0.21875 0.84375,0.3125 0.257812,0.09375 0.492188,0.140625 0.703125,0.140625 0.113281,0 0.242187,-0.015625 0.390625,-0.046875 0.144531,-0.03125 0.265625,-0.070313 0.359375,-0.125 0.09375,0.074219 0.175781,0.226563 0.25,0.453125 0.082031,0.21875 0.125,0.4375 0.125,0.65625 -0.324219,0.125 -0.71875,0.351562 -1.1875,0.671875 -0.460937,0.3125 -0.933594,0.679687 -1.421875,1.09375 -0.480469,0.417969 -0.949219,0.859375 -1.40625,1.328125 -0.449219,0.46875 -0.820312,0.914062 -1.109375,1.328125 0.21875,0.09375 0.519531,0.140625 0.90625,0.140625 0.25,0 0.5,-0.019531 0.75,-0.0625 0.257813,-0.039062 0.507813,-0.097656 0.75,-0.171875 0.238281,-0.070313 0.457031,-0.160156 0.65625,-0.265625 0.207031,-0.101562 0.378906,-0.210938 0.515625,-0.328125 0.5,0.324219 0.75,0.792969 0.75,1.40625 0,0.085937 -0.00781,0.15625 -0.015625,0.21875 0,0.054687 -0.00781,0.117187 -0.015625,0.1875 C 6.976562,0.203125 6.445312,0.359375 5.875,0.359375 5.582031,0.359375 5.289062,0.328125 5,0.265625 4.71875,0.203125 4.441406,0.140625 4.171875,0.078125 3.898438,0.015625 3.644531,-0.0390625 3.40625,-0.09375 3.164062,-0.15625 2.941406,-0.1875 2.734375,-0.1875 c -0.511719,0 -0.929687,0.2382812 -1.25,0.71875 C 1.347656,0.476562 1.234375,0.378906 1.140625,0.234375 1.054688,0.0976562 1,-0.0507812 0.96875,-0.21875 Z m 0,0"
             id="path2489"
             style="stroke-width:0.0953316" /></g></g></g><g
       fill="#000000"
       fill-opacity="1"
       id="g2503"
       transform="matrix(1.5033137,0,0,1.5033137,1124.111,1384.4548)"
       style="stroke-width:0.00993734"><g
         transform="translate(169.70722,154.32684)"
         id="g2501"
         style="stroke-width:0.0953316"><g
           id="g2499"
           style="stroke-width:0.0953316"><path
             d="m 7.5625,-2.484375 c -0.242188,0.78125 -0.484375,1.496094 -0.734375,2.140625 -0.242187,0.632812 -0.5,1.21875 -0.78125,1.75 C 5.765625,1.945312 5.460938,2.441406 5.140625,2.890625 4.828125,3.347656 4.476562,3.78125 4.09375,4.1875 3.601562,4.695312 3.097656,5.085938 2.578125,5.359375 2.054688,5.640625 1.535156,5.78125 1.015625,5.78125 0.742188,5.78125 0.476562,5.75 0.21875,5.6875 -0.0390625,5.625 -0.285156,5.539062 -0.515625,5.4375 -0.742188,5.34375 -0.945312,5.226562 -1.125,5.09375 -1.300781,4.957031 -1.425781,4.816406 -1.5,4.671875 c 0,-0.125 0.074219,-0.234375 0.21875,-0.328125 0.125,0.113281 0.234375,0.203125 0.328125,0.265625 0.085937,0.0625 0.167969,0.113281 0.25,0.15625 0.074219,0.039063 0.15625,0.066406 0.25,0.078125 0.09375,0.00781 0.199219,0.015625 0.3125,0.015625 0.601563,0 1.195313,-0.179687 1.78125,-0.53125 C 2.222656,3.972656 2.769531,3.46875 3.28125,2.8125 3.800781,2.15625 4.273438,1.359375 4.703125,0.421875 c 0.425781,-0.925781 0.789063,-1.96875 1.09375,-3.125 -0.148437,0.210937 -0.324219,0.46875 -0.53125,0.78125 C 5.066406,-1.609375 4.84375,-1.300781 4.59375,-1 4.351562,-0.695312 4.101562,-0.421875 3.84375,-0.171875 3.582031,0.0664062 3.332031,0.226562 3.09375,0.3125 2.914062,0.300781 2.734375,0.265625 2.546875,0.203125 2.359375,0.148438 2.179688,0.0703125 2.015625,-0.03125 c -0.15625,-0.101562 -0.304687,-0.226562 -0.4375,-0.375 -0.125,-0.15625 -0.210937,-0.328125 -0.25,-0.515625 0,-0.3125 0.00781,-0.5625 0.03125,-0.75 0.019531,-0.1875 0.054687,-0.390625 0.109375,-0.609375 0.09375,-0.40625 0.234375,-0.863281 0.421875,-1.375 0.1875,-0.519531 0.40625,-1.023438 0.65625,-1.515625 0.25,-0.5 0.523437,-0.960937 0.828125,-1.390625 C 3.6875,-7 4.007812,-7.335938 4.34375,-7.578125 c 0.082031,0 0.1875,0.011719 0.3125,0.03125 0.125,0.011719 0.253906,0.039063 0.390625,0.078125 0.144531,0.042969 0.28125,0.09375 0.40625,0.15625 0.125,0.054688 0.238281,0.125 0.34375,0.21875 -0.125,0.117188 -0.386719,0.476562 -0.78125,1.078125 -0.386719,0.605469 -0.820313,1.480469 -1.296875,2.625 -0.0625,0.117187 -0.132812,0.289063 -0.203125,0.515625 -0.074219,0.21875 -0.148437,0.453125 -0.21875,0.703125 -0.0625,0.242187 -0.121094,0.480469 -0.171875,0.71875 -0.054688,0.230469 -0.078125,0.417969 -0.078125,0.5625 0,0.085937 0.00781,0.148437 0.03125,0.1875 0.03125,0.042969 0.054687,0.074219 0.078125,0.09375 0.1875,-0.03125 0.441406,-0.1875 0.765625,-0.46875 0.320313,-0.28125 0.6875,-0.722656 1.09375,-1.328125 0.25,-0.375 0.476563,-0.75 0.6875,-1.125 0.21875,-0.382812 0.429687,-0.769531 0.640625,-1.15625 0.207031,-0.382812 0.421875,-0.78125 0.640625,-1.1875 0.226563,-0.40625 0.472656,-0.820312 0.734375,-1.25 0.132812,0 0.28125,0.015625 0.4375,0.046875 0.164062,0.03125 0.320312,0.074219 0.46875,0.125 0.144531,0.054687 0.273438,0.109375 0.390625,0.171875 0.113281,0.054688 0.195313,0.109375 0.25,0.171875 -0.335937,0.710937 -0.648437,1.402344 -0.9375,2.078125 -0.28125,0.667969 -0.539063,1.351562 -0.765625,2.046875 z m 0,0"
             id="path2497"
             style="stroke-width:0.0953316" /></g></g></g><g
       fill="#000000"
       fill-opacity="1"
       id="g2511"
       transform="matrix(1.5033137,0,0,1.5033137,1124.111,1384.4548)"
       style="stroke-width:0.00993734"><g
         transform="translate(177.52933,154.32684)"
         id="g2509"
         style="stroke-width:0.0953316"><g
           id="g2507"
           style="stroke-width:0.0953316"><path
             d="m 1.546875,-0.890625 c 0,-0.101563 0.00391,-0.226563 0.015625,-0.375 0.019531,-0.144531 0.050781,-0.332031 0.09375,-0.5625 0.050781,-0.238281 0.109375,-0.523437 0.171875,-0.859375 0.070313,-0.34375 0.15625,-0.75 0.25,-1.21875 0.019531,-0.09375 0.0625,-0.253906 0.125,-0.484375 0.0625,-0.238281 0.148437,-0.492187 0.265625,-0.765625 0.113281,-0.269531 0.253906,-0.523438 0.421875,-0.765625 0.175781,-0.238281 0.382813,-0.421875 0.625,-0.546875 0.1875,0.023438 0.429687,0.121094 0.734375,0.296875 C 4.550781,-5.992188 4.8125,-5.75 5.03125,-5.4375 4.550781,-4.882812 4.191406,-4.3125 3.953125,-3.71875 3.710938,-3.132812 3.488281,-2.5 3.28125,-1.8125 3.164062,-1.4375 3.0625,-1.113281 2.96875,-0.84375 2.875,-0.582031 2.828125,-0.320312 2.828125,-0.0625 c 0,0.1875 -0.00781,0.320312 -0.015625,0.40625 0,0.09375 -0.027344,0.140625 -0.078125,0.140625 -0.03125,0 -0.117187,-0.03125 -0.25,-0.09375 -0.125,-0.054687 -0.257813,-0.136719 -0.390625,-0.25 -0.136719,-0.1054688 -0.261719,-0.2382812 -0.375,-0.40625 -0.117188,-0.175781 -0.171875,-0.382813 -0.171875,-0.625 z m 0,0"
             id="path2505"
             style="stroke-width:0.0953316" /></g></g></g><g
       fill="#000000"
       fill-opacity="1"
       id="g2519"
       transform="matrix(1.5033137,0,0,1.5033137,1124.111,1384.4548)"
       style="stroke-width:0.00993734"><g
         transform="translate(181.35242,154.32684)"
         id="g2517"
         style="stroke-width:0.0953316"><g
           id="g2515"
           style="stroke-width:0.0953316"><path
             d="M 1.53125,-1.03125 C 1.53125,-1.5 1.640625,-2.15625 1.859375,-3 2.085938,-3.84375 2.40625,-4.832031 2.8125,-5.96875 c 0.664062,-1.800781 1.285156,-3.300781 1.859375,-4.5 0.582031,-1.195312 1.15625,-2.132812 1.71875,-2.8125 0.125,0.02344 0.28125,0.07813 0.46875,0.171875 0.1875,0.08594 0.367187,0.179687 0.546875,0.28125 0.1875,0.09375 0.347656,0.195313 0.484375,0.296875 0.144531,0.105469 0.238281,0.195312 0.28125,0.265625 -0.835937,0.980469 -1.5625,2.039063 -2.1875,3.171875 -0.625,1.125 -1.203125,2.417969 -1.734375,3.875 C 3.800781,-3.957031 3.457031,-2.820312 3.21875,-1.8125 2.988281,-0.800781 2.875,0.0351562 2.875,0.703125 c 0,0.175781 0,0.285156 0,0.328125 0,0.050781 0.00391,0.097656 0.015625,0.140625 -0.148437,-0.023437 -0.273437,-0.0625 -0.375,-0.125 C 2.410156,0.992188 2.335938,0.929688 2.296875,0.859375 2.273438,0.804688 2.21875,0.726562 2.125,0.625 2.03125,0.53125 1.945312,0.457031 1.875,0.40625 1.78125,0.332031 1.695312,0.160156 1.625,-0.109375 1.5625,-0.378906 1.53125,-0.6875 1.53125,-1.03125 Z m 0,0"
             id="path2513"
             style="stroke-width:0.0953316" /></g></g></g><g
       fill="#000000"
       fill-opacity="1"
       id="g2527"
       transform="matrix(1.5033137,0,0,1.5033137,1124.111,1384.4548)"
       style="stroke-width:0.00993734"><g
         transform="translate(185.12751,154.32684)"
         id="g2525"
         style="stroke-width:0.0953316"><g
           id="g2523"
           style="stroke-width:0.0953316"><path
             d="m 1.546875,-0.890625 c 0,-0.101563 0.00391,-0.226563 0.015625,-0.375 0.019531,-0.144531 0.050781,-0.332031 0.09375,-0.5625 0.050781,-0.238281 0.109375,-0.523437 0.171875,-0.859375 0.070313,-0.34375 0.15625,-0.75 0.25,-1.21875 0.019531,-0.09375 0.0625,-0.253906 0.125,-0.484375 0.0625,-0.238281 0.148437,-0.492187 0.265625,-0.765625 0.113281,-0.269531 0.253906,-0.523438 0.421875,-0.765625 0.175781,-0.238281 0.382813,-0.421875 0.625,-0.546875 0.1875,0.023438 0.429687,0.121094 0.734375,0.296875 C 4.550781,-5.992188 4.8125,-5.75 5.03125,-5.4375 4.550781,-4.882812 4.191406,-4.3125 3.953125,-3.71875 3.710938,-3.132812 3.488281,-2.5 3.28125,-1.8125 3.164062,-1.4375 3.0625,-1.113281 2.96875,-0.84375 2.875,-0.582031 2.828125,-0.320312 2.828125,-0.0625 c 0,0.1875 -0.00781,0.320312 -0.015625,0.40625 0,0.09375 -0.027344,0.140625 -0.078125,0.140625 -0.03125,0 -0.117187,-0.03125 -0.25,-0.09375 -0.125,-0.054687 -0.257813,-0.136719 -0.390625,-0.25 -0.136719,-0.1054688 -0.261719,-0.2382812 -0.375,-0.40625 -0.117188,-0.175781 -0.171875,-0.382813 -0.171875,-0.625 z m 0,0"
             id="path2521"
             style="stroke-width:0.0953316" /></g></g></g><g
       fill="#000000"
       fill-opacity="1"
       id="g2535"
       transform="matrix(1.5033137,0,0,1.5033137,1124.111,1384.4548)"
       style="stroke-width:0.00993734"><g
         transform="translate(188.95059,154.32684)"
         id="g2533"
         style="stroke-width:0.0953316"><g
           id="g2531"
           style="stroke-width:0.0953316"><path
             d="m 4.140625,-7.765625 c 0.28125,0.09375 0.539063,0.289063 0.78125,0.578125 0.25,0.292969 0.429687,0.617188 0.546875,0.96875 C 5.351562,-5.9375 5.171875,-5.59375 4.921875,-5.1875 4.679688,-4.78125 4.4375,-4.363281 4.1875,-3.9375 3.945312,-3.519531 3.726562,-3.117188 3.53125,-2.734375 3.332031,-2.359375 3.21875,-2.050781 3.1875,-1.8125 3.351562,-1.988281 3.539062,-2.195312 3.75,-2.4375 3.957031,-2.675781 4.160156,-2.914062 4.359375,-3.15625 4.554688,-3.394531 4.738281,-3.613281 4.90625,-3.8125 5.082031,-4.007812 5.21875,-4.15625 5.3125,-4.25 5.507812,-4.46875 5.75,-4.71875 6.03125,-5 c 0.28125,-0.28125 0.570312,-0.546875 0.875,-0.796875 0.300781,-0.25 0.601562,-0.460937 0.90625,-0.640625 0.3125,-0.175781 0.597656,-0.265625 0.859375,-0.265625 0.28125,0 0.507813,0.09375 0.6875,0.28125 0.1875,0.1875 0.335937,0.382813 0.453125,0.578125 0,0.023438 -0.042969,0.054688 -0.125,0.09375 -0.085938,0.03125 -0.199219,0.136719 -0.34375,0.3125 -0.148438,0.1875 -0.3125,0.453125 -0.5,0.796875 -0.1875,0.335937 -0.371094,0.699219 -0.546875,1.09375 -0.179687,0.386719 -0.324219,0.78125 -0.4375,1.1875 -0.117187,0.398437 -0.171875,0.761719 -0.171875,1.09375 0,0.273437 0.03125,0.445313 0.09375,0.515625 0.070312,0.074219 0.171875,0.109375 0.296875,0.109375 0.113281,0 0.234375,-0.023437 0.359375,-0.078125 0.132812,-0.050781 0.238281,-0.078125 0.3125,-0.078125 0.039062,0.023437 0.070312,0.070313 0.09375,0.140625 0.03125,0.0625 0.046875,0.121094 0.046875,0.171875 C 8.804688,-0.410156 8.707031,-0.332031 8.59375,-0.25 c -0.117188,0.074219 -0.242188,0.140625 -0.375,0.203125 -0.125,0.0625 -0.25,0.1132812 -0.375,0.15625 -0.125,0.039063 -0.234375,0.0625 -0.328125,0.0625 -0.304687,0 -0.554687,-0.046875 -0.75,-0.140625 C 6.566406,-0.0507812 6.410156,-0.164062 6.296875,-0.3125 6.179688,-0.46875 6.101562,-0.648438 6.0625,-0.859375 6.019531,-1.066406 6,-1.285156 6,-1.515625 c 0,-0.132813 0.00781,-0.28125 0.03125,-0.4375 0.019531,-0.15625 0.0625,-0.34375 0.125,-0.5625 0.0625,-0.21875 0.148438,-0.476563 0.265625,-0.78125 0.125,-0.3125 0.273437,-0.679687 0.453125,-1.109375 -0.023438,0 -0.167969,0.078125 -0.4375,0.234375 -0.261719,0.148437 -0.546875,0.375 -0.859375,0.6875 C 5.078125,-3.003906 4.625,-2.53125 4.21875,-2.0625 3.820312,-1.59375 3.421875,-1.070312 3.015625,-0.5 2.773438,-0.164062 2.566406,0.113281 2.390625,0.34375 2.210938,0.570312 2.0625,0.722656 1.9375,0.796875 1.707031,0.671875 1.539062,0.492188 1.4375,0.265625 1.332031,0.0351562 1.253906,-0.203125 1.203125,-0.453125 c 0,-0.195313 0.023437,-0.453125 0.078125,-0.765625 0.0625,-0.3125 0.144531,-0.65625 0.25,-1.03125 0.101562,-0.375 0.226562,-0.769531 0.375,-1.1875 0.144531,-0.414062 0.3125,-0.832031 0.5,-1.25 0.40625,-0.9375 0.773438,-1.671875 1.109375,-2.203125 0.332031,-0.539063 0.539063,-0.832031 0.625,-0.875 z m 0,0"
             id="path2529"
             style="stroke-width:0.0953316" /></g></g></g><g
       fill="#000000"
       fill-opacity="1"
       id="g2543"
       transform="matrix(1.5033137,0,0,1.5033137,1124.111,1384.4548)"
       style="stroke-width:0.00993734"><g
         transform="translate(197.58851,154.32684)"
         id="g2541"
         style="stroke-width:0.0953316"><g
           id="g2539"
           style="stroke-width:0.0953316"><path
             d="m 5.046875,-7.46875 c 0.207031,0 0.445313,0.0625 0.71875,0.1875 0.28125,0.125 0.53125,0.292969 0.75,0.5 C 6.460938,-7.207031 6.394531,-7.609375 6.3125,-7.984375 6.226562,-8.367188 6.109375,-8.765625 5.953125,-9.171875 5.804688,-9.578125 5.601562,-10.019531 5.34375,-10.5 c -0.261719,-0.476562 -0.578125,-1.023438 -0.953125,-1.640625 0.03125,-0.09375 0.097656,-0.203125 0.203125,-0.328125 0.113281,-0.132812 0.242188,-0.257812 0.390625,-0.375 0.144531,-0.113281 0.289063,-0.210938 0.4375,-0.296875 0.15625,-0.08203 0.304687,-0.132813 0.453125,-0.15625 0.289062,0.335937 0.570312,0.75 0.84375,1.25 0.269531,0.492187 0.503906,1.023437 0.703125,1.59375 0.207031,0.574219 0.363281,1.164063 0.46875,1.765625 0.113281,0.605469 0.171875,1.1875 0.171875,1.75 0,0.554688 -0.0625,1.121094 -0.1875,1.703125 -0.117188,0.585937 -0.28125,1.15625 -0.5,1.71875 -0.21875,0.5625 -0.476562,1.09375 -0.765625,1.59375 -0.292969,0.5 -0.605469,0.949219 -0.9375,1.34375 C 5.335938,-0.179688 4.988281,0.140625 4.625,0.390625 4.257812,0.640625 3.894531,0.796875 3.53125,0.859375 2.800781,0.773438 2.238281,0.535156 1.84375,0.140625 1.457031,-0.242188 1.265625,-0.773438 1.265625,-1.453125 c 0,-0.363281 0.050781,-0.757813 0.15625,-1.1875 C 1.535156,-3.066406 1.6875,-3.488281 1.875,-3.90625 2.0625,-4.332031 2.28125,-4.742188 2.53125,-5.140625 2.78125,-5.546875 3.046875,-5.90625 3.328125,-6.21875 3.617188,-6.539062 3.90625,-6.8125 4.1875,-7.03125 c 0.289062,-0.226562 0.578125,-0.375 0.859375,-0.4375 z M 3.40625,0.21875 c 0.375,-0.125 0.75,-0.40625 1.125,-0.84375 0.375,-0.4375 0.707031,-0.953125 1,-1.546875 0.300781,-0.59375 0.546875,-1.226563 0.734375,-1.90625 0.1875,-0.675781 0.28125,-1.328125 0.28125,-1.953125 0,-0.175781 0,-0.285156 0,-0.328125 C 6.546875,-6.410156 6.539062,-6.457031 6.53125,-6.5 6.269531,-6.394531 5.992188,-6.210938 5.703125,-5.953125 5.421875,-5.691406 5.132812,-5.394531 4.84375,-5.0625 4.5625,-4.726562 4.289062,-4.363281 4.03125,-3.96875 3.769531,-3.570312 3.539062,-3.175781 3.34375,-2.78125 3.144531,-2.382812 2.984375,-2.003906 2.859375,-1.640625 2.742188,-1.285156 2.6875,-0.96875 2.6875,-0.6875 c 0,0.53125 0.238281,0.832031 0.71875,0.90625 z m 0,0"
             id="path2537"
             style="stroke-width:0.0953316" /></g></g></g><g
       fill="#000000"
       fill-opacity="1"
       id="g2551"
       transform="matrix(1.5033137,0,0,1.5033137,1124.111,1384.4548)"
       style="stroke-width:0.00993734"><g
         transform="translate(204.51485,154.32684)"
         id="g2549"
         style="stroke-width:0.0953316"><g
           id="g2547"
           style="stroke-width:0.0953316"><path
             d="m 7.078125,-6.46875 c 0.101563,0 0.222656,0.023438 0.359375,0.0625 0.144531,0.03125 0.273438,0.078125 0.390625,0.140625 0.125,0.0625 0.222656,0.125 0.296875,0.1875 0.082031,0.0625 0.125,0.121094 0.125,0.171875 -0.210938,0.449219 -0.40625,0.902344 -0.59375,1.359375 -0.179688,0.449219 -0.328125,0.882813 -0.453125,1.296875 -0.125,0.417969 -0.226563,0.808594 -0.296875,1.171875 -0.074219,0.367187 -0.109375,0.679687 -0.109375,0.9375 0,0.304687 0.03125,0.554687 0.09375,0.75 0.0625,0.199219 0.171875,0.3398438 0.328125,0.421875 -0.125,0.082031 -0.292969,0.148438 -0.5,0.203125 C 6.519531,0.285156 6.335938,0.3125 6.171875,0.3125 5.597656,0.3125 5.3125,-0.078125 5.3125,-0.859375 c 0,-0.613281 0.203125,-1.445313 0.609375,-2.5 -0.21875,0.492187 -0.46875,0.953125 -0.75,1.390625 -0.273437,0.429688 -0.554687,0.808594 -0.84375,1.140625 C 4.046875,-0.503906 3.757812,-0.238281 3.46875,-0.03125 3.175781,0.175781 2.90625,0.304688 2.65625,0.359375 2.257812,0.328125 1.9375,0.132812 1.6875,-0.21875 1.445312,-0.570312 1.328125,-1.023438 1.328125,-1.578125 c 0,-0.601563 0.125,-1.234375 0.375,-1.890625 C 1.960938,-4.132812 2.289062,-4.75 2.6875,-5.3125 3.09375,-5.875 3.53125,-6.34375 4,-6.71875 c 0.46875,-0.382812 0.921875,-0.585938 1.359375,-0.609375 0.101563,0.03125 0.222656,0.101563 0.359375,0.203125 0.132812,0.09375 0.257812,0.203125 0.375,0.328125 0.125,0.125 0.226562,0.257813 0.3125,0.390625 C 6.5,-6.269531 6.550781,-6.15625 6.5625,-6.0625 6.132812,-6 5.691406,-5.789062 5.234375,-5.4375 4.785156,-5.082031 4.375,-4.65625 4,-4.15625 3.632812,-3.664062 3.332031,-3.140625 3.09375,-2.578125 2.863281,-2.015625 2.75,-1.484375 2.75,-0.984375 c 0,0.199219 0.070312,0.324219 0.21875,0.375 0.3125,-0.0625 0.671875,-0.320313 1.078125,-0.78125 0.40625,-0.46875 0.894531,-1.1875 1.46875,-2.15625 C 5.628906,-3.742188 5.75,-3.957031 5.875,-4.1875 6.007812,-4.425781 6.144531,-4.671875 6.28125,-4.921875 6.425781,-5.179688 6.5625,-5.441406 6.6875,-5.703125 6.820312,-5.960938 6.953125,-6.21875 7.078125,-6.46875 Z m 0,0"
             id="path2545"
             style="stroke-width:0.0953316" /></g></g></g><g
       id="g4419"
       transform="translate(5.6354206,-8.0042731)"><rect
         style="opacity:0.96;fill:#000000;fill-opacity:1;stroke:#000000;stroke-width:0"
         id="rect4207"
         width="86.489281"
         height="6.4034181"
         x="1425.1733"
         y="1594.8406" /><rect
         style="opacity:0.96;fill:#000000;fill-opacity:1;stroke:#000000;stroke-width:0"
         id="rect4207-9"
         width="6.2064042"
         height="86.773895"
         x="1510.7148"
         y="1594.8323" /></g><g
       id="g4415"
       transform="rotate(180,1206.6226,1643.3342)"><rect
         style="opacity:0.96;fill:#000000;fill-opacity:1;stroke:#000000;stroke-width:0"
         id="rect4207-7"
         width="86.489281"
         height="6.4034181"
         x="1064.3566"
         y="1542.725" /><rect
         style="opacity:0.96;fill:#000000;fill-opacity:1;stroke:#000000;stroke-width:0"
         id="rect4207-9-2"
         width="6.2064042"
         height="86.773895"
         x="1149.8981"
         y="1542.7167" /></g></g></svg>
