<svg width="271" height="100" viewBox="0 0 271 100" fill="none" xmlns="http://www.w3.org/2000/svg">
<g clip-path="url(#clip0_2442_965)">
<path d="M84.503 84.7655H82.7188C82.3791 84.7655 82.2229 84.3029 82.4923 84.0716L83.0038 83.6247C83.441 83.2444 83.9837 83.0405 84.5459 83.0405H86.3302C86.6737 83.0405 86.826 83.5031 86.5566 83.7383L86.0452 84.1813C85.6079 84.5616 85.0652 84.7655 84.503 84.7655Z" fill="#DC0D15"/>
<path d="M86.8376 82.2526L85.0573 82.3781C84.7215 82.4016 84.5341 81.9508 84.784 81.6999L85.2681 81.2216C85.6741 80.8139 86.2051 80.5708 86.7634 80.5316L88.5437 80.4062C88.8834 80.3826 89.0708 80.8335 88.817 81.0844L88.3368 81.5627C87.9269 81.9704 87.3998 82.2134 86.8415 82.2566" fill="#DC0D15"/>
<path d="M88.9885 79.5789L87.2199 79.8298C86.8841 79.8768 86.6694 79.4378 86.8997 79.1712L87.3448 78.6615C87.7235 78.2264 88.235 77.9441 88.7894 77.8696L90.558 77.6187C90.8976 77.5717 91.1085 78.0108 90.8781 78.2734L90.433 78.787C90.0504 79.2221 89.5429 79.5044 88.9885 79.5789Z" fill="#DC0D15"/>
<path d="M90.9483 76.768L89.2031 77.1365C88.8674 77.211 88.6253 76.7876 88.84 76.5053L89.2461 75.9643C89.5935 75.5017 90.0855 75.1881 90.6321 75.0705L92.3773 74.702C92.713 74.6314 92.9551 75.0509 92.7443 75.3331L92.3343 75.8741C91.9868 76.3328 91.4988 76.6504 90.9522 76.7719" fill="#DC0D15"/>
<path d="M92.7057 73.816L90.9918 74.3099C90.6638 74.404 90.3905 74.0002 90.5818 73.7023L90.9527 73.1338C91.2651 72.6477 91.7336 72.3027 92.2723 72.1459L93.9863 71.6558C94.3143 71.5578 94.5915 71.9616 94.3962 72.2596L94.0253 72.828C93.7091 73.3142 93.2445 73.6631 92.7018 73.816" fill="#DC0D15"/>
<path d="M94.2553 70.7541L92.5804 71.3657C92.2564 71.4872 91.9597 71.1031 92.1314 70.7933L92.4594 70.2014C92.7405 69.6957 93.1817 69.3154 93.7088 69.1233L95.3837 68.5117C95.7077 68.3941 96.0044 68.7783 95.8366 69.0841L95.5047 69.68C95.2236 70.1857 94.7824 70.566 94.2553 70.7581" fill="#DC0D15"/>
<path d="M95.5907 67.5866L93.9587 68.3197C93.6464 68.4569 93.3223 68.0963 93.4707 67.7748L93.7596 67.1632C94.0056 66.6379 94.4194 66.2263 94.9309 65.9989L96.5589 65.2697C96.8713 65.1325 97.1992 65.4932 97.047 65.8107L96.758 66.4262C96.5121 66.9476 96.0982 67.3592 95.5868 67.5866" fill="#DC0D15"/>
<path d="M96.703 64.3405L95.1257 65.1794C94.8251 65.3401 94.4737 65.003 94.6026 64.6737L94.8446 64.0386C95.0555 63.4976 95.4381 63.0585 95.93 62.7958L97.5073 61.9569C97.8079 61.7962 98.1593 62.1333 98.0305 62.4626L97.7884 63.0938C97.5776 63.6348 97.195 64.0739 96.703 64.3365" fill="#DC0D15"/>
<path d="M97.5854 61.0238L96.0705 61.9726C95.7816 62.1529 95.4107 61.8393 95.5122 61.5021L95.7114 60.8513C95.8831 60.2986 96.2345 59.8321 96.7108 59.5341L98.2218 58.5893C98.5107 58.405 98.8855 58.7187 98.7801 59.0558L98.581 59.7027C98.4131 60.2594 98.0578 60.722 97.5854 61.0199" fill="#DC0D15"/>
<path d="M98.2336 57.6486L96.789 58.6992C96.5118 58.9031 96.1175 58.6169 96.1995 58.2758L96.3517 57.6133C96.4845 57.0487 96.8007 56.5626 97.2575 56.2294L98.7021 55.1787C98.9793 54.9749 99.3697 55.2611 99.2916 55.6061L99.1355 56.2686C99.0066 56.8331 98.6865 57.3192 98.2336 57.6486Z" fill="#DC0D15"/>
<path d="M98.6472 54.2418L97.2846 55.3904C97.0191 55.6099 96.6052 55.3512 96.6638 55.0062L96.7692 54.3358C96.8629 53.7635 97.144 53.2538 97.5735 52.8932L98.94 51.7406C99.2055 51.521 99.6154 51.7798 99.5568 52.1248L99.4514 52.7951C99.3577 53.3675 99.0727 53.8732 98.6433 54.2378" fill="#DC0D15"/>
<path d="M98.8229 50.8074L97.5384 52.0502C97.2924 52.2893 96.863 52.0619 96.8942 51.7091L96.9528 51.0309C97.0035 50.4546 97.2534 49.9254 97.6555 49.5333L98.9361 48.2906C99.1821 48.0514 99.6154 48.2788 99.5803 48.6316L99.5217 49.3099C99.471 49.8862 99.225 50.4154 98.819 50.8035" fill="#DC0D15"/>
<path d="M98.7609 47.3693L97.5662 48.6983C97.3358 48.9532 96.8946 48.7571 96.9024 48.4043L96.9142 47.7222C96.9259 47.1459 97.1367 46.601 97.5115 46.1815L98.7023 44.8525C98.9326 44.5977 99.3777 44.7937 99.3699 45.1504L99.3582 45.8287C99.3465 46.4089 99.1357 46.9499 98.7609 47.3693Z" fill="#DC0D15"/>
<path d="M98.4599 43.9509L97.3628 45.3583C97.152 45.6327 96.6952 45.468 96.6757 45.1113L96.6405 44.4292C96.6132 43.8529 96.785 43.2962 97.1324 42.8493L98.2295 41.4419C98.4404 41.1714 98.8933 41.336 98.9167 41.6888L98.9479 42.371C98.9752 42.9512 98.8035 43.504 98.4599 43.9509Z" fill="#DC0D15"/>
<path d="M97.9217 40.5558L96.9222 42.0377C96.7309 42.3239 96.2624 42.1906 96.2195 41.8378L96.1375 41.1635C96.0672 40.5872 96.2 40.0187 96.5162 39.5522L97.5157 38.0703C97.707 37.7841 98.1755 37.9174 98.2145 38.2703L98.2965 38.9446C98.3668 39.5209 98.2302 40.0854 97.9178 40.5519" fill="#DC0D15"/>
<path d="M97.1444 37.2117L96.2543 38.7603C96.0825 39.0582 95.6062 38.9563 95.5398 38.6113L95.4109 37.9448C95.3016 37.3764 95.3992 36.8001 95.6803 36.314L96.5705 34.7654C96.7423 34.4675 97.2186 34.5655 97.285 34.9144L97.4138 35.5809C97.5231 36.1493 97.4255 36.7256 97.1483 37.2156" fill="#DC0D15"/>
<path d="M96.1447 33.9265L95.3639 35.5378C95.2155 35.8435 94.7314 35.7769 94.6455 35.4358L94.4698 34.7811C94.3215 34.2205 94.3722 33.6403 94.6182 33.1346L95.4029 31.5272C95.5513 31.2175 96.0354 31.2881 96.1252 31.6253L96.3009 32.2839C96.4493 32.8445 96.3946 33.4247 96.1486 33.9304" fill="#DC0D15"/>
<path d="M94.9156 30.7197L94.248 32.3819C94.1192 32.6994 93.635 32.6681 93.5218 32.3309L93.3032 31.688C93.1158 31.1391 93.1275 30.5589 93.3383 30.0336L94.0059 28.3753C94.1348 28.0577 94.6228 28.0891 94.7321 28.4263L94.9508 29.0692C95.1382 29.618 95.1265 30.2022 94.9156 30.7236" fill="#DC0D15"/>
<path d="M93.4631 27.607L92.9087 29.3123C92.8072 29.6377 92.3192 29.6416 92.1825 29.3123L91.9209 28.6851C91.6945 28.1519 91.6672 27.5678 91.8429 27.0346L92.3934 25.3293C92.4988 25.0039 92.9868 24.9999 93.1234 25.3293L93.3889 25.9526C93.6154 26.4897 93.6388 27.0699 93.467 27.6031" fill="#DC0D15"/>
<path d="M91.8001 24.6078L91.3667 26.3445C91.2847 26.6817 90.8006 26.713 90.6405 26.3994L90.3321 25.7918C90.0705 25.2743 90.008 24.698 90.1408 24.1531L90.5742 22.4163C90.6561 22.0831 91.1442 22.0478 91.3042 22.3654L91.6088 22.9691C91.8704 23.4866 91.9367 24.0668 91.8001 24.6117" fill="#DC0D15"/>
<path d="M89.9336 21.7265L89.6251 23.4868C89.5666 23.8239 89.0825 23.8945 88.9029 23.5926L88.5554 23.0085C88.2587 22.5106 88.1493 21.9343 88.2509 21.3855L88.5593 19.6213C88.6179 19.2842 89.0981 19.2136 89.2816 19.5155L89.6291 20.0996C89.9219 20.5975 90.0351 21.1698 89.9375 21.7265" fill="#DC0D15"/>
<path d="M87.8718 18.9861L87.6844 20.7659C87.6531 21.107 87.1729 21.2089 86.9738 20.9188L86.5873 20.3621C86.2593 19.8878 86.1071 19.3232 86.1656 18.7626L86.353 16.9828C86.3882 16.6378 86.8645 16.5359 87.0636 16.826L87.454 17.3866C87.7859 17.8609 87.9303 18.4216 87.8718 18.9861Z" fill="#DC0D15"/>
<path d="M85.6197 16.3948L85.5611 18.1825C85.5494 18.5236 85.0809 18.6608 84.8622 18.3864L84.4406 17.8571C84.0736 17.4063 83.8901 16.8535 83.9096 16.2929L83.9721 14.5052C83.9838 14.1603 84.4484 14.027 84.6709 14.3014L85.0965 14.8306C85.4596 15.2815 85.647 15.8342 85.6236 16.3948" fill="#DC0D15"/>
<path d="M83.1984 13.9681L83.257 15.7597C83.2687 16.1047 82.8119 16.2694 82.5737 16.0146L82.113 15.5167C81.7187 15.0933 81.4961 14.5523 81.4727 13.9917L81.4103 12.2001C81.4024 11.859 81.8553 11.6904 82.0974 11.9452L82.5542 12.4431C82.9446 12.8665 83.1711 13.4075 83.1906 13.9681" fill="#DC0D15"/>
<path d="M80.6143 11.7179L80.8017 13.4978C80.8368 13.8388 80.3956 14.0427 80.1379 13.7996L79.6421 13.3331C79.2205 12.9371 78.9628 12.4118 78.9003 11.8551L78.7129 10.0753C78.6778 9.73423 79.1228 9.53429 79.3766 9.77343L79.8725 10.24C80.2941 10.6359 80.5557 11.1573 80.6143 11.714" fill="#DC0D15"/>
<path d="M77.8811 9.6519L78.1895 11.4161C78.2481 11.7571 77.8186 11.9845 77.5453 11.761L77.0221 11.3337C76.5771 10.9652 76.2803 10.4673 76.1827 9.91064L75.8743 8.15041C75.8118 7.80934 76.2413 7.58196 76.5146 7.8015L77.0417 8.22882C77.4867 8.59341 77.7835 9.09521 77.885 9.64798" fill="#DC0D15"/>
<path d="M75.0076 7.78582L75.441 9.52253C75.5229 9.85576 75.113 10.1184 74.8241 9.91065L74.2736 9.51861C73.8012 9.18538 73.4693 8.70318 73.3366 8.16217L72.9032 6.42546C72.8212 6.08832 73.2312 5.83349 73.524 6.03343L74.0745 6.42546C74.5469 6.76261 74.8788 7.2409 75.0115 7.78582" fill="#DC0D15"/>
<path d="M72.0096 6.11948L72.5601 7.82091C72.6655 8.1463 72.2712 8.4364 71.9706 8.25215L71.3927 7.89932C70.8969 7.59745 70.5377 7.14661 70.362 6.60953L69.8115 4.9081C69.7061 4.58271 70.0965 4.29261 70.4011 4.47686L70.9789 4.82969C71.4708 5.12764 71.8378 5.5824 72.0096 6.11948Z" fill="#DC0D15"/>
<path d="M68.905 4.67288L69.5765 6.33118C69.7053 6.64873 69.3305 6.96235 69.0182 6.80554L68.4208 6.49583C67.9055 6.23317 67.5112 5.80193 67.3003 5.28053L66.6327 3.62223C66.5039 3.30468 66.8748 2.98713 67.1871 3.14786L67.7923 3.45757C68.3076 3.72023 68.698 4.15147 68.9089 4.67288" fill="#DC0D15"/>
<path d="M65.7118 3.44596L66.4926 5.0533C66.6449 5.363 66.2935 5.70015 65.9695 5.56294L65.3448 5.29244C64.8138 5.06506 64.3883 4.66518 64.1462 4.15946L63.3654 2.55212C63.217 2.24634 63.5645 1.90527 63.8885 2.04248L64.5093 2.31298C65.0442 2.54036 65.4658 2.94024 65.7079 3.44596" fill="#DC0D15"/>
<path d="M62.436 2.44614L63.33 3.99467C63.5018 4.29262 63.1778 4.65721 62.842 4.5396L62.2017 4.31614C61.6551 4.12797 61.2061 3.75553 60.925 3.26941L60.0349 1.72088C59.8631 1.42293 60.1871 1.05834 60.519 1.17595L61.1554 1.39941C61.702 1.58759 62.151 1.9561 62.4321 2.44614" fill="#DC0D15"/>
<path d="M59.1019 1.67385L60.1013 3.15574C60.2926 3.44585 59.992 3.83004 59.6523 3.73595L59.0003 3.55954C58.442 3.40664 57.9696 3.06949 57.6534 2.60689L56.6578 1.12108C56.4665 0.83882 56.7632 0.450706 57.1029 0.540874L57.7549 0.72121C58.3093 0.874103 58.7856 1.20733 59.0979 1.67385" fill="#DC0D15"/>
<path d="M55.7167 1.14076L56.8138 2.54816C57.0246 2.81866 56.7552 3.22638 56.4077 3.15581L55.744 3.02644C55.174 2.91667 54.6781 2.61089 54.3346 2.16789L53.2375 0.756566C53.0267 0.486062 53.296 0.0822676 53.6435 0.148913L54.3072 0.282205C54.8734 0.391974 55.3731 0.69384 55.7167 1.14076Z" fill="#DC0D15"/>
<path d="M52.312 0.842769L53.5028 2.17176C53.7332 2.42659 53.4911 2.84998 53.1397 2.80686L52.4721 2.72453C51.8943 2.65004 51.3789 2.38346 51.0041 1.96399L49.8094 0.63107C49.583 0.376248 49.8211 -0.0471483 50.1725 -0.00402455L50.8441 0.0783026C51.418 0.148869 51.9333 0.419372 52.312 0.834928" fill="#DC0D15"/>
<path d="M48.8885 0.788021L50.173 2.03469C50.415 2.26991 50.2042 2.70899 49.8528 2.68939L49.1774 2.65018C48.5996 2.61882 48.0686 2.39144 47.6625 1.99941L46.3781 0.756658C46.1321 0.521438 46.3429 0.0784399 46.6943 0.0980416L47.3697 0.137245C47.9476 0.168608 48.4824 0.399908 48.8846 0.788021" fill="#DC0D15"/>
<path d="M45.4719 0.97216L46.8383 2.12474C47.0999 2.34036 46.9203 2.79512 46.5689 2.80296L45.8935 2.8108C45.3157 2.82256 44.7691 2.63046 44.3396 2.26587L42.9731 1.11721C42.7116 0.897673 42.8912 0.442914 43.2425 0.438994L43.918 0.427233C44.4958 0.419392 45.0424 0.611489 45.4758 0.97216" fill="#DC0D15"/>
<path d="M42.0756 1.39564L43.5202 2.44629C43.7935 2.64623 43.6451 3.11275 43.2977 3.14411L42.6222 3.199C42.0483 3.24996 41.4861 3.09315 41.0332 2.76384L39.5925 1.71319C39.3153 1.50933 39.4637 1.04673 39.8151 1.01537L40.4905 0.960483C41.0644 0.913438 41.6266 1.06633 42.0795 1.39956" fill="#DC0D15"/>
<path d="M38.7136 2.05423L40.2285 2.99903C40.5174 3.18329 40.4042 3.65373 40.0528 3.71253L39.3813 3.81838C38.8112 3.90855 38.2412 3.79486 37.7649 3.493L36.254 2.54819C35.9612 2.36394 36.0822 1.8935 36.4258 1.83469L37.0973 1.73276C37.6673 1.6426 38.2373 1.75629 38.7136 2.05423Z" fill="#DC0D15"/>
<path d="M35.4106 2.94795L36.9879 3.78299C37.2885 3.94764 37.2065 4.42592 36.863 4.50433L36.2031 4.65722C35.637 4.78659 35.0631 4.71211 34.5712 4.44552L32.9939 3.60657C32.6932 3.44584 32.7752 2.96364 33.1188 2.88915L33.7786 2.73234C34.3408 2.60688 34.9187 2.67745 35.4145 2.94403" fill="#DC0D15"/>
<path d="M32.1747 4.06914L33.8067 4.79441C34.119 4.93554 34.0722 5.42166 33.7364 5.52751L33.0844 5.72353C32.5339 5.8921 31.9522 5.86074 31.4407 5.62944L29.8127 4.90418C29.5004 4.76304 29.5511 4.27692 29.8869 4.17499L30.535 3.97898C31.0894 3.81432 31.6672 3.84568 32.1786 4.07306" fill="#DC0D15"/>
<path d="M29.0233 5.41381L30.6982 6.02539C31.0184 6.143 31.0067 6.62912 30.6748 6.75849L30.0423 7.00155C29.5074 7.20933 28.9218 7.21717 28.3947 7.02507L26.7198 6.4135C26.3997 6.29589 26.4153 5.80585 26.7433 5.6804L27.3757 5.43734C27.9145 5.22956 28.4962 5.22172 29.0233 5.41381Z" fill="#DC0D15"/>
<path d="M25.9785 6.97425L27.6925 7.46821C28.0204 7.5623 28.0399 8.05234 27.7198 8.20132L27.1029 8.48358C26.5759 8.72664 25.998 8.77369 25.4632 8.62079L23.7453 8.12683C23.4173 8.03274 23.3978 7.5427 23.718 7.39373L24.3348 7.10754C24.858 6.86056 25.4397 6.81744 25.9785 6.97033" fill="#DC0D15"/>
<path d="M23.0459 8.74618L24.7911 9.11862C25.1268 9.18918 25.1776 9.6753 24.8692 9.84388L24.2757 10.1732C23.7721 10.4515 23.1942 10.5417 22.6476 10.4241L20.9025 10.0517C20.5667 9.98109 20.512 9.49497 20.8205 9.32639L21.4178 8.99709C21.9215 8.71874 22.4954 8.62857 23.042 8.74618" fill="#DC0D15"/>
<path d="M20.2426 10.7221L22.0073 10.9691C22.347 11.02 22.4329 11.4983 22.1362 11.6904L21.5661 12.0589C21.082 12.3725 20.5159 12.5019 19.9615 12.4235L18.1929 12.1765C17.8532 12.1256 17.7712 11.6473 18.064 11.4552L18.6302 11.0827C19.1182 10.7691 19.6843 10.6437 20.2387 10.7182" fill="#DC0D15"/>
<path d="M17.5879 12.886L19.3683 13.0115C19.7079 13.035 19.829 13.5094 19.544 13.7211L19.0013 14.1249C18.5406 14.4738 17.9862 14.6424 17.424 14.6032L15.6436 14.4777C15.3001 14.4542 15.1829 13.9798 15.464 13.7681L16.0067 13.3604C16.4674 13.0115 17.0257 12.8468 17.584 12.886" fill="#DC0D15"/>
<path d="M15.0851 15.2305H16.8693C17.209 15.2305 17.3651 15.697 17.0957 15.9283L16.5843 16.3713C16.147 16.7516 15.6043 16.9554 15.0421 16.9554H13.2618C12.9182 16.9554 12.7659 16.4889 13.0314 16.2615L13.5429 15.8185C13.9802 15.4382 14.5228 15.2305 15.0851 15.2305Z" fill="#DC0D15"/>
<path d="M12.7542 17.7472L14.5346 17.6217C14.8742 17.5982 15.0577 18.0491 14.8118 18.3L14.3276 18.7782C13.9216 19.186 13.3906 19.429 12.8323 19.4682L11.052 19.5937C10.7123 19.6172 10.5249 19.1663 10.7787 18.9154L11.2589 18.4372C11.6689 18.0255 12.1959 17.7864 12.7542 17.7433" fill="#DC0D15"/>
<path d="M10.6037 20.417L12.3723 20.17C12.7081 20.123 12.9228 20.562 12.6925 20.8247L12.2474 21.3383C11.8687 21.7734 11.3572 22.0557 10.8028 22.1302L9.03813 22.3811C8.69847 22.4281 8.48373 21.989 8.71408 21.7225L9.15916 21.2128C9.53787 20.7776 10.0493 20.4915 10.6037 20.417Z" fill="#DC0D15"/>
<path d="M8.64341 23.2358L10.3886 22.8633C10.7244 22.7928 10.9703 23.2123 10.7556 23.4945L10.3496 24.0355C10.0021 24.4981 9.51015 24.8118 8.96356 24.9294L7.21837 25.3018C6.88261 25.3724 6.64055 24.9529 6.85137 24.6706L7.26132 24.1296C7.60879 23.667 8.10073 23.3495 8.64341 23.2319" fill="#DC0D15"/>
<path d="M6.88269 26.1838L8.59665 25.6898C8.9246 25.5957 9.1979 26.0034 9.00659 26.2935L8.63569 26.862C8.31945 27.3481 7.85485 27.697 7.31606 27.8538L5.60211 28.3478C5.27415 28.4419 5.00086 28.0381 5.19216 27.7441L5.56307 27.1756C5.87931 26.6895 6.34391 26.3406 6.88269 26.1877" fill="#DC0D15"/>
<path d="M5.33296 29.2417L7.00787 28.6301C7.32802 28.5125 7.62864 28.8967 7.45686 29.2025L7.1289 29.7984C6.8478 30.3041 6.40662 30.6883 5.87955 30.8765L4.20464 31.492C3.88449 31.6096 3.57996 31.2254 3.75175 30.9157L4.08361 30.3198C4.36471 29.8141 4.80589 29.4338 5.33296 29.2417Z" fill="#DC0D15"/>
<path d="M3.99727 32.4054L5.62533 31.6801C5.93767 31.539 6.26172 31.8997 6.11336 32.2251L5.82444 32.8406C5.57848 33.3659 5.16463 33.7736 4.65318 34.0049L3.02121 34.7341C2.70887 34.8713 2.38482 34.5106 2.53318 34.1931L2.81819 33.5776C3.06416 33.0523 3.47801 32.6406 3.98946 32.4093" fill="#DC0D15"/>
<path d="M2.88509 35.6555L4.46239 34.8165C4.76302 34.6558 5.1144 34.9929 4.98946 35.3222L4.7435 35.9573C4.53657 36.4983 4.15006 36.9374 3.65812 37.2001L2.08472 38.0429C1.7841 38.2037 1.43272 37.8665 1.56155 37.5372L1.80362 36.9021C2.01444 36.3611 2.39706 35.926 2.88899 35.6594" fill="#DC0D15"/>
<path d="M2.00682 38.9761L3.51776 38.0273C3.80667 37.847 4.18147 38.1606 4.07606 38.4939L3.87694 39.1446C3.70516 39.6974 3.35378 40.1639 2.87746 40.4619L1.36262 41.4067C1.07371 41.5909 0.698906 41.2773 0.80432 40.9401L1.00344 40.2933C1.17522 39.7366 1.5266 39.274 2.00292 38.9761" fill="#DC0D15"/>
<path d="M1.3542 42.3513L2.79876 41.2968C3.07596 41.0968 3.47029 41.383 3.3883 41.7241L3.23604 42.3866C3.10329 42.9512 2.78705 43.4373 2.33026 43.7705L0.889597 44.8212C0.612397 45.025 0.218071 44.7388 0.30006 44.3938L0.452324 43.7313C0.585068 43.1668 0.90131 42.6806 1.3542 42.3474" fill="#DC0D15"/>
<path d="M0.940679 45.7581L2.30716 44.6095C2.56874 44.3899 2.98259 44.6487 2.92793 44.9937L2.81861 45.664C2.72881 46.2364 2.4438 46.7461 2.01434 47.1067L0.647862 48.2554C0.386279 48.4749 -0.0275691 48.2201 0.0309943 47.8712L0.136408 47.2008C0.23011 46.6284 0.515118 46.1188 0.940679 45.7581Z" fill="#DC0D15"/>
<path d="M0.764889 49.1922L2.04547 47.9456C2.29144 47.7103 2.72091 47.9377 2.68967 48.2906L2.63111 48.9688C2.58035 49.5451 2.33048 50.0743 1.92835 50.4663L0.643858 51.7091C0.397892 51.9443 -0.0315727 51.7208 -0.000338936 51.368L0.0621286 50.6898C0.112884 50.1135 0.35885 49.5843 0.764889 49.1961" fill="#DC0D15"/>
<path d="M0.826936 52.6267L2.02163 51.2977C2.25198 51.0429 2.69315 51.2389 2.68925 51.5917L2.67363 52.2738C2.66192 52.8501 2.455 53.3951 2.07629 53.8145L0.885499 55.1474C0.659054 55.4023 0.213973 55.2023 0.221781 54.8495L0.237398 54.1713C0.249111 53.5911 0.456035 53.0501 0.834744 52.6306" fill="#DC0D15"/>
<path d="M1.13147 56.049L2.22856 54.6377C2.44329 54.3672 2.89618 54.5318 2.9157 54.8846L2.95084 55.5668C2.97817 56.1431 2.80638 56.6998 2.45891 57.1428L1.36182 58.5541C1.1549 58.8246 0.694199 58.6599 0.674678 58.3071L0.63954 57.6289C0.61221 57.0526 0.783996 56.492 1.13147 56.049Z" fill="#DC0D15"/>
<path d="M1.6702 59.444L2.66578 57.9621C2.85709 57.676 3.32559 57.8092 3.36463 58.1582L3.44662 58.8364C3.513 59.4087 3.38025 59.9772 3.06791 60.4437L2.06843 61.9295C1.87713 62.2157 1.40862 62.0824 1.36958 61.7296L1.28759 61.0553C1.21731 60.479 1.35396 59.9145 1.6663 59.4479" fill="#DC0D15"/>
<path d="M2.44409 62.7882L3.33425 61.2357C3.50603 60.9378 3.98235 61.0397 4.04872 61.3886L4.17756 62.055C4.28297 62.6235 4.19318 63.1998 3.90817 63.6859L3.01801 65.2384C2.84622 65.5363 2.3699 65.4344 2.30353 65.0894L2.1786 64.4229C2.06928 63.8545 2.16689 63.2782 2.44409 62.7921" fill="#DC0D15"/>
<path d="M3.44705 66.0733L4.22789 64.4621C4.37625 64.1563 4.86038 64.2229 4.94627 64.564L5.11806 65.2226C5.27032 65.7832 5.21176 66.3634 4.9697 66.8691L4.18885 68.4765C4.04049 68.7862 3.55637 68.7156 3.46657 68.3785L3.29478 67.7238C3.14642 67.1632 3.20108 66.583 3.44705 66.0772" fill="#DC0D15"/>
<path d="M4.6772 69.2803L5.34482 67.622C5.47366 67.3005 5.96169 67.3358 6.07491 67.6729L6.29355 68.3159C6.48095 68.8647 6.46924 69.4488 6.25841 69.9703L5.59079 71.6286C5.46586 71.95 4.97783 71.9147 4.8646 71.5776L4.64597 70.9347C4.46247 70.3858 4.47418 69.8056 4.68111 69.2803" fill="#DC0D15"/>
<path d="M6.1258 72.3891L6.6763 70.6877C6.78171 70.3583 7.26583 70.3583 7.40248 70.6877L7.66406 71.3149C7.8866 71.8442 7.91784 72.4322 7.74215 72.9654L7.19165 74.6668C7.08624 74.9922 6.59821 74.9922 6.46156 74.6668L6.19998 74.0395C5.97354 73.5064 5.94621 72.9222 6.11799 72.3891" fill="#DC0D15"/>
<path d="M7.78831 75.3921L8.22168 73.6554C8.30366 73.3182 8.79169 73.2869 8.94786 73.6005L9.2563 74.2042C9.51397 74.7217 9.58035 75.3019 9.4476 75.8468L9.01423 77.5875C8.93225 77.9168 8.44812 77.9521 8.28805 77.6384L7.98352 77.0347C7.72584 76.5172 7.65556 75.937 7.78831 75.3921Z" fill="#DC0D15"/>
<path d="M9.65475 78.2695L9.96318 76.5092C10.0217 76.1721 10.502 76.1015 10.6855 76.4034L11.0329 76.9875C11.3297 77.4854 11.4351 78.0617 11.3375 78.6105L11.029 80.3747C10.9705 80.7158 10.4863 80.7824 10.3068 80.4805L9.95928 79.8964C9.66646 79.3985 9.55714 78.8262 9.65084 78.2695" fill="#DC0D15"/>
<path d="M11.7162 81.0138L11.9036 79.234C11.9387 78.8929 12.4111 78.7871 12.618 79.0811L13.0046 79.6378C13.3364 80.1121 13.4809 80.6767 13.4223 81.2373L13.2349 83.0171C13.1998 83.3582 12.7235 83.4601 12.5243 83.17L12.1378 82.6133C11.8099 82.139 11.6615 81.5705 11.7162 81.0138Z" fill="#DC0D15"/>
<path d="M13.9692 83.6051L14.0316 81.8175C14.0433 81.4764 14.5079 81.3392 14.7305 81.6136L15.156 82.1429C15.5191 82.5937 15.7026 83.1465 15.6831 83.7071L15.6206 85.4948C15.6089 85.8358 15.1443 85.973 14.9218 85.6986L14.4962 85.1694C14.1331 84.7185 13.9457 84.1658 13.9653 83.6051" fill="#DC0D15"/>
<path d="M16.3897 86.0317L16.3272 84.2401C16.3194 83.8951 16.7723 83.7304 17.0105 83.9892L17.4712 84.4871C17.8616 84.9105 18.0881 85.4515 18.1076 86.0121L18.1661 87.7998C18.1778 88.1447 17.7211 88.3133 17.479 88.0507L17.0222 87.5528C16.6318 87.1294 16.4014 86.5884 16.3858 86.0317" fill="#DC0D15"/>
<path d="M18.9745 88.282L18.7871 86.5022C18.752 86.1611 19.1932 85.9612 19.4509 86.2043L19.9467 86.6708C20.3683 87.0667 20.626 87.5881 20.6885 88.1488L20.8759 89.9286C20.911 90.2697 20.466 90.4657 20.2122 90.2265L19.7163 89.76C19.2947 89.3641 19.0331 88.8426 18.9745 88.286" fill="#DC0D15"/>
<path d="M21.7114 90.348L21.4029 88.5877C21.3444 88.2506 21.7699 88.0193 22.0471 88.2427L22.5742 88.67C23.0193 89.0386 23.316 89.5404 23.4136 90.0931L23.7259 91.8534C23.7845 92.1905 23.3589 92.4218 23.0856 92.1984L22.5586 91.771C22.1135 91.4025 21.8129 90.9046 21.7192 90.348" fill="#DC0D15"/>
<path d="M24.5846 92.2142L24.1513 90.4774C24.0693 90.1442 24.4792 89.8855 24.7681 90.0893L25.3225 90.4814C25.7949 90.8146 26.1268 91.2929 26.2595 91.8417L26.6929 93.5784C26.7749 93.9117 26.365 94.1704 26.076 93.9665L25.5216 93.5784C25.0492 93.2413 24.7174 92.763 24.5846 92.2181" fill="#DC0D15"/>
<path d="M27.5788 93.8764L27.0283 92.1749C26.9229 91.8496 27.3133 91.5595 27.614 91.7437L28.1957 92.0965C28.6876 92.3984 29.0507 92.8492 29.2264 93.3863L29.7769 95.0917C29.8823 95.4171 29.488 95.7032 29.1874 95.5229L28.6095 95.1701C28.1176 94.8721 27.7545 94.4174 27.5788 93.8803" fill="#DC0D15"/>
<path d="M30.6831 95.323L30.0155 93.6647C29.8867 93.3472 30.2576 93.0336 30.5738 93.1904L31.1751 93.5001C31.6904 93.7627 32.0847 94.194 32.2956 94.7154L32.9632 96.3737C33.0959 96.6912 32.7211 97.0049 32.4088 96.848L31.8036 96.5383C31.2883 96.2757 30.8979 95.8444 30.687 95.323" fill="#DC0D15"/>
<path d="M33.8802 96.5538L33.0994 94.9465C32.9471 94.6368 33.2946 94.2957 33.6226 94.4369L34.2433 94.7074C34.7743 94.9348 35.1999 95.3346 35.4458 95.8403L36.2267 97.4477C36.375 97.7574 36.0276 98.0945 35.7035 97.9573L35.0827 97.6907C34.5518 97.4634 34.1262 97.0635 33.8841 96.5578" fill="#DC0D15"/>
<path d="M37.1559 97.5536L36.2657 96.0051C36.0939 95.7071 36.414 95.3425 36.7498 95.4601L37.3862 95.6797C37.9328 95.8718 38.3818 96.2403 38.6629 96.7264L39.553 98.2749C39.7248 98.5729 39.4008 98.9375 39.065 98.8199L38.4286 98.5964C37.882 98.4082 37.4331 98.0358 37.152 97.5497" fill="#DC0D15"/>
<path d="M40.4869 98.3221L39.4874 96.8402C39.2961 96.554 39.5967 96.1698 39.9364 96.26L40.5884 96.4364C41.1467 96.5893 41.623 96.9264 41.9354 97.393L42.9309 98.8748C43.1222 99.1571 42.8255 99.5452 42.4859 99.4511L41.8338 99.2708C41.2755 99.1179 40.8031 98.7808 40.4869 98.3142" fill="#DC0D15"/>
<path d="M43.8714 98.8591L42.7743 97.4517C42.5596 97.1812 42.8329 96.7734 43.1765 96.844L43.8402 96.9773C44.4063 97.0871 44.906 97.3929 45.2496 97.8359L46.3467 99.2472C46.5536 99.5177 46.2881 99.9215 45.9407 99.8548L45.2769 99.7215C44.7069 99.6118 44.2111 99.3099 43.8675 98.863" fill="#DC0D15"/>
<path d="M47.2802 99.1571L46.0894 97.8281C45.8591 97.5733 46.1012 97.1499 46.4525 97.193L47.1241 97.2753C47.698 97.3459 48.2133 97.6164 48.5881 98.0359L49.7828 99.3649C50.0093 99.6197 49.7711 100.043 49.4197 100L48.7482 99.9137C48.1782 99.8431 47.6589 99.5766 47.2841 99.1571" fill="#DC0D15"/>
<path d="M50.7003 99.2121L49.4197 97.9654C49.1737 97.7302 49.3807 97.2911 49.7399 97.3107L50.4153 97.3499C50.9931 97.3813 51.528 97.6086 51.9301 98.0007L53.2107 99.2473C53.4567 99.4826 53.2458 99.9256 52.8945 99.906L52.219 99.8668C51.6412 99.8354 51.1063 99.6041 50.7042 99.216" fill="#DC0D15"/>
<path d="M54.1199 99.0276L52.7534 97.8751C52.4918 97.6555 52.6714 97.2047 53.0228 97.1968L53.6982 97.1851C54.2761 97.1733 54.8227 97.3654 55.2521 97.73L56.6186 98.8787C56.8802 99.0982 56.7006 99.553 56.3453 99.5569L55.6699 99.5647C55.0921 99.5765 54.5455 99.3844 54.116 99.0237" fill="#DC0D15"/>
<path d="M57.5167 98.6042L56.0721 97.5536C55.7988 97.3536 55.9472 96.8871 56.2985 96.8557L56.974 96.8009C57.544 96.7499 58.1101 96.9028 58.5591 97.236L60.0036 98.2867C60.2769 98.4905 60.1286 98.9531 59.7772 98.9806L59.1018 99.0394C58.5279 99.0864 57.9656 98.9335 57.5128 98.6042" fill="#DC0D15"/>
<path d="M60.8744 97.9456L59.3635 96.993C59.0706 96.8165 59.1878 96.3383 59.5352 96.2873L60.2068 96.1815C60.7768 96.0913 61.3468 96.205 61.8231 96.5068L63.3341 97.4516C63.623 97.632 63.5058 98.1063 63.1584 98.1612L62.4868 98.2671C61.9168 98.3572 61.3468 98.2396 60.8705 97.9456" fill="#DC0D15"/>
<path d="M64.1815 97.0519L62.6042 96.2129C62.3036 96.0483 62.3856 95.57 62.7292 95.4916L63.389 95.3387C63.9551 95.2093 64.529 95.2838 65.0287 95.5465L66.6021 96.3893C66.9028 96.5501 66.8208 97.0323 66.4772 97.1107L65.8174 97.2597C65.2552 97.389 64.6774 97.3185 64.1854 97.0519" fill="#DC0D15"/>
<path d="M67.418 95.9307L65.7861 95.2015C65.4737 95.0643 65.5206 94.5782 65.8563 94.4763L66.5044 94.2802C67.0549 94.1156 67.6367 94.147 68.1481 94.3743L69.7762 95.0996C70.0885 95.2407 70.0377 95.7269 69.7059 95.8288L69.0578 96.0248C68.5034 96.1895 67.9217 96.1581 67.4141 95.9307" fill="#DC0D15"/>
<path d="M70.5647 94.5859L68.8897 93.9704C68.5657 93.8528 68.5852 93.3666 68.9093 93.2412L69.5457 92.9981C70.0883 92.7943 70.6662 92.7825 71.1932 92.9785L72.8682 93.5901C73.1922 93.7077 73.1766 94.1977 72.8486 94.3232L72.2122 94.5663C71.6735 94.774 71.0917 94.7819 70.5647 94.5898" fill="#DC0D15"/>
<path d="M73.6141 93.0218L71.9001 92.5278C71.5722 92.4338 71.5527 91.9437 71.8689 91.7947L72.4858 91.5125C73.0128 91.2694 73.5907 91.2224 74.1295 91.3753L75.8434 91.8692C76.1714 91.9633 76.1909 92.4534 75.8707 92.6023L75.2539 92.8885C74.7307 93.1355 74.1529 93.1786 73.6141 93.0257" fill="#DC0D15"/>
<path d="M76.5419 91.2498L74.7967 90.8773C74.4609 90.8068 74.4102 90.3207 74.7186 90.1482L75.312 89.8228C75.8157 89.5444 76.3935 89.4543 76.944 89.5719L78.6892 89.9443C79.025 90.0149 79.0757 90.501 78.7673 90.6735L78.1699 90.9989C77.6663 91.2772 77.0924 91.3635 76.5419 91.2498Z" fill="#DC0D15"/>
<path d="M79.3489 89.2779L77.5803 89.027C77.2406 88.9799 77.1547 88.5016 77.4515 88.3095L78.0215 87.941C78.5056 87.6274 79.0756 87.4941 79.6261 87.5725L81.3947 87.8234C81.7305 87.8744 81.8164 88.3527 81.5236 88.5408L80.9535 88.9094C80.4694 89.2269 79.9033 89.3524 79.3489 89.2779Z" fill="#DC0D15"/>
<path d="M82.004 87.1138L80.2237 86.9883C79.884 86.9648 79.763 86.4943 80.048 86.2787L80.5907 85.871C81.0514 85.526 81.6097 85.3535 82.168 85.3966L83.9483 85.5182C84.2919 85.5417 84.409 86.0161 84.1279 86.2278L83.5852 86.6355C83.1245 86.9844 82.5701 87.149 82.0079 87.1098" fill="#DC0D15"/>
<path fill-rule="evenodd" clip-rule="evenodd" d="M45.207 11.2551L48.0493 9.20477L46.9483 5.8372L49.7711 7.91498L52.6173 5.82544L51.5241 9.16165L54.382 11.2355L50.8838 11.2198L49.8023 14.5913L48.7365 11.2473L45.207 11.2551Z" fill="#DC0D15"/>
<path fill-rule="evenodd" clip-rule="evenodd" d="M30.7918 15.9675L32.6306 12.9802L30.335 10.2908L33.7316 11.1298L35.5666 8.10327L35.8282 11.6081L39.2561 12.4274L36.0195 13.7564L36.3045 17.2847L34.044 14.6032L30.7918 15.9675Z" fill="#DC0D15"/>
<path fill-rule="evenodd" clip-rule="evenodd" d="M19.2672 25.8584L19.8294 22.3928L16.6826 20.7933L20.1418 20.2601L20.6844 16.7593L22.2578 19.8955L25.7404 19.3349L23.2534 21.8087L24.8659 24.9567L21.7542 23.3494L19.2672 25.8584Z" fill="#DC0D15"/>
<path fill-rule="evenodd" clip-rule="evenodd" d="M12.3913 39.4267L11.5909 36.0082L8.07324 35.7377L11.0639 33.9186L10.2323 30.4766L12.8832 32.77L15.8856 30.9117L14.5308 34.1499L17.2169 36.4433L13.7305 36.1532L12.3913 39.4267Z" fill="#DC0D15"/>
<path fill-rule="evenodd" clip-rule="evenodd" d="M11.2091 54.6063L9.1672 51.7523L5.81347 52.8579L7.88271 50.0235L5.80176 47.1655L9.12425 48.2672L11.1896 45.3936L11.174 48.9062L14.5316 49.9921L11.2013 51.0624L11.2091 54.6063Z" fill="#DC0D15"/>
<path fill-rule="evenodd" clip-rule="evenodd" d="M15.9012 69.0801L12.9262 67.2336L10.2479 69.5388L11.0834 66.1281L8.06934 64.2855L11.5597 64.0229L12.3757 60.5808L13.6992 63.8308L17.213 63.5446L14.5425 65.8145L15.9012 69.0801Z" fill="#DC0D15"/>
<path fill-rule="evenodd" clip-rule="evenodd" d="M25.7521 80.653L22.3008 80.0885L20.7079 83.2483L20.1769 79.7748L16.6904 79.2299L19.8138 77.65L19.2555 74.1531L21.7191 76.6503L24.8542 75.0312L23.2534 78.1557L25.7521 80.653Z" fill="#DC0D15"/>
<path fill-rule="evenodd" clip-rule="evenodd" d="M39.2639 87.5567L35.8594 88.3604L35.5901 91.8926L33.7785 88.8896L30.3506 89.7247L32.6346 87.0628L30.784 84.048L34.0088 85.4084L36.2928 82.7112L36.0039 86.212L39.2639 87.5567Z" fill="#DC0D15"/>
<path fill-rule="evenodd" clip-rule="evenodd" d="M54.382 88.7447L51.5397 90.795L52.6407 94.1626L49.8179 92.0848L46.9717 94.1743L48.0688 90.8381L45.207 88.7643L48.7052 88.7799L49.7867 85.4084L50.8525 88.7525L54.382 88.7447Z" fill="#DC0D15"/>
<path fill-rule="evenodd" clip-rule="evenodd" d="M68.7964 84.0323L66.9575 87.0196L69.2532 89.709L65.8565 88.87L64.0215 91.8965L63.7599 88.3917L60.332 87.5724L63.5686 86.2434L63.2836 82.7151L65.5442 85.3966L68.7964 84.0323Z" fill="#DC0D15"/>
<path fill-rule="evenodd" clip-rule="evenodd" d="M80.3209 74.1414L79.7587 77.6069L82.9055 79.2064L79.4463 79.7396L78.9036 83.2405L77.3302 80.1042L73.8477 80.6648L76.3347 78.195L74.7222 75.043L77.8339 76.6504L80.3209 74.1414Z" fill="#DC0D15"/>
<path fill-rule="evenodd" clip-rule="evenodd" d="M87.1967 60.573L87.9971 63.9915L91.5148 64.262L88.5242 66.0811L89.3558 69.5231L86.7048 67.2297L83.7024 69.088L85.0572 65.8498L82.3711 63.5564L85.8576 63.8465L87.1967 60.573Z" fill="#DC0D15"/>
<path fill-rule="evenodd" clip-rule="evenodd" d="M88.3791 45.3936L90.421 48.2476L93.7748 47.142L91.7055 49.9764L93.7865 52.8344L90.464 51.7367L88.3987 54.6063L88.4143 51.0937L85.0566 50.0078L88.3869 48.9375L88.3791 45.3936Z" fill="#DC0D15"/>
<path fill-rule="evenodd" clip-rule="evenodd" d="M83.6868 30.9196L86.6618 32.7661L89.3401 30.4609L88.5046 33.8716L91.5187 35.7142L88.0283 35.9769L87.2123 39.4189L85.8888 36.169L82.375 36.4551L85.0455 34.1853L83.6868 30.9196Z" fill="#DC0D15"/>
<path fill-rule="evenodd" clip-rule="evenodd" d="M73.8359 19.3467L77.2873 19.9113L78.8802 16.7515L79.4112 20.2249L82.8976 20.7698L79.7743 22.3497L80.3326 25.8467L77.8729 23.3494L74.7339 24.9685L76.3346 21.844L73.8359 19.3467Z" fill="#DC0D15"/>
<path fill-rule="evenodd" clip-rule="evenodd" d="M60.3242 12.4431L63.7287 11.6394L63.9981 8.10718L65.8097 11.1102L69.2376 10.2751L66.9536 12.937L68.8042 15.9518L65.5793 14.5914L63.2953 17.2886L63.5842 13.7877L60.3242 12.4431Z" fill="#DC0D15"/>
<path d="M49.7943 83.4091C31.4483 83.4091 16.5225 68.4216 16.5225 50C16.5225 31.5783 31.4483 16.5869 49.7943 16.5869C68.1402 16.5869 83.07 31.5744 83.07 50C83.07 68.4255 68.1402 83.4091 49.7943 83.4091ZM49.7943 17.5631C31.9832 17.5631 17.4946 32.1154 17.4946 50C17.4946 67.8845 31.9871 82.4329 49.7943 82.4329C67.6014 82.4329 82.0939 67.8845 82.0939 50C82.0939 32.1154 67.6053 17.5631 49.7943 17.5631Z" fill="#DC0D15"/>
<path d="M46.1634 31.2841C46.3078 29.5592 48.4122 29.0064 48.1311 27.3403C47.7836 29.2887 46.2571 28.9123 46.1634 31.2841ZM45.2108 32.9581C44.9726 32.3583 44.8555 31.7036 44.8828 31.0097C44.9414 29.5984 45.5895 28.3243 46.585 27.4304C47.5923 26.5327 47.8305 25.7172 47.2917 25.0077C48.7128 25.4036 49.4156 26.321 49.4039 27.7676C49.3102 30.0806 47.401 30.4569 47.2995 32.9581H45.2108ZM53.2378 27.3756C54.1944 28.2733 54.7683 29.5709 54.7097 31.0097C54.6824 31.6997 54.5145 32.3622 54.2295 32.9581H52.3477C52.9802 32.2132 53.761 31.6056 53.5853 30.5471C53.3433 31.9075 52.5234 32.1348 52.0197 32.9581H49.9232C50.013 32.7151 50.1769 32.4955 50.4346 32.2407C50.583 32.0917 50.7469 31.9506 50.9187 31.8055C51.1022 31.6526 51.2935 31.4997 51.4809 31.3469C52.2345 30.7235 53.1246 29.912 53.2535 28.634C53.3003 28.1714 53.3081 27.7519 53.2417 27.3756H53.2378ZM49.4078 32.9581H47.7954C47.8383 31.8643 48.2639 31.2136 48.7519 30.5471C48.8807 30.3707 49.0096 30.1943 49.1345 30.0139C49.2672 29.8179 49.3883 29.6141 49.4937 29.3984C49.7162 28.9437 49.8724 28.4105 49.8997 27.7597C49.9075 26.8502 49.5796 26.1054 49.1657 25.5448C47.4752 23.4199 48.1663 21.4519 49.8841 21.0403C48.912 21.9929 49.0057 22.9965 50.0793 24.2197C50.1028 23.6316 50.419 23.271 50.9578 23.271C50.4229 23.8237 50.6533 24.3569 51.1725 25.0586C51.2857 25.2037 51.4263 25.3644 51.5981 25.5408C52.5078 26.4778 52.8904 27.2815 52.7615 28.6065C52.5468 30.7157 49.8607 31.3743 49.4078 32.962V32.9581Z" fill="#DC0D15"/>
<path d="M51.4214 56.7388C51.1052 57.2445 50.664 57.6601 50.1447 57.9463C49.684 58.205 49.1687 58.3579 48.6143 58.3854C48.5557 58.3932 48.4933 58.3932 48.4347 58.3932C47.5367 58.3932 46.7168 58.06 46.0961 57.5033C45.3621 56.8525 44.9014 55.8999 44.9014 54.8414C44.9014 54.1592 45.0927 53.5163 45.4323 52.9714C45.7954 52.3833 46.3264 51.905 46.9628 51.6149C47.0955 51.5522 47.2361 51.4973 47.3845 51.4503C47.7163 51.3484 48.0716 51.2896 48.4386 51.2896C49.6958 51.2896 50.8006 51.9521 51.4253 52.9439C50.9061 52.3637 50.1565 51.9991 49.3209 51.9991C48.8993 51.9991 48.505 52.0932 48.1458 52.254C48.0169 52.3128 47.8881 52.3872 47.771 52.4657C47.1892 52.8459 46.7559 53.4379 46.5763 54.1318C46.5177 54.3592 46.4904 54.5944 46.4904 54.8375C46.4904 55.4765 46.6973 56.0684 47.0526 56.5389C47.5719 57.2289 48.3917 57.6758 49.317 57.6758H49.3209C49.5044 57.6758 49.6879 57.6601 49.8636 57.6248C50.4766 57.5072 51.0193 57.1857 51.4253 56.731" fill="#DC0D15"/>
<path d="M53.8736 55.1199L54.428 55.8882L53.2099 55.4884L52.4525 56.5351V55.2414L51.2344 54.8415L52.4525 54.4416V53.1558L52.7765 53.6027L53.2099 54.1986L54.428 53.8026L53.6745 54.8415L53.8736 55.1199Z" fill="#DC0D15"/>
<path d="M49.6337 46.8401C45.3312 46.8401 41.8486 50.3409 41.8486 54.6572C41.8486 58.9735 45.3351 62.4744 49.6337 62.4744C53.9322 62.4744 57.4187 58.9735 57.4187 54.6572C57.4187 50.3409 53.9322 46.8401 49.6337 46.8401ZM49.6337 61.6433C45.7919 61.6433 42.6802 58.5188 42.6802 54.6612C42.6802 50.8035 45.7919 47.679 49.6337 47.679C53.4754 47.679 56.5871 50.8035 56.5871 54.6612C56.5871 58.5188 53.4754 61.6433 49.6337 61.6433Z" fill="#DC0D15"/>
<path fill-rule="evenodd" clip-rule="evenodd" d="M73.5276 51.7798L72.5437 50.7997L73.5705 64.6307C70.0333 64.9404 68.0226 65.1991 64.501 64.6973C62.912 64.47 61.323 64.1563 59.734 63.9956C54.9708 63.5095 54.2563 63.827 51.2735 65.991L51.2813 64.8541C54.2368 62.796 55.2831 62.6313 59.8277 63.0939C63.2087 63.4389 66.4726 64.3445 69.9084 64.0426L72.5984 63.8074L71.552 49.8118L70.576 48.8435L71.6262 62.9881C69.0533 63.2154 67.3589 63.2782 64.7548 62.9057C63.1384 62.6744 61.5299 62.3608 59.9175 62.1962C55.6228 61.7571 54.2563 61.7767 51.2852 63.7525L51.293 62.6627C54.2407 60.8005 55.9937 60.8868 60.0072 61.2945C61.6314 61.4591 63.2556 61.7767 64.8797 62.008C66.8982 62.2942 68.6239 62.3373 70.6463 62.1609L69.5843 47.8595L69.4945 47.7693L68.5887 46.8912V46.8441L68.538 46.848V46.8598C67.8118 46.8127 67.0934 46.7108 66.2618 46.5736C63.6577 46.1424 59.2889 45.6288 56.9112 45.6131C55.1543 45.6014 53.3662 45.8758 51.5858 46.6755L51.6405 44.4801V44.4566V43.7353C51.8513 43.6216 52.0114 43.4844 52.0778 43.3158C52.2378 42.8963 52.4252 42.7121 52.6634 42.7513V42.4141C54.7326 41.6457 56.021 40.2658 56.5559 38.3017L56.7706 37.2236C56.8136 36.906 56.837 36.5728 56.8487 36.2278L55.8844 35.2517V33.6326H43.8047V35.2517L42.8443 36.2278C42.8365 36.565 42.8521 36.8943 42.895 37.2118L43.1254 38.3331C43.6759 40.1991 45.0502 41.6967 47.0218 42.4141V42.7513C47.3576 42.7474 47.5059 42.9551 47.5723 43.2766C47.6894 43.5118 47.8495 43.6686 48.0486 43.7353L48.0798 44.4331L48.1384 46.7343C46.3151 45.8836 44.4762 45.5974 42.6725 45.6092C40.2948 45.6249 35.9728 46.0953 33.3648 46.5266C32.5254 46.6638 31.7992 46.7696 31.0652 46.8127C32.0452 46.8127 33.0369 46.7383 33.9895 46.6206C35.6019 46.4286 39.1197 46.3972 40.7438 46.2561C42.8794 46.0679 45.0111 46.4403 47.1038 47.4557C47.8105 47.2048 48.5601 47.0558 49.3448 47.0284L49.3721 43.6882H50.317L50.3521 47.0519C51.051 47.1185 51.7225 47.2832 52.355 47.5262C54.4906 46.456 56.6691 46.0679 58.8555 46.26C60.4797 46.405 64.0442 46.4795 65.6528 46.6716C66.5976 46.7853 67.5814 46.8598 68.5536 46.8637V46.8716L68.5614 47.146L69.6194 61.3102L68.9206 61.3415C67.8157 61.3925 66.539 61.2553 65.1218 61.0475C62.6465 60.6829 60.1127 60.2125 57.6179 60.1929C57.3524 60.1929 57.0908 60.1929 56.8292 60.2007C56.0796 60.2242 55.3456 60.3105 54.6194 60.4438C53.4794 61.4356 52.0504 62.0942 50.4692 62.2667V62.4471L50.4536 70.6484C50.4536 70.9777 50.1881 71.2404 49.8602 71.2404C49.5322 71.2404 49.2706 70.9777 49.2667 70.6484L49.255 65.6382C49.255 65.6382 49.2628 65.6421 49.2667 65.6461L49.255 65.6382L49.2472 62.4431V62.2902C47.463 62.2001 45.8466 61.4944 44.5934 60.3771C43.9921 60.283 43.387 60.2164 42.7701 60.1968C42.5085 60.1889 42.2469 60.185 41.9814 60.1889C39.4866 60.2085 36.9528 60.6829 34.4775 61.0436C33.0603 61.2514 31.7836 61.3886 30.6787 61.3376L29.9799 61.3062L31.0379 47.1421L31.0457 46.8676V46.848L30.9989 46.8441V46.8912L30.0892 47.7693L29.9994 47.8595L28.9374 62.1609C30.9637 62.3373 32.6894 62.2942 34.704 62.008C36.332 61.7767 37.9562 61.4591 39.5803 61.2945C43.6368 60.8789 45.4328 60.973 48.439 62.9175L48.4468 63.9642C45.425 61.9257 43.9999 61.7571 39.6741 62.2001C38.0616 62.3647 36.4492 62.6784 34.8367 62.9097C32.2365 63.2782 30.5382 63.2154 27.9653 62.992L29.0155 48.8474L28.0395 49.8157L26.9931 63.8113L29.6831 64.0466C33.1189 64.3484 36.3828 63.4428 39.7638 63.0978C44.3396 62.6274 45.4406 62.9489 48.4547 65.0698L48.4625 66.1753C45.3625 63.9133 44.6949 63.5055 39.8575 63.9995C38.2685 64.1602 36.6834 64.4739 35.0905 64.7013C31.565 65.2031 29.5582 64.9482 26.021 64.6346L27.0478 50.8036L26.0639 51.7837L25.0488 65.4579C29.035 65.8068 31.2995 66.1557 35.2193 65.5951C36.7966 65.3716 38.3739 65.058 39.9513 64.8973C43.6212 64.5209 44.8042 64.6934 47.1233 66.3713L48.4703 67.32L48.482 68.8176C48.482 68.8176 48.482 68.8255 48.482 68.8333V70.7425C48.482 71.503 49.0988 72.1225 49.8563 72.1225H49.8758C50.6332 72.1225 51.2501 71.4991 51.2501 70.7425V69.3233L51.2657 67.175L52.4721 66.3752C54.7912 64.6973 55.9742 64.5288 59.6442 64.9012C61.2215 65.0619 62.7949 65.3716 64.3761 65.599C68.2959 66.1557 70.5604 65.8107 74.5466 65.4618L73.5315 51.7877L73.5276 51.7798ZM44.851 34.6636H54.8302V35.6319H44.851V34.6636ZM44.4567 38.9485C44.242 38.5565 44.0897 38.137 43.9882 37.6862C43.9297 37.4118 43.8867 37.1256 43.8711 36.8355H55.7985C55.7907 37.1217 55.7477 37.4079 55.6853 37.6862C55.5916 38.1292 55.4276 38.5565 55.2051 38.9564C54.5296 40.207 53.2959 41.2341 51.6756 41.6967H48.2438H48.0057C46.3581 41.1831 45.1243 40.2266 44.4567 38.9446V38.9485ZM51.1134 43.2531H48.5679C48.4351 43.1864 48.3414 43.0884 48.2946 42.9473C48.2516 42.7748 48.1618 42.6297 48.0057 42.4847V42.422H48.4351H51.6717V42.4847C51.5312 42.6141 51.4414 42.7278 51.4062 42.8689C51.375 43.0414 51.2735 43.1629 51.1134 43.2531Z" fill="#DC0D15"/>
<path d="M113.266 33.8953H109.518V31.2334H120.239V33.8953H116.428V45.2447H113.262V33.8953H113.266Z" fill="#DC0D15"/>
<path d="M119.965 43.5629C119.965 42.4416 120.73 41.6301 121.827 41.6301C122.924 41.6301 123.67 42.4181 123.67 43.5629C123.67 44.7076 122.924 45.476 121.808 45.476C120.691 45.476 119.965 44.6645 119.965 43.5629Z" fill="#DC0D15"/>
<path d="M136.534 44.8486C135.957 45.1387 134.653 45.4523 132.954 45.4523C128.132 45.4523 125.646 42.4376 125.646 38.4467C125.646 33.6678 129.038 31.0059 133.263 31.0059C134.899 31.0059 136.14 31.3391 136.698 31.6292L136.058 34.1461C135.418 33.8755 134.528 33.6246 133.407 33.6246C130.901 33.6246 128.956 35.1418 128.956 38.2585C128.956 41.0654 130.612 42.8296 133.427 42.8296C134.379 42.8296 135.433 42.6218 136.054 42.3709L136.53 44.8447L136.534 44.8486Z" fill="#DC0D15"/>
<path d="M138.194 43.5629C138.194 42.4416 138.96 41.6301 140.057 41.6301C141.154 41.6301 141.899 42.4181 141.899 43.5629C141.899 44.7076 141.154 45.476 140.037 45.476C138.921 45.476 138.194 44.6645 138.194 43.5629Z" fill="#DC0D15"/>
<path d="M160.125 39.8855C160.062 38.2037 160 36.169 160 34.1344H159.937C159.504 35.9221 158.922 37.9136 158.387 39.5562L156.693 45.0173H154.233L152.746 39.5954C152.289 37.9567 151.812 35.9613 151.485 34.1344H151.442C151.36 36.024 151.297 38.1841 151.192 39.9287L150.942 45.2446H148.025L148.916 31.249H153.113L154.479 35.9221C154.912 37.5412 155.35 39.2857 155.658 40.9283H155.721C156.115 39.3092 156.591 37.4588 157.044 35.9025L158.532 31.249H162.647L163.412 45.2446H160.332L160.125 39.8855Z" fill="#DC0D15"/>
<path d="M169.569 31.249V45.2446H166.402V31.249H169.569ZM166.57 29.0261C166.57 28.2185 167.211 27.5952 168.019 27.5952C168.827 27.5952 169.405 28.2185 169.405 29.0261C169.405 29.7749 168.803 30.4375 168.019 30.4375C167.191 30.4375 166.57 29.771 166.57 29.0261Z" fill="#DC0D15"/>
<path d="M172.812 31.249H175.979V42.5866H181.519V45.2446H172.812V31.249Z" fill="#DC0D15"/>
<path d="M183.655 31.249H186.822V42.5866H192.362V45.2446H183.655V31.249Z" fill="#DC0D15"/>
<path d="M197.246 27.9441L199.335 30.5002H197.121L196.086 29.2143H196.043L195.009 30.5002H192.814L194.884 27.9441H197.242H197.246ZM197.66 31.2489V45.2445H194.493V31.2489H197.66Z" fill="#DC0D15"/>
<path d="M213.944 39.3249H208.814V42.6494H214.541V45.2446H205.647V31.249H214.252V33.8443H208.814V36.7532H213.944V39.3288V39.3249Z" fill="#DC0D15"/>
<path d="M228.687 44.6017C227.714 44.9349 225.876 45.3897 224.033 45.3897C221.487 45.3897 219.648 44.7468 218.364 43.5001C217.083 42.2966 216.377 40.4697 216.4 38.4115C216.419 33.7581 219.793 31.1001 224.361 31.1001C226.161 31.1001 227.547 31.4529 228.23 31.7861L227.566 34.3187C226.801 33.9854 225.848 33.7149 224.318 33.7149C221.69 33.7149 219.707 35.2086 219.707 38.2429C219.707 41.2773 221.507 42.8336 224.091 42.8336C224.814 42.8336 225.395 42.7513 225.641 42.6259V39.6974H223.49V37.2276H228.683V44.6017H228.687ZM222.295 27.7795C222.358 28.2382 222.666 28.7361 223.517 28.7361C224.368 28.7361 224.716 28.2813 224.821 27.7795H226.434C226.391 29.2967 225.505 30.3944 223.537 30.3944C221.569 30.3944 220.663 29.2928 220.64 27.7795H222.295Z" fill="#DC0D15"/>
<path d="M234.761 31.249V45.2446H231.595V31.249H234.761ZM231.763 29.0261C231.763 28.2185 232.403 27.5952 233.211 27.5952C234.019 27.5952 234.597 28.2185 234.597 29.0261C234.597 29.7749 233.996 30.4375 233.211 30.4375C232.383 30.4375 231.763 29.771 231.763 29.0261Z" fill="#DC0D15"/>
<path d="M240.52 33.907H236.775V31.249H247.489V33.907H243.682V45.2446H240.516V33.907H240.52Z" fill="#DC0D15"/>
<path d="M252.698 31.249V45.2446H249.531V31.249H252.698ZM249.699 29.0261C249.699 28.2185 250.339 27.5952 251.148 27.5952C251.956 27.5952 252.534 28.2185 252.534 29.0261C252.534 29.7749 251.932 30.4375 251.148 30.4375C250.32 30.4375 249.699 29.771 249.699 29.0261Z" fill="#DC0D15"/>
<path d="M267.709 39.8855C267.646 38.2037 267.584 36.169 267.584 34.1344H267.521C267.088 35.9221 266.506 37.9136 265.971 39.5562L264.277 45.0173H261.817L260.33 39.5954C259.873 37.9567 259.396 35.9613 259.069 34.1344H259.026C258.944 36.024 258.881 38.1841 258.776 39.9287L258.526 45.2446H255.609L256.5 31.249H260.697L262.063 35.9221C262.496 37.5412 262.934 39.2857 263.242 40.9283H263.305C263.699 39.3092 264.175 37.4588 264.628 35.9025L266.116 31.249H270.231L270.996 45.2446H267.915L267.709 39.8855Z" fill="#DC0D15"/>
<path d="M110.575 54.3594C111.403 54.1948 113.078 54.0693 114.651 54.0693C116.576 54.0693 117.755 54.2575 118.766 54.8573C119.738 55.3748 120.441 56.3314 120.441 57.5976C120.441 58.8639 119.715 60.0047 118.145 60.5889V60.632C119.738 61.0671 120.917 62.2746 120.917 64.078C120.917 65.3442 120.34 66.34 119.469 67.0496C118.454 67.8572 116.759 68.3158 113.987 68.3158C112.438 68.3158 111.278 68.21 110.575 68.1081V54.3594ZM113.699 59.7185H114.733C116.389 59.7185 117.279 59.0325 117.279 57.9936C117.279 56.9547 116.474 56.3745 115.046 56.3745C114.362 56.3745 113.968 56.4176 113.702 56.4568V59.7185H113.699ZM113.699 65.9284C114.007 65.9715 114.382 65.9715 114.921 65.9715C116.35 65.9715 117.611 65.4305 117.611 63.9564C117.611 62.4824 116.35 61.9845 114.776 61.9845H113.702V65.9284H113.699Z" fill="#DC0D15"/>
<path d="M126.481 64.5757L125.49 68.1668H122.222L126.481 54.1711H130.616L134.938 68.1668H131.545L130.471 64.5757H126.481ZM130.015 62.2078L129.144 59.2362C128.898 58.4051 128.648 57.3662 128.441 56.5351H128.398C128.191 57.3662 127.984 58.4247 127.758 59.2362L126.93 62.2078H130.011H130.015Z" fill="#DC0D15"/>
<path d="M137.081 54.1712H140.204V60.3614H140.267C140.575 59.8204 140.907 59.3225 141.22 58.8246L144.382 54.1712H148.251L143.64 60.1301L148.501 68.1668H144.819L141.407 62.1216L140.208 63.5957V68.1628H137.085V54.1672L137.081 54.1712Z" fill="#DC0D15"/>
<path d="M154.116 64.5757L153.124 68.1668H149.856L154.116 54.1711H158.251L162.573 68.1668H159.18L158.106 64.5757H154.116ZM157.653 62.2078L156.783 59.2362C156.537 58.4051 156.287 57.3662 156.08 56.5351H156.037C155.83 57.3662 155.623 58.4247 155.397 59.2362L154.569 62.2078H157.649H157.653Z" fill="#DC0D15"/>
<path d="M164.72 68.1707V54.1751H168.401L171.298 59.3029C172.126 60.7769 172.954 62.5215 173.575 64.1014H173.637C173.43 62.2549 173.368 60.3653 173.368 58.264V54.1711H176.265V68.1668H172.958L169.979 62.7684C169.151 61.2748 168.241 59.4675 167.558 57.8249L167.496 57.8445C167.578 59.691 167.621 61.6668 167.621 63.9485V68.1628H164.724L164.72 68.1707Z" fill="#DC0D15"/>
<path d="M179.54 54.1711H182.706V65.5088H188.246V68.1668H179.54V54.1711Z" fill="#DC0D15"/>
<path d="M193.544 54.1711V68.1668H190.378V54.1711H193.544Z" fill="#DC0D15"/>
<path d="M208.38 67.5277C207.408 67.861 205.569 68.3157 203.726 68.3157C201.181 68.3157 199.342 67.6728 198.057 66.4261C196.777 65.2226 196.07 63.3957 196.093 61.3375C196.113 56.6841 199.486 54.0261 204.054 54.0261C205.854 54.0261 207.24 54.3789 207.923 54.7122L207.259 57.2447C206.494 56.9115 205.542 56.641 204.011 56.641C201.384 56.641 199.4 58.1346 199.4 61.169C199.4 64.2033 201.2 65.7597 203.785 65.7597C204.507 65.7597 205.089 65.6773 205.335 65.5519V62.6234H203.183V60.1536H208.376V67.5277H208.38ZM201.989 50.7056C202.051 51.1642 202.36 51.6621 203.211 51.6621C204.062 51.6621 204.409 51.2074 204.515 50.7056H206.127C206.084 52.2227 205.198 53.3204 203.23 53.3204C201.263 53.3204 200.357 52.2188 200.333 50.7056H201.989Z" fill="#DC0D15"/>
<path d="M214.631 54.1711V68.1668H211.465V54.1711H214.631Z" fill="#DC0D15"/>
</g>
<defs>
<clipPath id="clip0_2442_965">
<rect width="271" height="100" fill="white"/>
</clipPath>
</defs>
</svg>
