<svg width="282" height="182" viewBox="0 0 282 182" fill="none" xmlns="http://www.w3.org/2000/svg">
<path d="M0 16C0 7.16344 7.16344 0 16 0H266C274.837 0 282 7.16344 282 16V166C282 174.837 274.837 182 266 182H16C7.16345 182 0 174.837 0 166V16Z" fill="#F7F7F7"/>
<path d="M0 20C0 8.9543 8.95431 0 20 0H262C273.046 0 282 8.95431 282 20V162C282 173.046 273.046 182 262 182H20C8.9543 182 0 173.046 0 162V20Z" fill="#F7F7F7"/>
<path d="M41.695 87.5C41.4617 87.5 41.2517 87.4183 41.065 87.255C40.9017 87.0917 40.82 86.8817 40.82 86.625V69.965L36.025 73.64C35.815 73.8033 35.5933 73.8617 35.36 73.815C35.15 73.7683 34.9633 73.64 34.8 73.43L32.735 70.735C32.595 70.525 32.5367 70.3033 32.56 70.07C32.6067 69.8133 32.7467 69.615 32.98 69.475L41.03 63.245C41.17 63.1517 41.2983 63.0933 41.415 63.07C41.555 63.0233 41.7067 63 41.87 63H46.245C46.4783 63 46.6767 63.0817 46.84 63.245C47.0267 63.4083 47.12 63.6183 47.12 63.875V86.625C47.12 86.8817 47.0267 87.0917 46.84 87.255C46.6767 87.4183 46.4783 87.5 46.245 87.5H41.695ZM61.35 87.85C59.67 87.85 58.2116 87.6167 56.975 87.15C55.7383 86.66 54.7116 85.995 53.895 85.155C53.1016 84.315 52.495 83.335 52.075 82.215C51.655 81.095 51.41 79.8933 51.34 78.61C51.3166 77.98 51.2933 77.2683 51.27 76.475C51.27 75.6583 51.27 74.8417 51.27 74.025C51.2933 73.185 51.3166 72.4383 51.34 71.785C51.41 70.5017 51.655 69.3117 52.075 68.215C52.5183 67.095 53.1483 66.1267 53.965 65.31C54.805 64.47 55.8316 63.8167 57.045 63.35C58.2816 62.8833 59.7166 62.65 61.35 62.65C63.0066 62.65 64.4416 62.8833 65.655 63.35C66.8683 63.8167 67.8833 64.47 68.7 65.31C69.54 66.1267 70.1816 67.095 70.625 68.215C71.0683 69.3117 71.3133 70.5017 71.36 71.785C71.4066 72.4383 71.43 73.185 71.43 74.025C71.4533 74.8417 71.4533 75.6583 71.43 76.475C71.43 77.2683 71.4066 77.98 71.36 78.61C71.3133 79.8933 71.0683 81.095 70.625 82.215C70.205 83.335 69.5866 84.315 68.77 85.155C67.9766 85.995 66.9616 86.66 65.725 87.15C64.5116 87.6167 63.0533 87.85 61.35 87.85ZM61.35 82.775C62.5633 82.775 63.4383 82.39 63.975 81.62C64.535 80.8267 64.8266 79.765 64.85 78.435C64.8966 77.7583 64.92 77.0467 64.92 76.3C64.9433 75.5533 64.9433 74.8067 64.92 74.06C64.92 73.3133 64.8966 72.625 64.85 71.995C64.8266 70.7117 64.535 69.6733 63.975 68.88C63.4383 68.0867 62.5633 67.6783 61.35 67.655C60.1366 67.6783 59.2616 68.0867 58.725 68.88C58.1883 69.6733 57.8966 70.7117 57.85 71.995C57.8266 72.625 57.8033 73.3133 57.78 74.06C57.78 74.8067 57.78 75.5533 57.78 76.3C57.8033 77.0467 57.8266 77.7583 57.85 78.435C57.8966 79.765 58.2 80.8267 58.76 81.62C59.32 82.39 60.1833 82.775 61.35 82.775ZM84.7365 87.85C82.9165 87.85 81.3649 87.64 80.0815 87.22C78.7982 86.7767 77.7482 86.2167 76.9315 85.54C76.1149 84.84 75.5082 84.105 75.1115 83.335C74.7149 82.5417 74.5049 81.7833 74.4815 81.06C74.4815 80.85 74.5515 80.675 74.6915 80.535C74.8549 80.395 75.0415 80.325 75.2515 80.325H79.8015C80.0815 80.325 80.3032 80.3833 80.4665 80.5C80.6299 80.5933 80.7815 80.7567 80.9215 80.99C81.1082 81.4333 81.3765 81.795 81.7265 82.075C82.0999 82.355 82.5432 82.5533 83.0565 82.67C83.5699 82.7633 84.1299 82.81 84.7365 82.81C85.9265 82.81 86.8482 82.5417 87.5015 82.005C88.1782 81.445 88.5165 80.6867 88.5165 79.73C88.5165 78.7267 88.2015 78.015 87.5715 77.595C86.9415 77.1517 86.0432 76.93 84.8765 76.93H80.9915C80.7349 76.93 80.5249 76.8483 80.3615 76.685C80.1982 76.5217 80.1165 76.3117 80.1165 76.055V74.095C80.1165 73.815 80.1749 73.57 80.2915 73.36C80.4082 73.15 80.5365 72.9983 80.6765 72.905L86.4165 68.04H76.6865C76.4532 68.04 76.2432 67.9583 76.0565 67.795C75.8932 67.6317 75.8115 67.4217 75.8115 67.165V63.875C75.8115 63.6183 75.8932 63.4083 76.0565 63.245C76.2432 63.0817 76.4532 63 76.6865 63H92.7865C93.0432 63 93.2532 63.0817 93.4165 63.245C93.6032 63.4083 93.6965 63.6183 93.6965 63.875V66.85C93.6965 67.1067 93.6382 67.34 93.5215 67.55C93.4049 67.7367 93.2765 67.8883 93.1365 68.005L87.8165 72.94L88.0615 73.01C89.3915 73.1733 90.5815 73.535 91.6315 74.095C92.6815 74.6317 93.5099 75.39 94.1165 76.37C94.7232 77.35 95.0265 78.5983 95.0265 80.115C95.0265 81.7017 94.5715 83.0783 93.6615 84.245C92.7749 85.3883 91.5615 86.275 90.0215 86.905C88.4815 87.535 86.7199 87.85 84.7365 87.85ZM108.07 87.85C106.017 87.85 104.209 87.4767 102.645 86.73C101.082 85.9833 99.857 84.9567 98.9703 83.65C98.107 82.32 97.6753 80.8033 97.6753 79.1C97.6753 78.3767 97.7803 77.665 97.9903 76.965C98.2236 76.2417 98.5036 75.565 98.8303 74.935C99.157 74.2817 99.4836 73.71 99.8103 73.22C100.137 72.7067 100.405 72.2983 100.615 71.995L106.775 63.7C106.892 63.5833 107.044 63.4433 107.23 63.28C107.417 63.0933 107.685 63 108.035 63H112.69C112.9 63 113.075 63.0817 113.215 63.245C113.355 63.385 113.425 63.56 113.425 63.77C113.425 63.8633 113.414 63.9567 113.39 64.05C113.367 64.12 113.332 64.1783 113.285 64.225L108.56 70.665C108.7 70.6183 108.864 70.595 109.05 70.595C109.26 70.5717 109.447 70.56 109.61 70.56C110.66 70.6067 111.699 70.84 112.725 71.26C113.752 71.68 114.685 72.2517 115.525 72.975C116.365 73.6983 117.03 74.5733 117.52 75.6C118.034 76.6033 118.29 77.735 118.29 78.995C118.29 80.605 117.87 82.0867 117.03 83.44C116.19 84.77 115 85.8433 113.46 86.66C111.944 87.4533 110.147 87.85 108.07 87.85ZM108.035 82.81C108.712 82.81 109.342 82.67 109.925 82.39C110.509 82.0867 110.975 81.6667 111.325 81.13C111.699 80.57 111.885 79.8817 111.885 79.065C111.885 78.2483 111.71 77.5717 111.36 77.035C111.01 76.475 110.544 76.055 109.96 75.775C109.377 75.495 108.735 75.355 108.035 75.355C107.335 75.355 106.682 75.495 106.075 75.775C105.492 76.055 105.025 76.475 104.675 77.035C104.325 77.5717 104.15 78.2483 104.15 79.065C104.15 79.8817 104.325 80.57 104.675 81.13C105.049 81.6667 105.527 82.0867 106.11 82.39C106.694 82.67 107.335 82.81 108.035 82.81Z" fill="#00B6BF"/>
<path d="M34.55 121.5C34.3833 121.5 34.2417 121.442 34.125 121.325C34.0083 121.208 33.95 121.067 33.95 120.9V104.625C33.95 104.442 34.0083 104.292 34.125 104.175C34.2417 104.058 34.3833 104 34.55 104H36.75C36.9333 104 37.0833 104.058 37.2 104.175C37.3167 104.292 37.375 104.442 37.375 104.625V110.475L43.025 104.45C43.0917 104.367 43.2 104.275 43.35 104.175C43.5167 104.058 43.7333 104 44 104H46.475C46.6083 104 46.725 104.05 46.825 104.15C46.9417 104.25 47 104.375 47 104.525C47 104.642 46.9667 104.742 46.9 104.825L40.025 112.375L47.375 120.65C47.4583 120.75 47.5 120.858 47.5 120.975C47.5 121.125 47.4417 121.25 47.325 121.35C47.225 121.45 47.1083 121.5 46.975 121.5H44.4C44.1167 121.5 43.8917 121.442 43.725 121.325C43.575 121.192 43.475 121.1 43.425 121.05L37.375 114.425V120.9C37.375 121.067 37.3167 121.208 37.2 121.325C37.0833 121.442 36.9333 121.5 36.75 121.5H34.55ZM54.4635 121.75C53.1301 121.75 52.0051 121.517 51.0885 121.05C50.1885 120.583 49.4968 119.925 49.0135 119.075C48.5468 118.225 48.2801 117.233 48.2135 116.1C48.1968 115.8 48.1885 115.433 48.1885 115C48.1885 114.567 48.1968 114.2 48.2135 113.9C48.2801 112.75 48.5551 111.758 49.0385 110.925C49.5385 110.075 50.2385 109.417 51.1385 108.95C52.0551 108.483 53.1635 108.25 54.4635 108.25C55.7635 108.25 56.8635 108.483 57.7635 108.95C58.6801 109.417 59.3801 110.075 59.8635 110.925C60.3635 111.758 60.6468 112.75 60.7135 113.9C60.7301 114.2 60.7385 114.567 60.7385 115C60.7385 115.433 60.7301 115.8 60.7135 116.1C60.6468 117.233 60.3718 118.225 59.8885 119.075C59.4218 119.925 58.7301 120.583 57.8135 121.05C56.9135 121.517 55.7968 121.75 54.4635 121.75ZM54.4635 119.275C55.3468 119.275 56.0301 119 56.5135 118.45C56.9968 117.883 57.2635 117.058 57.3135 115.975C57.3301 115.725 57.3385 115.4 57.3385 115C57.3385 114.6 57.3301 114.275 57.3135 114.025C57.2635 112.958 56.9968 112.142 56.5135 111.575C56.0301 111.008 55.3468 110.725 54.4635 110.725C53.5801 110.725 52.8968 111.008 52.4135 111.575C51.9301 112.142 51.6635 112.958 51.6135 114.025C51.5968 114.275 51.5885 114.6 51.5885 115C51.5885 115.4 51.5968 115.725 51.6135 115.975C51.6635 117.058 51.9301 117.883 52.4135 118.45C52.8968 119 53.5801 119.275 54.4635 119.275ZM64.1084 121.5C63.9417 121.5 63.8001 121.442 63.6834 121.325C63.5667 121.208 63.5084 121.067 63.5084 120.9V109.1C63.5084 108.933 63.5667 108.792 63.6834 108.675C63.8001 108.558 63.9417 108.5 64.1084 108.5H66.1584C66.3251 108.5 66.4667 108.558 66.5834 108.675C66.7001 108.792 66.7584 108.933 66.7584 109.1V110.125C67.1917 109.592 67.7417 109.15 68.4084 108.8C69.0917 108.433 69.9334 108.25 70.9334 108.25C71.9501 108.25 72.8334 108.483 73.5834 108.95C74.3334 109.4 74.9084 110.042 75.3084 110.875C75.7251 111.708 75.9334 112.708 75.9334 113.875V120.9C75.9334 121.067 75.8751 121.208 75.7584 121.325C75.6417 121.442 75.5001 121.5 75.3334 121.5H73.1334C72.9667 121.5 72.8251 121.442 72.7084 121.325C72.5917 121.208 72.5334 121.067 72.5334 120.9V114.025C72.5334 113.058 72.2917 112.3 71.8084 111.75C71.3417 111.2 70.6584 110.925 69.7584 110.925C68.8917 110.925 68.2001 111.2 67.6834 111.75C67.1667 112.3 66.9084 113.058 66.9084 114.025V120.9C66.9084 121.067 66.8501 121.208 66.7334 121.325C66.6167 121.442 66.4751 121.5 66.3084 121.5H64.1084ZM83.934 121.75C82.9173 121.75 82.034 121.525 81.284 121.075C80.5507 120.608 79.984 119.958 79.584 119.125C79.184 118.275 78.984 117.275 78.984 116.125V109.1C78.984 108.933 79.0423 108.792 79.159 108.675C79.2757 108.558 79.4173 108.5 79.584 108.5H81.784C81.9673 108.5 82.109 108.558 82.209 108.675C82.3257 108.792 82.384 108.933 82.384 109.1V115.975C82.384 118.042 83.2923 119.075 85.109 119.075C85.9757 119.075 86.659 118.8 87.159 118.25C87.6757 117.7 87.934 116.942 87.934 115.975V109.1C87.934 108.933 87.9923 108.792 88.109 108.675C88.2257 108.558 88.3673 108.5 88.534 108.5H90.734C90.9007 108.5 91.0423 108.558 91.159 108.675C91.2757 108.792 91.334 108.933 91.334 109.1V120.9C91.334 121.067 91.2757 121.208 91.159 121.325C91.0423 121.442 90.9007 121.5 90.734 121.5H88.709C88.5257 121.5 88.3757 121.442 88.259 121.325C88.159 121.208 88.109 121.067 88.109 120.9V119.875C87.659 120.458 87.1007 120.917 86.434 121.25C85.7673 121.583 84.934 121.75 83.934 121.75ZM107.374 121.75C105.891 121.75 104.616 121.508 103.549 121.025C102.483 120.525 101.649 119.767 101.049 118.75C100.449 117.717 100.124 116.433 100.074 114.9C100.058 114.183 100.049 113.475 100.049 112.775C100.049 112.075 100.058 111.358 100.074 110.625C100.124 109.108 100.458 107.842 101.074 106.825C101.691 105.808 102.533 105.042 103.599 104.525C104.683 104.008 105.941 103.75 107.374 103.75C108.808 103.75 110.066 104.008 111.149 104.525C112.233 105.042 113.083 105.808 113.699 106.825C114.316 107.842 114.649 109.108 114.699 110.625C114.733 111.358 114.749 112.075 114.749 112.775C114.749 113.475 114.733 114.183 114.699 114.9C114.649 116.433 114.324 117.717 113.724 118.75C113.124 119.767 112.283 120.525 111.199 121.025C110.133 121.508 108.858 121.75 107.374 121.75ZM107.374 118.875C108.458 118.875 109.341 118.558 110.024 117.925C110.708 117.275 111.074 116.225 111.124 114.775C111.158 114.042 111.174 113.367 111.174 112.75C111.174 112.117 111.158 111.442 111.124 110.725C111.091 109.758 110.908 108.975 110.574 108.375C110.258 107.758 109.824 107.317 109.274 107.05C108.724 106.767 108.091 106.625 107.374 106.625C106.674 106.625 106.049 106.767 105.499 107.05C104.949 107.317 104.508 107.758 104.174 108.375C103.858 108.975 103.683 109.758 103.649 110.725C103.633 111.442 103.624 112.117 103.624 112.75C103.624 113.367 103.633 114.042 103.649 114.775C103.699 116.225 104.066 117.275 104.749 117.925C105.433 118.558 106.308 118.875 107.374 118.875ZM109.174 102.75C109.008 102.75 108.874 102.7 108.774 102.6C108.674 102.5 108.624 102.367 108.624 102.2V100.375C108.624 100.208 108.674 100.075 108.774 99.975C108.874 99.8583 109.008 99.8 109.174 99.8H110.999C111.166 99.8 111.299 99.8583 111.399 99.975C111.516 100.075 111.574 100.208 111.574 100.375V102.2C111.574 102.367 111.516 102.5 111.399 102.6C111.299 102.7 111.166 102.75 110.999 102.75H109.174ZM103.724 102.75C103.558 102.75 103.424 102.7 103.324 102.6C103.224 102.5 103.174 102.367 103.174 102.2V100.375C103.174 100.208 103.224 100.075 103.324 99.975C103.424 99.8583 103.558 99.8 103.724 99.8H105.549C105.716 99.8 105.849 99.8583 105.949 99.975C106.066 100.075 106.124 100.208 106.124 100.375V102.2C106.124 102.367 106.066 102.5 105.949 102.6C105.849 102.7 105.716 102.75 105.549 102.75H103.724ZM117.682 121.5C117.499 121.5 117.349 121.442 117.232 121.325C117.132 121.208 117.082 121.067 117.082 120.9V119.475C117.082 119.325 117.115 119.183 117.182 119.05C117.265 118.9 117.349 118.775 117.432 118.675L123.832 111.1H117.882C117.715 111.1 117.574 111.05 117.457 110.95C117.34 110.833 117.282 110.683 117.282 110.5V109.1C117.282 108.933 117.34 108.792 117.457 108.675C117.574 108.558 117.715 108.5 117.882 108.5H127.357C127.54 108.5 127.682 108.558 127.782 108.675C127.899 108.792 127.957 108.933 127.957 109.1V110.625C127.957 110.775 127.924 110.908 127.857 111.025C127.79 111.142 127.707 111.267 127.607 111.4L121.357 118.9H127.882C128.049 118.9 128.19 118.958 128.307 119.075C128.424 119.175 128.482 119.317 128.482 119.5V120.9C128.482 121.067 128.424 121.208 128.307 121.325C128.19 121.442 128.049 121.5 127.882 121.5H117.682ZM136.467 121.75C134.617 121.75 133.15 121.217 132.067 120.15C130.983 119.083 130.4 117.567 130.317 115.6C130.3 115.433 130.292 115.225 130.292 114.975C130.292 114.708 130.3 114.5 130.317 114.35C130.383 113.1 130.667 112.017 131.167 111.1C131.683 110.183 132.392 109.483 133.292 109C134.192 108.5 135.25 108.25 136.467 108.25C137.817 108.25 138.95 108.533 139.867 109.1C140.783 109.65 141.475 110.425 141.942 111.425C142.408 112.408 142.642 113.55 142.642 114.85V115.375C142.642 115.542 142.583 115.683 142.467 115.8C142.35 115.917 142.2 115.975 142.017 115.975H133.717C133.717 115.975 133.717 116 133.717 116.05C133.717 116.1 133.717 116.142 133.717 116.175C133.733 116.758 133.842 117.3 134.042 117.8C134.258 118.283 134.567 118.675 134.967 118.975C135.383 119.275 135.875 119.425 136.442 119.425C136.908 119.425 137.3 119.358 137.617 119.225C137.933 119.075 138.192 118.908 138.392 118.725C138.592 118.542 138.733 118.392 138.817 118.275C138.967 118.075 139.083 117.958 139.167 117.925C139.267 117.875 139.408 117.85 139.592 117.85H141.742C141.908 117.85 142.042 117.9 142.142 118C142.258 118.1 142.308 118.225 142.292 118.375C142.275 118.642 142.133 118.967 141.867 119.35C141.617 119.733 141.25 120.108 140.767 120.475C140.283 120.842 139.675 121.15 138.942 121.4C138.225 121.633 137.4 121.75 136.467 121.75ZM133.717 113.875H139.242V113.8C139.242 113.15 139.133 112.583 138.917 112.1C138.7 111.617 138.383 111.233 137.967 110.95C137.55 110.667 137.05 110.525 136.467 110.525C135.883 110.525 135.383 110.667 134.967 110.95C134.55 111.233 134.233 111.617 134.017 112.1C133.817 112.583 133.717 113.15 133.717 113.8V113.875ZM151.122 121.5C150.122 121.5 149.28 121.325 148.597 120.975C147.913 120.625 147.405 120.108 147.072 119.425C146.738 118.725 146.572 117.858 146.572 116.825V111.15H144.597C144.43 111.15 144.288 111.092 144.172 110.975C144.055 110.858 143.997 110.717 143.997 110.55V109.1C143.997 108.933 144.055 108.792 144.172 108.675C144.288 108.558 144.43 108.5 144.597 108.5H146.572V104.35C146.572 104.183 146.622 104.042 146.722 103.925C146.838 103.808 146.988 103.75 147.172 103.75H149.197C149.363 103.75 149.505 103.808 149.622 103.925C149.738 104.042 149.797 104.183 149.797 104.35V108.5H152.922C153.088 108.5 153.23 108.558 153.347 108.675C153.463 108.792 153.522 108.933 153.522 109.1V110.55C153.522 110.717 153.463 110.858 153.347 110.975C153.23 111.092 153.088 111.15 152.922 111.15H149.797V116.575C149.797 117.258 149.913 117.792 150.147 118.175C150.397 118.558 150.822 118.75 151.422 118.75H153.147C153.313 118.75 153.455 118.808 153.572 118.925C153.688 119.042 153.747 119.183 153.747 119.35V120.9C153.747 121.067 153.688 121.208 153.572 121.325C153.455 121.442 153.313 121.5 153.147 121.5H151.122ZM156.564 121.5C156.398 121.5 156.256 121.442 156.139 121.325C156.023 121.208 155.964 121.067 155.964 120.9V109.1C155.964 108.933 156.023 108.792 156.139 108.675C156.256 108.558 156.398 108.5 156.564 108.5H158.639C158.823 108.5 158.964 108.558 159.064 108.675C159.181 108.792 159.239 108.933 159.239 109.1V120.9C159.239 121.067 159.181 121.208 159.064 121.325C158.964 121.442 158.823 121.5 158.639 121.5H156.564ZM156.464 106.35C156.281 106.35 156.131 106.3 156.014 106.2C155.914 106.083 155.864 105.933 155.864 105.75V103.95C155.864 103.783 155.914 103.642 156.014 103.525C156.131 103.408 156.281 103.35 156.464 103.35H158.739C158.923 103.35 159.073 103.408 159.189 103.525C159.306 103.642 159.364 103.783 159.364 103.95V105.75C159.364 105.933 159.306 106.083 159.189 106.2C159.073 106.3 158.923 106.35 158.739 106.35H156.464Z" fill="#16163A"/>
</svg>
