<svg width="282" height="182" viewBox="0 0 282 182" fill="none" xmlns="http://www.w3.org/2000/svg">
<path d="M0 16C0 7.16344 7.16344 0 16 0H266C274.837 0 282 7.16344 282 16V166C282 174.837 274.837 182 266 182H16C7.16345 182 0 174.837 0 166V16Z" fill="#F7F7F7"/>
<path d="M0 20C0 8.9543 8.95431 0 20 0H262C273.046 0 282 8.95431 282 20V162C282 173.046 273.046 182 262 182H20C8.9543 182 0 173.046 0 162V20Z" fill="#F7F7F7"/>
<path d="M41.695 87.5C41.4617 87.5 41.2517 87.4183 41.065 87.255C40.9017 87.0917 40.82 86.8817 40.82 86.625V69.965L36.025 73.64C35.815 73.8033 35.5933 73.8617 35.36 73.815C35.15 73.7683 34.9633 73.64 34.8 73.43L32.735 70.735C32.595 70.525 32.5367 70.3033 32.56 70.07C32.6067 69.8133 32.7467 69.615 32.98 69.475L41.03 63.245C41.17 63.1517 41.2983 63.0933 41.415 63.07C41.555 63.0233 41.7067 63 41.87 63H46.245C46.4783 63 46.6767 63.0817 46.84 63.245C47.0267 63.4083 47.12 63.6183 47.12 63.875V86.625C47.12 86.8817 47.0267 87.0917 46.84 87.255C46.6767 87.4183 46.4783 87.5 46.245 87.5H41.695ZM54.42 87.5C54.21 87.5 54.035 87.43 53.895 87.29C53.755 87.1267 53.685 86.94 53.685 86.73C53.685 86.6367 53.7083 86.5317 53.755 86.415L61.84 68.285H51.34C51.1066 68.285 50.8966 68.2033 50.71 68.04C50.5466 67.8533 50.465 67.6317 50.465 67.375V63.875C50.465 63.6183 50.5466 63.4083 50.71 63.245C50.8966 63.0817 51.1066 63 51.34 63H67.72C68 63 68.2216 63.0817 68.385 63.245C68.5483 63.4083 68.63 63.6183 68.63 63.875V66.99C68.63 67.34 68.595 67.6317 68.525 67.865C68.455 68.0983 68.3616 68.3317 68.245 68.565L60.16 86.66C60.09 86.8 59.9616 86.975 59.775 87.185C59.5883 87.395 59.3083 87.5 58.935 87.5H54.42ZM70.3843 87.5C70.1277 87.5 69.9177 87.4183 69.7543 87.255C69.591 87.0917 69.5093 86.8817 69.5093 86.625V82.18C69.5093 81.9467 69.591 81.7483 69.7543 81.585C69.9177 81.3983 70.1277 81.305 70.3843 81.305H74.7943C75.051 81.305 75.261 81.3983 75.4243 81.585C75.611 81.7483 75.7043 81.9467 75.7043 82.18V86.625C75.7043 86.8817 75.611 87.0917 75.4243 87.255C75.261 87.4183 75.051 87.5 74.7943 87.5H70.3843ZM89.2789 87.85C87.5989 87.85 86.1405 87.6167 84.9039 87.15C83.6672 86.66 82.6405 85.995 81.8239 85.155C81.0305 84.315 80.4239 83.335 80.0039 82.215C79.5839 81.095 79.3389 79.8933 79.2689 78.61C79.2455 77.98 79.2222 77.2683 79.1989 76.475C79.1989 75.6583 79.1989 74.8417 79.1989 74.025C79.2222 73.185 79.2455 72.4383 79.2689 71.785C79.3389 70.5017 79.5839 69.3117 80.0039 68.215C80.4472 67.095 81.0772 66.1267 81.8939 65.31C82.7339 64.47 83.7605 63.8167 84.9739 63.35C86.2105 62.8833 87.6455 62.65 89.2789 62.65C90.9355 62.65 92.3705 62.8833 93.5839 63.35C94.7972 63.8167 95.8122 64.47 96.6289 65.31C97.4689 66.1267 98.1105 67.095 98.5539 68.215C98.9972 69.3117 99.2422 70.5017 99.2889 71.785C99.3355 72.4383 99.3589 73.185 99.3589 74.025C99.3822 74.8417 99.3822 75.6583 99.3589 76.475C99.3589 77.2683 99.3355 77.98 99.2889 78.61C99.2422 79.8933 98.9972 81.095 98.5539 82.215C98.1339 83.335 97.5155 84.315 96.6989 85.155C95.9055 85.995 94.8905 86.66 93.6539 87.15C92.4405 87.6167 90.9822 87.85 89.2789 87.85ZM89.2789 82.775C90.4922 82.775 91.3672 82.39 91.9039 81.62C92.4639 80.8267 92.7555 79.765 92.7789 78.435C92.8255 77.7583 92.8489 77.0467 92.8489 76.3C92.8722 75.5533 92.8722 74.8067 92.8489 74.06C92.8489 73.3133 92.8255 72.625 92.7789 71.995C92.7555 70.7117 92.4639 69.6733 91.9039 68.88C91.3672 68.0867 90.4922 67.6783 89.2789 67.655C88.0655 67.6783 87.1905 68.0867 86.6539 68.88C86.1172 69.6733 85.8255 70.7117 85.7789 71.995C85.7555 72.625 85.7322 73.3133 85.7089 74.06C85.7089 74.8067 85.7089 75.5533 85.7089 76.3C85.7322 77.0467 85.7555 77.7583 85.7789 78.435C85.8255 79.765 86.1289 80.8267 86.6889 81.62C87.2489 82.39 88.1122 82.775 89.2789 82.775ZM107.38 87.5C107.17 87.5 106.995 87.43 106.855 87.29C106.715 87.1267 106.645 86.94 106.645 86.73C106.645 86.6133 106.657 86.52 106.68 86.45C106.727 86.38 106.762 86.3217 106.785 86.275L111.72 79.52C111.394 79.59 111.055 79.625 110.705 79.625C109.655 79.555 108.629 79.3217 107.625 78.925C106.622 78.505 105.712 77.945 104.895 77.245C104.102 76.5217 103.472 75.67 103.005 74.69C102.539 73.71 102.305 72.6133 102.305 71.4C102.305 70.28 102.515 69.2067 102.935 68.18C103.355 67.13 103.985 66.1967 104.825 65.38C105.665 64.54 106.704 63.875 107.94 63.385C109.2 62.895 110.659 62.65 112.315 62.65C113.972 62.65 115.43 62.8717 116.69 63.315C117.974 63.7583 119.047 64.3767 119.91 65.17C120.797 65.94 121.462 66.8383 121.905 67.865C122.349 68.8917 122.57 69.9883 122.57 71.155C122.57 72.2283 122.372 73.22 121.975 74.13C121.602 75.04 121.135 75.9033 120.575 76.72C120.015 77.5133 119.455 78.3183 118.895 79.135L113.295 86.8C113.202 86.9167 113.062 87.0683 112.875 87.255C112.689 87.4183 112.409 87.5 112.035 87.5H107.38ZM112.385 75.04C113.085 75.04 113.715 74.8883 114.275 74.585C114.835 74.2817 115.279 73.8617 115.605 73.325C115.932 72.7883 116.095 72.135 116.095 71.365C116.095 70.595 115.932 69.9417 115.605 69.405C115.279 68.845 114.835 68.425 114.275 68.145C113.715 67.8417 113.085 67.69 112.385 67.69C111.709 67.69 111.09 67.8417 110.53 68.145C109.97 68.425 109.527 68.845 109.2 69.405C108.874 69.9417 108.71 70.595 108.71 71.365C108.71 72.135 108.874 72.7883 109.2 73.325C109.527 73.8617 109.97 74.2817 110.53 74.585C111.09 74.8883 111.709 75.04 112.385 75.04ZM128.735 87.5C128.525 87.5 128.35 87.43 128.21 87.29C128.07 87.1267 128 86.94 128 86.73C128 86.6367 128.023 86.5317 128.07 86.415L136.155 68.285H125.655C125.421 68.285 125.211 68.2033 125.025 68.04C124.861 67.8533 124.78 67.6317 124.78 67.375V63.875C124.78 63.6183 124.861 63.4083 125.025 63.245C125.211 63.0817 125.421 63 125.655 63H142.035C142.315 63 142.536 63.0817 142.7 63.245C142.863 63.4083 142.945 63.6183 142.945 63.875V66.99C142.945 67.34 142.91 67.6317 142.84 67.865C142.77 68.0983 142.676 68.3317 142.56 68.565L134.475 86.66C134.405 86.8 134.276 86.975 134.09 87.185C133.903 87.395 133.623 87.5 133.25 87.5H128.735Z" fill="#00B6BF"/>
<path d="M39.8723 121.5C39.7056 121.5 39.5639 121.442 39.4473 121.325C39.3306 121.208 39.2723 121.067 39.2723 120.9V104.625C39.2723 104.442 39.3306 104.292 39.4473 104.175C39.5639 104.058 39.7056 104 39.8723 104H45.9723C47.6556 104 49.0389 104.258 50.1223 104.775C51.2223 105.292 52.0473 106.058 52.5973 107.075C53.1639 108.092 53.4556 109.333 53.4723 110.8C53.5056 111.533 53.5223 112.183 53.5223 112.75C53.5223 113.317 53.5056 113.958 53.4723 114.675C53.4389 116.225 53.1556 117.508 52.6223 118.525C52.0889 119.525 51.2806 120.275 50.1973 120.775C49.1306 121.258 47.7639 121.5 46.0973 121.5H39.8723ZM42.7473 118.625H45.9723C46.9056 118.625 47.6639 118.492 48.2473 118.225C48.8306 117.958 49.2556 117.533 49.5223 116.95C49.8056 116.35 49.9556 115.567 49.9723 114.6C49.9889 114.1 49.9973 113.667 49.9973 113.3C50.0139 112.917 50.0139 112.542 49.9973 112.175C49.9973 111.792 49.9889 111.358 49.9723 110.875C49.9389 109.508 49.5973 108.5 48.9473 107.85C48.2973 107.2 47.2639 106.875 45.8473 106.875H42.7473V118.625ZM60.3254 121.75C59.4587 121.75 58.6754 121.583 57.9754 121.25C57.2754 120.9 56.7171 120.442 56.3004 119.875C55.9004 119.292 55.7004 118.642 55.7004 117.925C55.7004 116.758 56.1671 115.833 57.1004 115.15C58.0504 114.45 59.3004 113.983 60.8504 113.75L64.2754 113.25V112.725C64.2754 112.025 64.1004 111.483 63.7504 111.1C63.4004 110.717 62.8004 110.525 61.9504 110.525C61.3504 110.525 60.8587 110.65 60.4754 110.9C60.1087 111.133 59.8337 111.45 59.6504 111.85C59.5171 112.067 59.3254 112.175 59.0754 112.175H57.1004C56.9171 112.175 56.7754 112.125 56.6754 112.025C56.5921 111.925 56.5504 111.792 56.5504 111.625C56.5671 111.358 56.6754 111.033 56.8754 110.65C57.0754 110.267 57.3921 109.9 57.8254 109.55C58.2587 109.183 58.8171 108.875 59.5004 108.625C60.1837 108.375 61.0087 108.25 61.9754 108.25C63.0254 108.25 63.9087 108.383 64.6254 108.65C65.3587 108.9 65.9421 109.242 66.3754 109.675C66.8087 110.108 67.1254 110.617 67.3254 111.2C67.5254 111.783 67.6254 112.4 67.6254 113.05V120.9C67.6254 121.067 67.5671 121.208 67.4504 121.325C67.3337 121.442 67.1921 121.5 67.0254 121.5H65.0004C64.8171 121.5 64.6671 121.442 64.5504 121.325C64.4504 121.208 64.4004 121.067 64.4004 120.9V119.925C64.1837 120.242 63.8921 120.542 63.5254 120.825C63.1587 121.092 62.7087 121.317 62.1754 121.5C61.6587 121.667 61.0421 121.75 60.3254 121.75ZM61.1754 119.375C61.7587 119.375 62.2837 119.25 62.7504 119C63.2337 118.75 63.6087 118.367 63.8754 117.85C64.1587 117.317 64.3004 116.65 64.3004 115.85V115.325L61.8004 115.725C60.8171 115.875 60.0837 116.117 59.6004 116.45C59.1171 116.783 58.8754 117.192 58.8754 117.675C58.8754 118.042 58.9837 118.358 59.2004 118.625C59.4337 118.875 59.7254 119.067 60.0754 119.2C60.4254 119.317 60.7921 119.375 61.1754 119.375ZM71.4576 121.5C71.291 121.5 71.1493 121.442 71.0326 121.325C70.916 121.208 70.8576 121.067 70.8576 120.9V104.35C70.8576 104.183 70.916 104.042 71.0326 103.925C71.1493 103.808 71.291 103.75 71.4576 103.75H73.4826C73.666 103.75 73.8076 103.808 73.9076 103.925C74.0243 104.042 74.0826 104.183 74.0826 104.35V112.9L78.2826 108.925C78.4326 108.792 78.566 108.692 78.6826 108.625C78.7993 108.542 78.9743 108.5 79.2076 108.5H81.5326C81.6993 108.5 81.8326 108.55 81.9326 108.65C82.0326 108.75 82.0826 108.883 82.0826 109.05C82.0826 109.117 82.066 109.192 82.0326 109.275C81.9993 109.358 81.9326 109.433 81.8326 109.5L76.6826 114.325L82.4576 120.525C82.6243 120.692 82.7076 120.833 82.7076 120.95C82.7076 121.117 82.6493 121.25 82.5326 121.35C82.4326 121.45 82.3076 121.5 82.1576 121.5H79.7826C79.5326 121.5 79.3493 121.467 79.2326 121.4C79.1326 121.317 79.0076 121.208 78.8576 121.075L74.0826 116.05V120.9C74.0826 121.067 74.0243 121.208 73.9076 121.325C73.8076 121.442 73.666 121.5 73.4826 121.5H71.4576ZM85.1777 121.5C85.0111 121.5 84.8694 121.442 84.7527 121.325C84.6361 121.208 84.5777 121.067 84.5777 120.9V109.1C84.5777 108.933 84.6361 108.792 84.7527 108.675C84.8694 108.558 85.0111 108.5 85.1777 108.5H87.2527C87.4361 108.5 87.5777 108.558 87.6777 108.675C87.7944 108.792 87.8527 108.933 87.8527 109.1V120.9C87.8527 121.067 87.7944 121.208 87.6777 121.325C87.5777 121.442 87.4361 121.5 87.2527 121.5H85.1777ZM85.0777 106.35C84.8944 106.35 84.7444 106.3 84.6277 106.2C84.5277 106.083 84.4777 105.933 84.4777 105.75V103.95C84.4777 103.783 84.5277 103.642 84.6277 103.525C84.7444 103.408 84.8944 103.35 85.0777 103.35H87.3527C87.5361 103.35 87.6861 103.408 87.8027 103.525C87.9194 103.642 87.9777 103.783 87.9777 103.95V105.75C87.9777 105.933 87.9194 106.083 87.8027 106.2C87.6861 106.3 87.5361 106.35 87.3527 106.35H85.0777ZM91.7945 121.5C91.6279 121.5 91.4862 121.442 91.3695 121.325C91.2529 121.208 91.1945 121.067 91.1945 120.9V104.35C91.1945 104.183 91.2529 104.042 91.3695 103.925C91.4862 103.808 91.6279 103.75 91.7945 103.75H93.8195C94.0029 103.75 94.1445 103.808 94.2445 103.925C94.3612 104.042 94.4195 104.183 94.4195 104.35V112.9L98.6195 108.925C98.7695 108.792 98.9029 108.692 99.0195 108.625C99.1362 108.542 99.3112 108.5 99.5445 108.5H101.87C102.036 108.5 102.17 108.55 102.27 108.65C102.37 108.75 102.42 108.883 102.42 109.05C102.42 109.117 102.403 109.192 102.37 109.275C102.336 109.358 102.27 109.433 102.17 109.5L97.0195 114.325L102.795 120.525C102.961 120.692 103.045 120.833 103.045 120.95C103.045 121.117 102.986 121.25 102.87 121.35C102.77 121.45 102.645 121.5 102.495 121.5H100.12C99.8695 121.5 99.6862 121.467 99.5695 121.4C99.4695 121.317 99.3445 121.208 99.1945 121.075L94.4195 116.05V120.9C94.4195 121.067 94.3612 121.208 94.2445 121.325C94.1445 121.442 94.0029 121.5 93.8195 121.5H91.7945ZM108.446 121.75C107.579 121.75 106.796 121.583 106.096 121.25C105.396 120.9 104.837 120.442 104.421 119.875C104.021 119.292 103.821 118.642 103.821 117.925C103.821 116.758 104.287 115.833 105.221 115.15C106.171 114.45 107.421 113.983 108.971 113.75L112.396 113.25V112.725C112.396 112.025 112.221 111.483 111.871 111.1C111.521 110.717 110.921 110.525 110.071 110.525C109.471 110.525 108.979 110.65 108.596 110.9C108.229 111.133 107.954 111.45 107.771 111.85C107.637 112.067 107.446 112.175 107.196 112.175H105.221C105.037 112.175 104.896 112.125 104.796 112.025C104.712 111.925 104.671 111.792 104.671 111.625C104.687 111.358 104.796 111.033 104.996 110.65C105.196 110.267 105.512 109.9 105.946 109.55C106.379 109.183 106.937 108.875 107.621 108.625C108.304 108.375 109.129 108.25 110.096 108.25C111.146 108.25 112.029 108.383 112.746 108.65C113.479 108.9 114.062 109.242 114.496 109.675C114.929 110.108 115.246 110.617 115.446 111.2C115.646 111.783 115.746 112.4 115.746 113.05V120.9C115.746 121.067 115.687 121.208 115.571 121.325C115.454 121.442 115.312 121.5 115.146 121.5H113.121C112.937 121.5 112.787 121.442 112.671 121.325C112.571 121.208 112.521 121.067 112.521 120.9V119.925C112.304 120.242 112.012 120.542 111.646 120.825C111.279 121.092 110.829 121.317 110.296 121.5C109.779 121.667 109.162 121.75 108.446 121.75ZM109.296 119.375C109.879 119.375 110.404 119.25 110.871 119C111.354 118.75 111.729 118.367 111.996 117.85C112.279 117.317 112.421 116.65 112.421 115.85V115.325L109.921 115.725C108.937 115.875 108.204 116.117 107.721 116.45C107.237 116.783 106.996 117.192 106.996 117.675C106.996 118.042 107.104 118.358 107.321 118.625C107.554 118.875 107.846 119.067 108.196 119.2C108.546 119.317 108.912 119.375 109.296 119.375ZM125.566 121.5C125.399 121.5 125.257 121.442 125.141 121.325C125.024 121.208 124.966 121.067 124.966 120.9V104.6C124.966 104.433 125.024 104.292 125.141 104.175C125.257 104.058 125.399 104 125.566 104H127.916C128.099 104 128.241 104.058 128.341 104.175C128.457 104.292 128.516 104.433 128.516 104.6V120.9C128.516 121.067 128.457 121.208 128.341 121.325C128.241 121.442 128.099 121.5 127.916 121.5H125.566ZM125.691 102.75C125.524 102.75 125.391 102.7 125.291 102.6C125.191 102.5 125.141 102.367 125.141 102.2V100.1C125.141 99.9333 125.191 99.8 125.291 99.7C125.391 99.5833 125.524 99.525 125.691 99.525H127.791C127.957 99.525 128.091 99.5833 128.191 99.7C128.307 99.8 128.366 99.9333 128.366 100.1V102.2C128.366 102.367 128.307 102.5 128.191 102.6C128.091 102.7 127.957 102.75 127.791 102.75H125.691ZM137.736 127C137.27 126.983 136.853 126.9 136.486 126.75C136.136 126.6 135.878 126.425 135.711 126.225C135.561 126.025 135.57 125.858 135.736 125.725L136.161 125.35C136.311 125.217 136.436 125.175 136.536 125.225C136.653 125.292 136.795 125.375 136.961 125.475C137.145 125.592 137.403 125.65 137.736 125.65C137.986 125.65 138.203 125.567 138.386 125.4C138.57 125.25 138.661 125.05 138.661 124.8C138.661 124.567 138.57 124.375 138.386 124.225C138.22 124.075 138.003 124 137.736 124C137.503 124 137.303 124.025 137.136 124.075C136.97 124.142 136.82 124.183 136.686 124.2C136.553 124.233 136.42 124.183 136.286 124.05L135.836 123.6C135.736 123.483 135.703 123.358 135.736 123.225C135.77 123.108 135.82 122.975 135.886 122.825L136.411 121.625C134.978 121.408 133.836 120.817 132.986 119.85C132.136 118.867 131.686 117.583 131.636 116C131.62 115.75 131.611 115.425 131.611 115.025C131.611 114.608 131.62 114.267 131.636 114C131.686 112.783 131.961 111.75 132.461 110.9C132.978 110.033 133.686 109.375 134.586 108.925C135.503 108.475 136.561 108.25 137.761 108.25C138.828 108.25 139.736 108.4 140.486 108.7C141.236 109 141.853 109.375 142.336 109.825C142.82 110.275 143.178 110.75 143.411 111.25C143.661 111.733 143.795 112.175 143.811 112.575C143.828 112.758 143.77 112.908 143.636 113.025C143.52 113.125 143.378 113.175 143.211 113.175H141.011C140.845 113.175 140.711 113.133 140.611 113.05C140.528 112.967 140.445 112.842 140.361 112.675C140.111 112.008 139.778 111.542 139.361 111.275C138.961 110.992 138.445 110.85 137.811 110.85C136.978 110.85 136.311 111.117 135.811 111.65C135.328 112.167 135.07 112.992 135.036 114.125C135.003 114.758 135.003 115.342 135.036 115.875C135.07 117.025 135.328 117.858 135.811 118.375C136.311 118.892 136.978 119.15 137.811 119.15C138.461 119.15 138.986 119.017 139.386 118.75C139.786 118.467 140.111 117.992 140.361 117.325C140.445 117.158 140.528 117.033 140.611 116.95C140.711 116.867 140.845 116.825 141.011 116.825H143.211C143.378 116.825 143.52 116.883 143.636 117C143.77 117.1 143.828 117.242 143.811 117.425C143.795 117.792 143.67 118.225 143.436 118.725C143.203 119.208 142.853 119.683 142.386 120.15C141.92 120.6 141.311 120.983 140.561 121.3C139.811 121.6 138.903 121.75 137.836 121.75L137.311 122.825C137.411 122.775 137.545 122.733 137.711 122.7C137.895 122.667 138.053 122.65 138.186 122.65C138.77 122.65 139.236 122.85 139.586 123.25C139.953 123.65 140.136 124.158 140.136 124.775C140.136 125.408 139.928 125.942 139.511 126.375C139.095 126.808 138.503 127.017 137.736 127ZM152.019 121.75C150.169 121.75 148.702 121.217 147.619 120.15C146.535 119.083 145.952 117.567 145.869 115.6C145.852 115.433 145.844 115.225 145.844 114.975C145.844 114.708 145.852 114.5 145.869 114.35C145.935 113.1 146.219 112.017 146.719 111.1C147.235 110.183 147.944 109.483 148.844 109C149.744 108.5 150.802 108.25 152.019 108.25C153.369 108.25 154.502 108.533 155.419 109.1C156.335 109.65 157.027 110.425 157.494 111.425C157.96 112.408 158.194 113.55 158.194 114.85V115.375C158.194 115.542 158.135 115.683 158.019 115.8C157.902 115.917 157.752 115.975 157.569 115.975H149.269C149.269 115.975 149.269 116 149.269 116.05C149.269 116.1 149.269 116.142 149.269 116.175C149.285 116.758 149.394 117.3 149.594 117.8C149.81 118.283 150.119 118.675 150.519 118.975C150.935 119.275 151.427 119.425 151.994 119.425C152.46 119.425 152.852 119.358 153.169 119.225C153.485 119.075 153.744 118.908 153.944 118.725C154.144 118.542 154.285 118.392 154.369 118.275C154.519 118.075 154.635 117.958 154.719 117.925C154.819 117.875 154.96 117.85 155.144 117.85H157.294C157.46 117.85 157.594 117.9 157.694 118C157.81 118.1 157.86 118.225 157.844 118.375C157.827 118.642 157.685 118.967 157.419 119.35C157.169 119.733 156.802 120.108 156.319 120.475C155.835 120.842 155.227 121.15 154.494 121.4C153.777 121.633 152.952 121.75 152.019 121.75ZM149.269 113.875H154.794V113.8C154.794 113.15 154.685 112.583 154.469 112.1C154.252 111.617 153.935 111.233 153.519 110.95C153.102 110.667 152.602 110.525 152.019 110.525C151.435 110.525 150.935 110.667 150.519 110.95C150.102 111.233 149.785 111.617 149.569 112.1C149.369 112.583 149.269 113.15 149.269 113.8V113.875ZM161.447 121.5C161.281 121.5 161.139 121.442 161.022 121.325C160.906 121.208 160.847 121.067 160.847 120.9V109.125C160.847 108.942 160.906 108.792 161.022 108.675C161.139 108.558 161.281 108.5 161.447 108.5H163.472C163.639 108.5 163.781 108.558 163.897 108.675C164.031 108.792 164.097 108.942 164.097 109.125V110.15C164.481 109.617 164.972 109.208 165.572 108.925C166.189 108.642 166.897 108.5 167.697 108.5H168.722C168.906 108.5 169.047 108.558 169.147 108.675C169.264 108.792 169.322 108.933 169.322 109.1V110.9C169.322 111.067 169.264 111.208 169.147 111.325C169.047 111.442 168.906 111.5 168.722 111.5H166.772C165.972 111.5 165.347 111.725 164.897 112.175C164.464 112.625 164.247 113.242 164.247 114.025V120.9C164.247 121.067 164.189 121.208 164.072 121.325C163.956 121.442 163.806 121.5 163.622 121.5H161.447ZM171.872 121.5C171.705 121.5 171.564 121.442 171.447 121.325C171.33 121.208 171.272 121.067 171.272 120.9V109.1C171.272 108.933 171.33 108.792 171.447 108.675C171.564 108.558 171.705 108.5 171.872 108.5H173.947C174.13 108.5 174.272 108.558 174.372 108.675C174.489 108.792 174.547 108.933 174.547 109.1V120.9C174.547 121.067 174.489 121.208 174.372 121.325C174.272 121.442 174.13 121.5 173.947 121.5H171.872ZM171.772 106.35C171.589 106.35 171.439 106.3 171.322 106.2C171.222 106.083 171.172 105.933 171.172 105.75V103.95C171.172 103.783 171.222 103.642 171.322 103.525C171.439 103.408 171.589 103.35 171.772 103.35H174.047C174.23 103.35 174.38 103.408 174.497 103.525C174.614 103.642 174.672 103.783 174.672 103.95V105.75C174.672 105.933 174.614 106.083 174.497 106.2C174.38 106.3 174.23 106.35 174.047 106.35H171.772ZM178.489 121.5C178.322 121.5 178.181 121.442 178.064 121.325C177.947 121.208 177.889 121.067 177.889 120.9V104.35C177.889 104.183 177.947 104.042 178.064 103.925C178.181 103.808 178.322 103.75 178.489 103.75H180.514C180.697 103.75 180.839 103.808 180.939 103.925C181.056 104.042 181.114 104.183 181.114 104.35V112.9L185.314 108.925C185.464 108.792 185.597 108.692 185.714 108.625C185.831 108.542 186.006 108.5 186.239 108.5H188.564C188.731 108.5 188.864 108.55 188.964 108.65C189.064 108.75 189.114 108.883 189.114 109.05C189.114 109.117 189.097 109.192 189.064 109.275C189.031 109.358 188.964 109.433 188.864 109.5L183.714 114.325L189.489 120.525C189.656 120.692 189.739 120.833 189.739 120.95C189.739 121.117 189.681 121.25 189.564 121.35C189.464 121.45 189.339 121.5 189.189 121.5H186.814C186.564 121.5 186.381 121.467 186.264 121.4C186.164 121.317 186.039 121.208 185.889 121.075L181.114 116.05V120.9C181.114 121.067 181.056 121.208 180.939 121.325C180.839 121.442 180.697 121.5 180.514 121.5H178.489Z" fill="#16163A"/>
</svg>
