<svg width="282" height="182" viewBox="0 0 282 182" fill="none" xmlns="http://www.w3.org/2000/svg">
<path d="M0 16C0 7.16344 7.16344 0 16 0H266C274.837 0 282 7.16344 282 16V166C282 174.837 274.837 182 266 182H16C7.16345 182 0 174.837 0 166V16Z" fill="#F7F7F7"/>
<path d="M0 20C0 8.9543 8.95431 0 20 0H262C273.046 0 282 8.95431 282 20V162C282 173.046 273.046 182 262 182H20C8.9543 182 0 173.046 0 162V20Z" fill="#F7F7F7"/>
<path d="M43.55 87.85C41.4967 87.85 39.6883 87.4767 38.125 86.73C36.5617 85.9833 35.3367 84.9567 34.45 83.65C33.5867 82.32 33.155 80.8033 33.155 79.1C33.155 78.3767 33.26 77.665 33.47 76.965C33.7033 76.2417 33.9833 75.565 34.31 74.935C34.6367 74.2817 34.9633 73.71 35.29 73.22C35.6167 72.7067 35.885 72.2983 36.095 71.995L42.255 63.7C42.3717 63.5833 42.5233 63.4433 42.71 63.28C42.8967 63.0933 43.165 63 43.515 63H48.17C48.38 63 48.555 63.0817 48.695 63.245C48.835 63.385 48.905 63.56 48.905 63.77C48.905 63.8633 48.8933 63.9567 48.87 64.05C48.8467 64.12 48.8117 64.1783 48.765 64.225L44.04 70.665C44.18 70.6183 44.3433 70.595 44.53 70.595C44.74 70.5717 44.9267 70.56 45.09 70.56C46.14 70.6067 47.1783 70.84 48.205 71.26C49.2317 71.68 50.165 72.2517 51.005 72.975C51.845 73.6983 52.51 74.5733 53 75.6C53.5133 76.6033 53.77 77.735 53.77 78.995C53.77 80.605 53.35 82.0867 52.51 83.44C51.67 84.77 50.48 85.8433 48.94 86.66C47.4233 87.4533 45.6267 87.85 43.55 87.85ZM43.515 82.81C44.1917 82.81 44.8217 82.67 45.405 82.39C45.9883 82.0867 46.455 81.6667 46.805 81.13C47.1783 80.57 47.365 79.8817 47.365 79.065C47.365 78.2483 47.19 77.5717 46.84 77.035C46.49 76.475 46.0233 76.055 45.44 75.775C44.8567 75.495 44.215 75.355 43.515 75.355C42.815 75.355 42.1617 75.495 41.555 75.775C40.9717 76.055 40.505 76.475 40.155 77.035C39.805 77.5717 39.63 78.2483 39.63 79.065C39.63 79.8817 39.805 80.57 40.155 81.13C40.5283 81.6667 41.0067 82.0867 41.59 82.39C42.1733 82.67 42.815 82.81 43.515 82.81ZM63.8284 87.5C63.5951 87.5 63.3851 87.4183 63.1984 87.255C63.0351 87.0917 62.9534 86.8817 62.9534 86.625V69.965L58.1584 73.64C57.9484 73.8033 57.7267 73.8617 57.4934 73.815C57.2834 73.7683 57.0967 73.64 56.9334 73.43L54.8684 70.735C54.7284 70.525 54.6701 70.3033 54.6934 70.07C54.7401 69.8133 54.8801 69.615 55.1134 69.475L63.1634 63.245C63.3034 63.1517 63.4317 63.0933 63.5484 63.07C63.6884 63.0233 63.8401 63 64.0034 63H68.3784C68.6117 63 68.8101 63.0817 68.9734 63.245C69.1601 63.4083 69.2534 63.6183 69.2534 63.875V86.625C69.2534 86.8817 69.1601 87.0917 68.9734 87.255C68.8101 87.4183 68.6117 87.5 68.3784 87.5H63.8284ZM74.3834 87.5C74.1267 87.5 73.9167 87.4183 73.7534 87.255C73.59 87.0917 73.5084 86.8817 73.5084 86.625V82.18C73.5084 81.9467 73.59 81.7483 73.7534 81.585C73.9167 81.3983 74.1267 81.305 74.3834 81.305H78.7934C79.05 81.305 79.26 81.3983 79.4234 81.585C79.61 81.7483 79.7034 81.9467 79.7034 82.18V86.625C79.7034 86.8817 79.61 87.0917 79.4234 87.255C79.26 87.4183 79.05 87.5 78.7934 87.5H74.3834ZM93.0271 87.85C91.2071 87.85 89.6555 87.64 88.3721 87.22C87.0888 86.7767 86.0388 86.2167 85.2221 85.54C84.4055 84.84 83.7988 84.105 83.4021 83.335C83.0055 82.5417 82.7955 81.7833 82.7721 81.06C82.7721 80.85 82.8421 80.675 82.9821 80.535C83.1455 80.395 83.3321 80.325 83.5421 80.325H88.0921C88.3721 80.325 88.5938 80.3833 88.7571 80.5C88.9205 80.5933 89.0721 80.7567 89.2121 80.99C89.3988 81.4333 89.6671 81.795 90.0171 82.075C90.3905 82.355 90.8338 82.5533 91.3471 82.67C91.8605 82.7633 92.4205 82.81 93.0271 82.81C94.2171 82.81 95.1388 82.5417 95.7921 82.005C96.4688 81.445 96.8072 80.6867 96.8072 79.73C96.8072 78.7267 96.4922 78.015 95.8621 77.595C95.2321 77.1517 94.3338 76.93 93.1672 76.93H89.2821C89.0255 76.93 88.8155 76.8483 88.6521 76.685C88.4888 76.5217 88.4071 76.3117 88.4071 76.055V74.095C88.4071 73.815 88.4655 73.57 88.5821 73.36C88.6988 73.15 88.8271 72.9983 88.9671 72.905L94.7072 68.04H84.9771C84.7438 68.04 84.5338 67.9583 84.3471 67.795C84.1838 67.6317 84.1021 67.4217 84.1021 67.165V63.875C84.1021 63.6183 84.1838 63.4083 84.3471 63.245C84.5338 63.0817 84.7438 63 84.9771 63H101.077C101.334 63 101.544 63.0817 101.707 63.245C101.894 63.4083 101.987 63.6183 101.987 63.875V66.85C101.987 67.1067 101.929 67.34 101.812 67.55C101.695 67.7367 101.567 67.8883 101.427 68.005L96.1071 72.94L96.3521 73.01C97.6822 73.1733 98.8722 73.535 99.9221 74.095C100.972 74.6317 101.8 75.39 102.407 76.37C103.014 77.35 103.317 78.5983 103.317 80.115C103.317 81.7017 102.862 83.0783 101.952 84.245C101.065 85.3883 99.8522 86.275 98.3121 86.905C96.7721 87.535 95.0105 87.85 93.0271 87.85ZM116.361 87.85C114.308 87.85 112.499 87.4767 110.936 86.73C109.373 85.9833 108.148 84.9567 107.261 83.65C106.398 82.32 105.966 80.8033 105.966 79.1C105.966 78.3767 106.071 77.665 106.281 76.965C106.514 76.2417 106.794 75.565 107.121 74.935C107.448 74.2817 107.774 73.71 108.101 73.22C108.428 72.7067 108.696 72.2983 108.906 71.995L115.066 63.7C115.183 63.5833 115.334 63.4433 115.521 63.28C115.708 63.0933 115.976 63 116.326 63H120.981C121.191 63 121.366 63.0817 121.506 63.245C121.646 63.385 121.716 63.56 121.716 63.77C121.716 63.8633 121.704 63.9567 121.681 64.05C121.658 64.12 121.623 64.1783 121.576 64.225L116.851 70.665C116.991 70.6183 117.154 70.595 117.341 70.595C117.551 70.5717 117.738 70.56 117.901 70.56C118.951 70.6067 119.989 70.84 121.016 71.26C122.043 71.68 122.976 72.2517 123.816 72.975C124.656 73.6983 125.321 74.5733 125.811 75.6C126.324 76.6033 126.581 77.735 126.581 78.995C126.581 80.605 126.161 82.0867 125.321 83.44C124.481 84.77 123.291 85.8433 121.751 86.66C120.234 87.4533 118.438 87.85 116.361 87.85ZM116.326 82.81C117.003 82.81 117.633 82.67 118.216 82.39C118.799 82.0867 119.266 81.6667 119.616 81.13C119.989 80.57 120.176 79.8817 120.176 79.065C120.176 78.2483 120.001 77.5717 119.651 77.035C119.301 76.475 118.834 76.055 118.251 75.775C117.668 75.495 117.026 75.355 116.326 75.355C115.626 75.355 114.973 75.495 114.366 75.775C113.783 76.055 113.316 76.475 112.966 77.035C112.616 77.5717 112.441 78.2483 112.441 79.065C112.441 79.8817 112.616 80.57 112.966 81.13C113.339 81.6667 113.818 82.0867 114.401 82.39C114.984 82.67 115.626 82.81 116.326 82.81ZM136.639 87.5C136.406 87.5 136.196 87.4183 136.009 87.255C135.846 87.0917 135.764 86.8817 135.764 86.625V69.965L130.969 73.64C130.759 73.8033 130.538 73.8617 130.304 73.815C130.094 73.7683 129.908 73.64 129.744 73.43L127.679 70.735C127.539 70.525 127.481 70.3033 127.504 70.07C127.551 69.8133 127.691 69.615 127.924 69.475L135.974 63.245C136.114 63.1517 136.243 63.0933 136.359 63.07C136.499 63.0233 136.651 63 136.814 63H141.189C141.423 63 141.621 63.0817 141.784 63.245C141.971 63.4083 142.064 63.6183 142.064 63.875V86.625C142.064 86.8817 141.971 87.0917 141.784 87.255C141.621 87.4183 141.423 87.5 141.189 87.5H136.639Z" fill="#00B6BF"/>
<path d="M40.025 121.75C38.475 121.75 37.175 121.525 36.125 121.075C35.0917 120.608 34.3 120.008 33.75 119.275C33.2167 118.525 32.9333 117.742 32.9 116.925C32.9 116.775 32.95 116.65 33.05 116.55C33.15 116.45 33.275 116.4 33.425 116.4H35.65C35.8667 116.4 36.025 116.45 36.125 116.55C36.2417 116.633 36.3417 116.742 36.425 116.875C36.525 117.192 36.7167 117.508 37 117.825C37.2833 118.125 37.6667 118.375 38.15 118.575C38.65 118.775 39.275 118.875 40.025 118.875C41.225 118.875 42.1167 118.675 42.7 118.275C43.3 117.875 43.6 117.333 43.6 116.65C43.6 116.167 43.4417 115.783 43.125 115.5C42.8083 115.2 42.3167 114.933 41.65 114.7C41 114.45 40.1333 114.192 39.05 113.925C37.8 113.625 36.75 113.267 35.9 112.85C35.0667 112.417 34.4333 111.875 34 111.225C33.5833 110.575 33.375 109.75 33.375 108.75C33.375 107.783 33.6333 106.925 34.15 106.175C34.6833 105.425 35.4333 104.833 36.4 104.4C37.3833 103.967 38.55 103.75 39.9 103.75C40.9833 103.75 41.9417 103.9 42.775 104.2C43.6083 104.483 44.3 104.867 44.85 105.35C45.4 105.817 45.8167 106.325 46.1 106.875C46.4 107.408 46.5583 107.933 46.575 108.45C46.575 108.583 46.525 108.708 46.425 108.825C46.3417 108.925 46.2167 108.975 46.05 108.975H43.725C43.5917 108.975 43.4583 108.942 43.325 108.875C43.1917 108.808 43.0833 108.683 43 108.5C42.9 107.983 42.575 107.542 42.025 107.175C41.475 106.808 40.7667 106.625 39.9 106.625C39 106.625 38.275 106.792 37.725 107.125C37.175 107.458 36.9 107.975 36.9 108.675C36.9 109.142 37.0333 109.533 37.3 109.85C37.5833 110.15 38.025 110.417 38.625 110.65C39.2417 110.883 40.05 111.133 41.05 111.4C42.4667 111.717 43.625 112.083 44.525 112.5C45.425 112.917 46.0833 113.45 46.5 114.1C46.9167 114.733 47.125 115.542 47.125 116.525C47.125 117.625 46.825 118.567 46.225 119.35C45.6417 120.117 44.8167 120.708 43.75 121.125C42.6833 121.542 41.4417 121.75 40.025 121.75ZM55.44 121.75C54.1067 121.75 52.9817 121.517 52.065 121.05C51.165 120.583 50.4734 119.925 49.99 119.075C49.5234 118.225 49.2567 117.233 49.19 116.1C49.1734 115.8 49.165 115.433 49.165 115C49.165 114.567 49.1734 114.2 49.19 113.9C49.2567 112.75 49.5317 111.758 50.015 110.925C50.515 110.075 51.215 109.417 52.115 108.95C53.0317 108.483 54.14 108.25 55.44 108.25C56.74 108.25 57.84 108.483 58.74 108.95C59.6567 109.417 60.3567 110.075 60.84 110.925C61.34 111.758 61.6234 112.75 61.69 113.9C61.7067 114.2 61.715 114.567 61.715 115C61.715 115.433 61.7067 115.8 61.69 116.1C61.6234 117.233 61.3484 118.225 60.865 119.075C60.3984 119.925 59.7067 120.583 58.79 121.05C57.89 121.517 56.7734 121.75 55.44 121.75ZM55.44 119.275C56.3234 119.275 57.0067 119 57.49 118.45C57.9734 117.883 58.24 117.058 58.29 115.975C58.3067 115.725 58.315 115.4 58.315 115C58.315 114.6 58.3067 114.275 58.29 114.025C58.24 112.958 57.9734 112.142 57.49 111.575C57.0067 111.008 56.3234 110.725 55.44 110.725C54.5567 110.725 53.8734 111.008 53.39 111.575C52.9067 112.142 52.64 112.958 52.59 114.025C52.5734 114.275 52.565 114.6 52.565 115C52.565 115.4 52.5734 115.725 52.59 115.975C52.64 117.058 52.9067 117.883 53.39 118.45C53.8734 119 54.5567 119.275 55.44 119.275ZM65.085 121.5C64.9183 121.5 64.7766 121.442 64.66 121.325C64.5433 121.208 64.485 121.067 64.485 120.9V109.125C64.485 108.942 64.5433 108.792 64.66 108.675C64.7766 108.558 64.9183 108.5 65.085 108.5H67.11C67.2766 108.5 67.4183 108.558 67.535 108.675C67.6683 108.792 67.735 108.942 67.735 109.125V110.15C68.1183 109.617 68.61 109.208 69.21 108.925C69.8266 108.642 70.535 108.5 71.335 108.5H72.36C72.5433 108.5 72.685 108.558 72.785 108.675C72.9016 108.792 72.96 108.933 72.96 109.1V110.9C72.96 111.067 72.9016 111.208 72.785 111.325C72.685 111.442 72.5433 111.5 72.36 111.5H70.41C69.61 111.5 68.985 111.725 68.535 112.175C68.1016 112.625 67.885 113.242 67.885 114.025V120.9C67.885 121.067 67.8266 121.208 67.71 121.325C67.5933 121.442 67.4433 121.5 67.26 121.5H65.085ZM79.7348 121.75C78.7181 121.75 77.8348 121.525 77.0848 121.075C76.3514 120.608 75.7848 119.958 75.3848 119.125C74.9848 118.275 74.7848 117.275 74.7848 116.125V109.1C74.7848 108.933 74.8431 108.792 74.9598 108.675C75.0764 108.558 75.2181 108.5 75.3848 108.5H77.5848C77.7681 108.5 77.9098 108.558 78.0098 108.675C78.1264 108.792 78.1848 108.933 78.1848 109.1V115.975C78.1848 118.042 79.0931 119.075 80.9098 119.075C81.7764 119.075 82.4598 118.8 82.9598 118.25C83.4764 117.7 83.7348 116.942 83.7348 115.975V109.1C83.7348 108.933 83.7931 108.792 83.9098 108.675C84.0264 108.558 84.1681 108.5 84.3348 108.5H86.5348C86.7014 108.5 86.8431 108.558 86.9598 108.675C87.0764 108.792 87.1348 108.933 87.1348 109.1V120.9C87.1348 121.067 87.0764 121.208 86.9598 121.325C86.8431 121.442 86.7014 121.5 86.5348 121.5H84.5098C84.3264 121.5 84.1764 121.442 84.0598 121.325C83.9598 121.208 83.9098 121.067 83.9098 120.9V119.875C83.4598 120.458 82.9014 120.917 82.2348 121.25C81.5681 121.583 80.7348 121.75 79.7348 121.75Z" fill="#16163A"/>
</svg>
