<svg width="282" height="182" viewBox="0 0 282 182" fill="none" xmlns="http://www.w3.org/2000/svg">
<path d="M0 16C0 7.16344 7.16344 0 16 0H266C274.837 0 282 7.16344 282 16V166C282 174.837 274.837 182 266 182H16C7.16345 182 0 174.837 0 166V16Z" fill="#F7F7F7"/>
<path d="M0 20C0 8.9543 8.95431 0 20 0H262C273.046 0 282 8.95431 282 20V162C282 173.046 273.046 182 262 182H20C8.9543 182 0 173.046 0 162V20Z" fill="#F7F7F7"/>
<path d="M41.695 87.5C41.4617 87.5 41.2517 87.4183 41.065 87.255C40.9017 87.0917 40.82 86.8817 40.82 86.625V69.965L36.025 73.64C35.815 73.8033 35.5933 73.8617 35.36 73.815C35.15 73.7683 34.9633 73.64 34.8 73.43L32.735 70.735C32.595 70.525 32.5367 70.3033 32.56 70.07C32.6067 69.8133 32.7467 69.615 32.98 69.475L41.03 63.245C41.17 63.1517 41.2983 63.0933 41.415 63.07C41.555 63.0233 41.7067 63 41.87 63H46.245C46.4783 63 46.6767 63.0817 46.84 63.245C47.0267 63.4083 47.12 63.6183 47.12 63.875V86.625C47.12 86.8817 47.0267 87.0917 46.84 87.255C46.6767 87.4183 46.4783 87.5 46.245 87.5H41.695ZM61.35 87.85C59.67 87.85 58.2116 87.6167 56.975 87.15C55.7383 86.66 54.7116 85.995 53.895 85.155C53.1016 84.315 52.495 83.335 52.075 82.215C51.655 81.095 51.41 79.8933 51.34 78.61C51.3166 77.98 51.2933 77.2683 51.27 76.475C51.27 75.6583 51.27 74.8417 51.27 74.025C51.2933 73.185 51.3166 72.4383 51.34 71.785C51.41 70.5017 51.655 69.3117 52.075 68.215C52.5183 67.095 53.1483 66.1267 53.965 65.31C54.805 64.47 55.8316 63.8167 57.045 63.35C58.2816 62.8833 59.7166 62.65 61.35 62.65C63.0066 62.65 64.4416 62.8833 65.655 63.35C66.8683 63.8167 67.8833 64.47 68.7 65.31C69.54 66.1267 70.1816 67.095 70.625 68.215C71.0683 69.3117 71.3133 70.5017 71.36 71.785C71.4066 72.4383 71.43 73.185 71.43 74.025C71.4533 74.8417 71.4533 75.6583 71.43 76.475C71.43 77.2683 71.4066 77.98 71.36 78.61C71.3133 79.8933 71.0683 81.095 70.625 82.215C70.205 83.335 69.5866 84.315 68.77 85.155C67.9766 85.995 66.9616 86.66 65.725 87.15C64.5116 87.6167 63.0533 87.85 61.35 87.85ZM61.35 82.775C62.5633 82.775 63.4383 82.39 63.975 81.62C64.535 80.8267 64.8266 79.765 64.85 78.435C64.8966 77.7583 64.92 77.0467 64.92 76.3C64.9433 75.5533 64.9433 74.8067 64.92 74.06C64.92 73.3133 64.8966 72.625 64.85 71.995C64.8266 70.7117 64.535 69.6733 63.975 68.88C63.4383 68.0867 62.5633 67.6783 61.35 67.655C60.1366 67.6783 59.2616 68.0867 58.725 68.88C58.1883 69.6733 57.8966 70.7117 57.85 71.995C57.8266 72.625 57.8033 73.3133 57.78 74.06C57.78 74.8067 57.78 75.5533 57.78 76.3C57.8033 77.0467 57.8266 77.7583 57.85 78.435C57.8966 79.765 58.2 80.8267 58.76 81.62C59.32 82.39 60.1833 82.775 61.35 82.775ZM84.7365 87.85C82.9165 87.85 81.3649 87.64 80.0815 87.22C78.7982 86.7767 77.7482 86.2167 76.9315 85.54C76.1149 84.84 75.5082 84.105 75.1115 83.335C74.7149 82.5417 74.5049 81.7833 74.4815 81.06C74.4815 80.85 74.5515 80.675 74.6915 80.535C74.8549 80.395 75.0415 80.325 75.2515 80.325H79.8015C80.0815 80.325 80.3032 80.3833 80.4665 80.5C80.6299 80.5933 80.7815 80.7567 80.9215 80.99C81.1082 81.4333 81.3765 81.795 81.7265 82.075C82.0999 82.355 82.5432 82.5533 83.0565 82.67C83.5699 82.7633 84.1299 82.81 84.7365 82.81C85.9265 82.81 86.8482 82.5417 87.5015 82.005C88.1782 81.445 88.5165 80.6867 88.5165 79.73C88.5165 78.7267 88.2015 78.015 87.5715 77.595C86.9415 77.1517 86.0432 76.93 84.8765 76.93H80.9915C80.7349 76.93 80.5249 76.8483 80.3615 76.685C80.1982 76.5217 80.1165 76.3117 80.1165 76.055V74.095C80.1165 73.815 80.1749 73.57 80.2915 73.36C80.4082 73.15 80.5365 72.9983 80.6765 72.905L86.4165 68.04H76.6865C76.4532 68.04 76.2432 67.9583 76.0565 67.795C75.8932 67.6317 75.8115 67.4217 75.8115 67.165V63.875C75.8115 63.6183 75.8932 63.4083 76.0565 63.245C76.2432 63.0817 76.4532 63 76.6865 63H92.7865C93.0432 63 93.2532 63.0817 93.4165 63.245C93.6032 63.4083 93.6965 63.6183 93.6965 63.875V66.85C93.6965 67.1067 93.6382 67.34 93.5215 67.55C93.4049 67.7367 93.2765 67.8883 93.1365 68.005L87.8165 72.94L88.0615 73.01C89.3915 73.1733 90.5815 73.535 91.6315 74.095C92.6815 74.6317 93.5099 75.39 94.1165 76.37C94.7232 77.35 95.0265 78.5983 95.0265 80.115C95.0265 81.7017 94.5715 83.0783 93.6615 84.245C92.7749 85.3883 91.5615 86.275 90.0215 86.905C88.4815 87.535 86.7199 87.85 84.7365 87.85ZM108.07 87.85C106.017 87.85 104.209 87.4767 102.645 86.73C101.082 85.9833 99.857 84.9567 98.9703 83.65C98.107 82.32 97.6753 80.8033 97.6753 79.1C97.6753 78.3767 97.7803 77.665 97.9903 76.965C98.2236 76.2417 98.5036 75.565 98.8303 74.935C99.157 74.2817 99.4836 73.71 99.8103 73.22C100.137 72.7067 100.405 72.2983 100.615 71.995L106.775 63.7C106.892 63.5833 107.044 63.4433 107.23 63.28C107.417 63.0933 107.685 63 108.035 63H112.69C112.9 63 113.075 63.0817 113.215 63.245C113.355 63.385 113.425 63.56 113.425 63.77C113.425 63.8633 113.414 63.9567 113.39 64.05C113.367 64.12 113.332 64.1783 113.285 64.225L108.56 70.665C108.7 70.6183 108.864 70.595 109.05 70.595C109.26 70.5717 109.447 70.56 109.61 70.56C110.66 70.6067 111.699 70.84 112.725 71.26C113.752 71.68 114.685 72.2517 115.525 72.975C116.365 73.6983 117.03 74.5733 117.52 75.6C118.034 76.6033 118.29 77.735 118.29 78.995C118.29 80.605 117.87 82.0867 117.03 83.44C116.19 84.77 115 85.8433 113.46 86.66C111.944 87.4533 110.147 87.85 108.07 87.85ZM108.035 82.81C108.712 82.81 109.342 82.67 109.925 82.39C110.509 82.0867 110.975 81.6667 111.325 81.13C111.699 80.57 111.885 79.8817 111.885 79.065C111.885 78.2483 111.71 77.5717 111.36 77.035C111.01 76.475 110.544 76.055 109.96 75.775C109.377 75.495 108.735 75.355 108.035 75.355C107.335 75.355 106.682 75.495 106.075 75.775C105.492 76.055 105.025 76.475 104.675 77.035C104.325 77.5717 104.15 78.2483 104.15 79.065C104.15 79.8817 104.325 80.57 104.675 81.13C105.049 81.6667 105.527 82.0867 106.11 82.39C106.694 82.67 107.335 82.81 108.035 82.81Z" fill="#00B6BF"/>
<path d="M129.494 87.5C129.328 87.5 129.186 87.4417 129.069 87.325C128.953 87.2083 128.894 87.0667 128.894 86.9V70.625C128.894 70.4417 128.953 70.2917 129.069 70.175C129.186 70.0583 129.328 70 129.494 70H135.594C137.278 70 138.661 70.2583 139.744 70.775C140.844 71.2917 141.669 72.0583 142.219 73.075C142.786 74.0917 143.078 75.3333 143.094 76.8C143.128 77.5333 143.144 78.1833 143.144 78.75C143.144 79.3167 143.128 79.9583 143.094 80.675C143.061 82.225 142.778 83.5083 142.244 84.525C141.711 85.525 140.903 86.275 139.819 86.775C138.753 87.2583 137.386 87.5 135.719 87.5H129.494ZM132.369 84.625H135.594C136.528 84.625 137.286 84.4917 137.869 84.225C138.453 83.9583 138.878 83.5333 139.144 82.95C139.428 82.35 139.578 81.5667 139.594 80.6C139.611 80.1 139.619 79.6667 139.619 79.3C139.636 78.9167 139.636 78.5417 139.619 78.175C139.619 77.7917 139.611 77.3583 139.594 76.875C139.561 75.5083 139.219 74.5 138.569 73.85C137.919 73.2 136.886 72.875 135.469 72.875H132.369V84.625ZM151.772 87.75C149.922 87.75 148.456 87.2167 147.372 86.15C146.289 85.0833 145.706 83.5667 145.622 81.6C145.606 81.4333 145.597 81.225 145.597 80.975C145.597 80.7083 145.606 80.5 145.622 80.35C145.689 79.1 145.972 78.0167 146.472 77.1C146.989 76.1833 147.697 75.4833 148.597 75C149.497 74.5 150.556 74.25 151.772 74.25C153.122 74.25 154.256 74.5333 155.172 75.1C156.089 75.65 156.781 76.425 157.247 77.425C157.714 78.4083 157.947 79.55 157.947 80.85V81.375C157.947 81.5417 157.889 81.6833 157.772 81.8C157.656 81.9167 157.506 81.975 157.322 81.975H149.022C149.022 81.975 149.022 82 149.022 82.05C149.022 82.1 149.022 82.1417 149.022 82.175C149.039 82.7583 149.147 83.3 149.347 83.8C149.564 84.2833 149.872 84.675 150.272 84.975C150.689 85.275 151.181 85.425 151.747 85.425C152.214 85.425 152.606 85.3583 152.922 85.225C153.239 85.075 153.497 84.9083 153.697 84.725C153.897 84.5417 154.039 84.3917 154.122 84.275C154.272 84.075 154.389 83.9583 154.472 83.925C154.572 83.875 154.714 83.85 154.897 83.85H157.047C157.214 83.85 157.347 83.9 157.447 84C157.564 84.1 157.614 84.225 157.597 84.375C157.581 84.6417 157.439 84.9667 157.172 85.35C156.922 85.7333 156.556 86.1083 156.072 86.475C155.589 86.8417 154.981 87.15 154.247 87.4C153.531 87.6333 152.706 87.75 151.772 87.75ZM149.022 79.875H154.547V79.8C154.547 79.15 154.439 78.5833 154.222 78.1C154.006 77.6167 153.689 77.2333 153.272 76.95C152.856 76.6667 152.356 76.525 151.772 76.525C151.189 76.525 150.689 76.6667 150.272 76.95C149.856 77.2333 149.539 77.6167 149.322 78.1C149.122 78.5833 149.022 79.15 149.022 79.8V79.875ZM161.201 87.5C161.035 87.5 160.893 87.4417 160.776 87.325C160.66 87.2083 160.601 87.0667 160.601 86.9V75.125C160.601 74.9417 160.66 74.7917 160.776 74.675C160.893 74.5583 161.035 74.5 161.201 74.5H163.226C163.393 74.5 163.535 74.5583 163.651 74.675C163.785 74.7917 163.851 74.9417 163.851 75.125V76.15C164.235 75.6167 164.726 75.2083 165.326 74.925C165.943 74.6417 166.651 74.5 167.451 74.5H168.476C168.66 74.5 168.801 74.5583 168.901 74.675C169.018 74.7917 169.076 74.9333 169.076 75.1V76.9C169.076 77.0667 169.018 77.2083 168.901 77.325C168.801 77.4417 168.66 77.5 168.476 77.5H166.526C165.726 77.5 165.101 77.725 164.651 78.175C164.218 78.625 164.001 79.2417 164.001 80.025V86.9C164.001 87.0667 163.943 87.2083 163.826 87.325C163.71 87.4417 163.56 87.5 163.376 87.5H161.201ZM175.951 87.75C174.951 87.75 174.093 87.6333 173.376 87.4C172.676 87.1667 172.101 86.875 171.651 86.525C171.201 86.175 170.868 85.825 170.651 85.475C170.434 85.125 170.318 84.8333 170.301 84.6C170.284 84.4167 170.334 84.275 170.451 84.175C170.584 84.0583 170.726 84 170.876 84H172.851C172.918 84 172.976 84.0083 173.026 84.025C173.076 84.0417 173.143 84.0917 173.226 84.175C173.443 84.3583 173.668 84.55 173.901 84.75C174.151 84.95 174.443 85.125 174.776 85.275C175.109 85.4083 175.526 85.475 176.026 85.475C176.676 85.475 177.218 85.35 177.651 85.1C178.101 84.8333 178.326 84.4583 178.326 83.975C178.326 83.625 178.226 83.3417 178.026 83.125C177.843 82.9083 177.493 82.7167 176.976 82.55C176.459 82.3667 175.726 82.175 174.776 81.975C173.843 81.7583 173.068 81.4833 172.451 81.15C171.834 80.8167 171.376 80.4 171.076 79.9C170.776 79.4 170.626 78.8167 170.626 78.15C170.626 77.5 170.818 76.8833 171.201 76.3C171.601 75.7 172.184 75.2083 172.951 74.825C173.734 74.4417 174.701 74.25 175.851 74.25C176.751 74.25 177.534 74.3667 178.201 74.6C178.868 74.8167 179.418 75.0917 179.851 75.425C180.301 75.7583 180.643 76.1 180.876 76.45C181.109 76.7833 181.234 77.075 181.251 77.325C181.268 77.5083 181.218 77.6583 181.101 77.775C180.984 77.875 180.851 77.925 180.701 77.925H178.851C178.768 77.925 178.693 77.9083 178.626 77.875C178.559 77.8417 178.493 77.8 178.426 77.75C178.243 77.5833 178.043 77.4083 177.826 77.225C177.609 77.0417 177.343 76.8833 177.026 76.75C176.726 76.6 176.326 76.525 175.826 76.525C175.193 76.525 174.709 76.6667 174.376 76.95C174.043 77.2167 173.876 77.5583 173.876 77.975C173.876 78.2583 173.951 78.5083 174.101 78.725C174.268 78.925 174.593 79.1167 175.076 79.3C175.559 79.4833 176.293 79.675 177.276 79.875C178.393 80.075 179.276 80.375 179.926 80.775C180.593 81.1583 181.059 81.6083 181.326 82.125C181.609 82.625 181.751 83.1833 181.751 83.8C181.751 84.55 181.526 85.225 181.076 85.825C180.643 86.425 179.993 86.9 179.126 87.25C178.276 87.5833 177.218 87.75 175.951 87.75ZM32.875 121.5C32.7417 121.5 32.6167 121.45 32.5 121.35C32.4 121.25 32.35 121.125 32.35 120.975C32.35 120.908 32.3667 120.833 32.4 120.75L38.425 104.625C38.475 104.458 38.5667 104.317 38.7 104.2C38.85 104.067 39.05 104 39.3 104H42.025C42.275 104 42.4667 104.067 42.6 104.2C42.7333 104.317 42.8333 104.458 42.9 104.625L48.925 120.75C48.9417 120.833 48.95 120.908 48.95 120.975C48.95 121.125 48.9 121.25 48.8 121.35C48.7 121.45 48.5833 121.5 48.45 121.5H46.275C46.0417 121.5 45.8667 121.45 45.75 121.35C45.65 121.233 45.5833 121.125 45.55 121.025L44.375 117.975H36.95L35.775 121.025C35.7417 121.125 35.6667 121.233 35.55 121.35C35.45 121.45 35.2833 121.5 35.05 121.5H32.875ZM37.825 115.1H43.5L40.65 107.375L37.825 115.1ZM51.584 121.5C51.4173 121.5 51.2757 121.442 51.159 121.325C51.0423 121.208 50.984 121.067 50.984 120.9V109.1C50.984 108.933 51.0423 108.792 51.159 108.675C51.2757 108.558 51.4173 108.5 51.584 108.5H53.634C53.8007 108.5 53.9423 108.558 54.059 108.675C54.1757 108.792 54.234 108.933 54.234 109.1V110.125C54.6673 109.592 55.2173 109.15 55.884 108.8C56.5673 108.433 57.409 108.25 58.409 108.25C59.4257 108.25 60.309 108.483 61.059 108.95C61.809 109.4 62.384 110.042 62.784 110.875C63.2007 111.708 63.409 112.708 63.409 113.875V120.9C63.409 121.067 63.3507 121.208 63.234 121.325C63.1173 121.442 62.9757 121.5 62.809 121.5H60.609C60.4423 121.5 60.3007 121.442 60.184 121.325C60.0673 121.208 60.009 121.067 60.009 120.9V114.025C60.009 113.058 59.7673 112.3 59.284 111.75C58.8173 111.2 58.134 110.925 57.234 110.925C56.3673 110.925 55.6757 111.2 55.159 111.75C54.6423 112.3 54.384 113.058 54.384 114.025V120.9C54.384 121.067 54.3257 121.208 54.209 121.325C54.0923 121.442 53.9507 121.5 53.784 121.5H51.584ZM67.2096 121.5C67.0429 121.5 66.9012 121.442 66.7846 121.325C66.6679 121.208 66.6096 121.067 66.6096 120.9V104.35C66.6096 104.183 66.6679 104.042 66.7846 103.925C66.9012 103.808 67.0429 103.75 67.2096 103.75H69.2846C69.4512 103.75 69.5929 103.808 69.7096 103.925C69.8262 104.042 69.8846 104.183 69.8846 104.35V120.9C69.8846 121.067 69.8262 121.208 69.7096 121.325C69.5929 121.442 69.4512 121.5 69.2846 121.5H67.2096ZM76.9758 121.75C76.1091 121.75 75.3258 121.583 74.6258 121.25C73.9258 120.9 73.3674 120.442 72.9508 119.875C72.5508 119.292 72.3508 118.642 72.3508 117.925C72.3508 116.758 72.8174 115.833 73.7508 115.15C74.7008 114.45 75.9508 113.983 77.5008 113.75L80.9258 113.25V112.725C80.9258 112.025 80.7508 111.483 80.4008 111.1C80.0508 110.717 79.4508 110.525 78.6008 110.525C78.0008 110.525 77.5091 110.65 77.1258 110.9C76.7591 111.133 76.4841 111.45 76.3008 111.85C76.1674 112.067 75.9758 112.175 75.7258 112.175H73.7508C73.5674 112.175 73.4258 112.125 73.3258 112.025C73.2424 111.925 73.2008 111.792 73.2008 111.625C73.2174 111.358 73.3258 111.033 73.5258 110.65C73.7258 110.267 74.0424 109.9 74.4758 109.55C74.9091 109.183 75.4674 108.875 76.1508 108.625C76.8341 108.375 77.6591 108.25 78.6258 108.25C79.6758 108.25 80.5591 108.383 81.2758 108.65C82.0091 108.9 82.5924 109.242 83.0258 109.675C83.4591 110.108 83.7758 110.617 83.9758 111.2C84.1758 111.783 84.2758 112.4 84.2758 113.05V120.9C84.2758 121.067 84.2174 121.208 84.1008 121.325C83.9841 121.442 83.8424 121.5 83.6758 121.5H81.6508C81.4674 121.5 81.3174 121.442 81.2008 121.325C81.1008 121.208 81.0508 121.067 81.0508 120.9V119.925C80.8341 120.242 80.5424 120.542 80.1758 120.825C79.8091 121.092 79.3591 121.317 78.8258 121.5C78.3091 121.667 77.6924 121.75 76.9758 121.75ZM77.8258 119.375C78.4091 119.375 78.9341 119.25 79.4008 119C79.8841 118.75 80.2591 118.367 80.5258 117.85C80.8091 117.317 80.9508 116.65 80.9508 115.85V115.325L78.4508 115.725C77.4674 115.875 76.7341 116.117 76.2508 116.45C75.7674 116.783 75.5258 117.192 75.5258 117.675C75.5258 118.042 75.6341 118.358 75.8508 118.625C76.0841 118.875 76.3758 119.067 76.7258 119.2C77.0758 119.317 77.4424 119.375 77.8258 119.375ZM93.2359 121.5C92.2359 121.5 91.3943 121.325 90.7109 120.975C90.0276 120.625 89.5193 120.108 89.1859 119.425C88.8526 118.725 88.6859 117.858 88.6859 116.825V111.15H86.7109C86.5443 111.15 86.4026 111.092 86.2859 110.975C86.1693 110.858 86.1109 110.717 86.1109 110.55V109.1C86.1109 108.933 86.1693 108.792 86.2859 108.675C86.4026 108.558 86.5443 108.5 86.7109 108.5H88.6859V104.35C88.6859 104.183 88.7359 104.042 88.8359 103.925C88.9526 103.808 89.1026 103.75 89.2859 103.75H91.3109C91.4776 103.75 91.6193 103.808 91.7359 103.925C91.8526 104.042 91.9109 104.183 91.9109 104.35V108.5H95.0359C95.2026 108.5 95.3443 108.558 95.4609 108.675C95.5776 108.792 95.6359 108.933 95.6359 109.1V110.55C95.6359 110.717 95.5776 110.858 95.4609 110.975C95.3443 111.092 95.2026 111.15 95.0359 111.15H91.9109V116.575C91.9109 117.258 92.0276 117.792 92.2609 118.175C92.5109 118.558 92.9359 118.75 93.5359 118.75H95.2609C95.4276 118.75 95.5693 118.808 95.6859 118.925C95.8026 119.042 95.8609 119.183 95.8609 119.35V120.9C95.8609 121.067 95.8026 121.208 95.6859 121.325C95.5693 121.442 95.4276 121.5 95.2609 121.5H93.2359ZM98.6787 121.5C98.512 121.5 98.3704 121.442 98.2537 121.325C98.137 121.208 98.0787 121.067 98.0787 120.9V109.1C98.0787 108.933 98.137 108.792 98.2537 108.675C98.3704 108.558 98.512 108.5 98.6787 108.5H100.754C100.937 108.5 101.079 108.558 101.179 108.675C101.295 108.792 101.354 108.933 101.354 109.1V120.9C101.354 121.067 101.295 121.208 101.179 121.325C101.079 121.442 100.937 121.5 100.754 121.5H98.6787ZM105.271 121.5C105.104 121.5 104.962 121.442 104.846 121.325C104.729 121.208 104.671 121.067 104.671 120.9V109.1C104.671 108.933 104.729 108.792 104.846 108.675C104.962 108.558 105.104 108.5 105.271 108.5H107.221C107.387 108.5 107.529 108.558 107.646 108.675C107.762 108.792 107.821 108.933 107.821 109.1V109.95C108.171 109.483 108.637 109.092 109.221 108.775C109.821 108.442 110.529 108.267 111.346 108.25C113.246 108.217 114.571 108.958 115.321 110.475C115.704 109.808 116.254 109.275 116.971 108.875C117.704 108.458 118.512 108.25 119.396 108.25C120.262 108.25 121.046 108.45 121.746 108.85C122.462 109.25 123.021 109.858 123.421 110.675C123.837 111.475 124.046 112.492 124.046 113.725V120.9C124.046 121.067 123.987 121.208 123.871 121.325C123.754 121.442 123.612 121.5 123.446 121.5H121.396C121.229 121.5 121.087 121.442 120.971 121.325C120.854 121.208 120.796 121.067 120.796 120.9V113.925C120.796 113.175 120.687 112.583 120.471 112.15C120.254 111.7 119.962 111.383 119.596 111.2C119.229 111.017 118.821 110.925 118.371 110.925C118.004 110.925 117.637 111.017 117.271 111.2C116.904 111.383 116.604 111.7 116.371 112.15C116.137 112.583 116.021 113.175 116.021 113.925V120.9C116.021 121.067 115.962 121.208 115.846 121.325C115.729 121.442 115.587 121.5 115.421 121.5H113.371C113.187 121.5 113.037 121.442 112.921 121.325C112.821 121.208 112.771 121.067 112.771 120.9V113.925C112.771 113.175 112.654 112.583 112.421 112.15C112.187 111.7 111.887 111.383 111.521 111.2C111.154 111.017 110.762 110.925 110.346 110.925C109.962 110.925 109.587 111.025 109.221 111.225C108.854 111.408 108.554 111.717 108.321 112.15C108.087 112.583 107.971 113.175 107.971 113.925V120.9C107.971 121.067 107.912 121.208 107.796 121.325C107.679 121.442 107.537 121.5 107.371 121.5H105.271ZM137.683 121.5C137.416 121.5 137.208 121.433 137.058 121.3C136.908 121.167 136.799 121 136.733 120.8L131.383 104.75C131.349 104.667 131.333 104.592 131.333 104.525C131.333 104.375 131.383 104.25 131.483 104.15C131.583 104.05 131.708 104 131.858 104H134.058C134.291 104 134.466 104.067 134.583 104.2C134.716 104.317 134.799 104.433 134.833 104.55L139.058 117.425L143.258 104.55C143.308 104.433 143.391 104.317 143.508 104.2C143.641 104.067 143.824 104 144.058 104H146.258C146.391 104 146.508 104.05 146.608 104.15C146.724 104.25 146.783 104.375 146.783 104.525C146.783 104.592 146.766 104.667 146.733 104.75L141.383 120.8C141.316 121 141.208 121.167 141.058 121.3C140.908 121.433 140.699 121.5 140.433 121.5H137.683ZM149.558 121.5C149.391 121.5 149.249 121.442 149.133 121.325C149.016 121.208 148.958 121.067 148.958 120.9V109.1C148.958 108.933 149.016 108.792 149.133 108.675C149.249 108.558 149.391 108.5 149.558 108.5H151.633C151.816 108.5 151.958 108.558 152.058 108.675C152.174 108.792 152.233 108.933 152.233 109.1V120.9C152.233 121.067 152.174 121.208 152.058 121.325C151.958 121.442 151.816 121.5 151.633 121.5H149.558ZM149.458 106.35C149.274 106.35 149.124 106.3 149.008 106.2C148.908 106.083 148.858 105.933 148.858 105.75V103.95C148.858 103.783 148.908 103.642 149.008 103.525C149.124 103.408 149.274 103.35 149.458 103.35H151.733C151.916 103.35 152.066 103.408 152.183 103.525C152.299 103.642 152.358 103.783 152.358 103.95V105.75C152.358 105.933 152.299 106.083 152.183 106.2C152.066 106.3 151.916 106.35 151.733 106.35H149.458ZM160.374 121.75C159.508 121.75 158.741 121.608 158.074 121.325C157.424 121.025 156.883 120.608 156.449 120.075C156.016 119.542 155.683 118.917 155.449 118.2C155.216 117.467 155.083 116.667 155.049 115.8C155.033 115.5 155.024 115.233 155.024 115C155.024 114.75 155.033 114.475 155.049 114.175C155.083 113.342 155.208 112.567 155.424 111.85C155.658 111.133 155.991 110.508 156.424 109.975C156.874 109.425 157.424 109 158.074 108.7C158.741 108.4 159.508 108.25 160.374 108.25C161.274 108.25 162.033 108.408 162.649 108.725C163.283 109.025 163.808 109.417 164.224 109.9V104.35C164.224 104.183 164.274 104.042 164.374 103.925C164.491 103.808 164.641 103.75 164.824 103.75H166.949C167.116 103.75 167.258 103.808 167.374 103.925C167.491 104.042 167.549 104.183 167.549 104.35V120.9C167.549 121.067 167.491 121.208 167.374 121.325C167.258 121.442 167.116 121.5 166.949 121.5H164.974C164.791 121.5 164.641 121.442 164.524 121.325C164.424 121.208 164.374 121.067 164.374 120.9V119.975C163.958 120.492 163.424 120.917 162.774 121.25C162.141 121.583 161.341 121.75 160.374 121.75ZM161.299 119.075C161.999 119.075 162.558 118.917 162.974 118.6C163.391 118.283 163.699 117.883 163.899 117.4C164.099 116.9 164.208 116.392 164.224 115.875C164.241 115.575 164.249 115.258 164.249 114.925C164.249 114.575 164.241 114.25 164.224 113.95C164.208 113.45 164.091 112.975 163.874 112.525C163.658 112.058 163.341 111.675 162.924 111.375C162.508 111.075 161.966 110.925 161.299 110.925C160.599 110.925 160.041 111.083 159.624 111.4C159.224 111.7 158.933 112.1 158.749 112.6C158.566 113.1 158.458 113.65 158.424 114.25C158.408 114.75 158.408 115.25 158.424 115.75C158.458 116.35 158.566 116.9 158.749 117.4C158.933 117.9 159.224 118.308 159.624 118.625C160.041 118.925 160.599 119.075 161.299 119.075ZM176.481 121.75C174.631 121.75 173.165 121.217 172.081 120.15C170.998 119.083 170.415 117.567 170.331 115.6C170.315 115.433 170.306 115.225 170.306 114.975C170.306 114.708 170.315 114.5 170.331 114.35C170.398 113.1 170.681 112.017 171.181 111.1C171.698 110.183 172.406 109.483 173.306 109C174.206 108.5 175.265 108.25 176.481 108.25C177.831 108.25 178.965 108.533 179.881 109.1C180.798 109.65 181.49 110.425 181.956 111.425C182.423 112.408 182.656 113.55 182.656 114.85V115.375C182.656 115.542 182.598 115.683 182.481 115.8C182.365 115.917 182.215 115.975 182.031 115.975H173.731C173.731 115.975 173.731 116 173.731 116.05C173.731 116.1 173.731 116.142 173.731 116.175C173.748 116.758 173.856 117.3 174.056 117.8C174.273 118.283 174.581 118.675 174.981 118.975C175.398 119.275 175.89 119.425 176.456 119.425C176.923 119.425 177.315 119.358 177.631 119.225C177.948 119.075 178.206 118.908 178.406 118.725C178.606 118.542 178.748 118.392 178.831 118.275C178.981 118.075 179.098 117.958 179.181 117.925C179.281 117.875 179.423 117.85 179.606 117.85H181.756C181.923 117.85 182.056 117.9 182.156 118C182.273 118.1 182.323 118.225 182.306 118.375C182.29 118.642 182.148 118.967 181.881 119.35C181.631 119.733 181.265 120.108 180.781 120.475C180.298 120.842 179.69 121.15 178.956 121.4C178.24 121.633 177.415 121.75 176.481 121.75ZM173.731 113.875H179.256V113.8C179.256 113.15 179.148 112.583 178.931 112.1C178.715 111.617 178.398 111.233 177.981 110.95C177.565 110.667 177.065 110.525 176.481 110.525C175.898 110.525 175.398 110.667 174.981 110.95C174.565 111.233 174.248 111.617 174.031 112.1C173.831 112.583 173.731 113.15 173.731 113.8V113.875ZM191.06 121.75C189.727 121.75 188.602 121.517 187.685 121.05C186.785 120.583 186.093 119.925 185.61 119.075C185.143 118.225 184.877 117.233 184.81 116.1C184.793 115.8 184.785 115.433 184.785 115C184.785 114.567 184.793 114.2 184.81 113.9C184.877 112.75 185.152 111.758 185.635 110.925C186.135 110.075 186.835 109.417 187.735 108.95C188.652 108.483 189.76 108.25 191.06 108.25C192.36 108.25 193.46 108.483 194.36 108.95C195.277 109.417 195.977 110.075 196.46 110.925C196.96 111.758 197.243 112.75 197.31 113.9C197.327 114.2 197.335 114.567 197.335 115C197.335 115.433 197.327 115.8 197.31 116.1C197.243 117.233 196.968 118.225 196.485 119.075C196.018 119.925 195.327 120.583 194.41 121.05C193.51 121.517 192.393 121.75 191.06 121.75ZM191.06 119.275C191.943 119.275 192.627 119 193.11 118.45C193.593 117.883 193.86 117.058 193.91 115.975C193.927 115.725 193.935 115.4 193.935 115C193.935 114.6 193.927 114.275 193.91 114.025C193.86 112.958 193.593 112.142 193.11 111.575C192.627 111.008 191.943 110.725 191.06 110.725C190.177 110.725 189.493 111.008 189.01 111.575C188.527 112.142 188.26 112.958 188.21 114.025C188.193 114.275 188.185 114.6 188.185 115C188.185 115.4 188.193 115.725 188.21 115.975C188.26 117.058 188.527 117.883 189.01 118.45C189.493 119 190.177 119.275 191.06 119.275ZM205.03 121.75C204.03 121.75 203.172 121.633 202.455 121.4C201.755 121.167 201.18 120.875 200.73 120.525C200.28 120.175 199.947 119.825 199.73 119.475C199.513 119.125 199.397 118.833 199.38 118.6C199.363 118.417 199.413 118.275 199.53 118.175C199.663 118.058 199.805 118 199.955 118H201.93C201.997 118 202.055 118.008 202.105 118.025C202.155 118.042 202.222 118.092 202.305 118.175C202.522 118.358 202.747 118.55 202.98 118.75C203.23 118.95 203.522 119.125 203.855 119.275C204.188 119.408 204.605 119.475 205.105 119.475C205.755 119.475 206.297 119.35 206.73 119.1C207.18 118.833 207.405 118.458 207.405 117.975C207.405 117.625 207.305 117.342 207.105 117.125C206.922 116.908 206.572 116.717 206.055 116.55C205.538 116.367 204.805 116.175 203.855 115.975C202.922 115.758 202.147 115.483 201.53 115.15C200.913 114.817 200.455 114.4 200.155 113.9C199.855 113.4 199.705 112.817 199.705 112.15C199.705 111.5 199.897 110.883 200.28 110.3C200.68 109.7 201.263 109.208 202.03 108.825C202.813 108.442 203.78 108.25 204.93 108.25C205.83 108.25 206.613 108.367 207.28 108.6C207.947 108.817 208.497 109.092 208.93 109.425C209.38 109.758 209.722 110.1 209.955 110.45C210.188 110.783 210.313 111.075 210.33 111.325C210.347 111.508 210.297 111.658 210.18 111.775C210.063 111.875 209.93 111.925 209.78 111.925H207.93C207.847 111.925 207.772 111.908 207.705 111.875C207.638 111.842 207.572 111.8 207.505 111.75C207.322 111.583 207.122 111.408 206.905 111.225C206.688 111.042 206.422 110.883 206.105 110.75C205.805 110.6 205.405 110.525 204.905 110.525C204.272 110.525 203.788 110.667 203.455 110.95C203.122 111.217 202.955 111.558 202.955 111.975C202.955 112.258 203.03 112.508 203.18 112.725C203.347 112.925 203.672 113.117 204.155 113.3C204.638 113.483 205.372 113.675 206.355 113.875C207.472 114.075 208.355 114.375 209.005 114.775C209.672 115.158 210.138 115.608 210.405 116.125C210.688 116.625 210.83 117.183 210.83 117.8C210.83 118.55 210.605 119.225 210.155 119.825C209.722 120.425 209.072 120.9 208.205 121.25C207.355 121.583 206.297 121.75 205.03 121.75ZM218.236 121.75C217.219 121.75 216.336 121.525 215.586 121.075C214.852 120.608 214.286 119.958 213.886 119.125C213.486 118.275 213.286 117.275 213.286 116.125V109.1C213.286 108.933 213.344 108.792 213.461 108.675C213.577 108.558 213.719 108.5 213.886 108.5H216.086C216.269 108.5 216.411 108.558 216.511 108.675C216.627 108.792 216.686 108.933 216.686 109.1V115.975C216.686 118.042 217.594 119.075 219.411 119.075C220.277 119.075 220.961 118.8 221.461 118.25C221.977 117.7 222.236 116.942 222.236 115.975V109.1C222.236 108.933 222.294 108.792 222.411 108.675C222.527 108.558 222.669 108.5 222.836 108.5H225.036C225.202 108.5 225.344 108.558 225.461 108.675C225.577 108.792 225.636 108.933 225.636 109.1V120.9C225.636 121.067 225.577 121.208 225.461 121.325C225.344 121.442 225.202 121.5 225.036 121.5H223.011C222.827 121.5 222.677 121.442 222.561 121.325C222.461 121.208 222.411 121.067 222.411 120.9V119.875C221.961 120.458 221.402 120.917 220.736 121.25C220.069 121.583 219.236 121.75 218.236 121.75Z" fill="#16163A"/>
</svg>
