<?xml version="1.0" encoding="utf-8"?>
<!-- Generator: Adobe Illustrator 16.0.4, SVG Export Plug-In . SVG Version: 6.00 Build 0)  -->
<!DOCTYPE svg PUBLIC "-//W3C//DTD SVG 1.1//EN" "http://www.w3.org/Graphics/SVG/1.1/DTD/svg11.dtd">
<svg version="1.1" id="Layer_1" xmlns="http://www.w3.org/2000/svg" xmlns:xlink="http://www.w3.org/1999/xlink" x="0px" y="0px"
	 width="1024px" height="670px" viewBox="0 0 1024 670" enable-background="new 0 0 1024 670" xml:space="preserve">
<path fill="#373737" d="M91.022,444.081h6.584v-42.605h58.002v-6.585H91.022V444.081z M74.561,444.081h6.585v-90.054h9.877v30.986
	h64.587v-6.584h-58.1v-24.402h58.003v-6.584H97.51v-9.975h58.003v-6.584H74.561V444.081L74.561,444.081z M81.048,337.566h9.974
	v9.974h-9.974V337.566z M191.921,312.39l4.357-16.946l4.357,16.946h4.551l7.94-28.372h-5.422l-4.745,18.204l-4.648-18.204h-3.97
	l-4.745,18.301l-4.551-18.301h-5.52l7.94,28.372H191.921z M233.365,284.018h-5.326v28.372h5.326V284.018z M263.868,307.354h-9.393
	v-23.336h-5.326v28.372h14.719V307.354z M292.433,307.354h-9.393v-23.336h-5.326v28.372h14.718V307.354z M311.509,284.018h-5.326
	v28.372h5.326V284.018z M333.006,304.449h8.715l3.002,7.94h5.713l-10.555-27.888l-0.194-0.484h-4.454l-10.845,28.372h5.616
	L333.006,304.449L333.006,304.449z M337.46,291.861l2.518,7.553h-5.035L337.46,291.861z M378.808,303.481l-7.65-19.463h-7.359
	v28.372h5.326v-20.044l8.037,20.044h3.292l8.037-20.141v20.141h5.326v-28.372h-7.359L378.808,303.481L378.808,303.481z
	 M471.863,300.673h9.683v-5.035h-9.683v-6.682h9.683v-4.938h-15.009v28.372h5.326V300.673z M502.365,284.018h-5.326v28.372h14.719
	v-5.035h-9.393V284.018z M553.59,298.252c0-8.23-6.488-14.718-14.719-14.718c-8.134,0-14.719,6.584-14.719,14.718
	s6.585,14.719,14.719,14.719C546.908,312.874,553.59,306.289,553.59,298.252z M529.479,298.155c0-4.067,2.904-9.683,9.393-9.683
	c6.487,0,9.393,5.713,9.393,9.78c0,3.97-2.905,9.587-9.393,9.587C532.383,307.839,529.479,302.222,529.479,298.155z M586.803,312.39
	l-7.649-10.167c2.711-0.484,7.165-2.614,7.165-8.812c0-2.711-0.968-5.229-2.711-6.875c-1.743-1.743-4.164-2.421-7.649-2.421h-9.006
	v28.372h5.326v-11.232l7.94,11.136H586.803z M572.182,297.962v-8.909h3.485c3.873,0,5.326,2.227,5.326,4.357
	c0,3.002-2.228,4.551-6.778,4.551H572.182z M608.784,304.449h8.715l3.001,7.94h5.714l-10.555-27.888l-0.194-0.484h-4.454
	l-10.748,28.372h5.616L608.784,304.449z M613.238,291.861l2.518,7.553h-5.035L613.238,291.861L613.238,291.861z M229.977,363.323
	h-34.86v-30.502h-7.94v69.041h7.94v-31.276h34.86v31.276h7.94v-69.041h-7.94V363.323z M272.776,349.573
	c-14.912,0.29-27.113,12.588-27.113,27.5c0,15.01,12.201,26.048,27.21,26.048c11.523,0,21.884-6.101,25.661-17.042l0.193-0.678
	h-8.037l-0.097,0.29c-1.937,5.326-7.843,11.523-17.914,11.717c-9.683,0-18.592-8.134-19.27-17.526h46.576v-0.484
	c0.388-6.197-0.968-11.717-3.97-16.462C292.433,356.545,284.299,349.67,272.776,349.573L272.776,349.573z M253.507,373.007
	c1.937-10.846,11.135-16.462,19.366-16.462c7.843,0,17.236,5.133,19.463,16.462H253.507z M352.469,392.954l-11.523-35.925h-6.488
	l-11.426,35.925l-15.687-41.734l-0.097-0.291h-7.94l19.754,50.644l0.097,0.29h8.134l10.361-31.954l10.555,31.954h8.134l19.947-51.03
	h-7.843L352.469,392.954z M382.196,401.862h7.553v-69.041h-7.553V401.862z M423.641,349.573c-14.912,0.29-27.113,12.588-27.113,27.5
	c0,15.01,12.201,26.048,27.21,26.048c11.523,0,21.884-6.101,25.661-17.042l0.193-0.678h-8.037v0.29
	c-1.937,5.326-7.844,11.523-17.914,11.717c-9.684,0-18.592-8.134-19.27-17.526h46.576v-0.484c0.388-6.197-0.969-11.717-3.97-16.462
	C443.298,356.545,435.261,349.67,423.641,349.573L423.641,349.573z M404.371,373.007c1.937-10.846,11.136-16.462,19.366-16.462
	c7.844,0,17.236,5.133,19.464,16.462H404.371z M497.814,332.821h-7.554v18.011H469.83v-18.107h-7.554v18.107h-10.748v6.972h10.748
	v44.059h7.554v-44.059h20.431v44.059h7.554v-44.059h12.297v-6.972h-12.297V332.821L497.814,332.821z M901.313,401.862h7.553v-52.289
	h-7.553V401.862z M881.56,331.562h-7.553v18.107h-10.748v6.972h10.748v45.317h7.553v-45.317h12.298v-6.972H881.56V331.562
	L881.56,331.562z M1017.512,354.705c-4.454-4.454-9.586-6.391-16.558-6.391c-7.359,0-12.589,3.486-15.396,7.068v-5.713h-7.553
	v52.289h7.553V373.2c-0.097-5.81,1.55-10.748,4.647-13.653c4.067-3.97,9.297-4.261,10.749-4.261s6.681,0.291,10.748,4.261
	c3.002,2.905,4.745,7.844,4.745,13.653v28.662H1024V373.2C1024,365.26,1021.772,358.869,1017.512,354.705z M901.313,344.345h7.553
	v-12.782h-7.553V344.345z M849.509,357.707c-6.101-8.521-15.688-9.393-19.657-9.393c-17.526,0-28.081,13.847-28.081,27.307
	c0,15.396,12.297,27.5,28.081,27.5c3.873,0,13.362-0.968,19.657-9.393v8.134h7.553v-52.289h-7.553V357.707L849.509,357.707z
	 M829.948,396.149c-11.62,0-20.432-8.715-20.432-20.238c0-13.556,10.265-20.625,20.432-20.625c11.039,0,19.947,9.199,19.947,20.528
	C849.896,387.241,841.084,396.149,829.948,396.149z M944.21,348.314c-13.072,0-27.21,10.651-27.21,27.791
	c0,14.621,12.492,27.016,27.21,27.016c14.815,0,27.403-12.588,27.403-27.403C971.517,360.806,959.025,348.314,944.21,348.314
	L944.21,348.314z M944.307,396.149c-10.845,0-19.754-9.103-19.754-20.141c0-12.782,10.265-20.723,19.754-20.723
	c7.94,0,19.754,6.392,19.754,20.142C963.964,388.403,953.99,396.149,944.307,396.149z M600.553,348.314
	c-13.072,0-27.21,10.651-27.21,27.791c0,14.621,12.491,27.016,27.21,27.016c14.815,0,27.403-12.588,27.403-27.403
	C627.956,360.806,615.368,348.314,600.553,348.314L600.553,348.314z M600.649,396.149c-10.845,0-19.754-9.103-19.754-20.141
	c0-12.782,10.265-20.723,19.754-20.723c7.94,0,19.754,6.392,19.754,20.142C620.307,388.403,610.333,396.149,600.649,396.149z
	 M532.577,401.862h7.939v-31.664h27.113v-7.262h-27.113v-24.111h28.082v-7.263h-36.021V401.862L532.577,401.862z M788.795,357.61
	c-6.585-8.618-16.655-9.296-19.657-9.296c-17.526,0-28.081,13.847-28.081,27.307c0,15.396,12.298,27.5,28.081,27.5
	c6.197,0,14.428-2.518,19.657-9.393v8.134h7.553v-70.3h-7.553V357.61z M769.234,396.149c-11.62,0-20.432-8.715-20.432-20.238
	c0-13.556,10.265-20.625,20.432-20.625c11.039,0,19.947,9.199,19.947,20.528C789.182,387.241,780.37,396.149,769.234,396.149z
	 M672.306,377.17c0,9.103-2.421,12.298-5.229,15.01c-2.711,2.711-6.1,3.97-10.457,3.97c-4.842,0-8.715-1.549-11.523-4.647
	c-2.421-3.002-3.583-7.263-3.583-13.17V349.67h-7.553v28.76c0,7.358,1.55,13.072,4.648,16.849c2.323,2.904,7.843,7.843,18.011,7.843
	c9.489,0,14.137-5.132,16.074-8.037v6.875h7.165V349.67h-7.553V377.17L672.306,377.17z M712.104,348.314
	c-7.359,0-12.588,3.486-15.396,7.068v-5.713h-7.553v52.289h7.553V373.2c-0.097-5.81,1.55-10.748,4.648-13.653
	c4.066-3.97,9.296-4.261,10.748-4.261s6.682,0.291,10.748,4.261c3.002,2.905,4.745,7.844,4.745,13.653v28.662h7.553V373.2
	c0-7.94-2.227-14.234-6.487-18.398C724.208,350.251,719.075,348.314,712.104,348.314L712.104,348.314z"/>
<path fill="#737373" d="M0,347.346h6.584V225.918H0V347.346z M91.022,278.789h-9.974v-52.871h-6.488v52.871H22.853v-52.871h-6.585
	v59.455h58.293v9.877H16.461v51.999h6.584v-45.511h51.515v29.146h6.585v-29.05h9.877v29.146h6.584V226.016h-6.584V278.789z
	 M91.022,295.25h-9.974v-9.877h9.974V295.25z M432.259,295.638v-7.359h-5.229v7.359h-7.262v5.229h7.262v7.359h5.229v-7.359h7.263
	v-5.229H432.259z"/>
</svg>
