<?xml version="1.0" encoding="utf-8"?>
<!-- Generator: Adobe Illustrator 25.4.1, SVG Export Plug-In . SVG Version: 6.00 Build 0)  -->
<svg version="1.1" id="Layer_1" xmlns="http://www.w3.org/2000/svg" xmlns:xlink="http://www.w3.org/1999/xlink" x="0px" y="0px"
	 viewBox="0 0 116.49 110.426" enable-background="new 0 0 116.49 110.426" xml:space="preserve">
<g>
	<g>
		<g>
			<path id="XMLID_1775_" d="M21.189,90.103v-5.999c0-2.26-1.44-3.78-3.759-3.799c-1.22-0.02-2.48,0.36-3.359,1.7
				c-0.66-1.06-1.7-1.7-3.16-1.7c-1.02,0-2.02,0.3-2.8,1.42v-1.18h-2.08v9.559h2.1v-5.299c0-1.66,0.92-2.54,2.34-2.54
				c1.38,0,2.08,0.9,2.08,2.52v5.319h2.1v-5.299c0-1.66,0.96-2.54,2.34-2.54c1.42,0,2.1,0.9,2.1,2.52v5.319H21.189z M14.953,102.503
				H11.68v7.663H9.585v-7.663H7.669v-1.896h1.916v-1.616c0-1.916,0.968-3.442,3.203-3.442c1.117,0,1.956,0.299,2.664,0.718
				l-0.739,1.756c-0.488-0.279-1.157-0.509-1.785-0.509c-0.809,0-1.248,0.529-1.248,1.477v1.616h3.273V102.503z M25.959,105.397
				c0-2.864-2.195-5.029-5.149-5.029c-2.953,0-5.138,2.165-5.138,5.029c0,2.864,2.185,5.029,5.138,5.029
				C23.764,110.426,25.959,108.261,25.959,105.397 M17.817,105.397c0-1.806,1.287-3.063,2.993-3.063s3.003,1.257,3.003,3.063
				c0,1.806-1.297,3.063-3.003,3.063S17.817,107.203,17.817,105.397 M36.52,100.602h-2.095v5.318c0,1.846-1.028,2.525-2.335,2.525
				c-1.307,0-2.335-0.679-2.335-2.525v-5.318H27.66v5.508c0,3.043,2.185,4.3,4.43,4.3c2.235,0,4.43-1.257,4.43-4.3V100.602z
				 M47.972,104.158c0-2.235-1.606-3.802-3.881-3.802c-0.978,0-2.165,0.29-2.933,1.417v-1.167h-2.076v9.559h2.095v-5.299
				c0-1.636,1.128-2.524,2.475-2.524c1.397,0,2.225,0.898,2.225,2.505v5.318h2.095V104.158 M71.513,100.607h-2.086v1.158
				c-0.658-0.848-1.646-1.407-3.003-1.407c-2.674,0-4.779,2.106-4.779,5.029c0,2.924,2.105,5.029,4.779,5.029
				c1.357,0,2.345-0.549,3.003-1.397v1.147h2.086V100.607z M63.79,105.386c0-1.677,1.088-3.063,2.884-3.063
				c1.725,0,2.883,1.317,2.883,3.063c0,1.746-1.158,3.063-2.883,3.063C64.878,108.45,63.79,107.062,63.79,105.386 M97.526,105.397
				c0-2.864-2.195-5.029-5.149-5.029c-2.953,0-5.138,2.165-5.138,5.029c0,2.864,2.185,5.029,5.138,5.029
				C95.331,110.426,97.526,108.261,97.526,105.397 M89.385,105.397c0-1.806,1.287-3.063,2.993-3.063s3.004,1.257,3.004,3.063
				c0,1.806-1.298,3.063-3.004,3.063S89.385,107.203,89.385,105.397 M108.343,104.158c0-2.235-1.606-3.802-3.881-3.802
				c-0.978,0-2.165,0.29-2.933,1.417v-1.167h-2.076v9.559h2.095v-5.299c0-1.636,1.128-2.524,2.475-2.524
				c1.397,0,2.225,0.898,2.225,2.505v5.318h2.095V104.158 M80.625,100.594h-3.371v-2.876h-2.083v2.876h-1.924v1.884h1.924v4.324
				c0,2.201,0.853,3.51,3.292,3.51c0.893,0,1.924-0.278,2.579-0.734l-0.595-1.765c-0.615,0.357-1.29,0.536-1.825,0.536
				c-1.031,0-1.368-0.635-1.368-1.587v-4.284h3.371V100.594z M59.695,96.756v8.626v4.783h-2.082v-1.16
				c-0.66,0.86-1.661,1.401-3.022,1.401c-2.682,0-4.784-2.102-4.784-5.024c0-2.922,2.102-5.024,4.784-5.024
				c1.361,0,2.362,0.541,3.022,1.401v-5.003H59.695z M54.851,108.444c1.721,0,2.882-1.321,2.882-3.062
				c0-1.741-1.161-3.062-2.882-3.062c-1.801,0-2.902,1.381-2.902,3.062S53.05,108.444,54.851,108.444 M85.314,100.594h-2.102v9.571
				h2.102V100.594z M84.253,95.982c-0.841,0-1.462,0.641-1.462,1.482c0,0.821,0.621,1.462,1.462,1.462
				c0.821,0,1.482-0.641,1.482-1.462C85.735,96.623,85.074,95.982,84.253,95.982 M52.265,80.544h-3.4v-2.9h-2.1v2.9h-1.94v1.9h1.94
				v4.359c0,2.22,0.86,3.54,3.319,3.54c0.9,0,1.94-0.28,2.6-0.74l-0.6-1.78c-0.62,0.36-1.3,0.54-1.84,0.54
				c-1.04,0-1.38-0.64-1.38-1.6v-4.319h3.4V80.544z M70.003,80.304c-1.2,0-1.98,0.56-2.52,1.4v-1.16h-2.06v9.559h2.08v-5.359
				c0-1.58,0.68-2.46,2.04-2.46c0.42,0,0.86,0.06,1.3,0.24l0.64-1.96C71.022,80.384,70.423,80.304,70.003,80.304L70.003,80.304z
				 M43.186,81.304c-1-0.66-2.38-1-3.899-1c-2.42,0-3.979,1.16-3.979,3.06c0,1.56,1.16,2.52,3.299,2.82l0.98,0.14
				c1.14,0.16,1.68,0.46,1.68,1c0,0.74-0.76,1.16-2.18,1.16c-1.44,0-2.48-0.46-3.18-1l-0.98,1.62c1.14,0.84,2.58,1.24,4.139,1.24
				c2.76,0,4.359-1.3,4.359-3.12c0-1.68-1.26-2.56-3.339-2.86l-0.98-0.14c-0.9-0.12-1.62-0.3-1.62-0.94c0-0.7,0.68-1.12,1.82-1.12
				c1.22,0,2.4,0.46,2.98,0.82L43.186,81.304z M98.899,80.304c-1.2,0-1.98,0.56-2.52,1.4v-1.16h-2.06v9.559h2.08v-5.359
				c0-1.58,0.68-2.46,2.04-2.46c0.42,0,0.86,0.06,1.3,0.24l0.64-1.96C99.918,80.384,99.318,80.304,98.899,80.304L98.899,80.304z
				 M72.102,85.323c0,2.9,2.02,5.02,5.1,5.02c1.44,0,2.399-0.32,3.439-1.14l-1-1.68c-0.78,0.56-1.6,0.86-2.5,0.86
				c-1.66-0.02-2.88-1.22-2.88-3.06c0-1.84,1.22-3.039,2.88-3.059c0.9,0,1.72,0.3,2.5,0.86l1-1.68c-1.04-0.82-2-1.14-3.439-1.14
				C74.122,80.304,72.102,82.424,72.102,85.323L72.102,85.323z M91.58,85.323v-4.779H89.5v1.16c-0.66-0.86-1.66-1.4-3.02-1.4
				c-2.68,0-4.779,2.1-4.779,5.019c0,2.92,2.1,5.02,4.779,5.02c1.36,0,2.36-0.54,3.02-1.4v1.16h2.08V85.323z M83.841,85.323
				c0-1.68,1.1-3.059,2.9-3.059c1.72,0,2.88,1.32,2.88,3.059c0,1.74-1.16,3.06-2.88,3.06C84.94,88.383,83.841,87.003,83.841,85.323
				L83.841,85.323z M58.744,80.304c-2.8,0-4.759,2.04-4.759,5.019c0,3.04,2.04,5.02,4.899,5.02c1.44,0,2.76-0.36,3.919-1.34
				l-1.02-1.54c-0.8,0.64-1.82,1-2.78,1c-1.34,0-2.56-0.62-2.86-2.34h7.099c0.02-0.26,0.04-0.52,0.04-0.8
				C63.264,82.344,61.424,80.304,58.744,80.304L58.744,80.304z M58.704,82.164c1.34,0,2.2,0.84,2.42,2.32h-4.959
				C56.384,83.103,57.224,82.164,58.704,82.164L58.704,82.164z M110.877,85.323v-8.618h-2.08v4.999c-0.66-0.86-1.66-1.4-3.02-1.4
				c-2.68,0-4.779,2.1-4.779,5.019c0,2.92,2.1,5.02,4.779,5.02c1.36,0,2.36-0.54,3.02-1.4v1.16h2.08V85.323z M103.138,85.323
				c0-1.68,1.1-3.059,2.9-3.059c1.72,0,2.879,1.32,2.879,3.059c0,1.74-1.16,3.06-2.879,3.06
				C104.238,88.383,103.138,87.003,103.138,85.323L103.138,85.323z M32.908,85.323v-4.779h-2.08v1.16c-0.66-0.86-1.66-1.4-3.02-1.4
				c-2.68,0-4.779,2.1-4.779,5.019c0,2.92,2.1,5.02,4.779,5.02c1.36,0,2.36-0.54,3.02-1.4v1.16h2.08V85.323z M25.169,85.323
				c0-1.68,1.1-3.059,2.899-3.059c1.72,0,2.88,1.32,2.88,3.059c0,1.74-1.16,3.06-2.88,3.06
				C26.269,88.383,25.169,87.003,25.169,85.323z"/>
		</g>
		<g id="XMLID_328_">
			<rect x="42.495" y="7.697" fill="#7A7A7A" width="31.5" height="56.606"/>
			<path id="XMLID_330_" fill="#404040" d="M44.495,36c0-11.484,5.377-21.711,13.75-28.303C52.122,2.876,44.395,0,35.997,0
				C16.117,0,0,16.118,0,36c0,19.882,16.117,36,35.997,36c8.398,0,16.124-2.876,22.248-7.697C49.872,57.711,44.495,47.484,44.495,36
				z"/>
			<path d="M113.056,58.308v-1.159h0.467v-0.236h-1.19v0.236h0.467v1.159H113.056z M115.366,58.308V56.91h-0.365l-0.42,0.961
				l-0.42-0.961h-0.365v1.397h0.258v-1.054l0.394,0.909h0.267l0.393-0.911v1.056H115.366z"/>
			<path fill="#B8B8B8" d="M116.49,36c0,19.882-16.117,36-35.997,36c-8.398,0-16.124-2.876-22.248-7.697
				c8.373-6.592,13.75-16.819,13.75-28.303s-5.377-21.711-13.75-28.303C64.369,2.876,72.095,0,80.493,0
				C100.374,0,116.49,16.118,116.49,36z"/>
		</g>
	</g>
</g>
</svg>
