<?xml version="1.0" encoding="UTF-8"?><svg id="Layer_1" xmlns="http://www.w3.org/2000/svg" width="64.99" height="64.886" viewBox="0 0 64.99 64.886"><defs><style>.cls-1{fill:#e01e5a;}.cls-1,.cls-2{stroke-width:0px;}.cls-2{fill:#fff;}</style></defs><polygon class="cls-1" points="-.005 -.057 20.741 -.057 64.995 44.164 64.995 64.943 -.005 -.057"/><path class="cls-2" d="M30.402,25.525l-.73-.731,1.471-7.024-4.242,4.248-.73-.731,5.504-5.513.73.731-1.482,7.05,4.26-4.267.722.723-5.504,5.513Z"/><path class="cls-2" d="M37.347,27.384l-2.385-2.389-1.951,1.954,2.771,2.775-.594.594-3.497-3.502,5.504-5.513,3.459,3.465-.594.594-2.733-2.738-1.773,1.776,2.385,2.389-.594.594Z"/><path class="cls-2" d="M39.014,30.674l-.62.833.809-.5,4.93-2.757.612.613-2.779,4.911-.514.818.858-.625,4.62-2.916.73.731-6.839,4.176-.662-.663,2.877-5.153.333-.507-.507.333-5.187,2.84-.662-.663,4.174-6.846.726.727-2.9,4.646Z"/><path class="cls-2" d="M43.282,37.713c.115-.115.245-.176.392-.185.147-.008.289.056.425.192s.201.279.194.427c-.007.148-.068.28-.182.395s-.245.174-.39.179c-.146.004-.287-.061-.423-.198s-.201-.277-.196-.421c.006-.144.066-.274.18-.389ZM45.194,37.215l-.631-.632,3.895-4,.733.735-3.997,3.898Z"/></svg>