<?xml version="1.0" encoding="UTF-8"?><svg id="Layer_1" xmlns="http://www.w3.org/2000/svg" width="64.99" height="64.89" viewBox="0 0 64.99 64.89"><defs><style>.cls-1,.cls-2,.cls-3{stroke-width:0px;}.cls-2{fill:#fff;}.cls-3{fill:#e6e6e6;}</style></defs><polygon class="cls-2" points="20.75 0 65 44.14 65 0 20.75 0"/><rect class="cls-2" x="46.9" y="7.72" width="13.51" height="14.1" transform="translate(68.42 -38.89) rotate(90)"/><path class="cls-1" d="M60.7,22h-14.1c-.26,0-.48-.21-.48-.48v-13.51c0-.26.21-.48.48-.48h14.1c.26,0,.48.21.48.48v13.51c0,.26-.21.48-.48.48ZM47.08,21.05h13.15v-12.56h-13.15v12.56Z"/><rect class="cls-2" x="51.22" y="2.09" width="4.87" height="16.72" transform="translate(64.1 -43.21) rotate(90)"/><path class="cls-1" d="M62.01,7.53h-16.72c-.26,0-.48.21-.48.48v4.87c0,.26.21.48.48.48h7.88v8.17h.95v-8.17h7.88c.26,0,.48-.21.48-.48v-4.87c0-.26-.21-.48-.48-.48ZM45.77,12.4v-3.92h7.41v3.92h-7.41ZM61.54,12.4h-7.41v-3.92h7.41v3.92Z"/><path class="cls-2" d="M53.65,7.09c2.34,0,3.6.11,5.19-.91,1.27-.81,1.25-1.67.9-2.47-.38-.84-1.15-1.23-1.96-1.23-.9,0-1.65.47-2.33,1.19-.82.87-1.8,3.42-1.8,3.42Z"/><path class="cls-2" d="M53.65,7.09c-2.34,0-3.6.11-5.19-.91-1.27-.81-1.25-1.67-.9-2.47.38-.84,1.15-1.23,1.96-1.23.9,0,1.65.47,2.33,1.19.82.87,1.8,3.42,1.8,3.42Z"/><path class="cls-1" d="M60.18,3.51c-.42-.95-1.32-1.51-2.4-1.51-.95,0-1.82.44-2.67,1.34-.52.55-1.07,1.67-1.45,2.52-.37-.84-.93-1.96-1.45-2.52-.85-.9-1.73-1.34-2.67-1.34-1.08,0-1.97.57-2.4,1.51-.55,1.23-.18,2.26,1.08,3.06,1.42.91,2.62.99,4.3.99.18,0,.36,0,.55,0h.6s.6,0,.6,0c.19,0,.37,0,.55,0,1.68,0,2.89-.08,4.3-.99,1.26-.81,1.62-1.84,1.08-3.06ZM48.72,5.78c-1-.64-1.01-1.22-.72-1.88.27-.6.83-.95,1.53-.95s1.31.33,1.98,1.04c.48.5,1.07,1.76,1.44,2.62-1.88,0-2.92,0-4.23-.84ZM58.59,5.78c-1.31.84-2.36.84-4.23.84.37-.86.96-2.12,1.44-2.62.67-.71,1.3-1.04,1.98-1.04s1.26.35,1.53.95c.3.66.29,1.23-.72,1.87Z"/><polygon class="cls-3" points="64.99 44.08 20.82 0 19.76 0 64.99 45.14 64.99 44.08"/></svg>