<?xml version="1.0" encoding="UTF-8"?>
<svg xmlns="http://www.w3.org/2000/svg" width="176.82mm" height="94.07mm" xmlns:xlink="http://www.w3.org/1999/xlink" viewBox="0 0 501.21 266.66">
  <defs>
    <style>
      .cls-1 {
        fill: #da1a32;
      }

      .cls-1, .cls-2, .cls-3, .cls-4, .cls-5, .cls-6 {
        stroke-width: 0px;
      }

      .cls-7 {
        isolation: isolate;
      }

      .cls-2 {
        fill: url(#linear-gradient-4);
      }

      .cls-2, .cls-4, .cls-5, .cls-6 {
        mix-blend-mode: multiply;
      }

      .cls-3 {
        fill: #231f20;
      }

      .cls-4 {
        fill: url(#linear-gradient);
      }

      .cls-5 {
        fill: url(#linear-gradient-2);
      }

      .cls-6 {
        fill: url(#linear-gradient-3);
      }
    </style>
    <linearGradient id="linear-gradient" x1="290.82" y1="161.33" x2="450.76" y2="161.33" gradientUnits="userSpaceOnUse">
      <stop offset="0" stop-color="#231f20" stop-opacity=".25"/>
      <stop offset=".02" stop-color="#353132" stop-opacity=".23"/>
      <stop offset=".3" stop-color="#fff" stop-opacity="0"/>
      <stop offset=".7" stop-color="#fff" stop-opacity="0"/>
      <stop offset="1" stop-color="#231f20" stop-opacity=".25"/>
    </linearGradient>
    <linearGradient id="linear-gradient-2" x1="427.53" y1="99.34" x2="501.21" y2="99.34" xlink:href="#linear-gradient"/>
    <linearGradient id="linear-gradient-3" x1="112.53" y1="99.34" x2="450.75" y2="99.34" xlink:href="#linear-gradient"/>
    <linearGradient id="linear-gradient-4" x1="0" y1="110.74" x2="105.08" y2="110.74" xlink:href="#linear-gradient"/>
  </defs>
  <g class="cls-7">
    <g id="Layer_2" data-name="Layer 2">
      <g id="Layer_1-2" data-name="Layer 1">
        <g>
          <g>
            <g>
              <path class="cls-1" d="m387.44,176.73c-34.11,0-63.01-22.1-73.31-52.75-4.08,16.38-12.13,31.78-23.3,44.58,18.05,18.55,43.24,30.11,71.17,30.11,38.88,0,72.45-22.39,88.76-54.92-14,19.92-37.12,32.97-63.32,32.97Z"/>
              <polygon class="cls-1" points="501.21 76.17 473.07 85.02 455.67 61.78 455.67 90.51 427.53 99.36 455.67 108.22 455.67 136.9 473.04 113.7 501.21 122.57 483.83 99.35 501.21 76.17"/>
              <polygon class="cls-1" points="73.76 0 0 38.18 22.71 77.62 45.64 65.99 45.64 221.47 105.08 176.85 105.08 29.19 73.76 0"/>
              <path class="cls-1" d="m361.99,0c-45.37,0-83.52,30.47-95.39,72.03-.18.62-.33,1.25-.5,1.87-.56,2.11-1.09,4.23-1.51,6.4-.27,1.36-.45,2.74-.66,4.11-.24,1.57-.52,3.12-.68,4.7-.32,3.04-.51,6.1-.63,9.32,0,.25.03.5.04,1.05-.08,27.98-22.79,50.64-50.79,50.64s-50.79-22.74-50.79-50.79,22.74-50.79,50.79-50.79c20.48,0,38.08,12.14,46.12,29.6,3.68-17.97,12.08-34.69,24.43-48.72C264.42,11.26,239.47,0,211.87,0c-54.86,0-99.34,44.48-99.34,99.34s44.48,99.34,99.34,99.34c30.01,0,56.85-13.36,75.06-34.4.11-.13.23-.24.34-.37,1.25-1.47,2.44-2.99,3.61-4.52.45-.59.9-1.18,1.33-1.78,1.24-1.72,2.45-3.47,3.58-5.26.19-.3.36-.6.55-.9,3.47-5.63,6.35-11.6,8.66-17.77.36-.98.75-1.96,1.08-2.95.45-1.32.84-2.67,1.23-4.01.58-2.01,1.12-4.03,1.57-6.09.14-.6.28-1.2.41-1.8,2-9.72.22-19.4,1.44-29.17,4.78-38.16,37.27-67.7,76.72-67.7,26.2,0,49.31,13.05,63.31,32.97C434.44,22.39,400.87,0,361.99,0Z"/>
            </g>
            <path class="cls-4" d="m387.44,176.73c-34.11,0-63.01-22.1-73.31-52.75-4.08,16.38-12.13,31.78-23.3,44.58,18.05,18.55,43.24,30.11,71.17,30.11,38.88,0,72.45-22.39,88.76-54.92-14,19.92-37.12,32.97-63.32,32.97Z"/>
            <polygon class="cls-5" points="501.21 76.17 473.07 85.02 455.67 61.78 455.67 90.51 427.53 99.36 455.67 108.22 455.67 136.9 473.04 113.7 501.21 122.57 483.83 99.35 501.21 76.17"/>
            <path class="cls-6" d="m361.99,0c-45.37,0-83.52,30.47-95.39,72.03-.18.62-.33,1.25-.5,1.87-.56,2.11-1.09,4.23-1.51,6.4-.27,1.36-.45,2.74-.66,4.11-.24,1.57-.52,3.12-.68,4.7-.32,3.04-.51,6.1-.63,9.32,0,.25.03.5.04,1.05-.08,27.98-22.79,50.64-50.79,50.64s-50.79-22.74-50.79-50.79,22.74-50.79,50.79-50.79c20.48,0,38.08,12.14,46.12,29.6,3.68-17.97,12.08-34.69,24.43-48.72C264.42,11.26,239.47,0,211.87,0c-54.86,0-99.34,44.48-99.34,99.34s44.48,99.34,99.34,99.34c30.01,0,56.85-13.36,75.06-34.4.11-.13.23-.24.34-.37,1.25-1.47,2.44-2.99,3.61-4.52.45-.59.9-1.18,1.33-1.78,1.24-1.72,2.45-3.47,3.58-5.26.19-.3.36-.6.55-.9,3.47-5.63,6.35-11.6,8.66-17.77.36-.98.75-1.96,1.08-2.95.45-1.32.84-2.67,1.23-4.01.58-2.01,1.12-4.03,1.57-6.09.14-.6.28-1.2.41-1.8,2-9.72.22-19.4,1.44-29.17,4.78-38.16,37.27-67.7,76.72-67.7,26.2,0,49.31,13.05,63.31,32.97C434.44,22.39,400.87,0,361.99,0Z"/>
            <polygon class="cls-2" points="73.76 0 0 38.18 22.71 77.62 45.64 65.99 45.64 221.47 105.08 176.85 105.08 29.19 73.76 0"/>
          </g>
          <g>
            <path class="cls-3" d="m50.37,266.37c-.19,0-.32-.13-.32-.32v-18.06c0-.13-.06-.19-.19-.19h-3.31c-.19,0-.32-.13-.32-.32v-2.45c0-.19.13-.32.32-.32h10.42c.19,0,.32.13.32.32v2.45c0,.19-.13.32-.32.32h-3.31c-.13,0-.19.06-.19.19v18.06c0,.19-.13.32-.32.32h-2.77Z"/>
            <path class="cls-3" d="m59.38,260.86v-15.83c0-.19.13-.32.32-.32h2.77c.19,0,.32.13.32.32v16.28c0,1.37.73,2.26,2.01,2.26s1.98-.89,1.98-2.26v-16.28c0-.19.13-.32.32-.32h2.77c.19,0,.32.13.32.32v15.83c0,3.86-2.04,5.8-5.38,5.8s-5.42-1.94-5.42-5.8Zm1.94-18.99c-.19,0-.32-.13-.32-.32v-2.74c0-.19.13-.32.32-.32h2.07c.19,0,.32.13.32.32v2.74c0,.19-.13.32-.32.32h-2.07Zm4.84,0c-.19,0-.32-.13-.32-.32v-2.74c0-.19.13-.32.32-.32h2.07c.19,0,.32.13.32.32v2.74c0,.19-.13.32-.32.32h-2.07Z"/>
            <path class="cls-3" d="m81.75,266.37c-.19,0-.29-.06-.35-.22l-2.64-8.63h-1.62c-.13,0-.19.06-.19.19v8.35c0,.19-.13.32-.32.32h-2.77c-.19,0-.32-.13-.32-.32v-21.03c0-.19.13-.32.32-.32h4.37c3.86,0,6.18,1.69,6.18,6.44,0,2.84-.96,4.62-2.58,5.54l3.06,9.37c.06.16,0,.32-.16.32h-2.96Zm-.76-15.23c0-2.55-.83-3.34-2.74-3.34h-1.12c-.13,0-.19.06-.19.19v6.31c0,.13.06.19.19.19h1.12c1.91,0,2.74-.76,2.74-3.35Z"/>
            <path class="cls-3" d="m87.42,245.03c0-.19.13-.32.32-.32h2.77c.19,0,.32.13.32.32v8.95l4.37-9.02c.1-.19.19-.25.41-.25h2.9c.16,0,.25.16.16.32l-4.33,8.44,5,12.58c.06.16,0,.32-.16.32h-2.96c-.19,0-.29-.06-.35-.22l-3.6-9.14-1.43,2.96v6.09c0,.19-.13.32-.32.32h-2.77c-.19,0-.32-.13-.32-.32v-21.03Z"/>
            <path class="cls-3" d="m101.47,245.03c0-.19.13-.32.32-.32h2.77c.19,0,.32.13.32.32v21.03c0,.19-.13.32-.32.32h-2.77c-.19,0-.32-.13-.32-.32v-21.03Zm.41-3.15c-.19,0-.32-.13-.32-.32v-2.74c0-.19.13-.32.32-.32h2.61c.19,0,.32.13.32.32v2.74c0,.19-.13.32-.32.32h-2.61Z"/>
            <path class="cls-3" d="m111.35,266.37c-.19,0-.32-.13-.32-.32v-8.57l-4.14-12.46c-.06-.19,0-.32.25-.32h2.8c.22,0,.32.1.38.32l2.42,8.38h.1l2.36-8.38c.06-.22.16-.32.38-.32h2.74c.25,0,.32.13.25.32l-4.14,12.46v8.57c0,.19-.13.32-.32.32h-2.77Z"/>
            <path class="cls-3" d="m120.55,245.03c0-.19.13-.32.32-.32h8.89c.19,0,.32.13.32.32v2.45c0,.19-.13.32-.32.32h-5.61c-.13,0-.19.06-.19.19v5.7c0,.13.06.19.19.19h4.84c.19,0,.32.13.32.32v2.45c0,.19-.13.32-.32.32h-4.84c-.13,0-.19.06-.19.19v5.93c0,.13.06.19.19.19h5.61c.19,0,.32.13.32.32v2.45c0,.19-.13.32-.32.32h-8.89c-.19,0-.32-.13-.32-.32v-21.03Z"/>
            <path class="cls-3" d="m138.49,255.54c0-6.02.13-6.91.41-7.81.67-2.07,2.26-3.31,4.91-3.31,3.09,0,5.03,1.59,5.22,5.19.03.19-.03.35-.22.38l-2.58.45c-.19.03-.35-.06-.35-.29-.1-1.85-.73-2.64-1.98-2.64-.96,0-1.47.41-1.72,1.21-.16.51-.22.96-.22,6.82s.06,6.31.22,6.82c.25.8.76,1.21,1.72,1.21,1.24,0,1.88-.8,1.98-2.64,0-.22.16-.32.35-.29l2.58.45c.19.03.25.19.22.38-.19,3.6-2.13,5.19-5.22,5.19-2.64,0-4.24-1.24-4.91-3.31-.29-.89-.41-1.78-.41-7.8Z"/>
            <path class="cls-3" d="m151.17,260.86v-15.83c0-.19.13-.32.32-.32h2.77c.19,0,.32.13.32.32v16.28c0,1.37.73,2.26,2.01,2.26s1.98-.89,1.98-2.26v-16.28c0-.19.13-.32.32-.32h2.77c.19,0,.32.13.32.32v15.83c0,3.86-2.04,5.8-5.38,5.8s-5.42-1.94-5.42-5.8Z"/>
            <path class="cls-3" d="m165.32,245.03c0-.19.13-.32.32-.32h2.77c.29,0,.45.1.51.32l3.6,12.2h.13l3.5-12.2c.06-.22.22-.32.51-.32h2.74c.19,0,.32.13.32.32v21.03c0,.19-.13.32-.32.32h-2.45c-.19,0-.32-.13-.32-.32v-13.7h-.19l-2.8,9.84c-.06.19-.19.32-.41.32h-1.4c-.22,0-.35-.13-.41-.32l-2.8-9.84h-.19v13.7c0,.19-.13.32-.32.32h-2.45c-.19,0-.32-.13-.32-.32v-21.03Z"/>
            <path class="cls-3" d="m183.09,245.03c0-.19.13-.32.32-.32h2.77c.19,0,.32.13.32.32v8.54c0,.13.06.19.19.19h3.66c.13,0,.19-.06.19-.19v-8.54c0-.19.13-.32.32-.32h2.77c.19,0,.32.13.32.32v21.03c0,.19-.13.32-.32.32h-2.77c-.19,0-.32-.13-.32-.32v-9.02c0-.13-.06-.19-.19-.19h-3.66c-.13,0-.19.06-.19.19v9.02c0,.19-.13.32-.32.32h-2.77c-.19,0-.32-.13-.32-.32v-21.03Z"/>
            <path class="cls-3" d="m197.3,260.86v-15.83c0-.19.13-.32.32-.32h2.77c.19,0,.32.13.32.32v16.28c0,1.37.73,2.26,2.01,2.26s1.97-.89,1.97-2.26v-16.28c0-.19.13-.32.32-.32h2.77c.19,0,.32.13.32.32v15.83c0,3.86-2.04,5.8-5.38,5.8s-5.42-1.94-5.42-5.8Z"/>
            <path class="cls-3" d="m219.67,266.37c-.19,0-.29-.06-.35-.22l-2.64-8.63h-1.62c-.13,0-.19.06-.19.19v8.35c0,.19-.13.32-.32.32h-2.77c-.19,0-.32-.13-.32-.32v-21.03c0-.19.13-.32.32-.32h4.36c3.86,0,6.18,1.69,6.18,6.44,0,2.84-.96,4.62-2.58,5.54l3.06,9.37c.06.16,0,.32-.16.32h-2.96Zm-.76-15.23c0-2.55-.83-3.34-2.74-3.34h-1.12c-.13,0-.19.06-.19.19v6.31c0,.13.06.19.19.19h1.12c1.91,0,2.74-.76,2.74-3.35Z"/>
            <path class="cls-3" d="m225.34,245.03c0-.19.13-.32.32-.32h2.77c.19,0,.32.13.32.32v21.03c0,.19-.13.32-.32.32h-2.77c-.19,0-.32-.13-.32-.32v-21.03Zm.41-3.15c-.19,0-.32-.13-.32-.32v-2.74c0-.19.13-.32.32-.32h2.61c.19,0,.32.13.32.32v2.74c0,.19-.13.32-.32.32h-2.61Z"/>
            <path class="cls-3" d="m235.22,266.37c-.19,0-.32-.13-.32-.32v-8.57l-4.14-12.46c-.06-.19,0-.32.25-.32h2.8c.22,0,.32.1.38.32l2.42,8.38h.1l2.36-8.38c.06-.22.16-.32.38-.32h2.74c.25,0,.32.13.25.32l-4.14,12.46v8.57c0,.19-.13.32-.32.32h-2.77Z"/>
            <path class="cls-3" d="m244.42,245.03c0-.19.13-.32.32-.32h8.89c.19,0,.32.13.32.32v2.45c0,.19-.13.32-.32.32h-5.61c-.13,0-.19.06-.19.19v5.7c0,.13.06.19.19.19h4.84c.19,0,.32.13.32.32v2.45c0,.19-.13.32-.32.32h-4.84c-.13,0-.19.06-.19.19v5.93c0,.13.06.19.19.19h5.61c.19,0,.32.13.32.32v2.45c0,.19-.13.32-.32.32h-8.89c-.19,0-.32-.13-.32-.32v-21.03Z"/>
            <path class="cls-3" d="m259.46,266.37c-.19,0-.32-.13-.32-.32v-18.06c0-.13-.06-.19-.19-.19h-3.31c-.19,0-.32-.13-.32-.32v-2.45c0-.19.13-.32.32-.32h10.42c.19,0,.32.13.32.32v2.45c0,.19-.13.32-.32.32h-3.31c-.13,0-.19.06-.19.19v18.06c0,.19-.13.32-.32.32h-2.77Z"/>
            <path class="cls-3" d="m268.51,245.03c0-.19.13-.32.32-.32h2.77c.19,0,.32.13.32.32v21.03c0,.19-.13.32-.32.32h-2.77c-.19,0-.32-.13-.32-.32v-21.03Zm.41-3.15c-.19,0-.32-.13-.32-.32v-2.74c0-.19.13-.32.32-.32h2.61c.19,0,.32.13.32.32v2.74c0,.19-.13.32-.32.32h-2.61Z"/>
            <path class="cls-3" d="m274.88,250.35v-5.32c0-.19.13-.32.32-.32h1.75c.19,0,.32.13.32.32v5.32c0,.19-.13.32-.32.32h-1.75c-.19,0-.32-.13-.32-.32Z"/>
            <path class="cls-3" d="m280.23,245.03c0-.19.13-.32.32-.32h3.38c.25,0,.38.1.45.32l4.01,14.97h.16v-14.97c0-.19.13-.32.32-.32h2.36c.19,0,.32.13.32.32v21.03c0,.19-.13.32-.32.32h-3.15c-.25,0-.38-.1-.45-.32l-4.21-14.97h-.19v14.97c0,.19-.13.32-.32.32h-2.36c-.19,0-.32-.13-.32-.32v-21.03Z"/>
            <path class="cls-3" d="m294.92,245.03c0-.19.13-.32.32-.32h2.77c.19,0,.32.13.32.32v21.03c0,.19-.13.32-.32.32h-2.77c-.19,0-.32-.13-.32-.32v-21.03Zm.41-3.15c-.19,0-.32-.13-.32-.32v-2.74c0-.19.13-.32.32-.32h2.61c.19,0,.32.13.32.32v2.74c0,.19-.13.32-.32.32h-2.61Z"/>
            <path class="cls-3" d="m301.71,245.03c0-.19.13-.32.32-.32h3.38c.25,0,.38.1.45.32l4.01,14.97h.16v-14.97c0-.19.13-.32.32-.32h2.36c.19,0,.32.13.32.32v21.03c0,.19-.13.32-.32.32h-3.15c-.25,0-.38-.1-.45-.32l-4.21-14.97h-.19v14.97c0,.19-.13.32-.32.32h-2.36c-.19,0-.32-.13-.32-.32v-21.03Z"/>
            <path class="cls-3" d="m325.09,266.37c-.19,0-.32-.13-.32-.32v-8.57l-4.14-12.46c-.06-.19,0-.32.26-.32h2.8c.22,0,.32.1.38.32l2.42,8.38h.09l2.36-8.38c.06-.22.16-.32.38-.32h2.74c.25,0,.32.13.25.32l-4.14,12.46v8.57c0,.19-.13.32-.32.32h-2.77Z"/>
            <path class="cls-3" d="m334.27,260.86v-15.83c0-.19.13-.32.32-.32h2.77c.19,0,.32.13.32.32v16.28c0,1.37.73,2.26,2.01,2.26s1.97-.89,1.97-2.26v-16.28c0-.19.13-.32.32-.32h2.77c.19,0,.32.13.32.32v15.83c0,3.86-2.04,5.8-5.38,5.8s-5.42-1.94-5.42-5.8Zm1.94-18.99c-.19,0-.32-.13-.32-.32v-2.74c0-.19.13-.32.32-.32h2.07c.19,0,.32.13.32.32v2.74c0,.19-.13.32-.32.32h-2.07Zm4.84,0c-.19,0-.32-.13-.32-.32v-2.74c0-.19.13-.32.32-.32h2.07c.19,0,.32.13.32.32v2.74c0,.19-.13.32-.32.32h-2.07Z"/>
            <path class="cls-3" d="m348.16,266.37c-.19,0-.32-.13-.32-.32v-2.29c0-.13.03-.22.06-.32l5.96-15.58v-.06h-5.38c-.19,0-.32-.13-.32-.32v-2.45c0-.19.13-.32.32-.32h8.63c.19,0,.32.13.32.32v2.36c0,.13-.03.22-.06.32l-5.86,15.52v.06h5.61c.19,0,.32.13.32.32v2.45c0,.19-.13.32-.32.32h-8.95Z"/>
            <path class="cls-3" d="m360.17,260.86v-15.83c0-.19.13-.32.32-.32h2.77c.19,0,.32.13.32.32v16.28c0,1.37.73,2.26,2.01,2.26s1.98-.89,1.98-2.26v-16.28c0-.19.13-.32.32-.32h2.77c.19,0,.32.13.32.32v15.83c0,3.86-2.04,5.8-5.38,5.8s-5.42-1.94-5.42-5.8Zm1.94-18.99c-.19,0-.32-.13-.32-.32v-2.74c0-.19.13-.32.32-.32h2.07c.19,0,.32.13.32.32v2.74c0,.19-.13.32-.32.32h-2.07Zm4.84,0c-.19,0-.32-.13-.32-.32v-2.74c0-.19.13-.32.32-.32h2.07c.19,0,.32.13.32.32v2.74c0,.19-.13.32-.32.32h-2.07Z"/>
            <path class="cls-3" d="m374.32,245.03c0-.19.13-.32.32-.32h3.38c.25,0,.38.1.45.32l4.01,14.97h.16v-14.97c0-.19.13-.32.32-.32h2.36c.19,0,.32.13.32.32v21.03c0,.19-.13.32-.32.32h-3.15c-.25,0-.38-.1-.45-.32l-4.21-14.97h-.19v14.97c0,.19-.13.32-.32.32h-2.36c-.19,0-.32-.13-.32-.32v-21.03Z"/>
            <path class="cls-3" d="m388.62,255.54c0-6.02.13-6.91.41-7.81.67-2.07,2.26-3.31,4.91-3.31,3.09,0,5.03,1.59,5.23,5.19.03.19-.03.35-.22.38l-2.58.45c-.19.03-.35-.06-.35-.29-.1-1.85-.73-2.64-1.98-2.64-.96,0-1.47.41-1.72,1.21-.16.51-.22.96-.22,6.82s.06,6.31.22,6.82c.25.8.76,1.21,1.72,1.21,1.24,0,1.88-.8,1.98-2.64,0-.22.16-.32.35-.29l2.58.45c.19.03.25.19.22.38-.19,3.6-2.13,5.19-5.23,5.19-2.64,0-4.24-1.24-4.91-3.31-.29-.89-.41-1.78-.41-7.8Z"/>
            <path class="cls-3" d="m401.3,260.86v-15.83c0-.19.13-.32.32-.32h2.77c.19,0,.32.13.32.32v16.28c0,1.37.73,2.26,2.01,2.26s1.97-.89,1.97-2.26v-16.28c0-.19.13-.32.32-.32h2.77c.19,0,.32.13.32.32v15.83c0,3.86-2.04,5.8-5.38,5.8s-5.42-1.94-5.42-5.8Zm1.94-18.99c-.19,0-.32-.13-.32-.32v-2.74c0-.19.13-.32.32-.32h2.07c.19,0,.32.13.32.32v2.74c0,.19-.13.32-.32.32h-2.07Zm4.84,0c-.19,0-.32-.13-.32-.32v-2.74c0-.19.13-.32.32-.32h2.07c.19,0,.32.13.32.32v2.74c0,.19-.13.32-.32.32h-2.07Z"/>
            <path class="cls-3" d="m424.14,266.37c-.19,0-.32-.13-.32-.32v-8.57l-4.14-12.46c-.06-.19,0-.32.25-.32h2.8c.22,0,.32.1.38.32l2.42,8.38h.09l2.36-8.38c.06-.22.16-.32.38-.32h2.74c.25,0,.32.13.25.32l-4.14,12.46v8.57c0,.19-.13.32-.32.32h-2.77Z"/>
            <path class="cls-3" d="m433.35,245.03c0-.19.13-.32.32-.32h2.77c.19,0,.32.13.32.32v21.03c0,.19-.13.32-.32.32h-2.77c-.19,0-.32-.13-.32-.32v-21.03Z"/>
            <path class="cls-3" d="m440.14,245.03c0-.19.13-.32.32-.32h2.77c.19,0,.32.13.32.32v18.07c0,.13.06.19.19.19h5.61c.19,0,.32.13.32.32v2.45c0,.19-.13.32-.32.32h-8.89c-.19,0-.32-.13-.32-.32v-21.03Z"/>
            <path class="cls-3" d="m451.99,245.03c0-.19.13-.32.32-.32h2.77c.19,0,.32.13.32.32v21.03c0,.19-.13.32-.32.32h-2.77c-.19,0-.32-.13-.32-.32v-21.03Z"/>
          </g>
        </g>
      </g>
    </g>
  </g>
</svg>