<?xml version="1.0" encoding="UTF-8" standalone="no"?>
<!-- Created with Inkscape (http://www.inkscape.org/) -->

<svg
   width="196.30675mm"
   height="57.317322mm"
   viewBox="0 0 196.30675 57.317322"
   version="1.1"
   id="svg1039"
   inkscape:version="1.2.2 (732a01da63, 2022-12-09)"
   sodipodi:docname="siyah-zemin.svg"
   xmlns:inkscape="http://www.inkscape.org/namespaces/inkscape"
   xmlns:sodipodi="http://sodipodi.sourceforge.net/DTD/sodipodi-0.dtd"
   xmlns="http://www.w3.org/2000/svg"
   xmlns:svg="http://www.w3.org/2000/svg">
  <sodipodi:namedview
     id="namedview1041"
     pagecolor="#ffffff"
     bordercolor="#000000"
     borderopacity="0.25"
     inkscape:showpageshadow="2"
     inkscape:pageopacity="0.0"
     inkscape:pagecheckerboard="0"
     inkscape:deskcolor="#d1d1d1"
     inkscape:document-units="mm"
     showgrid="false"
     inkscape:zoom="0.76257015"
     inkscape:cx="-83.271028"
     inkscape:cy="93.761866"
     inkscape:window-width="1920"
     inkscape:window-height="991"
     inkscape:window-x="-9"
     inkscape:window-y="-9"
     inkscape:window-maximized="1"
     inkscape:current-layer="layer1" />
  <defs
     id="defs1036">
    <clipPath
       clipPathUnits="userSpaceOnUse"
       id="clipPath276">
      <path
         d="M 0,0 H 841.89 V 595.276 H 0 Z"
         id="path274" />
    </clipPath>
  </defs>
  <g
     inkscape:label="Layer 1"
     inkscape:groupmode="layer"
     id="layer1"
     transform="translate(-32.304517,-124.00479)">
    <g
       id="g272"
       clip-path="url(#clipPath276)"
       transform="matrix(0.35277776,0,0,-0.35277778,-18.04209,257.66344)">
      <g
         id="g278"
         transform="translate(365.6062,327.8701)">
        <path
           d="m 0,0 h -27.449 c 0,-24.745 -10.705,-46.986 -27.73,-62.358 -17.648,15.398 -28.817,38.032 -28.817,63.293 h -27.45 c 0,-30.618 12.38,-58.318 32.368,-78.459 -9.962,-4.165 -20.895,-6.472 -32.368,-6.472 v -27.45 C -49.896,-111.446 0,-61.55 0,0"
           style="fill:#40beaa;fill-opacity:1;fill-rule:nonzero;stroke:none"
           id="path280" />
      </g>
      <g
         id="g282"
         transform="translate(200.9403,343.4219)">
        <path
           d="m 0,0 c 9.79,0 17.726,7.936 17.726,17.726 0,9.79 -7.936,17.727 -17.726,17.727 -9.79,0 -17.726,-7.937 -17.726,-17.727 C -17.726,7.936 -9.79,0 0,0"
           style="fill:#d22027;fill-opacity:1;fill-rule:nonzero;stroke:none"
           id="path284" />
      </g>
      <g
         id="g286"
         transform="translate(307.3805,343.4219)">
        <path
           d="m 0,0 c 9.79,0 17.726,7.936 17.726,17.726 0,9.79 -7.936,17.727 -17.726,17.727 -9.79,0 -17.726,-7.937 -17.726,-17.727 C -17.726,7.936 -9.79,0 0,0"
           style="fill:#d22027;fill-opacity:1;fill-rule:nonzero;stroke:none"
           id="path288" />
      </g>
      <g
         id="g290"
         transform="translate(699.1749,217.1251)">
        <path
           d="M 0,0 -18.025,45.882 H -30.478 L -48.503,0 h 13.109 l 2.687,7.865 h 16.255 L -13.764,0 Z m -19.86,17.697 h -9.504 l 4.785,13.83 z m -29.26,5.44 c 0,6.555 -2.382,11.984 -7.145,16.288 -4.763,4.305 -10.836,6.457 -18.221,6.457 H -91.725 V 0 h 16.846 c 7.384,0 13.524,2.218 18.418,6.653 4.894,4.435 7.341,9.93 7.341,16.484 m -12.454,-0.196 c 0,-3.54 -1.201,-6.446 -3.605,-8.718 -2.403,-2.272 -5.462,-3.408 -9.176,-3.408 h -4.916 v 24.252 h 4.916 c 3.714,0 6.773,-1.136 9.176,-3.409 2.404,-2.272 3.605,-5.178 3.605,-8.717 m -35.398,41.922 h 11.994 v 45.882 h -12.125 l -12.126,-23.99 -12.126,23.99 h -12.782 V 64.863 h 11.995 v 24.973 l 9.308,-18.418 h 6.554 l 9.308,18.418 z m -28.142,-42.971 -12.126,23.99 h -12.781 V 0 h 11.994 v 24.973 l 9.308,-18.419 h 6.554 l 9.308,18.419 V 0 h 11.995 v 45.882 h -12.126 z m -51.626,42.971 h 35.394 v 10.815 h -22.941 v 7.538 h 19.008 v 10.16 h -19.008 v 6.554 h 22.285 v 10.815 h -34.738 z m -3.933,0 -19.008,24.252 17.697,21.63 h -14.747 l -15.076,-20.516 v 20.516 H -224.26 V 64.863 h 12.453 V 86.69 l 16.387,-21.827 z m -30.883,-18.981 h -12.781 V 0 h 12.126 V 27.201 L -193.858,0 h 12.125 v 45.882 h -12.125 V 19.598 Z M -242.651,0 h 13.765 l -18.025,45.882 h -12.454 L -277.39,0 h 13.11 l 2.687,7.865 h 16.255 z m -6.095,17.697 h -9.504 l 4.784,13.83 z m -14.186,47.166 h 33.428 v 11.143 h -20.974 v 34.739 h -12.454 z m -23.595,-48.477 17.042,29.496 h -13.765 l -9.176,-17.566 -9.177,17.566 h -14.419 l 17.041,-29.496 V 0 h 12.454 z m 9.406,53.262 c 3.779,3.627 5.669,8.434 5.669,14.42 v 26.677 h -12.257 V 84.199 c 0,-2.622 -0.71,-4.697 -2.13,-6.227 -1.42,-1.529 -3.332,-2.294 -5.735,-2.294 -2.403,0 -4.315,0.765 -5.735,2.294 -1.42,1.53 -2.131,3.605 -2.131,6.227 v 26.546 h -12.65 v -27.07 c 0,-5.987 1.824,-10.728 5.473,-14.223 3.649,-3.496 8.532,-5.244 14.65,-5.244 6.117,0 11.066,1.813 14.846,5.44 m -2.589,46.407 c 1.136,1.136 1.704,2.556 1.704,4.26 0,1.704 -0.546,3.102 -1.639,4.195 -1.092,1.092 -2.491,1.639 -4.195,1.639 -1.704,0 -3.124,-0.569 -4.26,-1.705 -1.136,-1.136 -1.704,-2.556 -1.704,-4.26 0,-1.704 0.546,-3.103 1.638,-4.195 1.093,-1.092 2.491,-1.639 4.195,-1.639 1.704,0 3.124,0.568 4.261,1.705 m -15.076,0 c 1.136,1.136 1.704,2.556 1.704,4.26 0,1.704 -0.546,3.102 -1.638,4.195 -1.093,1.092 -2.491,1.639 -4.195,1.639 -1.704,0 -3.124,-0.569 -4.261,-1.705 -1.136,-1.136 -1.704,-2.556 -1.704,-4.26 0,-1.704 0.546,-3.103 1.639,-4.195 1.092,-1.092 2.491,-1.639 4.195,-1.639 1.704,0 3.124,0.568 4.26,1.705 m 135.3,-70.173 h -12.781 V 0 h 12.781 z"
           style="fill:#ffffff;fill-opacity:1;fill-rule:nonzero;stroke:none"
           id="path292" />
      </g>
      <g
         id="g294"
         transform="translate(142.7148,327.8701)">
        <path
           d="m 0,0 h 27.449 c 0,-46.39 37.607,-83.996 83.997,-83.996 0,0 9.461,-12.047 28.17,-23.881 -14.74,-4.11 -28.17,-3.569 -28.17,-3.569 C 49.896,-111.446 0,-61.55 0,0"
           style="fill:#d22027;fill-opacity:1;fill-rule:nonzero;stroke:none"
           id="path296" />
      </g>
      <g
         id="g298"
         transform="translate(258.5197,253.6543)" />
      <g
         id="g300"
         transform="translate(261.7903,540.1055)" />
    </g>
  </g>
</svg>
