<?xml version="1.0" encoding="UTF-8"?>
<svg version="1.1" xmlns="http://www.w3.org/2000/svg" width="2381" height="695">
<path d="M0 0 C39.6 0 79.2 0 120 0 C120.66 11.55 121.32 23.1 122 35 C122.74045619 41.13824031 123.50408371 47.13126831 124.625 53.1875 C124.88711182 54.6738976 125.14915379 56.16030751 125.41113281 57.64672852 C137.17195313 122.94891937 164.26978233 186.52113887 209.73828125 235.55859375 C211.67936659 237.65389313 213.56984102 239.77704888 215.4375 241.9375 C216.62352578 243.29295803 217.81120021 244.64697426 219 246 C219.82113281 246.9384375 220.64226563 247.876875 221.48828125 248.84375 C227.51418934 255.63208903 233.77317715 261.46456122 241 267 C244.89075926 265.40415629 247.36839691 262.89003694 250.32421875 259.94140625 C250.82991898 259.43761948 251.3356192 258.9338327 251.85664368 258.41477966 C252.92731656 257.34546588 253.99547544 256.27362978 255.0612793 255.19946289 C256.65791263 253.59228282 258.26471347 251.99585142 259.87304688 250.40039062 C266.3575276 243.92564484 272.35765224 237.23498437 278 230 C278.62414795 229.20424561 279.2482959 228.40849121 279.89135742 227.58862305 C321.83620027 173.53680629 345.70320439 111.36121496 354.8125 43.8125 C354.91186859 43.07751282 355.01123718 42.34252563 355.11361694 41.58526611 C356.77974076 29.07941277 357.85667364 16.57659001 359 4 C398.27 4 437.54 4 478 4 C478 102.93120133 450.97594709 197.96758358 393 279 C392.42362793 279.80695313 391.84725586 280.61390625 391.25341797 281.4453125 C384.67579174 290.61053343 377.92753523 299.54256882 370.53515625 308.06640625 C368.01359759 310.98426535 365.56084298 313.94787394 363.125 316.9375 C362.40054688 317.82566406 361.67609375 318.71382812 360.9296875 319.62890625 C359.78802985 321.03171231 358.64710394 322.4351153 357.5078125 323.83984375 C354.84249164 327.09285959 351.98529181 330.04089496 349 333 C348.175 333.825 347.35 334.65 346.5 335.5 C339 343 339 343 336.48828125 345.5078125 C334.85543587 347.14322122 333.22764461 348.78369503 331.60546875 350.4296875 C326.57411975 355.51793382 321.45685044 360.37457861 316 365 C315.06800781 365.80953125 314.13601563 366.6190625 313.17578125 367.453125 C305.3907209 374.18059224 297.29053479 380.3905383 289.01318359 386.49707031 C287.07922178 387.94085747 285.17131798 389.41261946 283.26953125 390.8984375 C206.79133873 450.30596185 108.27395228 481.95577958 6.06542969 481.44952393 C2.04944194 481.43344365 -1.96631546 481.44363843 -5.9823103 481.45324898 C-26.85313493 481.49320034 -47.334099 481.2356004 -68 478 C-69.40673068 477.79763999 -70.81369282 477.59687833 -72.22094727 477.39819336 C-75.59606765 476.89890449 -78.95309164 476.34507463 -82.3125 475.75 C-83.50141846 475.54093018 -84.69033691 475.33186035 -85.9152832 475.11645508 C-169.63229345 459.91467316 -244.7825126 421.89083744 -310 368 C-310.61020996 367.49710449 -311.22041992 366.99420898 -311.84912109 366.47607422 C-319.32658264 360.28536514 -326.3547718 353.79989296 -333.15698242 346.87280273 C-336.15433251 343.82336937 -339.16945723 340.88929822 -342.4375 338.125 C-345.6535052 335.39173554 -348.37632542 332.42943016 -351.1015625 329.2109375 C-353.25460518 326.70348451 -355.49979652 324.29556589 -357.75 321.875 C-362.98154402 316.13133195 -367.75156464 310.09728109 -372.48876953 303.94384766 C-374.05495448 301.9293138 -375.64739564 299.93802754 -377.24609375 297.94921875 C-398.66871368 271.14403099 -415.64262478 241.59598431 -431 211 C-431.50305664 210.00323242 -432.00611328 209.00646484 -432.52441406 207.97949219 C-464.49625428 144.27232166 -476 74.66551898 -476 4 C-436.73 4 -397.46 4 -357 4 C-356.01 20.335 -356.01 20.335 -355 37 C-351.12069638 65.70684676 -345.47971538 93.58902256 -336 121 C-335.55817383 122.31194336 -335.55817383 122.31194336 -335.10742188 123.65039062 C-323.22214587 158.84415607 -305.53241127 193.13555033 -282 222 C-280.97193526 223.28197423 -279.94463428 224.56456119 -278.91796875 225.84765625 C-275.6438727 229.92495274 -272.32995786 233.96825754 -269 238 C-268.50242187 238.60489258 -268.00484375 239.20978516 -267.4921875 239.83300781 C-257.36983469 252.08673839 -246.49118572 263.8032317 -233.97265625 273.6484375 C-231.69213565 275.45247614 -229.46316625 277.2846237 -227.24609375 279.1640625 C-212.77718509 291.38791442 -197.4671849 302.49963987 -180.98730469 311.86962891 C-179.59364483 312.66233715 -178.20399195 313.46211205 -176.81738281 314.26708984 C-127.86425681 342.63506413 -69.7009634 359.73671429 -13 361 C-11.26411621 361.04084717 -11.26411621 361.04084717 -9.49316406 361.08251953 C35.25574078 361.97525176 78.72660683 355.24846135 121.125 340.6875 C122.07286377 340.36225342 123.02072754 340.03700684 123.99731445 339.7019043 C128.19077798 338.20593134 131.50273208 336.8145245 135 334 C134.07058594 333.0821875 133.14117188 332.164375 132.18359375 331.21875 C119.17197666 318.32503639 119.17197666 318.32503639 114 312 C113.60200195 311.5157959 113.20400391 311.0315918 112.79394531 310.53271484 C46.71509071 229.88397521 7.99521759 135.93782864 0 0 Z " fill="#40BCA9" transform="translate(476,214)"/>
<path d="M0 0 C39.27 0 78.54 0 119 0 C119.99 16.335 119.99 16.335 121 33 C124.87930362 61.70684676 130.52028462 89.58902256 140 117 C140.44182617 118.31194336 140.44182617 118.31194336 140.89257812 119.65039062 C152.77785413 154.84415607 170.46758873 189.13555033 194 218 C195.02806474 219.28197423 196.05536572 220.56456119 197.08203125 221.84765625 C200.3561273 225.92495274 203.67004214 229.96825754 207 234 C207.49757812 234.60489258 207.99515625 235.20978516 208.5078125 235.83300781 C218.63016531 248.08673839 229.50881428 259.8032317 242.02734375 269.6484375 C244.30786435 271.45247614 246.53683375 273.2846237 248.75390625 275.1640625 C263.22281491 287.38791442 278.5328151 298.49963987 295.01269531 307.86962891 C296.40635517 308.66233715 297.79600805 309.46211205 299.18261719 310.26708984 C345.12618298 336.89104626 399.80554178 354.1702731 453.046875 356.37890625 C454.45027707 356.44375821 455.85367876 356.50861824 457.25708008 356.57348633 C459.98662807 356.6975873 462.71231777 356.77548534 465.4440918 356.8269043 C472.61590856 357.12394545 477.28181795 357.67920591 482.35742188 362.98193359 C484.49812497 365.6119948 486.57645489 368.26225982 488.54736328 371.02246094 C490.9379385 374.27685746 493.67201717 377.18859192 496.4375 380.125 C497.03731689 380.7638916 497.63713379 381.4027832 498.25512695 382.06103516 C507.4157267 391.7091406 517.15003517 400.70858071 527.546875 409.0078125 C529.81809619 410.85227557 531.97228824 412.76983384 534.125 414.75 C552.42682125 431.16637608 575.00946907 449.00473453 597 460 C596.67 460.99 596.34 461.98 596 463 C593.8203125 463.94921875 593.8203125 463.94921875 591.125 464.6875 C590.24070312 464.93886719 589.35640625 465.19023438 588.4453125 465.44921875 C586 466 586 466 583 466 C583 466.66 583 467.32 583 468 C549.20506048 475.54621668 516.56108952 477.64572977 482.06542969 477.44952393 C478.04944194 477.43344365 474.03368454 477.44363843 470.0176897 477.45324898 C449.14686507 477.49320034 428.665901 477.2356004 408 474 C406.59326932 473.79763999 405.18630718 473.59687833 403.77905273 473.39819336 C400.40393235 472.89890449 397.04690836 472.34507463 393.6875 471.75 C392.49858154 471.54093018 391.30966309 471.33186035 390.0847168 471.11645508 C306.36770655 455.91467316 231.2174874 417.89083744 166 364 C165.38979004 363.49710449 164.77958008 362.99420898 164.15087891 362.47607422 C156.67341736 356.28536514 149.6452282 349.79989296 142.84301758 342.87280273 C139.84566749 339.82336937 136.83054277 336.88929822 133.5625 334.125 C130.3464948 331.39173554 127.62367458 328.42943016 124.8984375 325.2109375 C122.74539482 322.70348451 120.50020348 320.29556589 118.25 317.875 C113.01845598 312.13133195 108.24843536 306.09728109 103.51123047 299.94384766 C101.94504552 297.9293138 100.35260436 295.93802754 98.75390625 293.94921875 C77.33128632 267.14403099 60.35737522 237.59598431 45 207 C44.49694336 206.00323242 43.99388672 205.00646484 43.47558594 203.97949219 C11.50374572 140.27232166 0 70.66551898 0 0 Z " fill="#D02027" transform="translate(0,218)"/>
<path d="M0 0 C18.48 0 36.96 0 56 0 C69.95775509 25.58921766 69.95775509 25.58921766 76.5 38.375 C77.22642519 39.79039329 77.95290746 41.20575728 78.67944336 42.62109375 C86.54079877 57.95301151 94.35390354 73.31199803 101.75 88.875 C102.08588135 89.57753906 102.4217627 90.28007813 102.76782227 91.00390625 C105 95.75881253 105 95.75881253 105 98 C109.00524158 94.54788465 110.93433912 90.63509371 113.1953125 85.96484375 C113.58408066 85.17891342 113.97284882 84.39298309 114.37339783 83.58323669 C115.20188567 81.90646997 116.02679554 80.22793139 116.84841919 78.54779053 C118.56823063 75.03120351 120.3049996 71.52311176 122.04257202 68.01527405 C122.86614837 66.35118261 123.6876812 64.68607757 124.50674438 63.01976013 C127.26536939 57.42050283 130.13672772 51.88854122 133.0625 46.375 C136.30754158 40.25599148 139.47828678 34.1079035 142.5625 27.90625 C143.17127235 26.68640915 143.17127235 26.68640915 143.79234314 25.44192505 C145.87391867 21.27029187 147.94958317 17.09575785 150.02172852 12.91943359 C150.40824585 12.14216919 150.79476318 11.36490479 151.19299316 10.56408691 C151.92960681 9.08261544 152.66453075 7.60030236 153.39758301 6.11706543 C155.88749419 1.11250581 155.88749419 1.11250581 157 0 C174.82 0 192.64 0 211 0 C211 65.01 211 130.02 211 197 C193.51 197 176.02 197 158 197 C157.67 164.66 157.34 132.32 157 99 C146.27039495 120.53834472 146.27039495 120.53834472 135.54956055 142.08105469 C133.46838379 146.25244141 133.46838379 146.25244141 132.49201965 148.20684814 C131.81317432 149.56760311 131.13591164 150.92914833 130.45991516 152.2913208 C129.43364258 154.3585386 128.40232226 156.42316632 127.36987305 158.48730469 C126.79029343 159.65090515 126.21071381 160.81450562 125.61357117 162.0133667 C122.02321118 168.65892961 122.02321118 168.65892961 118 170 C116.46700175 170.09263357 114.93032423 170.1306822 113.39453125 170.1328125 C112.04198242 170.13474609 112.04198242 170.13474609 110.66210938 170.13671875 C109.72173828 170.13285156 108.78136719 170.12898437 107.8125 170.125 C106.43094727 170.13080078 106.43094727 170.13080078 105.02148438 170.13671875 C104.11333984 170.13542969 103.20519531 170.13414062 102.26953125 170.1328125 C101.45073486 170.13168457 100.63193848 170.13055664 99.78833008 170.12939453 C98.40810669 170.06534424 98.40810669 170.06534424 97 170 C95.72439209 170.10892578 94.44878418 170.21785156 93.13452148 170.33007812 C89.92500552 169.8844593 89.12912964 169.16897391 87.1295929 166.55245972 C85.11533348 162.95969924 83.32668126 159.31266257 81.578125 155.5859375 C80.90681175 154.21275855 80.23275576 152.84091737 79.55609131 151.47036743 C77.78180441 147.85891656 76.04388097 144.23112072 74.31341553 140.59851074 C72.55615575 136.92423113 70.76772661 133.26522578 68.98046875 129.60546875 C66.96771876 125.4821705 64.95786397 121.35780173 62.97442627 117.2203064 C62.67000107 116.58691345 62.36557587 115.95352051 62.05192566 115.30093384 C61.23410897 113.59778669 60.41897779 111.89335073 59.60406494 110.18881226 C57.86223421 106.72612752 55.92308469 103.36539822 54 100 C53.67 132.01 53.34 164.02 53 197 C35.51 197 18.02 197 0 197 C0 131.99 0 66.98 0 0 Z " fill="#FFFFFF" transform="translate(1739,495)"/>
<path d="M0 0 C18.81 0 37.62 0 57 0 C59.12179687 4.25519531 61.24359375 8.51039063 63.4296875 12.89453125 C64.79664776 15.63357748 66.16373178 18.3725606 67.53125 21.11132812 C69.68900846 25.43276072 71.84637177 29.75438656 74.00097656 34.07739258 C83.60859512 53.35248295 93.30167607 72.56646565 103.66140747 91.451828 C106 95.77894913 106 95.77894913 106 98 C106.66 98 107.32 98 108 98 C108.24965515 97.17602722 108.4993103 96.35205444 108.75653076 95.50311279 C110.18610903 91.47569196 111.97839949 87.76325024 113.89550781 83.95019531 C114.2860585 83.16558929 114.67660919 82.38098328 115.07899475 81.57260132 C116.36636462 78.98908754 117.65953945 76.40853146 118.953125 73.828125 C119.85535662 72.02231322 120.75735079 70.21638277 121.65911865 68.41033936 C123.54960568 64.62641934 125.44297277 60.84395826 127.33837891 57.0625 C129.75562918 52.23935423 132.16572046 47.41267367 134.57362747 42.58485794 C136.43586281 38.85312092 138.3019438 35.12331712 140.16915131 31.39406586 C141.05853137 29.6166311 141.94674282 27.83861106 142.83371735 26.05997467 C144.08089687 23.56047607 145.3332602 21.06363912 146.58691406 18.56738281 C147.12491386 17.48531052 147.12491386 17.48531052 147.67378235 16.38137817 C150.53236845 10.71022273 153.70492343 5.49179428 157 0 C174.82 0 192.64 0 211 0 C211 65.01 211 130.02 211 197 C193.51 197 176.02 197 158 197 C157.67 164.33 157.34 131.66 157 98 C153.37 105.26 149.74 112.52 146 120 C144.62714844 122.74441406 143.25429687 125.48882812 141.83984375 128.31640625 C139.49771608 133.00006427 137.15954847 137.68564904 134.82608032 142.37362671 C133.42356321 145.19091644 132.01961138 148.00748989 130.61547852 150.82397461 C129.90028156 152.25950906 129.1857878 153.69539401 128.47192383 155.1315918 C127.42193161 157.24360175 126.36943049 159.35434425 125.31640625 161.46484375 C124.9966835 162.10945053 124.67696075 162.75405731 124.34754944 163.41819763 C122.11386951 167.88613049 122.11386951 167.88613049 121 169 C118.70848583 169.08790975 116.41427476 169.10694038 114.12109375 169.09765625 C113.09110008 169.09553383 113.09110008 169.09553383 112.04029846 169.09336853 C109.83932199 169.08775479 107.63844591 169.07520007 105.4375 169.0625 C103.94856917 169.05748676 102.45963676 169.05292355 100.97070312 169.04882812 C97.31376925 169.03778093 93.65689442 169.02050713 90 169 C81.7390507 154.17219299 73.96444349 139.14652268 66.44824219 123.92871094 C64.43741631 119.86231389 62.40723162 115.80572872 60.375 111.75 C59.77852039 110.55735439 59.18215631 109.364651 58.5859375 108.171875 C58.06257813 107.12515625 57.53921875 106.0784375 57 105 C56.01 103.02 55.02 101.04 54 99 C53.67 131.34 53.34 163.68 53 197 C35.51 197 18.02 197 0 197 C0 131.99 0 66.98 0 0 Z " fill="#FFFFFF" transform="translate(1807,218)"/>
<path d="M0 0 C18.48 0 36.96 0 56 0 C67.4738806 14.91604478 67.4738806 14.91604478 71.875 21.6875 C72.76792583 23.04577238 73.66117536 24.40383199 74.5546875 25.76171875 C75.06572021 26.54047363 75.57675293 27.31922852 76.10327148 28.12158203 C83.06442015 38.68561123 90.11600739 49.1894149 97.19921875 59.671875 C97.81162415 60.57823196 98.42402954 61.48458893 99.05499268 62.41841125 C101.56568366 66.1333016 104.07689193 69.84783891 106.59008789 73.56103516 C108.46122623 76.3261859 110.33034934 79.09269043 112.19921875 81.859375 C113.02458382 83.0771463 113.02458382 83.0771463 113.86662292 84.31951904 C118.6979547 91.47681451 123.32606485 98.72943421 128 106 C128.495 53.53 128.495 53.53 129 0 C146.82 0 164.64 0 183 0 C183 65.01 183 130.02 183 197 C164.85 197 146.7 197 128 197 C119.2162683 187.48429066 113.41621124 180.7854197 107.9140625 169.859375 C102.07222552 158.35059179 95.32739861 148.0018322 87.796875 137.53271484 C82.33110478 129.82865231 77.21738015 121.87104764 72 114 C63.09 100.635 63.09 100.635 54 87 C53.67 123.3 53.34 159.6 53 197 C35.51 197 18.02 197 0 197 C0 131.99 0 66.98 0 0 Z " fill="#FFFFFF" transform="translate(1421,495)"/>
<path d="M0 0 C126.15256798 0 126.15256798 0 160 33 C177.36002993 50.59061856 184.17366854 73.49627537 184.1875 97.6875 C184.19974609 98.79544922 184.21199219 99.90339844 184.22460938 101.04492188 C184.24278432 111.41069845 183.12876126 121.31100712 179.3125 131 C178.92167236 132.01054443 178.92167236 132.01054443 178.52294922 133.04150391 C174.32437182 143.54168057 168.33371115 152.44171045 161 161 C160.32324219 161.82242188 159.64648438 162.64484375 158.94921875 163.4921875 C142.29546769 183.03827192 119.46157658 191.56409409 95 197 C63.65 197 32.3 197 0 197 C0 131.99 0 66.98 0 0 Z M54 47 C54 80.99 54 114.98 54 150 C75.93070344 150 88.39618437 149.82221453 106.31152344 139.92089844 C107.68890108 139.16967396 109.0949792 138.47127173 110.5078125 137.7890625 C118.8374128 133.44460431 123.48111344 124.33099203 126.4375 115.75 C130.23962717 101.55991825 130.06565111 87.61925457 123.375 74.3125 C115.79678103 61.55211659 105.89260966 53.76911899 91.625 49.625 C79.08836109 46.64069328 66.92129085 47 54 47 Z " fill="#FFFFFF" transform="translate(1988,495)"/>
<path d="M0 0 C1.96499954 0.01554428 1.96499954 0.01554428 3.96969604 0.03140259 C7.43805585 0.05995273 10.90301317 0.14333019 14.37011719 0.23779297 C17.89347318 0.32291777 21.4172691 0.3511666 24.94140625 0.38671875 C30.09583136 0.45001497 35.24953813 0.53099559 40.40283203 0.65771484 C41.43650909 0.68264008 42.47018616 0.70756531 43.53518677 0.73324585 C46.23193817 0.90542715 48.73546579 1.31530381 51.3671875 1.9140625 C49.38584204 6.07483121 46.81698151 9.55554379 44.0546875 13.2265625 C43.52560791 13.93151855 42.99652832 14.63647461 42.45141602 15.36279297 C38.23707443 20.90970577 33.76768323 26.18211452 29.15942383 31.40307617 C25.05542876 36.06695808 21.19196236 40.87386666 17.39038086 45.78564453 C14.31228069 49.74919492 11.13233079 53.60347676 7.8671875 57.4140625 C3.62556562 62.36525218 -0.43272858 67.43051883 -4.41333008 72.59350586 C-6.84972297 75.72875996 -9.35251067 78.76737825 -11.9921875 81.734375 C-12.54720947 82.36093994 -13.10223145 82.98750488 -13.67407227 83.63305664 C-14.74710729 84.83467127 -15.83052097 86.02712206 -16.92553711 87.20874023 C-18.95308231 89.48159919 -20.48417049 91.39672188 -21.33203125 94.34765625 C-20.20704505 98.47679553 -17.52407627 101.22139378 -14.7578125 104.4140625 C-13.55328163 105.84777837 -12.3501716 107.28268908 -11.1484375 108.71875 C-10.54966797 109.42870117 -9.95089844 110.13865234 -9.33398438 110.87011719 C-6.97691075 113.70212356 -4.74050966 116.6077472 -2.5078125 119.5390625 C0.89853198 124.0019791 4.3319794 128.44008642 7.8046875 132.8515625 C8.26246582 133.43309082 8.72024414 134.01461914 9.19189453 134.61376953 C10.11978371 135.7919639 11.04784404 136.97002349 11.97607422 138.14794922 C14.27592982 141.06777292 16.57138276 143.99105338 18.8671875 146.9140625 C21.58055344 150.36835287 24.29444106 153.82222301 27.01171875 157.2734375 C33.92941282 166.06287355 40.83197053 174.86524006 47.65429688 183.72900391 C48.85979954 185.26681018 50.09305552 186.78306195 51.34570312 188.28271484 C51.98701172 189.06211426 52.62832031 189.84151367 53.2890625 190.64453125 C53.8778418 191.34344482 54.46662109 192.0423584 55.07324219 192.76245117 C56.62156487 195.33704887 56.62163188 196.96050568 56.3671875 199.9140625 C50.53653011 200.20389951 44.70564609 200.48847733 38.87451172 200.76855469 C36.89820735 200.86417714 34.92196738 200.96114182 32.94580078 201.05957031 C-5.0452407 202.94852113 -5.0452407 202.94852113 -12.56640625 196.171875 C-17.35857931 191.22089699 -20.71635958 185.62113066 -24.14306641 179.70361328 C-27.71086901 173.60577656 -31.89700935 168.15162664 -36.28955078 162.62695312 C-38.71233265 159.53748792 -41.04021928 156.37697304 -43.3828125 153.2265625 C-48.26310763 146.68519352 -53.24396301 140.22779374 -58.29785156 133.81958008 C-63.92970034 126.63888802 -69.22384388 119.28992881 -74.6328125 111.9140625 C-74.9628125 140.6240625 -75.2928125 169.3340625 -75.6328125 198.9140625 C-93.7828125 198.9140625 -111.9328125 198.9140625 -130.6328125 198.9140625 C-130.6328125 133.9040625 -130.6328125 68.8940625 -130.6328125 1.9140625 C-112.4828125 1.9140625 -94.3328125 1.9140625 -75.6328125 1.9140625 C-75.3028125 28.6440625 -74.9728125 55.3740625 -74.6328125 82.9140625 C-62.69544862 67.31862999 -62.69544862 67.31862999 -51.171875 51.48046875 C-46.38110626 44.71442327 -41.40649434 38.07948096 -36.47802734 31.41357422 C-34.60497009 28.87634742 -32.73725631 26.33527014 -30.87109375 23.79296875 C-30.25524414 22.95467529 -29.63939453 22.11638184 -29.00488281 21.25268555 C-27.84058433 19.66756196 -26.67710594 18.0818355 -25.51464844 16.49536133 C-24.46810493 15.07198055 -23.4095257 13.65732947 -22.33622742 12.25401306 C-20.60679856 9.96336754 -20.60679856 9.96336754 -19.26307678 7.55096436 C-14.2212795 -0.45530401 -8.94800731 -0.3074526 0 0 Z " fill="#FFFFFF" transform="translate(1551.6328125,216.0859375)"/>
<path d="M0 0 C49.5 0 99 0 150 0 C150 15.51 150 31.02 150 47 C118.65 47 87.3 47 55 47 C55 55.91 55 64.82 55 74 C81.73 74 108.46 74 136 74 C136 88.52 136 103.04 136 118 C109.27 118 82.54 118 55 118 C55 128.56 55 139.12 55 150 C87.34 150 119.68 150 153 150 C153 165.51 153 181.02 153 197 C102.51 197 52.02 197 0 197 C0 131.99 0 66.98 0 0 Z " fill="#FFFFFF" transform="translate(1624,218)"/>
<path d="M0 0 C1.09783813 -0.00315216 2.19567627 -0.00630432 3.32678223 -0.009552 C5.11892151 -0.00651566 5.11892151 -0.00651566 6.94726562 -0.00341797 C8.16426147 -0.00437469 9.38125732 -0.00533142 10.63513184 -0.00631714 C13.21427461 -0.00699919 15.79341909 -0.00514319 18.37255859 -0.00097656 C22.33630198 0.00437131 26.29993204 -0.00092076 30.26367188 -0.00732422 C32.76237004 -0.00666344 35.26106814 -0.00538229 37.75976562 -0.00341797 C38.95452515 -0.0054422 40.14928467 -0.00746643 41.38024902 -0.009552 C42.47808716 -0.00639984 43.57592529 -0.00324768 44.70703125 0 C46.16477966 0.00119339 46.16477966 0.00119339 47.65197754 0.00241089 C49.85351562 0.12939453 49.85351562 0.12939453 50.85351562 1.12939453 C50.95482188 2.60549931 50.98703154 4.08640884 50.99154663 5.565979 C50.99699997 6.52460846 51.00245331 7.48323792 51.0080719 8.47091675 C51.00911423 9.53158356 51.01015656 10.59225037 51.01123047 11.68505859 C51.01631119 12.795737 51.02139191 13.90641541 51.02662659 15.05075073 C51.0373609 17.47399343 51.04596896 19.89724624 51.05274582 22.32050323 C51.06450991 26.16357122 51.08396075 30.00652556 51.10586548 33.84954834 C51.16753429 44.78068187 51.22160154 55.71180684 51.25488281 66.64306641 C51.27530926 73.32276246 51.31129725 80.00222974 51.35564041 86.6818161 C51.36974606 89.22210042 51.37851048 91.76242052 51.38169479 94.302742 C50.71219482 117.03637019 50.71219482 117.03637019 59.54882812 137.32470703 C60.85351562 139.12939453 60.85351562 139.12939453 61.85351562 142.12939453 C64.0197343 143.23191183 64.0197343 143.23191183 66.85351562 144.12939453 C68.61695313 144.90283203 68.61695313 144.90283203 70.41601562 145.69189453 C80.51670162 149.36143214 90.14597015 148.64799626 99.85351562 144.12939453 C107.49694688 139.18233407 111.49474535 133.31846741 113.42904663 124.50790405 C115.44772847 112.08930508 115.2082004 99.59198942 115.26757812 87.04345703 C115.28631643 84.52997216 115.30589177 82.0164934 115.32626343 79.50302124 C115.37211274 73.59967518 115.40962032 67.69632382 115.4429363 61.79289472 C115.49195442 53.21478876 115.55818845 44.63681183 115.62225342 36.05880737 C115.71012939 24.08237688 115.78013453 12.10596208 115.85351562 0.12939453 C133.67351562 0.12939453 151.49351562 0.12939453 169.85351562 0.12939453 C171.03345595 2.48927518 170.98176179 3.90025135 170.98722839 6.53196716 C170.99362587 7.92110321 170.99362587 7.92110321 171.00015259 9.33830261 C170.9996994 10.35789566 170.99924622 11.37748871 170.9987793 12.42797852 C171.00213791 13.49990448 171.00549652 14.57183044 171.00895691 15.67623901 C171.01850128 19.24266707 171.0204128 22.80904822 171.02148438 26.37548828 C171.02469825 28.86060099 171.02806242 31.3457135 171.03157043 33.83082581 C171.03757297 39.0590139 171.03945235 44.28719015 171.03881836 49.51538086 C171.03815717 56.16776298 171.05228332 62.82004933 171.06959057 69.47241116 C171.08080177 74.61762462 171.08273467 79.76281276 171.08220863 84.90803719 C171.08337838 87.35686678 171.08774275 89.80569724 171.095541 92.25451469 C171.17892915 121.18512847 170.42844522 151.46055617 149.85351562 174.12939453 C149.25023437 174.81259766 148.64695312 175.49580078 148.02539062 176.19970703 C142.95761548 181.61769428 137.26291969 185.44489248 130.85351562 189.12939453 C130.08523438 189.58185547 129.31695313 190.03431641 128.52539062 190.50048828 C115.7088918 197.49725039 101.25791404 200.09227785 86.85351562 201.12939453 C85.85320312 201.20158203 84.85289063 201.27376953 83.82226562 201.34814453 C59.60782193 202.16436173 34.86428581 194.41197447 16.86132812 178.06689453 C1.64099437 163.56767577 -5.5487076 143.07940004 -6.23959732 122.33340454 C-6.27585894 119.13545567 -6.28163051 115.93887361 -6.27587891 112.74072266 C-6.27763123 111.53157196 -6.27938354 110.32242126 -6.28118896 109.07662964 C-6.28481528 105.78793034 -6.28399555 102.49927182 -6.28080988 99.2105732 C-6.27826487 95.76241093 -6.28062933 92.31425125 -6.28219604 88.86608887 C-6.28400955 83.08633947 -6.28163091 77.30660291 -6.27685547 71.52685547 C-6.27139379 64.83917487 -6.27319255 58.15152466 -6.27868187 51.46384478 C-6.28321182 45.71507268 -6.28386476 39.96630975 -6.28124321 34.21753645 C-6.27968242 30.78646311 -6.27948167 27.35540409 -6.28277969 23.92433167 C-6.28619063 20.11051232 -6.28147078 16.29672747 -6.27587891 12.48291016 C-6.27790314 11.34115326 -6.27992737 10.19939636 -6.28201294 9.02304077 C-6.27919312 7.99131744 -6.27637329 6.95959412 -6.27346802 5.89660645 C-6.27290248 4.54389523 -6.27290248 4.54389523 -6.27232552 3.16385651 C-6.02113802 -0.89706824 -3.48664495 0.00285435 0 0 Z " fill="#FFFFFF" transform="translate(1050.146484375,217.87060546875)"/>
<path d="M0 0 C18.48 0 36.96 0 56 0 C64.03261031 17.21273637 64.03261031 17.21273637 67.2421875 25.671875 C67.60738998 26.62036819 67.97259247 27.56886139 68.34886169 28.5460968 C69.12607166 30.56592783 69.9009943 32.58664034 70.67373657 34.60818481 C72.762036 40.06997672 74.86871685 45.52468696 76.97265625 50.98046875 C77.39852524 52.08615707 77.82439423 53.1918454 78.26316833 54.33103943 C82.22108066 64.59821859 86.25440221 74.83458424 90.3125 85.0625 C91.69701601 88.55452847 93.08106576 92.04674151 94.46484375 95.5390625 C94.8192453 96.43338486 95.17364685 97.32770721 95.53878784 98.24913025 C100.50989117 110.80179412 105.44058853 123.37037956 110.375 135.9375 C110.8258194 137.08558136 111.27663879 138.23366272 111.74111938 139.41653442 C112.40160782 141.09862503 112.40160782 141.09862503 113.07543945 142.81469727 C113.73105614 144.48377388 113.73105614 144.48377388 114.3999176 146.18656921 C115.26916752 148.40161416 116.13705214 150.61719542 117.00352478 152.83332825 C119.08430893 158.15046446 121.17960093 163.46069492 123.32076836 168.75377941 C124.35750047 171.31906336 125.38666075 173.88735476 126.41527176 176.45590401 C127.14601998 178.27157645 127.88762049 180.08286929 128.62948608 181.89402771 C129.07095978 182.99835648 129.51243347 184.10268524 129.96728516 185.24047852 C130.36049957 186.20985855 130.75371399 187.17923859 131.15884399 188.17799377 C132 191 132 191 132 197 C111.87 197 91.74 197 71 197 C68.525 189.9153125 68.525 189.9153125 66 182.6875 C65.47792969 181.20080811 64.95585937 179.71411621 64.41796875 178.18237305 C64.01191406 177.01230713 63.60585937 175.84224121 63.1875 174.63671875 C62.76855469 173.43748779 62.34960938 172.23825684 61.91796875 171.00268555 C61 168 61 168 61 165 C59.79183624 165.00333092 59.79183624 165.00333092 58.55926514 165.00672913 C50.96698095 165.0267701 43.37470959 165.04199358 35.78240585 165.05181217 C31.87917705 165.05702969 27.97597012 165.06410684 24.07275391 165.07543945 C20.30561356 165.08630847 16.53849424 165.09228537 12.77133942 165.09487724 C11.33444131 165.09672424 9.89754436 165.10033095 8.46065521 165.10573006 C6.44741438 165.11299363 4.43415237 165.11340851 2.42089844 165.11352539 C0.70214508 165.11685631 0.70214508 165.11685631 -1.05133057 165.12025452 C-3.55871136 165.01799691 -5.61515677 164.73528797 -8 164 C-8.09667969 165.26199219 -8.19335938 166.52398438 -8.29296875 167.82421875 C-8.91737185 173.40885382 -10.51617776 178.50638253 -12.3125 183.8125 C-12.60833984 184.73998047 -12.90417969 185.66746094 -13.20898438 186.62304688 C-13.50740234 187.51701172 -13.80582031 188.41097656 -14.11328125 189.33203125 C-14.37923096 190.13358643 -14.64518066 190.9351416 -14.91918945 191.76098633 C-16.31893078 194.66069893 -17.3451262 196.12002658 -20 198 C-23.03332547 198.55723665 -26.01031803 198.48882541 -29.0859375 198.42578125 C-29.97930817 198.42249313 -30.87267883 198.41920502 -31.79312134 198.41581726 C-34.65423882 198.40007939 -37.5141866 198.35612319 -40.375 198.3125 C-42.26170899 198.3010016 -44.14842925 198.29121852 -46.03515625 198.28320312 C-56.06124386 198.21647649 -66.01002345 197.90153447 -76 197 C-74.43810989 188.37606686 -71.31827384 180.39917554 -68.1875 172.25 C-67.57087518 170.63260204 -66.95434173 169.01516925 -66.33789062 167.39770508 C-59.70143502 150.04161247 -52.82190427 132.78034543 -45.95492554 115.51454163 C-40.29236418 101.27644793 -34.67833067 87.01984792 -29.08578491 72.75411987 C-22.00402227 54.69059421 -14.89468653 36.63889752 -7.6875 18.625 C-7.17550552 17.34440201 -7.17550552 17.34440201 -6.65316772 16.03793335 C-5.7114034 13.68365236 -4.768212 11.32995052 -3.82421875 8.9765625 C-3.54932617 8.28993027 -3.27443359 7.60329803 -2.99121094 6.89585876 C-1.11718473 2.23436945 -1.11718473 2.23436945 0 0 Z M26 66 C25.5968457 67.15411377 25.19369141 68.30822754 24.77832031 69.49731445 C23.26567412 73.82698643 21.75210841 78.15633651 20.23828125 82.4855957 C19.58634218 84.35041845 18.93464418 86.21532549 18.28320312 88.08032227 C17.34049638 90.7790372 16.39684692 93.47742118 15.453125 96.17578125 C15.14959106 97.04566681 14.84605713 97.91555237 14.5333252 98.8117981 C12.64261474 104.21620621 10.69224393 109.59234631 8.62011719 114.93041992 C7.80864901 117.27853382 7.80864901 117.27853382 8 121 C20.21 121 32.42 121 45 121 C43.70530384 114.52651919 42.40008114 108.62975175 40.28515625 102.46484375 C40.02874863 101.70128067 39.772341 100.93771759 39.50816345 100.15101624 C38.6986431 97.74454239 37.88079134 95.34100364 37.0625 92.9375 C36.51831575 91.32506018 35.97469199 89.71243109 35.43164062 88.09960938 C34.4042618 85.05087594 33.37393012 82.00317341 32.34033203 78.95654297 C30.8774476 74.64300767 29.43436961 70.32310003 28 66 C27.34 66 26.68 66 26 66 Z " fill="#FFFFFF" transform="translate(2249,495)"/>
<path d="M0 0 C0.87496124 0.00045822 1.74992249 0.00091644 2.65139771 0.00138855 C4.50914866 0.00441205 6.36689706 0.01230127 8.22460938 0.0246582 C11.02483447 0.04267612 13.82472353 0.04516934 16.625 0.04492188 C26.19593832 0.06445179 35.66542358 0.26817808 45.1953125 1.23046875 C54.94192105 24.25880384 64.03473606 47.53749136 73.13015747 70.82876587 C77.63787824 82.3704341 82.16842624 93.90308711 86.70166016 105.43475342 C88.06665465 108.90865954 89.43003374 112.38319556 90.79296875 115.85791016 C95.13899025 126.93416428 99.49753484 138.00513029 103.89401245 149.06144714 C105.70868758 153.62529586 107.51784894 158.19132423 109.3257618 162.75785542 C110.56323026 165.88225347 111.8048899 169.00483737 113.05218506 172.12533569 C114.42785942 175.56755467 115.79313758 179.01372865 117.15625 182.4609375 C117.56758179 183.48215698 117.97891357 184.50337646 118.40270996 185.55554199 C118.95819519 186.9689386 118.95819519 186.9689386 119.52490234 188.41088867 C119.84937347 189.22571213 120.1738446 190.04053558 120.50814819 190.88005066 C121.1953125 193.23046875 121.1953125 193.23046875 121.1953125 198.23046875 C101.0653125 198.23046875 80.9353125 198.23046875 60.1953125 198.23046875 C50.1953125 170.23046875 50.1953125 170.23046875 50.1953125 165.23046875 C27.4253125 165.23046875 4.6553125 165.23046875 -18.8046875 165.23046875 C-19.1346875 167.54046875 -19.4646875 169.85046875 -19.8046875 172.23046875 C-22.7746875 180.81046875 -25.7446875 189.39046875 -28.8046875 198.23046875 C-47.9446875 198.23046875 -67.0846875 198.23046875 -86.8046875 198.23046875 C-85.67967328 189.23035499 -85.67967328 189.23035499 -84.21679688 185.5065918 C-83.89064896 184.66320251 -83.56450104 183.81981323 -83.22846985 182.9508667 C-82.87205917 182.05700256 -82.5156485 181.16313843 -82.1484375 180.2421875 C-81.77474533 179.28378967 -81.40105316 178.32539185 -81.01603699 177.33795166 C-79.78773114 174.19442429 -78.54634961 171.05624181 -77.3046875 167.91796875 C-76.43520074 165.70089739 -75.56647776 163.48352635 -74.69848633 161.26586914 C-72.49264428 155.63743453 -70.27564492 150.01348079 -68.05377197 144.39135742 C-66.8995167 141.47044014 -65.74694443 138.54886705 -64.59521484 135.62695312 C-61.53279467 127.85910589 -58.46360741 120.09397857 -55.38587952 112.33218384 C-50.76075312 100.66634516 -46.17185079 88.98649259 -41.59033203 77.3034668 C-38.32810797 68.98509589 -35.05843047 60.66966265 -31.78646851 52.3551178 C-29.62533515 46.86286124 -27.46659308 41.36970522 -25.31542969 35.87353516 C-23.4360267 31.07238914 -21.54782434 26.27480808 -19.65213013 21.48007202 C-18.96798691 19.74509225 -18.28716055 18.0088005 -17.60983276 16.27114868 C-16.69005021 13.91287486 -15.75874191 11.55949461 -14.82421875 9.20703125 C-14.5596286 8.52034866 -14.29503845 7.83366608 -14.02243042 7.12617493 C-11.08938436 -0.17394667 -7.19584994 -0.06151368 0 0 Z M15.1953125 65.23046875 C13.1294961 71.25774199 11.06687778 77.28610308 9.00634766 83.31518555 C8.30686642 85.36067727 7.60668728 87.40593049 6.90576172 89.45092773 C5.89100804 92.4119529 4.87887425 95.37386326 3.8671875 98.3359375 C3.40599518 99.67896187 3.40599518 99.67896187 2.93548584 101.04911804 C0.54002904 108.0750274 -1.61860641 115.12570522 -3.8046875 122.23046875 C8.7353125 122.23046875 21.2753125 122.23046875 34.1953125 122.23046875 C32.59426773 114.89552494 32.59426773 114.89552494 30.49951172 107.80249023 C30.01924026 106.36201576 30.01924026 106.36201576 29.52926636 104.8924408 C29.18960846 103.88895096 28.84995056 102.88546112 28.5 101.8515625 C28.14769318 100.79888687 27.79538635 99.74621124 27.43240356 98.66163635 C26.31595687 95.32897006 25.19324092 91.99845593 24.0703125 88.66796875 C23.30817718 86.39662411 22.54645421 84.12514106 21.78515625 81.85351562 C19.92664132 76.31089025 18.06298682 70.77001399 16.1953125 65.23046875 C15.8653125 65.23046875 15.5353125 65.23046875 15.1953125 65.23046875 Z " fill="#FFFFFF" transform="translate(1280.8046875,493.76953125)"/>
<path d="M0 0 C1.29808594 -0.01546875 2.59617187 -0.0309375 3.93359375 -0.046875 C23.48892039 0.03126816 41.0036998 7.47563541 55.00683594 20.98339844 C69.38474211 35.5869879 77.25473443 54.64977897 77.6875 75.125 C77.38525263 99.18389071 68.12918286 119.18412748 51.12890625 135.8203125 C35.32267754 149.41420229 15.042066 154.79045087 -5.5 153.5 C-27.73257642 151.36641478 -47.08515521 141.77472481 -61.5 124.5 C-73.62818176 108.00728186 -79.72280651 87.12797115 -76.99609375 66.73046875 C-73.63718724 45.48634295 -63.64423696 26.90799577 -46.5078125 13.56640625 C-32.22754456 3.75567671 -17.22883133 -0.20530881 0 0 Z " fill="#D21E25" transform="translate(704.5,-0.5)"/>
<path d="M0 0 C1.14855469 0.51949219 2.29710937 1.03898438 3.48046875 1.57421875 C11.0634447 5.3177132 17.07957032 10.00036725 23 16 C23.77085937 16.76054687 24.54171875 17.52109375 25.3359375 18.3046875 C39.58719393 33.13961314 45.51602627 50.97466865 45.21484375 71.31640625 C44.48544138 92.95836343 37.22156092 111.47196469 22 127 C21.33484375 127.70125 20.6696875 128.4025 19.984375 129.125 C6.14184791 142.65052266 -14.37306862 148.25908873 -33.2331543 148.2487793 C-53.89478999 147.94105752 -73.43305297 139.46733684 -88.171875 125.0234375 C-102.78570721 109.90397066 -109.54047901 90.22114767 -109.21484375 69.4296875 C-108.46435421 48.35072054 -100.79644618 30.05111823 -86 15 C-85.38511719 14.37222656 -84.77023438 13.74445312 -84.13671875 13.09765625 C-63.07774382 -6.78887039 -26.23373736 -12.40997156 0 0 Z " fill="#D21E25" transform="translate(281,5)"/>
<path d="M0 0 C21.12 0 42.24 0 64 0 C71.43028479 13.62218879 78.77240226 27.22679228 85.79248047 41.05322266 C86.83280253 43.09943187 87.87613611 45.14405403 88.921875 47.1875 C89.25521851 47.83912109 89.58856201 48.49074219 89.93200684 49.16210938 C92.94171303 54.99115866 96.20587653 60.65607254 99.54003906 66.3046875 C101 69 101 69 101 71 C101.66 71 102.32 71 103 71 C103.2371875 70.19949219 103.474375 69.39898438 103.71875 68.57421875 C105.31266024 64.12779233 107.36363249 60.01951947 109.5 55.8125 C109.94359863 54.93247314 110.38719727 54.05244629 110.84423828 53.14575195 C114.59413535 45.73536722 118.44641106 38.38079204 122.3359375 31.04296875 C124.3163726 27.30423861 126.27585765 23.55510943 128.2265625 19.80078125 C128.77070801 18.7538208 129.31485352 17.70686035 129.87548828 16.62817383 C130.94023475 14.5778888 132.00375607 12.52696696 133.06591797 10.4753418 C133.54947754 9.5450415 134.03303711 8.61474121 134.53125 7.65625 C135.17416992 6.41584961 135.17416992 6.41584961 135.83007812 5.15039062 C137 3 137 3 139 0 C141.55630493 -0.36076355 141.55630493 -0.36076355 144.82666016 -0.34057617 C146.04777496 -0.34034958 147.26888977 -0.34012299 148.52700806 -0.33988953 C149.86436323 -0.32456852 151.2017147 -0.30892051 152.5390625 -0.29296875 C153.90383438 -0.28737422 155.26861228 -0.28310344 156.63339233 -0.28010559 C160.22730107 -0.2686454 163.82084667 -0.23916871 167.41461182 -0.20599365 C171.0810454 -0.17531771 174.7475376 -0.16160559 178.4140625 -0.14648438 C185.60954064 -0.11429964 192.80471946 -0.06308972 200 0 C199.37768234 4.08411144 198.63783475 7.17948712 196.62890625 10.80078125 C196.14252686 11.68604492 195.65614746 12.57130859 195.1550293 13.48339844 C194.62949463 14.41700195 194.10395996 15.35060547 193.5625 16.3125 C193.01827393 17.29379883 192.47404785 18.27509766 191.91333008 19.28613281 C187.96424766 26.37313477 183.89378567 33.38338454 179.74609375 40.35546875 C176.35912942 46.05936429 173.05885967 51.81307194 169.75 57.5625 C147.78006275 95.69368579 147.78006275 95.69368579 138.328125 110.64453125 C129.91738877 124.19747503 127.73667803 136.94664502 127.5859375 152.76171875 C127.56657135 154.03352493 127.5472052 155.30533112 127.5272522 156.61567688 C127.47798232 159.95774007 127.43655794 163.29970411 127.39910889 166.64190674 C127.35872967 170.06800694 127.30789421 173.49395203 127.2578125 176.91992188 C127.16072026 183.61321849 127.08077374 190.30640743 127 197 C109.18 197 91.36 197 73 197 C72.96261719 192.97554687 72.92523437 188.95109375 72.88671875 184.8046875 C72.84849912 181.55592283 72.80742763 178.30722145 72.7644577 175.05851746 C72.72015874 171.65117731 72.68065425 168.24394989 72.65356445 164.83642578 C72.61966915 160.90889798 72.56733679 156.98196085 72.51171875 153.0546875 C72.50532883 151.8582663 72.4989389 150.66184509 72.49235535 149.4291687 C72.16893987 130.47361546 65.99472661 115.83493878 56.140625 100.0703125 C52.75956311 94.64910166 49.52548722 89.14709513 46.3125 83.625 C45.43658203 82.11993896 45.43658203 82.11993896 44.54296875 80.58447266 C39.33529284 71.61304178 34.18796375 62.60719422 29.05004883 53.59570312 C24.3908189 45.42474088 19.70406605 37.27024402 15 29.125 C14.37802734 28.04613525 13.75605469 26.96727051 13.11523438 25.85571289 C10.5186798 21.35279601 7.91830279 16.8527271 5.28515625 12.37109375 C4.90037109 11.71157715 4.51558594 11.05206055 4.11914062 10.37255859 C3.15808569 8.72624129 2.19071627 7.08361423 1.22265625 5.44140625 C0 3 0 3 0 0 Z " fill="#FFFFFF" transform="translate(1028,495)"/>
<path d="M0 0 C18.15 0 36.3 0 55 0 C55 48.84 55 97.68 55 148 C84.37 148 113.74 148 144 148 C144 164.17 144 180.34 144 197 C96.48 197 48.96 197 0 197 C0 131.99 0 66.98 0 0 Z " fill="#FFFFFF" transform="translate(1255,218)"/>
<path d="M0 0 C18.48 0 36.96 0 56 0 C56 65.01 56 130.02 56 197 C37.52 197 19.04 197 0 197 C0 131.99 0 66.98 0 0 Z " fill="#FFFFFF" transform="translate(1643,495)"/>
<path d="M0 0 C6.66840089 5.28117881 9.27362632 12.0150901 10.27734375 20.28515625 C10.58319028 27.22175566 8.88091234 33.86514609 5.3125 39.8125 C-1.500072 46.25682487 -8.65334773 48.96811104 -17.9375 49.3125 C-26.68522264 49.05797208 -32.13177663 46.54560884 -38.2734375 40.328125 C-44.00995896 32.59290602 -43.95128615 24.17764641 -43 15 C-41.01650425 8.11506585 -37.13007467 2.74478352 -31 -1 C-21.0423095 -5.95998599 -9.68117678 -5.32164065 0 0 Z " fill="#FFFFFF" transform="translate(1183,155)"/>
<path d="M0 0 C4.73373541 3.60835681 8.85830202 8.00351422 10 14 C10.79705422 24.04737358 10.63026665 31.89800363 4.6875 40.25 C-1.47383972 46.55462669 -7.626675 49.03187033 -16.375 49.3125 C-24.7175775 49.10707402 -31.14715224 46.94918201 -37.26953125 41.14453125 C-42.01355381 35.26537011 -43.66796212 27.92819689 -43.32421875 20.484375 C-42.46813019 13.92446751 -40.92395655 7.65779674 -36 3 C-25.04506599 -5.02267116 -12.11701543 -7.12765613 0 0 Z " fill="#FFFFFF" transform="translate(1118,155)"/>
</svg>
