<?xml version="1.0" encoding="UTF-8" standalone="no"?>
<svg
   version="1.1"
   width="954"
   height="697.03015"
   id="svg38"
   sodipodi:docname="UY-yazisiz.svg"
   inkscape:version="1.2.2 (732a01da63, 2022-12-09)"
   xmlns:inkscape="http://www.inkscape.org/namespaces/inkscape"
   xmlns:sodipodi="http://sodipodi.sourceforge.net/DTD/sodipodi-0.dtd"
   xmlns="http://www.w3.org/2000/svg"
   xmlns:svg="http://www.w3.org/2000/svg">
  <defs
     id="defs42" />
  <sodipodi:namedview
     id="namedview40"
     pagecolor="#ffffff"
     bordercolor="#000000"
     borderopacity="0.25"
     inkscape:showpageshadow="2"
     inkscape:pageopacity="0.0"
     inkscape:pagecheckerboard="0"
     inkscape:deskcolor="#d1d1d1"
     showgrid="false"
     inkscape:zoom="0.14132717"
     inkscape:cx="725.26746"
     inkscape:cy="972.91976"
     inkscape:window-width="1920"
     inkscape:window-height="991"
     inkscape:window-x="-9"
     inkscape:window-y="-9"
     inkscape:window-maximized="1"
     inkscape:current-layer="svg38" />
  <path
     d="m 476,215.5683 c 39.6,0 79.2,0 120,0 0.66,11.55 1.32,23.1 2,35 0.74046,6.13824 1.50408,12.13127 2.625,18.1875 0.26211,1.4864 0.52415,2.97281 0.78613,4.45923 11.76082,65.30219 38.85865,128.87441 84.32715,177.91186 1.94109,2.0953 3.83156,4.21846 5.69922,6.37891 1.18603,1.35546 2.3737,2.70947 3.5625,4.0625 0.82113,0.93844 1.64227,1.87687 2.48828,2.84375 6.02591,6.78834 12.2849,12.62081 19.51172,18.15625 3.89076,-1.59584 6.3684,-4.10996 9.32422,-7.05859 0.5057,-0.50379 1.0114,-1.00758 1.53242,-1.52663 1.07068,-1.06931 2.13884,-2.14115 3.20464,-3.21532 1.59663,-1.60718 3.20343,-3.20361 4.81177,-4.79907 6.48448,-6.47475 12.4846,-13.16541 18.12695,-20.40039 0.62415,-0.79575 1.2483,-1.59151 1.89136,-2.41138 41.94484,-54.05181 65.81184,-116.22741 74.92114,-183.77612 0.0994,-0.73499 0.19874,-1.46998 0.30112,-2.22724 1.66612,-12.50585 2.74305,-25.00867 3.88638,-37.58526 39.27,0 78.54,0 119,0 0,98.9312 -27.02405,193.96758 -85,275 -0.57637,0.80695 -1.15274,1.61391 -1.74658,2.44531 -6.57763,9.16522 -13.32588,18.09726 -20.71826,26.6211 -2.52156,2.91786 -4.97432,5.88146 -7.41016,8.87109 -0.72445,0.88816 -1.44891,1.77633 -2.19531,2.69141 -1.14166,1.4028 -2.28259,2.80621 -3.42188,4.21093 -2.66532,3.25302 -5.52252,6.20105 -8.50781,9.16016 -0.825,0.825 -1.65,1.65 -2.5,2.5 -7.5,7.5 -7.5,7.5 -10.01172,10.00781 -1.63284,1.63541 -3.26064,3.27589 -4.88281,4.92188 -5.03135,5.08824 -10.14862,9.94489 -15.60547,14.57031 -0.93199,0.80953 -1.86398,1.61906 -2.82422,2.45312 -7.78506,6.72747 -15.88525,12.93742 -24.1626,19.04395 -1.93396,1.44379 -3.84186,2.91555 -5.74365,4.40137 -76.47819,59.40752 -174.99558,91.05734 -277.2041,90.55108 -4.01599,-0.0161 -8.03175,-0.006 -12.04774,0.004 C 449.14686,697.0615 428.6659,696.8039 408,693.5683 c -1.40673,-0.20236 -2.81369,-0.40312 -4.22095,-0.60181 -3.37512,-0.49929 -6.73214,-1.05312 -10.09155,-1.64819 -1.18892,-0.20907 -2.37784,-0.41814 -3.60278,-0.63354 C 306.36771,675.48297 231.21749,637.45914 166,583.5683 c -0.61021,-0.5029 -1.22042,-1.00579 -1.84912,-1.52393 -7.47746,-6.1907 -14.50565,-12.67618 -21.30786,-19.60327 -2.99735,-3.04943 -6.01248,-5.9835 -9.28052,-8.7478 -3.21601,-2.73326 -5.93883,-5.69557 -8.66406,-8.91406 -2.15305,-2.50746 -4.39824,-4.91537 -6.64844,-7.33594 -5.23154,-5.74367 -10.00156,-11.77772 -14.73877,-17.93115 -1.56618,-2.01454 -3.15863,-4.00582 -4.75732,-5.99463 C 77.33129,486.71233 60.35738,457.16428 45,426.5683 44.49694,425.57153 43.99389,424.57476 43.47559,423.54779 11.50375,359.84062 0,290.23382 0,219.5683 c 39.27,0 78.54,0 119,0 0.99,16.335 0.99,16.335 2,33 3.8793,28.70685 9.52028,56.58902 19,84 0.44183,1.31194 0.44183,1.31194 0.89258,2.65039 11.88527,35.19377 29.57501,69.48516 53.10742,98.34961 1.02806,1.28197 2.05537,2.56456 3.08203,3.84766 3.2741,4.07729 6.58801,8.1206 9.91797,12.15234 0.49758,0.60489 0.99516,1.20979 1.50781,1.83301 10.12236,12.25373 21.001,23.97022 33.51953,33.81543 2.28052,1.80404 4.50949,3.63618 6.72657,5.51562 14.4689,12.22385 29.77891,23.33558 46.25879,32.70557 1.39366,0.79271 2.78331,1.59248 4.16992,2.39746 48.95312,28.36797 107.11642,45.46962 163.81738,46.73291 1.73588,0.0408 1.73588,0.0408 3.50684,0.0825 44.7489,0.89273 88.21977,-5.83406 130.61816,-20.39502 0.94786,-0.32525 1.89573,-0.65049 2.87231,-0.9856 4.19347,-1.49597 7.50542,-2.88738 11.00269,-5.7019 -0.92941,-0.91781 -1.85883,-1.83563 -2.81641,-2.78125 C 595.17198,533.89334 595.17198,533.89334 590,527.5683 c -0.398,-0.4842 -0.796,-0.96841 -1.20605,-1.46729 C 522.71509,445.45228 483.99522,351.50613 476,215.5683 Z"
     fill="#40bca9"
     id="path2" />
  <path
     d="m 0,219.5683 c 39.27,0 78.54,0 119,0 0.99,16.335 0.99,16.335 2,33 3.8793,28.70685 9.52028,56.58902 19,84 0.44183,1.31194 0.44183,1.31194 0.89258,2.65039 11.88527,35.19377 29.57501,69.48516 53.10742,98.34961 1.02806,1.28197 2.05537,2.56456 3.08203,3.84766 3.2741,4.07729 6.58801,8.1206 9.91797,12.15234 0.49758,0.60489 0.99516,1.20979 1.50781,1.83301 10.12236,12.25373 21.001,23.97022 33.51953,33.81543 2.28052,1.80404 4.50949,3.63618 6.72657,5.51562 14.4689,12.22385 29.77891,23.33558 46.25879,32.70557 1.39366,0.79271 2.78331,1.59248 4.16992,2.39746 45.94356,26.62396 100.62292,43.90318 153.86425,46.11182 1.40341,0.0648 2.80681,0.12971 4.21021,0.19458 2.72955,0.1241 5.45524,0.202 8.18701,0.25341 7.17182,0.29705 11.83773,0.85231 16.91333,6.15503 2.1407,2.63006 4.21903,5.28033 6.18994,8.04053 2.39058,3.2544 5.12466,6.16613 7.89014,9.10254 0.59982,0.63889 1.19963,1.27778 1.81763,1.93604 9.1606,9.6481 18.89491,18.64754 29.29174,26.94677 2.27123,1.84447 4.42542,3.76202 6.57813,5.74219 18.30182,16.41638 40.88447,34.25473 62.875,45.25 -0.33,0.99 -0.66,1.98 -1,3 -2.17969,0.94922 -2.17969,0.94922 -4.875,1.6875 -0.8843,0.25137 -1.76859,0.50273 -2.67969,0.76172 C 586,685.5683 586,685.5683 583,685.5683 c 0,0.66 0,1.32 0,2 -33.79494,7.54622 -66.43891,9.64573 -100.93457,9.44952 -4.01599,-0.0161 -8.03175,-0.006 -12.04774,0.004 C 449.14687,697.0615 428.6659,696.8039 408,693.5683 c -1.40673,-0.20236 -2.81369,-0.40312 -4.22095,-0.60181 -3.37512,-0.49929 -6.73214,-1.05312 -10.09155,-1.64819 -1.18892,-0.20907 -2.37784,-0.41814 -3.60278,-0.63354 C 306.36771,675.48297 231.21749,637.45914 166,583.5683 c -0.61021,-0.5029 -1.22042,-1.00579 -1.84912,-1.52393 -7.47746,-6.1907 -14.50565,-12.67618 -21.30786,-19.60327 -2.99735,-3.04943 -6.01248,-5.9835 -9.28052,-8.7478 -3.21601,-2.73326 -5.93883,-5.69557 -8.66406,-8.91406 -2.15305,-2.50746 -4.39824,-4.91537 -6.64844,-7.33594 -5.23154,-5.74367 -10.00156,-11.77772 -14.73877,-17.93115 -1.56618,-2.01454 -3.15863,-4.00582 -4.757324,-5.99463 C 77.331286,486.71233 60.357375,457.16428 45,426.5683 44.496943,425.57153 43.993887,424.57476 43.475586,423.54779 11.503746,359.84062 0,290.23382 0,219.5683 Z"
     fill="#d02027"
     id="path4" />
  <path
     d="m 704.5,1.0682984 c 1.29809,-0.015469 2.59617,-0.030938 3.93359,-0.046875 19.55533,0.078143 37.07011,7.5225104 51.07325,21.0302726 14.3779,14.60359 22.24789,33.666381 22.68066,54.141602 -0.30225,24.058892 -9.55832,44.059132 -26.55859,60.695312 C 739.82268,150.4825 719.54207,155.85875 699,154.5683 c -22.23258,-2.13359 -41.58515,-11.72528 -56,-29 C 630.87182,109.07558 624.77719,88.196269 627.50391,67.798767 630.86281,46.554641 640.85576,27.976294 657.99219,14.634704 672.27246,4.8239751 687.27117,0.86298955 704.5,1.0682984 Z"
     fill="#d21e25"
     id="path24" />
  <path
     d="m 281,6.5682984 c 1.14855,0.5194922 2.29711,1.0389844 3.48047,1.5742187 7.58297,3.7434949 13.5991,8.4261479 19.51953,14.4257809 0.77086,0.760547 1.54172,1.521094 2.33594,2.304687 14.25125,14.834926 20.18009,32.669982 19.8789,53.011719 -0.7294,21.641957 -7.99328,40.155556 -23.21484,55.683596 -0.66516,0.70125 -1.33031,1.4025 -2.01563,2.125 -13.84252,13.52552 -34.35744,19.13409 -53.21752,19.12378 -20.66164,-0.30772 -40.1999,-8.78144 -54.93873,-23.22534 C 178.21429,116.47227 171.45952,96.789446 171.78516,75.997985 172.53565,54.919019 180.20355,36.619416 195,21.568298 c 0.61488,-0.627773 1.22977,-1.255547 1.86328,-1.902344 C 217.92226,-0.22057204 254.76626,-5.8416736 281,6.5682984 Z"
     fill="#d21e25"
     id="path26" />
</svg>
